<svg width="80" height="80" viewBox="0 0 80 80" fill="none" xmlns="http://www.w3.org/2000/svg">
<path d="M78.75 40.3501C78.75 61.7512 61.4011 79.1001 40 79.1001C18.5989 79.1001 1.25 61.7512 1.25 40.3501C1.25 18.949 18.5989 1.6001 40 1.6001C61.4011 1.6001 78.75 18.949 78.75 40.3501ZM35.5178 60.8679L64.2678 32.1179C65.2441 31.1417 65.2441 29.5587 64.2678 28.5824L60.7323 25.047C59.7561 24.0706 58.1731 24.0706 57.1967 25.047L33.75 48.4935L22.8033 37.5468C21.827 36.5706 20.2441 36.5706 19.2677 37.5468L15.7322 41.0823C14.7559 42.0585 14.7559 43.6415 15.7322 44.6177L31.9822 60.8677C32.9586 61.8442 34.5414 61.8442 35.5178 60.8679Z" fill="#30C97F"/>
</svg>
