<svg width="24" height="24" viewBox="0 0 24 24" fill="none" xmlns="http://www.w3.org/2000/svg">
<g clip-path="url(#clip0_99_3101)">
<path d="M0.00012207 5.39286V19.3571C0.00012207 20.6429 0.502214 21.7857 1.30556 22.6786C2.10891 23.5357 3.14657 24 4.35159 24H10.9123V21.1071H4.35159C3.44782 21.1071 2.74489 20.3214 2.74489 19.3571V5.39286C2.74489 4.42857 3.44782 3.67857 4.35159 3.67857H10.9123V0.75H4.35159C3.14657 0.75 2.10891 1.25 1.30556 2.10714C0.502214 3 0.00012207 4.10714 0.00012207 5.39286ZM7.19677 9.60714V15.1786C7.19677 15.8214 7.73234 16.3571 8.33485 16.3571H14.3934V20.75C14.3934 21.1429 14.5943 21.4643 14.929 21.6429C15.0629 21.6786 15.1968 21.6786 15.2637 21.6786C15.498 21.6786 15.6989 21.6071 15.8662 21.4286L23.7323 13.0357C24.1005 12.7143 24.0671 12.0714 23.7323 11.7143L15.8662 3.35714C15.3976 2.82143 14.3934 3.14286 14.3934 4V8.42857H8.33485C7.73234 8.42857 7.19677 8.96429 7.19677 9.60714Z" fill="white"/>
</g>
<defs>
<clipPath id="clip0_99_3101">
<rect width="24" height="24" fill="white" transform="translate(0.00012207)"/>
</clipPath>
</defs>
</svg>
