<svg width="150" height="150" viewBox="0 0 150 150" fill="none" xmlns="http://www.w3.org/2000/svg">
<path d="M126.618 114.179H23.3832C20.1471 114.179 17.5238 111.555 17.5238 108.319V43.4531C17.5238 40.217 20.1471 37.5938 23.3832 37.5938H126.618C129.854 37.5938 132.477 40.217 132.477 43.4531V108.319C132.477 111.555 129.854 114.179 126.618 114.179Z" fill="white"/>
<path d="M76.7855 65.5381L132.478 108.319C132.478 111.555 129.854 114.178 126.618 114.178H23.3832C20.1471 114.178 17.5238 111.555 17.5238 108.319L73.216 65.5381C74.2687 64.7295 75.7329 64.7295 76.7855 65.5381Z" fill="white"/>
<path d="M73.216 86.2342L17.5238 43.4531C17.5238 40.217 20.1471 37.5938 23.3832 37.5938H126.618C129.854 37.5938 132.477 40.217 132.477 43.4531L76.7855 86.2342C75.7329 87.0425 74.2687 87.0425 73.216 86.2342Z" fill="white"/>
<path d="M108.691 106.383H99.2768C98.4676 106.383 97.812 105.727 97.812 104.918V98.4277C97.812 97.6188 98.4676 96.9629 99.2768 96.9629H108.691C109.5 96.9629 110.156 97.6188 110.156 98.4277V104.918C110.156 105.727 109.5 106.383 108.691 106.383Z" fill="#FFD270"/>
<path d="M91.3734 100.412H83.2192C82.41 100.412 81.7544 99.7562 81.7544 98.9473C81.7544 98.1384 82.41 97.4824 83.2192 97.4824H91.3734C92.1826 97.4824 92.8382 98.1384 92.8382 98.9473C92.8382 99.7562 92.1826 100.412 91.3734 100.412Z" fill="#252647"/>
<path d="M91.3734 106.383H62.7114C61.9022 106.383 61.2466 105.727 61.2466 104.918C61.2466 104.109 61.9022 103.453 62.7114 103.453H91.3734C92.1826 103.453 92.8382 104.109 92.8382 104.918C92.8382 105.727 92.1826 106.383 91.3734 106.383Z" fill="#252647"/>
<path d="M139.416 48.351C141.267 36.9299 133.51 26.1703 122.088 24.3188C110.667 22.4674 99.9076 30.2251 98.0562 41.6463C96.2047 53.0675 103.962 63.8271 115.384 65.6785C126.805 67.53 137.564 59.7722 139.416 48.351Z" fill="#FFD270"/>
<path d="M118.75 67.4142C131.11 67.4142 141.167 57.3581 141.167 44.9972C141.167 32.6362 131.111 22.5801 118.75 22.5801C106.389 22.5801 96.3327 32.6362 96.3327 44.9972C96.3327 52.1878 99.7396 58.5938 105.02 62.6986L75.8932 85.0732C75.3685 85.4769 74.6343 85.4772 74.1084 85.0732L19.0414 42.7727C19.3698 40.6721 21.1921 39.0596 23.3832 39.0596H90.5803C91.3895 39.0596 92.0451 38.4036 92.0451 37.5947C92.0451 36.7858 91.3895 36.1299 90.5803 36.1299H23.3832C19.3446 36.1299 16.059 39.4155 16.059 43.4541V108.32C16.059 112.359 19.3446 115.645 23.3832 115.645H126.618C130.657 115.645 133.942 112.359 133.942 108.32V69.6074C133.942 68.7985 133.287 68.1426 132.477 68.1426C131.668 68.1426 131.013 68.7985 131.013 69.6074V105.348L92.6609 75.8872L107.585 64.4233C110.875 66.3218 114.686 67.4142 118.75 67.4142ZM57.3406 75.8872L18.9887 105.348V46.4266L57.3406 75.8872ZM130.955 108.998C130.627 111.1 128.81 112.715 126.618 112.715H23.3832C21.1909 112.715 19.3739 111.1 19.0464 108.998L59.7453 77.7344L72.3236 87.3965C73.1117 88.0017 74.0563 88.3047 75.0008 88.3047C75.9453 88.3047 76.8896 88.002 77.6779 87.3965L90.2562 77.7341L130.955 108.998ZM99.2624 44.9972C99.2624 34.252 108.004 25.5098 118.75 25.5098C129.495 25.5098 138.237 34.2517 138.237 44.9972C138.237 55.7424 129.495 64.4846 118.75 64.4846C108.004 64.4846 99.2624 55.7424 99.2624 44.9972Z" fill="#252647"/>
<path d="M109.604 37.851L112.594 44.9962L109.604 52.1415C109.097 53.3549 110.322 54.5708 111.531 54.054L129.584 46.3433C130.77 45.8368 130.77 44.1557 129.584 43.6492L111.531 35.9385C110.322 35.4217 109.097 36.6376 109.604 37.851Z" fill="white"/>
</svg>
