<svg width="150" height="150" viewBox="0 0 150 150" fill="none" xmlns="http://www.w3.org/2000/svg">
<path d="M120.418 51.9062V112.647C120.418 119.119 115.171 124.366 108.699 124.366H54.3274V48.9766H117.489C118.962 48.9766 120.184 50.0664 120.386 51.4844C120.409 51.6221 120.418 51.7627 120.418 51.9062Z" fill="white"/>
<path d="M107.226 124.365H37.2063C30.7346 124.365 25.4876 119.118 25.4876 112.646V31.2012C25.4876 29.584 26.8001 28.2715 28.4173 28.2715H92.5774C94.1946 28.2715 95.5071 29.584 95.5071 31.2012V112.646C95.5071 119.118 100.754 124.365 107.226 124.365Z" fill="white"/>
<path d="M95.5071 53.2225V31.2012C95.5071 29.584 94.1946 28.2715 92.5774 28.2715H28.4173C26.8001 28.2715 25.4876 29.584 25.4876 31.2012V53.2225H95.5071Z" fill="#FFD270"/>
<path d="M84.3079 96.0801H36.1388C35.3296 96.0801 34.674 95.4241 34.674 94.6152C34.674 93.8063 35.3296 93.1504 36.1388 93.1504H84.3079C85.1171 93.1504 85.7727 93.8063 85.7727 94.6152C85.7727 95.4244 85.1171 96.0801 84.3079 96.0801Z" fill="#252647"/>
<path d="M64.5773 109.781H36.142C35.3328 109.781 34.6772 109.125 34.6772 108.316C34.6772 107.508 35.3328 106.852 36.142 106.852H64.5773C65.3865 106.852 66.0421 107.508 66.0421 108.316C66.0421 109.125 65.3862 109.781 64.5773 109.781Z" fill="#252647"/>
<path d="M84.3079 78.502H36.1388C35.3296 78.502 34.674 77.846 34.674 77.0371C34.674 76.2282 35.3296 75.5723 36.1388 75.5723H84.3079C85.1171 75.5723 85.7727 76.2282 85.7727 77.0371C85.7727 77.8463 85.1171 78.502 84.3079 78.502Z" fill="#252647"/>
<path d="M84.3079 84.3613H36.1388C35.3296 84.3613 34.674 83.7054 34.674 82.8965C34.674 82.0876 35.3296 81.4316 36.1388 81.4316H84.3079C85.1171 81.4316 85.7727 82.0876 85.7727 82.8965C85.7727 83.7057 85.1171 84.3613 84.3079 84.3613Z" fill="#252647"/>
<path d="M84.3079 90.2207H36.1388C35.3296 90.2207 34.674 89.5647 34.674 88.7559C34.674 87.947 35.3296 87.291 36.1388 87.291H84.3079C85.1171 87.291 85.7727 87.947 85.7727 88.7559C85.7727 89.565 85.1171 90.2207 84.3079 90.2207Z" fill="#252647"/>
<path d="M48.7678 60.9238H36.1388C35.3296 60.9238 34.674 60.2679 34.674 59.459C34.674 58.6501 35.3296 57.9941 36.1388 57.9941H48.7678C49.577 57.9941 50.2326 58.6501 50.2326 59.459C50.2326 60.2682 49.577 60.9238 48.7678 60.9238Z" fill="#252647"/>
<path d="M48.7678 48.3262H36.1388C35.3296 48.3262 34.674 47.6702 34.674 46.8613C34.674 46.0524 35.3296 45.3965 36.1388 45.3965H48.7678C49.577 45.3965 50.2326 46.0524 50.2326 46.8613C50.2326 47.6705 49.577 48.3262 48.7678 48.3262Z" fill="#252647"/>
<path d="M48.7678 43.0098H36.1388C35.3296 43.0098 34.674 42.3538 34.674 41.5449C34.674 40.736 35.3296 40.0801 36.1388 40.0801H48.7678C49.577 40.0801 50.2326 40.736 50.2326 41.5449C50.2326 42.3538 49.577 43.0098 48.7678 43.0098Z" fill="#252647"/>
<path d="M82.8102 43.0098H79.8491C79.0399 43.0098 78.3843 42.3538 78.3843 41.5449C78.3843 40.736 79.0399 40.0801 79.8491 40.0801H82.8102C83.6194 40.0801 84.275 40.736 84.275 41.5449C84.275 42.3538 83.6194 43.0098 82.8102 43.0098Z" fill="#252647"/>
<path d="M84.3079 66.7832H36.1388C35.3296 66.7832 34.674 66.1272 34.674 65.3184C34.674 64.5095 35.3296 63.8535 36.1388 63.8535H84.3079C85.1171 63.8535 85.7727 64.5095 85.7727 65.3184C85.7727 66.1275 85.1171 66.7832 84.3079 66.7832Z" fill="#252647"/>
<path d="M84.3079 72.6426H36.1388C35.3296 72.6426 34.674 71.9866 34.674 71.1777C34.674 70.3688 35.3296 69.7129 36.1388 69.7129H84.3079C85.1171 69.7129 85.7727 70.3688 85.7727 71.1777C85.7727 71.9869 85.1171 72.6426 84.3079 72.6426Z" fill="#252647"/>
<path d="M84.7115 50.9557C84.7115 48.1962 82.4664 45.9512 79.707 45.9512C76.9475 45.9512 74.7025 48.1962 74.7025 50.9557C74.7025 52.3168 75.25 53.5508 76.1348 54.454C75.2503 55.3572 74.7025 56.5915 74.7025 57.9523C74.7025 58.7841 75.3769 59.4585 76.2086 59.4585C77.0404 59.4585 77.7148 58.7841 77.7148 57.9523C77.7148 56.854 78.6083 55.9602 79.707 55.9602C80.8053 55.9602 81.6992 56.8537 81.6992 57.9523C81.6992 58.7841 82.3736 59.4585 83.2053 59.4585C84.037 59.4585 84.7115 58.7841 84.7115 57.9523C84.7115 56.5915 84.1639 55.3572 83.2791 54.454C84.1639 53.5508 84.7115 52.3165 84.7115 50.9557ZM79.707 48.9635C80.8053 48.9635 81.6992 49.857 81.6992 50.9557C81.6992 52.054 80.8056 52.9478 79.707 52.9478C78.6086 52.9478 77.7148 52.054 77.7148 50.9557C77.7148 49.857 78.6086 48.9635 79.707 48.9635Z" fill="#252647"/>
<path d="M72.6585 106.352L64.3827 109.622C63.1903 110.093 62.0108 108.914 62.4819 107.721L65.7518 99.4452C66.1678 98.3926 66.7953 97.4363 67.5957 96.6359L129.975 34.2573C132.149 32.0835 135.673 32.0835 137.847 34.2573C140.021 36.4312 140.021 39.9556 137.847 42.1294L75.4678 104.508C74.6674 105.309 73.7111 105.937 72.6585 106.352Z" fill="#FFD270"/>
<path d="M123.999 40.2227L125.967 38.2549L133.838 46.1258L131.87 48.0935L123.999 40.2227Z" fill="white"/>
<path d="M113.942 50.2793L122.175 42.0459L130.046 49.9168L121.813 58.1502L113.942 50.2793Z" fill="white"/>
<path d="M110.852 59.1852L119.782 50.2552C120.354 49.683 121.282 49.6833 121.854 50.2552C122.426 50.8271 122.426 51.7546 121.854 52.3268L112.924 61.2568C112.351 61.8289 111.424 61.8286 110.852 61.2568C110.28 60.6849 110.28 59.7573 110.852 59.1852Z" fill="#252647"/>
<path d="M128.943 33.2209L114.654 47.5096H105.365C104.557 47.5096 103.901 48.1652 103.901 48.9744C103.901 49.7836 104.557 50.4393 105.365 50.4393H111.725L96.9687 65.1949V31.2012C96.9687 28.7777 94.9973 26.8066 92.5742 26.8066H28.414C25.9909 26.8066 24.0195 28.7777 24.0195 31.2012V112.646C24.0195 119.916 29.9337 125.83 37.2031 125.83H54.3157H108.687C115.957 125.83 121.871 119.916 121.871 112.646V60.3026C121.871 60.2645 121.863 60.2288 121.86 60.1913L138.887 43.1646C141.628 40.4232 141.628 35.9625 138.887 33.2212C136.146 30.4796 131.685 30.4793 128.943 33.2209ZM118.942 112.646C118.942 118.3 114.342 122.9 108.688 122.9H107.223C101.569 122.9 96.969 118.3 96.969 112.646V94.6145C96.969 93.8054 96.3131 93.1497 95.5042 93.1497C94.6953 93.1497 94.0393 93.8054 94.0393 94.6145V112.646C94.0393 116.783 95.9548 120.481 98.9454 122.9H54.316H37.2034C31.5494 122.9 26.9495 118.3 26.9495 112.646V31.2012C26.9495 30.3935 27.6066 29.7363 28.4143 29.7363H92.5745C93.3822 29.7363 94.0393 30.3935 94.0393 31.2012V68.1249L66.5644 95.5998C65.6167 96.5473 64.8863 97.66 64.3938 98.9068L61.124 107.183C60.6881 108.286 60.9383 109.492 61.777 110.331C62.343 110.897 63.0766 111.195 63.8328 111.195C64.1972 111.195 64.5667 111.126 64.9256 110.984L73.2016 107.714C74.4479 107.221 75.5606 106.491 76.5087 105.543L118.942 63.1096V112.646H118.942ZM136.815 41.0933L74.4365 103.472C73.7738 104.135 72.996 104.646 72.1244 104.99L63.8483 108.26L67.1184 99.9835C67.4627 99.1119 67.973 98.3344 68.6357 97.6717L131.015 35.2925C131.814 34.493 132.865 34.0931 133.915 34.0931C134.966 34.0931 136.016 34.493 136.815 35.2925C138.414 36.8918 138.414 39.4939 136.815 41.0933Z" fill="#252647"/>
</svg>
