<svg width="70" height="70" viewBox="0 0 70 70" fill="none" xmlns="http://www.w3.org/2000/svg">
<path d="M32.5857 5.86328H13.2754V30.0012H32.5857V5.86328Z" fill="#F4B01A"/>
<path d="M13.2759 70H56.7242C60.0516 70 62.7586 67.2929 62.7586 63.9655V6.03448C62.7586 2.70707 60.0516 0 56.7242 0H13.2759C9.94846 0 7.24139 2.70707 7.24139 6.03448V63.9655C7.24139 67.2929 9.94846 70 13.2759 70ZM9.65519 6.03448C9.65519 4.03828 11.2797 2.41379 13.2759 2.41379H56.7242C58.7204 2.41379 60.3448 4.03828 60.3448 6.03448V63.9655C60.3448 65.9617 58.7204 67.5862 56.7242 67.5862H13.2759C11.2797 67.5862 9.65519 65.9617 9.65519 63.9655V6.03448Z" fill="white"/>
<path d="M13.2759 31.3798H32.5862C33.2536 31.3798 33.7931 30.8404 33.7931 30.173V6.03502C33.7931 5.36761 33.2536 4.82812 32.5862 4.82812H13.2759C12.6085 4.82812 12.069 5.36761 12.069 6.03502V30.173C12.069 30.8404 12.6085 31.3798 13.2759 31.3798ZM14.4828 7.24192H31.3793V28.9661H14.4828V7.24192Z" fill="white"/>
<path d="M37.4138 12.0681H51.8966C52.564 12.0681 53.1034 11.5286 53.1034 10.8612C53.1034 10.1938 52.564 9.6543 51.8966 9.6543H37.4138C36.7464 9.6543 36.2069 10.1938 36.2069 10.8612C36.2069 11.5286 36.7464 12.0681 37.4138 12.0681Z" fill="white"/>
<path d="M37.4138 16.8962H56.7241C57.3916 16.8962 57.931 16.3567 57.931 15.6893C57.931 15.0219 57.3916 14.4824 56.7241 14.4824H37.4138C36.7464 14.4824 36.2069 15.0219 36.2069 15.6893C36.2069 16.3567 36.7464 16.8962 37.4138 16.8962Z" fill="white"/>
<path d="M56.7241 62.7578H42.2414C41.574 62.7578 41.0345 63.2973 41.0345 63.9647C41.0345 64.6321 41.574 65.1716 42.2414 65.1716H56.7241C57.3916 65.1716 57.931 64.6321 57.931 63.9647C57.931 63.2973 57.3916 62.7578 56.7241 62.7578Z" fill="white"/>
<path d="M27.7586 38.6211C27.0912 38.6211 26.5517 39.1606 26.5517 39.828C26.5517 40.4954 27.0912 41.0349 27.7586 41.0349H42.2414C42.9088 41.0349 43.4483 40.4954 43.4483 39.828C43.4483 39.1606 42.9088 38.6211 42.2414 38.6211H27.7586Z" fill="white"/>
<path d="M13.2759 45.863H56.7241C57.3916 45.863 57.931 45.3235 57.931 44.6561C57.931 43.9887 57.3916 43.4492 56.7241 43.4492H13.2759C12.6085 43.4492 12.069 43.9887 12.069 44.6561C12.069 45.3235 12.6085 45.863 13.2759 45.863Z" fill="white"/>
<path d="M13.2759 50.6892H56.7241C57.3916 50.6892 57.931 50.1497 57.931 49.4823C57.931 48.8149 57.3916 48.2754 56.7241 48.2754H13.2759C12.6085 48.2754 12.069 48.8149 12.069 49.4823C12.069 50.1497 12.6085 50.6892 13.2759 50.6892Z" fill="white"/>
<path d="M13.2759 55.5173H56.7241C57.3916 55.5173 57.931 54.9778 57.931 54.3104C57.931 53.643 57.3916 53.1035 56.7241 53.1035H13.2759C12.6085 53.1035 12.069 53.643 12.069 54.3104C12.069 54.9778 12.6085 55.5173 13.2759 55.5173Z" fill="white"/>
</svg>
