<svg width="70" height="70" viewBox="0 0 70 70" fill="none" xmlns="http://www.w3.org/2000/svg">
<g clip-path="url(#clip0_833_4189)">
<path d="M63.9652 16.5179L49.4824 2.03516V11.6903C49.4824 14.3455 51.6548 16.5179 54.31 16.5179H63.9652Z" fill="#F4B01A"/>
<path d="M50.3276 0.362069C50.2069 0.241379 50.0862 0.241379 49.9655 0.12069H49.8448C49.7241 0.12069 49.6034 0.12069 49.4827 0C49.4827 0 49.4827 0 49.3621 0H10.8621C7.48275 0 4.82758 2.65517 4.82758 6.03448V63.9655C4.82758 67.3448 7.48275 70 10.8621 70H59.1379C62.5172 70 65.1724 67.3448 65.1724 63.9655V15.6897C65.1724 15.6897 65.1724 15.6897 65.1724 15.569C65.1724 15.4483 65.1724 15.3276 65.0517 15.2069V15.0862C65.0517 14.9655 64.931 14.8448 64.8103 14.7241L50.3276 0.362069ZM59.1379 67.5862H10.8621C8.81033 67.5862 7.24137 66.0172 7.24137 63.9655V6.03448C7.24137 3.98276 8.81033 2.41379 10.8621 2.41379H48.2759V10.8621C48.2759 14.2414 50.931 16.8966 54.3103 16.8966H62.7586V63.9655C62.7586 66.0172 61.1896 67.5862 59.1379 67.5862ZM54.3103 14.4828C52.2586 14.4828 50.6896 12.9138 50.6896 10.8621V4.10345L61.069 14.4828H54.3103Z" fill="white"/>
<path d="M30.1724 12.0681H39.8276C40.5517 12.0681 41.0345 11.5853 41.0345 10.8612C41.0345 10.1371 40.5517 9.6543 39.8276 9.6543H30.1724C29.4483 9.6543 28.9655 10.1371 28.9655 10.8612C28.9655 11.5853 29.4483 12.0681 30.1724 12.0681Z" fill="white"/>
<path d="M15.6897 21.7243H30.1724C30.8966 21.7243 31.3793 21.2416 31.3793 20.5174C31.3793 19.7933 30.8966 19.3105 30.1724 19.3105H15.6897C14.9655 19.3105 14.4828 19.7933 14.4828 20.5174C14.4828 21.2416 14.9655 21.7243 15.6897 21.7243Z" fill="white"/>
<path d="M15.6897 31.3786H44.6552C45.3793 31.3786 45.8621 30.8959 45.8621 30.1717C45.8621 29.4476 45.3793 28.9648 44.6552 28.9648H15.6897C14.9655 28.9648 14.4828 29.4476 14.4828 30.1717C14.4828 30.8959 14.9655 31.3786 15.6897 31.3786Z" fill="white"/>
<path d="M54.3103 28.9648H49.4827C48.7586 28.9648 48.2758 29.4476 48.2758 30.1717C48.2758 30.8959 48.7586 31.3786 49.4827 31.3786H54.3103C55.0345 31.3786 55.5172 30.8959 55.5172 30.1717C55.5172 29.4476 55.0345 28.9648 54.3103 28.9648Z" fill="white"/>
<path d="M15.6897 41.0349H39.8276C40.5517 41.0349 41.0345 40.5521 41.0345 39.828C41.0345 39.1039 40.5517 38.6211 39.8276 38.6211H15.6897C14.9655 38.6211 14.4828 39.1039 14.4828 39.828C14.4828 40.5521 14.9655 41.0349 15.6897 41.0349Z" fill="white"/>
<path d="M54.3103 38.6211H44.6552C43.931 38.6211 43.4483 39.1039 43.4483 39.828C43.4483 40.5521 43.931 41.0349 44.6552 41.0349H54.3103C55.0345 41.0349 55.5172 40.5521 55.5172 39.828C55.5172 39.1039 55.0345 38.6211 54.3103 38.6211Z" fill="white"/>
<path d="M54.3103 48.2754H15.6897C14.9655 48.2754 14.4828 48.7581 14.4828 49.4823C14.4828 50.2064 14.9655 50.6892 15.6897 50.6892H54.3103C55.0345 50.6892 55.5172 50.2064 55.5172 49.4823C55.5172 48.7581 55.0345 48.2754 54.3103 48.2754Z" fill="white"/>
<path d="M20.5172 57.9316H15.6897C14.9655 57.9316 14.4828 58.4144 14.4828 59.1385C14.4828 59.8627 14.9655 60.3454 15.6897 60.3454H20.5172C21.2414 60.3454 21.7241 59.8627 21.7241 59.1385C21.7241 58.4144 21.2414 57.9316 20.5172 57.9316Z" fill="white"/>
<path d="M54.3103 57.9316H25.3448C24.6207 57.9316 24.1379 58.4144 24.1379 59.1385C24.1379 59.8627 24.6207 60.3454 25.3448 60.3454H54.3103C55.0345 60.3454 55.5172 59.8627 55.5172 59.1385C55.5172 58.4144 55.0345 57.9316 54.3103 57.9316Z" fill="white"/>
<path d="M15.6897 36.2068H25.3448C26.069 36.2068 26.5517 35.724 26.5517 34.9999C26.5517 34.2757 26.069 33.793 25.3448 33.793H15.6897C14.9655 33.793 14.4828 34.2757 14.4828 34.9999C14.4828 35.724 14.9655 36.2068 15.6897 36.2068Z" fill="white"/>
<path d="M54.3103 33.793H30.1724C29.4483 33.793 28.9655 34.2757 28.9655 34.9999C28.9655 35.724 29.4483 36.2068 30.1724 36.2068H54.3103C55.0345 36.2068 55.5172 35.724 55.5172 34.9999C55.5172 34.2757 55.0345 33.793 54.3103 33.793Z" fill="white"/>
<path d="M15.6897 45.863H44.6552C45.3793 45.863 45.8621 45.3803 45.8621 44.6561C45.8621 43.932 45.3793 43.4492 44.6552 43.4492H15.6897C14.9655 43.4492 14.4828 43.932 14.4828 44.6561C14.4828 45.3803 14.9655 45.863 15.6897 45.863Z" fill="white"/>
<path d="M15.6897 55.5173H39.8276C40.5517 55.5173 41.0345 55.0346 41.0345 54.3104C41.0345 53.5863 40.5517 53.1035 39.8276 53.1035H15.6897C14.9655 53.1035 14.4828 53.5863 14.4828 54.3104C14.4828 55.0346 14.9655 55.5173 15.6897 55.5173Z" fill="white"/>
<path d="M54.3103 53.1035H44.6552C43.931 53.1035 43.4483 53.5863 43.4483 54.3104C43.4483 55.0346 43.931 55.5173 44.6552 55.5173H54.3103C55.0345 55.5173 55.5172 55.0346 55.5172 54.3104C55.5172 53.5863 55.0345 53.1035 54.3103 53.1035Z" fill="white"/>
</g>
<defs>
<clipPath id="clip0_833_4189">
<rect width="70" height="70" fill="white"/>
</clipPath>
</defs>
</svg>
