<svg width="150" height="150" viewBox="0 0 150 150" fill="none" xmlns="http://www.w3.org/2000/svg">
<path d="M133.434 125.429H16.5569C14.1299 125.429 12.1624 123.462 12.1624 121.035V28.9648C12.1624 26.5379 14.1299 24.5703 16.5569 24.5703H133.434C135.861 24.5703 137.828 26.5379 137.828 28.9648V121.035C137.828 123.462 135.861 125.429 133.434 125.429Z" fill="white"/>
<path d="M12.1624 60.9551H137.828V117.82H12.1624V60.9551Z" fill="#FFD270"/>
<path d="M29.5011 70.6602H21.8311C21.0223 70.6602 20.3663 71.3161 20.3663 72.125C20.3663 72.9339 21.0223 73.5898 21.8311 73.5898H29.5014C30.3103 73.5898 30.9662 72.9339 30.9662 72.125C30.9659 71.3158 30.3103 70.6602 29.5011 70.6602Z" fill="#252647"/>
<path d="M40.0479 76.6621H21.8311C21.0223 76.6621 20.3663 77.3181 20.3663 78.127C20.3663 78.9358 21.0223 79.5918 21.8311 79.5918H40.0482C40.8571 79.5918 41.5131 78.9358 41.5131 78.127C41.5128 77.3181 40.8571 76.6621 40.0479 76.6621Z" fill="#252647"/>
<path d="M40.0479 82.6641H21.8311C21.0223 82.6641 20.3663 83.32 20.3663 84.1289C20.3663 84.9378 21.0223 85.5938 21.8311 85.5938H40.0482C40.8571 85.5938 41.5131 84.9378 41.5131 84.1289C41.5128 83.32 40.8571 82.6641 40.0479 82.6641Z" fill="#252647"/>
<path d="M40.0479 93.543H21.8311C21.0223 93.543 20.3663 94.1989 20.3663 95.0078C20.3663 95.8167 21.0223 96.4727 21.8311 96.4727H40.0482C40.8571 96.4727 41.5131 95.8167 41.5131 95.0078C41.5128 94.1989 40.8571 93.543 40.0479 93.543Z" fill="#252647"/>
<path d="M40.0479 99.5449H21.8311C21.0223 99.5449 20.3663 100.201 20.3663 101.01C20.3663 101.819 21.0223 102.475 21.8311 102.475H40.0482C40.8571 102.475 41.5131 101.819 41.5131 101.01C41.5128 100.201 40.8571 99.5449 40.0479 99.5449Z" fill="#252647"/>
<path d="M40.0479 105.547H21.8311C21.0223 105.547 20.3663 106.203 20.3663 107.012C20.3663 107.821 21.0223 108.477 21.8311 108.477H40.0482C40.8571 108.477 41.5131 107.821 41.5131 107.012C41.5128 106.203 40.8571 105.547 40.0479 105.547Z" fill="#252647"/>
<path d="M117.609 70.6602H109.939C109.13 70.6602 108.474 71.3161 108.474 72.125C108.474 72.9339 109.13 73.5898 109.939 73.5898H117.609C118.418 73.5898 119.074 72.9339 119.074 72.125C119.074 71.3158 118.418 70.6602 117.609 70.6602Z" fill="#252647"/>
<path d="M128.156 76.6621H109.939C109.13 76.6621 108.474 77.3181 108.474 78.127C108.474 78.9358 109.13 79.5918 109.939 79.5918H128.156C128.965 79.5918 129.621 78.9358 129.621 78.127C129.621 77.3181 128.965 76.6621 128.156 76.6621Z" fill="#252647"/>
<path d="M128.156 82.6641H109.939C109.13 82.6641 108.474 83.32 108.474 84.1289C108.474 84.9378 109.13 85.5938 109.939 85.5938H128.156C128.965 85.5938 129.621 84.9378 129.621 84.1289C129.621 83.32 128.965 82.6641 128.156 82.6641Z" fill="#252647"/>
<path d="M128.156 93.543H109.939C109.13 93.543 108.474 94.1989 108.474 95.0078C108.474 95.8167 109.13 96.4727 109.939 96.4727H128.156C128.965 96.4727 129.621 95.8167 129.621 95.0078C129.621 94.1989 128.965 93.543 128.156 93.543Z" fill="#252647"/>
<path d="M128.156 99.5449H109.939C109.13 99.5449 108.474 100.201 108.474 101.01C108.474 101.819 109.13 102.475 109.939 102.475H128.156C128.965 102.475 129.621 101.819 129.621 101.01C129.621 100.201 128.965 99.5449 128.156 99.5449Z" fill="#252647"/>
<path d="M128.156 105.547H109.939C109.13 105.547 108.474 106.203 108.474 107.012C108.474 107.821 109.13 108.477 109.939 108.477H128.156C128.965 108.477 129.621 107.821 129.621 107.012C129.621 106.203 128.965 105.547 128.156 105.547Z" fill="#252647"/>
<path d="M111.267 58.4434V125.428H38.7223V58.4434C38.7223 56.8262 40.0348 55.5137 41.652 55.5137H108.338C109.955 55.5137 111.267 56.8262 111.267 58.4434Z" fill="white"/>
<path d="M94.0406 125.428H38.7223V81.3828C41.4762 80.8789 44.3151 80.6152 47.2154 80.6152C72.4137 80.6152 92.9654 100.496 94.0406 125.428Z" fill="white"/>
<path d="M111.267 126.893H38.7223C37.9134 126.893 37.2574 126.237 37.2574 125.428V58.4434C37.2574 56.0202 39.2288 54.0488 41.652 54.0488H108.338C110.761 54.0488 112.732 56.0202 112.732 58.4434V125.428C112.732 126.237 112.076 126.893 111.267 126.893ZM40.1871 123.963H109.802V58.4434C109.802 57.6356 109.145 56.9785 108.338 56.9785H41.652C40.8443 56.9785 40.1871 57.6356 40.1871 58.4434V123.963Z" fill="#252647"/>
<path d="M137.828 44.8769V28.9648C137.828 26.5379 135.861 24.5703 133.434 24.5703H16.5569C14.1299 24.5703 12.1624 26.5379 12.1624 28.9648V44.8769H137.828Z" fill="#FFD270"/>
<path d="M133.434 126.894H16.5569C13.326 126.894 10.6975 124.266 10.6975 121.035V28.9648C10.6975 25.734 13.326 23.1055 16.5569 23.1055H133.434C136.665 23.1055 139.293 25.734 139.293 28.9648V121.035C139.293 124.266 136.665 126.894 133.434 126.894ZM16.5569 26.0352C14.9415 26.0352 13.6272 27.3494 13.6272 28.9648V121.035C13.6272 122.65 14.9415 123.965 16.5569 123.965H133.434C135.049 123.965 136.364 122.65 136.364 121.035V28.9648C136.364 27.3494 135.049 26.0352 133.434 26.0352H16.5569Z" fill="#252647"/>
<path d="M25.0788 38.5748C26.8427 38.5748 28.2725 37.145 28.2725 35.3812C28.2725 33.6173 26.8427 32.1875 25.0788 32.1875C23.315 32.1875 21.8852 33.6173 21.8852 35.3812C21.8852 37.145 23.315 38.5748 25.0788 38.5748Z" fill="white"/>
<path d="M35.2776 38.5748C37.0414 38.5748 38.4713 37.145 38.4713 35.3812C38.4713 33.6173 37.0414 32.1875 35.2776 32.1875C33.5138 32.1875 32.084 33.6173 32.084 35.3812C32.084 37.145 33.5138 38.5748 35.2776 38.5748Z" fill="white"/>
<path d="M45.4659 38.5748C47.2297 38.5748 48.6595 37.145 48.6595 35.3812C48.6595 33.6173 47.2297 32.1875 45.4659 32.1875C43.7021 32.1875 42.2722 33.6173 42.2722 35.3812C42.2722 37.145 43.7021 38.5748 45.4659 38.5748Z" fill="white"/>
<path d="M126.626 38.9693H86.7358V31.793H126.626C127.435 31.793 128.091 32.4489 128.091 33.2578V37.5047C128.091 38.3136 127.435 38.9693 126.626 38.9693Z" fill="white"/>
<path d="M86.9482 31.8841C85.3996 30.3355 82.8797 30.3355 81.3311 31.8841C79.7825 33.4328 79.7825 35.9526 81.3311 37.5012C82.5138 38.6839 84.2617 38.9602 85.7119 38.3368L86.9857 39.6106C87.5579 40.1825 88.4854 40.1825 89.0573 39.6106C89.6291 39.0387 89.6291 38.1109 89.0573 37.539L87.7834 36.2652C88.4072 34.8147 88.1309 33.0668 86.9482 31.8841ZM83.4027 33.9557C83.809 33.5494 84.4703 33.5494 84.8766 33.9557C85.2829 34.3621 85.2829 35.0233 84.8766 35.4296C84.4703 35.836 83.809 35.836 83.4027 35.4296C82.9963 35.0233 82.9963 34.3621 83.4027 33.9557Z" fill="#252647"/>
<path d="M69.607 63.1211H53.148C52.3392 63.1211 51.6832 63.7771 51.6832 64.5859C51.6832 65.3948 52.3392 66.0508 53.148 66.0508H69.6073C70.4162 66.0508 71.0722 65.3948 71.0722 64.5859C71.0719 63.7771 70.4162 63.1211 69.607 63.1211Z" fill="#252647"/>
<path d="M96.8531 69.123H53.148C52.3392 69.123 51.6832 69.779 51.6832 70.5879C51.6832 71.3968 52.3392 72.0527 53.148 72.0527H96.8531C97.662 72.0527 98.3179 71.3968 98.3179 70.5879C98.3179 69.7787 97.6623 69.123 96.8531 69.123Z" fill="#252647"/>
<path d="M96.8531 75.125H53.148C52.3392 75.125 51.6832 75.781 51.6832 76.5898C51.6832 77.3987 52.3392 78.0547 53.148 78.0547H96.8531C97.662 78.0547 98.3179 77.3987 98.3179 76.5898C98.3179 75.7807 97.6623 75.125 96.8531 75.125Z" fill="#252647"/>
<path d="M96.8531 86.0059H53.148C52.3392 86.0059 51.6832 86.6618 51.6832 87.4707C51.6832 88.2796 52.3392 88.9355 53.148 88.9355H96.8531C97.662 88.9355 98.3179 88.2796 98.3179 87.4707C98.3179 86.6618 97.6623 86.0059 96.8531 86.0059Z" fill="#252647"/>
<path d="M96.8531 92.0078H53.148C52.3392 92.0078 51.6832 92.6638 51.6832 93.4727C51.6832 94.2815 52.3392 94.9375 53.148 94.9375H96.8531C97.662 94.9375 98.3179 94.2815 98.3179 93.4727C98.3179 92.6638 97.6623 92.0078 96.8531 92.0078Z" fill="#252647"/>
<path d="M96.8531 98.0098H53.148C52.3392 98.0098 51.6832 98.6657 51.6832 99.4746C51.6832 100.283 52.3392 100.939 53.148 100.939H96.8531C97.662 100.939 98.3179 100.283 98.3179 99.4746C98.3179 98.6657 97.6623 98.0098 96.8531 98.0098Z" fill="#252647"/>
<path d="M96.8531 108.889H53.148C52.3392 108.889 51.6832 109.545 51.6832 110.354C51.6832 111.162 52.3392 111.818 53.148 111.818H96.8531C97.662 111.818 98.3179 111.162 98.3179 110.354C98.3179 109.545 97.6623 108.889 96.8531 108.889Z" fill="#252647"/>
<path d="M96.8531 114.891H53.148C52.3392 114.891 51.6832 115.547 51.6832 116.355C51.6832 117.164 52.3392 117.82 53.148 117.82H96.8531C97.662 117.82 98.3179 117.164 98.3179 116.355C98.3179 115.547 97.6623 114.891 96.8531 114.891Z" fill="#252647"/>
<path d="M119.918 59.6305C120.957 55.1711 118.185 50.7134 113.725 49.6741C109.266 48.6348 104.808 51.4073 103.769 55.8668C102.729 60.3263 105.502 64.7839 109.961 65.8233C114.421 66.8626 118.878 64.09 119.918 59.6305Z" fill="white"/>
<path d="M111.843 67.5178C106.464 67.5178 102.088 63.1417 102.088 57.7628C102.088 52.3839 106.464 48.0078 111.843 48.0078C117.221 48.0078 121.598 52.3839 121.598 57.7628C121.598 63.1417 117.221 67.5178 111.843 67.5178ZM111.843 50.9375C108.079 50.9375 105.018 53.9993 105.018 57.7628C105.018 61.5263 108.079 64.5881 111.843 64.5881C115.606 64.5881 118.668 61.5263 118.668 57.7628C118.668 53.9993 115.606 50.9375 111.843 50.9375Z" fill="#252647"/>
<path d="M110.38 62.169C109.942 62.169 109.507 61.9725 109.219 61.598C108.725 60.9567 108.845 60.0371 109.486 59.5434L111.8 57.7622L109.486 55.9809C108.845 55.4873 108.725 54.5677 109.219 53.9264C109.712 53.2856 110.633 53.1664 111.273 53.6595L115.094 56.6015C115.454 56.8786 115.666 57.3075 115.666 57.7622C115.666 58.2169 115.455 58.6458 115.094 58.9229L111.273 61.8649C111.007 62.0697 110.692 62.169 110.38 62.169Z" fill="#252647"/>
</svg>
