<svg width="150" height="150" viewBox="0 0 150 150" fill="none" xmlns="http://www.w3.org/2000/svg">
<path d="M133.437 126.197H16.5598C14.1328 126.197 12.1652 124.23 12.1652 121.803V29.7324C12.1652 27.3055 14.1328 25.3379 16.5598 25.3379H133.437C135.864 25.3379 137.831 27.3055 137.831 29.7324V121.803C137.831 124.23 135.864 126.197 133.437 126.197Z" fill="white"/>
<path d="M133.44 25.3379H61.1794V126.197H133.44C135.867 126.197 137.835 124.229 137.835 121.803V29.7324C137.835 27.3055 135.868 25.3379 133.44 25.3379Z" fill="white"/>
<path d="M137.831 45.6444V29.7324C137.831 27.3055 135.864 25.3379 133.437 25.3379H16.5598C14.1328 25.3379 12.1652 27.3055 12.1652 29.7324V45.6444H137.831Z" fill="#FFD270"/>
<path d="M133.434 127.662H16.5565C13.3257 127.662 10.6971 125.033 10.6971 121.802V29.7324C10.6971 26.5016 13.3257 23.873 16.5565 23.873H133.434C136.665 23.873 139.293 26.5016 139.293 29.7324V121.803C139.293 125.033 136.665 127.662 133.434 127.662ZM16.5565 26.8027C14.9411 26.8027 13.6268 28.117 13.6268 29.7324V121.803C13.6268 123.418 14.9411 124.732 16.5565 124.732H133.434C135.049 124.732 136.363 123.418 136.363 121.803V29.7324C136.363 28.117 135.049 26.8027 133.434 26.8027H16.5565Z" fill="#252647"/>
<path d="M25.0938 39.3424C26.8576 39.3424 28.2875 37.9125 28.2875 36.1487C28.2875 34.3849 26.8576 32.9551 25.0938 32.9551C23.33 32.9551 21.9001 34.3849 21.9001 36.1487C21.9001 37.9125 23.33 39.3424 25.0938 39.3424Z" fill="white"/>
<path d="M35.2924 39.3424C37.0562 39.3424 38.486 37.9125 38.486 36.1487C38.486 34.3849 37.0562 32.9551 35.2924 32.9551C33.5286 32.9551 32.0987 34.3849 32.0987 36.1487C32.0987 37.9125 33.5286 39.3424 35.2924 39.3424Z" fill="white"/>
<path d="M45.481 39.3424C47.2448 39.3424 48.6747 37.9125 48.6747 36.1487C48.6747 34.3849 47.2448 32.9551 45.481 32.9551C43.7172 32.9551 42.2874 34.3849 42.2874 36.1487C42.2874 37.9125 43.7172 39.3424 45.481 39.3424Z" fill="white"/>
<path d="M126.641 39.7371H86.7507V32.5605H126.641C127.45 32.5605 128.106 33.2165 128.106 34.0254V38.2723C128.106 39.0812 127.45 39.7371 126.641 39.7371Z" fill="white"/>
<path d="M86.9633 32.6517C85.4146 31.1031 82.8948 31.1031 81.3462 32.6517C79.7975 34.2003 79.7975 36.7202 81.3462 38.2688C82.5289 39.4515 84.2767 39.7278 85.7269 39.1043L87.0007 40.3782C87.5729 40.95 88.5005 40.95 89.0723 40.3782C89.6445 39.8063 89.6445 38.8785 89.0723 38.3066L87.7985 37.0328C88.4222 35.5823 88.146 33.8344 86.9633 32.6517ZM83.4177 34.7233C83.8241 34.3169 84.4853 34.3169 84.8917 34.7233C85.298 35.1296 85.298 35.7909 84.8917 36.1972C84.4853 36.6036 83.8241 36.6036 83.4177 36.1972C83.0114 35.7906 83.0114 35.1296 83.4177 34.7233Z" fill="#252647"/>
<path d="M31.6254 63.0391H22.9298C22.1209 63.0391 21.4649 62.3831 21.4649 61.5742C21.4649 60.7653 22.1209 60.1094 22.9298 60.1094H31.6254C32.4343 60.1094 33.0902 60.7653 33.0902 61.5742C33.0902 62.3831 32.4343 63.0391 31.6254 63.0391Z" fill="#252647"/>
<path d="M43.0512 68.1543H22.9298C22.1209 68.1543 21.4649 67.4983 21.4649 66.6895C21.4649 65.8806 22.1209 65.2246 22.9298 65.2246H43.0512C43.8601 65.2246 44.516 65.8806 44.516 66.6895C44.516 67.4983 43.8601 68.1543 43.0512 68.1543Z" fill="#252647"/>
<path d="M51.8402 84.373H22.9298C22.1209 84.373 21.4649 83.7171 21.4649 82.9082C21.4649 82.0993 22.1209 81.4434 22.9298 81.4434H51.8402C52.6491 81.4434 53.3051 82.0993 53.3051 82.9082C53.3051 83.7174 52.6491 84.373 51.8402 84.373Z" fill="#252647"/>
<path d="M51.8402 79.2598H22.9298C22.1209 79.2598 21.4649 78.6038 21.4649 77.7949C21.4649 76.986 22.1209 76.3301 22.9298 76.3301H51.8402C52.6491 76.3301 53.3051 76.986 53.3051 77.7949C53.3051 78.6038 52.6491 79.2598 51.8402 79.2598Z" fill="#252647"/>
<path d="M51.8402 89.4863H22.9298C22.1209 89.4863 21.4649 88.8304 21.4649 88.0215C21.4649 87.2126 22.1209 86.5566 22.9298 86.5566H51.8402C52.6491 86.5566 53.3051 87.2126 53.3051 88.0215C53.3051 88.8304 52.6491 89.4863 51.8402 89.4863Z" fill="#252647"/>
<path d="M45.6879 94.6016H22.9298C22.1209 94.6016 21.4649 93.9456 21.4649 93.1367C21.4649 92.3278 22.1209 91.6719 22.9298 91.6719H45.6879C46.4968 91.6719 47.1527 92.3278 47.1527 93.1367C47.1527 93.9456 46.4968 94.6016 45.6879 94.6016Z" fill="#252647"/>
<path d="M39.2883 109.629H24.1321C22.6591 109.629 21.4649 108.435 21.4649 106.962C21.4649 105.489 22.6591 104.295 24.1321 104.295H39.2883C40.7613 104.295 41.9555 105.489 41.9555 106.962C41.9555 108.435 40.7613 109.629 39.2883 109.629Z" fill="#FFD270"/>
<path d="M82.0461 54.6914H77.745C76.9361 54.6914 76.2802 54.0354 76.2802 53.2266C76.2802 52.4177 76.9361 51.7617 77.745 51.7617H82.0461C82.855 51.7617 83.5109 52.4177 83.5109 53.2266C83.5109 54.0357 82.855 54.6914 82.0461 54.6914Z" fill="#252647"/>
<path d="M97.2338 54.6914H92.9327C92.1238 54.6914 91.4679 54.0354 91.4679 53.2266C91.4679 52.4177 92.1238 51.7617 92.9327 51.7617H97.2338C98.0427 51.7617 98.6986 52.4177 98.6986 53.2266C98.6986 54.0357 98.0427 54.6914 97.2338 54.6914Z" fill="#252647"/>
<path d="M112.398 54.6914H108.097C107.288 54.6914 106.632 54.0354 106.632 53.2266C106.632 52.4177 107.288 51.7617 108.097 51.7617H112.398C113.207 51.7617 113.863 52.4177 113.863 53.2266C113.863 54.0357 113.207 54.6914 112.398 54.6914Z" fill="#252647"/>
<path d="M127.586 54.6914H123.285C122.476 54.6914 121.82 54.0354 121.82 53.2266C121.82 52.4177 122.476 51.7617 123.285 51.7617H127.586C128.395 51.7617 129.051 52.4177 129.051 53.2266C129.051 54.0357 128.395 54.6914 127.586 54.6914Z" fill="#252647"/>
<path d="M108.925 110.887H107.9V98.3477H104.007V103.894C104.007 105.204 102.945 106.267 101.634 106.267C100.323 106.267 99.2608 105.204 99.2608 103.894V98.3477H95.3644V110.887H94.3419C93.5711 110.887 92.9462 111.512 92.9462 112.283C92.9462 113.054 93.5711 113.679 94.3419 113.679H108.925C109.695 113.679 110.32 113.054 110.32 112.283C110.32 111.512 109.695 110.887 108.925 110.887Z" fill="#FFD270"/>
<path d="M125.586 101.057H77.6444C76.8356 101.057 76.1796 100.401 76.1796 99.5923V70.8184C76.1796 70.0095 76.8356 69.3535 77.6444 69.3535H125.586C126.395 69.3535 127.051 70.0095 127.051 70.8184V99.5923C127.051 100.401 126.395 101.057 125.586 101.057Z" fill="#FFD270"/>
<path d="M127.051 96.0374V70.8184C127.051 70.0095 126.395 69.3535 125.586 69.3535H77.6444C76.8353 69.3535 76.1796 70.0095 76.1796 70.8184V96.0374H127.051Z" fill="white"/>
<path d="M125.586 102.522H77.6444C76.029 102.522 74.7148 101.208 74.7148 99.5926V70.8184C74.7148 69.2029 76.029 67.8887 77.6444 67.8887H125.586C127.202 67.8887 128.516 69.2029 128.516 70.8184V99.5926C128.516 101.208 127.201 102.522 125.586 102.522ZM77.6444 70.8184V99.5926H125.588L125.586 70.8184H77.6444Z" fill="#252647"/>
<path d="M82.4017 113.989H72.3968C71.2642 113.989 70.346 113.071 70.346 111.938V92.3711C70.346 91.2385 71.2642 90.3203 72.3968 90.3203H82.4017C83.5343 90.3203 84.4525 91.2385 84.4525 92.3711V111.938C84.4525 113.071 83.5343 113.989 82.4017 113.989Z" fill="#FFD270"/>
<path d="M70.346 94.6016H84.4525V109.708H70.346V94.6016Z" fill="white"/>
<path d="M97.0767 73.6571H85.6099C84.008 73.6571 82.7095 72.3587 82.7095 70.7567V68.9688C82.7095 67.3668 84.008 66.0684 85.6099 66.0684H97.0767C98.6787 66.0684 99.9771 67.3668 99.9771 68.9688V70.7567C99.9771 72.3587 98.6787 73.6571 97.0767 73.6571Z" fill="#FFD270"/>
<path d="M120.894 83.2384H113.014C112.422 83.2384 111.888 82.8816 111.661 82.3343C111.434 81.7867 111.559 81.1568 111.979 80.7379L115.918 76.798C116.49 76.2262 117.418 76.2262 117.99 76.798C118.562 77.3702 118.562 78.2978 117.99 78.8696L116.55 80.3087H120.893C121.703 80.3087 122.358 80.9647 122.358 81.7735C122.359 82.5824 121.703 83.2384 120.894 83.2384Z" fill="#252647"/>
<path d="M116.957 92.0528C116.582 92.0528 116.207 91.9099 115.921 91.6239C115.349 91.0518 115.349 90.1242 115.921 89.5523L117.361 88.1133H113.018C112.208 88.1133 111.553 87.4573 111.553 86.6484C111.553 85.8396 112.208 85.1836 113.018 85.1836H120.897C121.489 85.1836 122.024 85.5404 122.25 86.0877C122.477 86.6353 122.352 87.2651 121.933 87.6841L117.993 91.6239C117.707 91.9099 117.332 92.0528 116.957 92.0528Z" fill="#252647"/>
<path d="M61.1761 126.197C60.3669 126.197 59.7112 125.542 59.7112 124.732V45.6445C59.7112 44.8354 60.3669 44.1797 61.1761 44.1797C61.9853 44.1797 62.6409 44.8354 62.6409 45.6445V124.732C62.6409 125.542 61.9853 126.197 61.1761 126.197Z" fill="#252647"/>
<path d="M82.3893 115.454H72.3846C70.4461 115.454 68.869 113.877 68.869 111.938V92.3711C68.869 90.4325 70.4461 88.8555 72.3846 88.8555H82.3893C84.3278 88.8555 85.9049 90.4325 85.9049 92.3711V111.938C85.9049 113.877 84.3278 115.454 82.3893 115.454ZM72.3844 91.7852C72.0612 91.7852 71.7984 92.048 71.7984 92.3711V111.938C71.7984 112.261 72.0612 112.524 72.3844 112.524H82.389C82.7121 112.524 82.9749 112.261 82.9749 111.938V92.3711C82.9749 92.048 82.7121 91.7852 82.389 91.7852H72.3844Z" fill="#252647"/>
</svg>
