<svg width="70" height="70" viewBox="0 0 70 70" fill="none" xmlns="http://www.w3.org/2000/svg">
<path d="M1.20703 49.3114C1.20703 51.9666 3.37945 54.139 6.03462 54.139H63.9657C66.6208 54.139 68.7932 51.9666 68.7932 49.3114V39.6562H1.20703V49.3114Z" fill="#F4B01A"/>
<path d="M63.9655 0H6.03448C2.65517 0 0 2.65517 0 6.03448V49.4828C0 52.8621 2.65517 55.5172 6.03448 55.5172H23.4138L19.7931 62.7586H18.1034C16.0517 62.7586 14.4828 64.3276 14.4828 66.3793C14.4828 67.3448 14.8448 68.3103 15.569 68.9138C16.2931 69.6379 17.1379 70 18.1034 70H51.8966C53.9483 70 55.5172 68.431 55.5172 66.3793C55.5172 65.4138 55.1552 64.4483 54.431 63.8448C53.8276 63.1207 52.8621 62.7586 51.8966 62.7586H50.2069L46.5862 55.5172H63.9655C67.3448 55.5172 70 52.8621 70 49.4828V6.03448C70 2.65517 67.3448 0 63.9655 0ZM47.5517 62.7586H25.3448C24.6207 62.7586 24.1379 63.2414 24.1379 63.9655C24.1379 64.6897 24.6207 65.1724 25.3448 65.1724H49.4828H51.8966C52.2586 65.1724 52.5 65.2931 52.7414 65.5345C52.9828 65.7759 53.1034 66.0172 53.1034 66.3793C53.1034 67.1034 52.6207 67.5862 51.8966 67.5862H18.1034C17.7414 67.5862 17.5 67.4655 17.2586 67.2241C17.0172 66.9828 16.8966 66.7414 16.8966 66.3793C16.8966 65.6552 17.3793 65.1724 18.1034 65.1724H20.5172C21 65.1724 21.3621 64.931 21.6034 64.4483L23.6552 60.3448H30.1724C30.8966 60.3448 31.3793 59.8621 31.3793 59.1379C31.3793 58.4138 30.8966 57.931 30.1724 57.931H24.8621L26.069 55.5172H43.931L47.5517 62.7586ZM63.9655 53.1034H44.6552H25.3448H6.03448C3.98276 53.1034 2.41379 51.5345 2.41379 49.4828V6.03448C2.41379 3.98276 3.98276 2.41379 6.03448 2.41379H63.9655C66.0172 2.41379 67.5862 3.98276 67.5862 6.03448V38.6207H6.03448C5.31034 38.6207 4.82759 39.1034 4.82759 39.8276C4.82759 40.5517 5.31034 41.0345 6.03448 41.0345H67.5862V49.4828C67.5862 51.5345 66.0172 53.1034 63.9655 53.1034Z" fill="white"/>
<path d="M35 43.4492C32.9483 43.4492 31.3793 45.0182 31.3793 47.0699C31.3793 49.1216 32.9483 50.6906 35 50.6906C37.0517 50.6906 38.6207 49.1216 38.6207 47.0699C38.6207 45.0182 37.0517 43.4492 35 43.4492ZM35 48.2768C34.2759 48.2768 33.7931 47.794 33.7931 47.0699C33.7931 46.3458 34.2759 45.863 35 45.863C35.7241 45.863 36.2069 46.3458 36.2069 47.0699C36.2069 47.794 35.7241 48.2768 35 48.2768Z" fill="white"/>
<path d="M6.03447 16.8971C6.39654 16.8971 6.63792 16.7764 6.8793 16.535L16.5345 6.87985C17.0172 6.39709 17.0172 5.67295 16.5345 5.19019C16.0517 4.70744 15.3276 4.70744 14.8448 5.19019L5.18964 14.8454C4.70689 15.3281 4.70689 16.0523 5.18964 16.535C5.43102 16.7764 5.6724 16.8971 6.03447 16.8971Z" fill="white"/>
<path d="M6.03447 12.0695C6.39654 12.0695 6.63792 11.9488 6.8793 11.7074L11.7069 6.87985C12.1896 6.39709 12.1896 5.67295 11.7069 5.19019C11.2241 4.70744 10.5 4.70744 10.0172 5.19019L5.18964 10.0178C4.70689 10.5005 4.70689 11.2247 5.18964 11.7074C5.43102 11.9488 5.6724 12.0695 6.03447 12.0695Z" fill="white"/>
<path d="M14.8448 10.0164L10.0173 14.844C9.53449 15.3267 9.53449 16.0508 10.0173 16.5336C10.2586 16.775 10.6207 16.8957 10.8621 16.8957C11.1035 16.8957 11.4655 16.775 11.7069 16.5336L16.5345 11.706C17.0172 11.2233 17.0172 10.4991 16.5345 10.0164C16.0517 9.53361 15.3276 9.53361 14.8448 10.0164Z" fill="white"/>
<path d="M63.9655 43.4492C63.2414 43.4492 62.7586 43.932 62.7586 44.6561C62.7586 48.0354 59.7414 48.2768 59.1379 48.2768C58.5345 48.2768 57.931 48.7596 57.931 49.4837C57.931 50.2078 58.4138 50.6906 59.1379 50.6906C61.1897 50.6906 65.1724 49.4837 65.1724 44.6561C65.1724 43.932 64.6897 43.4492 63.9655 43.4492Z" fill="white"/>
</svg>
