<svg width="70" height="70" viewBox="0 0 70 70" fill="none" xmlns="http://www.w3.org/2000/svg">
<g clip-path="url(#clip0_833_4216)">
<path d="M63.4337 13.8274L57.0371 10.6895V63.7929L65.9682 19.1377C66.4509 16.9653 65.3647 14.7929 63.4337 13.8274Z" fill="#F4B01A"/>
<path d="M63.9162 12.9138L58.1231 10.0172C57.761 7.12069 55.2265 4.82759 52.2093 4.82759H24.3299C23.7265 2.05172 21.3127 0 18.4162 0H13.5886C10.692 0 8.15754 2.17241 7.67478 4.94828C4.89892 5.43103 2.7265 7.96552 2.7265 10.8621V63.9655C2.7265 67.3448 5.38167 70 8.76098 70H52.2093C55.4679 70 58.2437 67.4655 58.2437 64.2069L67.1748 19.5517C67.6575 16.8966 66.3299 14.1207 63.9162 12.9138ZM13.5886 2.41379H18.4162C19.9851 2.41379 21.3127 3.37931 21.7955 4.82759H10.2093C10.692 3.37931 12.0196 2.41379 13.5886 2.41379ZM55.8299 63.9655C55.8299 66.0172 54.261 67.5862 52.2093 67.5862H38.9334V63.9655C38.9334 63.2414 38.4506 62.7586 37.7265 62.7586C37.0024 62.7586 36.5196 63.2414 36.5196 63.9655V67.5862H34.1058V59.1379C34.1058 58.4138 33.6231 57.931 32.8989 57.931C32.1748 57.931 31.692 58.4138 31.692 59.1379V67.5862H29.2782V63.9655C29.2782 63.2414 28.7955 62.7586 28.0713 62.7586C27.3472 62.7586 26.8644 63.2414 26.8644 63.9655V67.5862H14.7955V63.9655C14.7955 63.2414 14.3127 62.7586 13.5886 62.7586C12.8644 62.7586 12.3817 63.2414 12.3817 63.9655V67.5862H8.76098C6.70926 67.5862 5.14029 66.0172 5.14029 63.9655V10.8621C5.14029 8.81034 6.70926 7.24138 8.76098 7.24138H22.0368V30.1724C22.0368 32.2241 20.4679 33.7931 18.4162 33.7931C16.3644 33.7931 14.7955 32.2241 14.7955 30.1724V10.8621C14.7955 10.1379 14.3127 9.65517 13.5886 9.65517C12.8644 9.65517 12.3817 10.1379 12.3817 10.8621V30.1724C12.3817 33.5517 15.0368 36.2069 18.4162 36.2069C21.7955 36.2069 24.4506 33.5517 24.4506 30.1724V7.24138H52.2093C54.261 7.24138 55.8299 8.81034 55.8299 10.8621V63.9655ZM64.761 19.069L58.2437 51.7759V12.7931L62.8299 15.0862C64.2782 15.8103 65.1231 17.5 64.761 19.069Z" fill="white"/>
<path d="M47.3817 14.4824H32.8989C32.1748 14.4824 31.692 14.9652 31.692 15.6893C31.692 16.4135 32.1748 16.8962 32.8989 16.8962H47.3817C48.1058 16.8962 48.5886 16.4135 48.5886 15.6893C48.5886 14.9652 48.1058 14.4824 47.3817 14.4824Z" fill="white"/>
<path d="M47.3817 24.1387H32.8989C32.1748 24.1387 31.692 24.6214 31.692 25.3456C31.692 26.0697 32.1748 26.5525 32.8989 26.5525H47.3817C48.1058 26.5525 48.5886 26.0697 48.5886 25.3456C48.5886 24.6214 48.1058 24.1387 47.3817 24.1387Z" fill="white"/>
<path d="M32.8989 36.2068H37.7265C38.4506 36.2068 38.9334 35.724 38.9334 34.9999C38.9334 34.2757 38.4506 33.793 37.7265 33.793H32.8989C32.1748 33.793 31.692 34.2757 31.692 34.9999C31.692 35.724 32.1748 36.2068 32.8989 36.2068Z" fill="white"/>
<path d="M47.3817 33.793H42.5541C41.83 33.793 41.3472 34.2757 41.3472 34.9999C41.3472 35.724 41.83 36.2068 42.5541 36.2068H47.3817C48.1058 36.2068 48.5886 35.724 48.5886 34.9999C48.5886 34.2757 48.1058 33.793 47.3817 33.793Z" fill="white"/>
<path d="M28.0713 48.2754H13.5886C12.8644 48.2754 12.3817 48.7581 12.3817 49.4823C12.3817 50.2064 12.8644 50.6892 13.5886 50.6892H28.0713C28.7955 50.6892 29.2782 50.2064 29.2782 49.4823C29.2782 48.7581 28.7955 48.2754 28.0713 48.2754Z" fill="white"/>
<path d="M47.3817 48.2754H32.8989C32.1748 48.2754 31.692 48.7581 31.692 49.4823C31.692 50.2064 32.1748 50.6892 32.8989 50.6892H47.3817C48.1058 50.6892 48.5886 50.2064 48.5886 49.4823C48.5886 48.7581 48.1058 48.2754 47.3817 48.2754Z" fill="white"/>
<path d="M47.3817 28.9648H32.8989C32.1748 28.9648 31.692 29.4476 31.692 30.1717C31.692 30.8959 32.1748 31.3786 32.8989 31.3786H47.3817C48.1058 31.3786 48.5886 30.8959 48.5886 30.1717C48.5886 29.4476 48.1058 28.9648 47.3817 28.9648Z" fill="white"/>
<path d="M38.9334 44.6561C38.9334 43.932 38.4506 43.4492 37.7265 43.4492H13.5886C12.8644 43.4492 12.3817 43.932 12.3817 44.6561C12.3817 45.3803 12.8644 45.863 13.5886 45.863H37.7265C38.4506 45.863 38.9334 45.3803 38.9334 44.6561Z" fill="white"/>
<path d="M47.3817 43.4492H42.5541C41.83 43.4492 41.3472 43.932 41.3472 44.6561C41.3472 45.3803 41.83 45.863 42.5541 45.863H47.3817C48.1058 45.863 48.5886 45.3803 48.5886 44.6561C48.5886 43.932 48.1058 43.4492 47.3817 43.4492Z" fill="white"/>
<path d="M32.8989 21.7243H37.7265C38.4506 21.7243 38.9334 21.2416 38.9334 20.5174C38.9334 19.7933 38.4506 19.3105 37.7265 19.3105H32.8989C32.1748 19.3105 31.692 19.7933 31.692 20.5174C31.692 21.2416 32.1748 21.7243 32.8989 21.7243Z" fill="white"/>
<path d="M47.3817 19.3105H42.5541C41.83 19.3105 41.3472 19.7933 41.3472 20.5174C41.3472 21.2416 41.83 21.7243 42.5541 21.7243H47.3817C48.1058 21.7243 48.5886 21.2416 48.5886 20.5174C48.5886 19.7933 48.1058 19.3105 47.3817 19.3105Z" fill="white"/>
<path d="M47.3817 38.6211H32.8989C32.1748 38.6211 31.692 39.1039 31.692 39.828C31.692 40.5521 32.1748 41.0349 32.8989 41.0349H47.3817C48.1058 41.0349 48.5886 40.5521 48.5886 39.828C48.5886 39.1039 48.1058 38.6211 47.3817 38.6211Z" fill="white"/>
</g>
<defs>
<clipPath id="clip0_833_4216">
<rect width="70" height="70" fill="white"/>
</clipPath>
</defs>
</svg>
