<svg width="54" height="54" viewBox="0 0 54 54" fill="none" xmlns="http://www.w3.org/2000/svg">
<path fill-rule="evenodd" clip-rule="evenodd" d="M8.34111 25.1486C7.44256 25.2723 6.75 26.0539 6.75 26.9998C6.75 28.0315 7.5742 28.868 8.59091 28.868H40.9499L29.2606 40.683L29.0819 40.8922C28.5457 41.6224 28.603 42.6604 29.2552 43.3251C29.9726 44.0562 31.1382 44.0586 31.8586 43.3305L46.6823 28.3491C46.7706 28.2633 46.8505 28.1686 46.9206 28.0665C47.4224 27.337 47.3517 26.3249 46.7085 25.6749L31.8585 10.6693L31.6516 10.4889C30.9298 9.94782 29.9072 10.0104 29.2551 10.675C28.5377 11.4062 28.5402 12.5891 29.2607 13.3171L40.9528 25.1315L8.59091 25.1315L8.34111 25.1486Z" fill="#F4B01A"/>
</svg>
