<svg width="20" height="20" viewBox="0 0 20 20" fill="none" xmlns="http://www.w3.org/2000/svg">
<path fill-rule="evenodd" clip-rule="evenodd" d="M17.2205 8.25391H2.36719C2.02219 8.25391 1.74219 7.97391 1.74219 7.62891C1.74219 7.28391 2.02219 7.00391 2.36719 7.00391H17.2205C17.5655 7.00391 17.8455 7.28391 17.8455 7.62891C17.8455 7.97391 17.5655 8.25391 17.2205 8.25391Z" fill="#130F26"/>
<path fill-rule="evenodd" clip-rule="evenodd" d="M13.4994 11.5083C13.1544 11.5083 12.8711 11.2283 12.8711 10.8833C12.8711 10.5383 13.1469 10.2583 13.4919 10.2583H13.4994C13.8444 10.2583 14.1244 10.5383 14.1244 10.8833C14.1244 11.2283 13.8444 11.5083 13.4994 11.5083Z" fill="#130F26"/>
<path fill-rule="evenodd" clip-rule="evenodd" d="M9.80216 11.5083C9.45716 11.5083 9.17383 11.2283 9.17383 10.8833C9.17383 10.5383 9.44966 10.2583 9.79466 10.2583H9.80216C10.1472 10.2583 10.4272 10.5383 10.4272 10.8833C10.4272 11.2283 10.1472 11.5083 9.80216 11.5083Z" fill="#130F26"/>
<path fill-rule="evenodd" clip-rule="evenodd" d="M6.09596 11.5083C5.75096 11.5083 5.4668 11.2283 5.4668 10.8833C5.4668 10.5383 5.74346 10.2583 6.08846 10.2583H6.09596C6.44096 10.2583 6.72096 10.5383 6.72096 10.8833C6.72096 11.2283 6.44096 11.5083 6.09596 11.5083Z" fill="#130F26"/>
<path fill-rule="evenodd" clip-rule="evenodd" d="M13.4994 14.7471C13.1544 14.7471 12.8711 14.4671 12.8711 14.1221C12.8711 13.7771 13.1469 13.4971 13.4919 13.4971H13.4994C13.8444 13.4971 14.1244 13.7771 14.1244 14.1221C14.1244 14.4671 13.8444 14.7471 13.4994 14.7471Z" fill="#130F26"/>
<path fill-rule="evenodd" clip-rule="evenodd" d="M9.80216 14.7471C9.45716 14.7471 9.17383 14.4671 9.17383 14.1221C9.17383 13.7771 9.44966 13.4971 9.79466 13.4971H9.80216C10.1472 13.4971 10.4272 13.7771 10.4272 14.1221C10.4272 14.4671 10.1472 14.7471 9.80216 14.7471Z" fill="#130F26"/>
<path fill-rule="evenodd" clip-rule="evenodd" d="M6.09596 14.7471C5.75096 14.7471 5.4668 14.4671 5.4668 14.1221C5.4668 13.7771 5.74346 13.4971 6.08846 13.4971H6.09596C6.44096 13.4971 6.72096 13.7771 6.72096 14.1221C6.72096 14.4671 6.44096 14.7471 6.09596 14.7471Z" fill="#130F26"/>
<path fill-rule="evenodd" clip-rule="evenodd" d="M13.1602 4.826C12.8152 4.826 12.5352 4.546 12.5352 4.201V1.4585C12.5352 1.1135 12.8152 0.833496 13.1602 0.833496C13.5052 0.833496 13.7852 1.1135 13.7852 1.4585V4.201C13.7852 4.546 13.5052 4.826 13.1602 4.826Z" fill="#130F26"/>
<path fill-rule="evenodd" clip-rule="evenodd" d="M6.42969 4.826C6.08469 4.826 5.80469 4.546 5.80469 4.201V1.4585C5.80469 1.1135 6.08469 0.833496 6.42969 0.833496C6.77469 0.833496 7.05469 1.1135 7.05469 1.4585V4.201C7.05469 4.546 6.77469 4.826 6.42969 4.826Z" fill="#130F26"/>
<mask id="mask0_99_4500" style="mask-type:alpha" maskUnits="userSpaceOnUse" x="1" y="2" width="17" height="17">
<path fill-rule="evenodd" clip-rule="evenodd" d="M1.66602 2.14941H17.916V18.7502H1.66602V2.14941Z" fill="white"/>
</mask>
<g mask="url(#mask0_99_4500)">
<path fill-rule="evenodd" clip-rule="evenodd" d="M6.26685 3.39941C4.10602 3.39941 2.91602 4.55191 2.91602 6.64441V14.1852C2.91602 16.3236 4.10602 17.5002 6.26685 17.5002H13.3152C15.476 17.5002 16.666 16.3452 16.666 14.2486V6.64441C16.6693 5.61525 16.3927 4.81525 15.8435 4.26525C15.2785 3.69858 14.4077 3.39941 13.3227 3.39941H6.26685ZM13.3152 18.7502H6.26685C3.42935 18.7502 1.66602 17.0011 1.66602 14.1852V6.64441C1.66602 3.87108 3.42935 2.14941 6.26685 2.14941H13.3227C14.7468 2.14941 15.9244 2.57608 16.7285 3.38191C17.5094 4.16608 17.9202 5.29358 17.916 6.64608V14.2486C17.916 17.0252 16.1527 18.7502 13.3152 18.7502Z" fill="#130F26"/>
</g>
</svg>
