<svg width="20" height="20" viewBox="0 0 20 20" fill="none" xmlns="http://www.w3.org/2000/svg">
<g id="Iconly/Light-Outline/Calendar">
<g id="Calendar">
<path id="Fill 1" fill-rule="evenodd" clip-rule="evenodd" d="M17.2222 8.2536H2.3689C2.0239 8.2536 1.7439 7.9736 1.7439 7.6286C1.7439 7.2836 2.0239 7.0036 2.3689 7.0036H17.2222C17.5672 7.0036 17.8472 7.2836 17.8472 7.6286C17.8472 7.9736 17.5672 8.2536 17.2222 8.2536Z" fill="#F4B01A"/>
<path id="Fill 3" fill-rule="evenodd" clip-rule="evenodd" d="M13.5011 11.508C13.1561 11.508 12.8728 11.228 12.8728 10.883C12.8728 10.538 13.1486 10.258 13.4936 10.258H13.5011C13.8461 10.258 14.1261 10.538 14.1261 10.883C14.1261 11.228 13.8461 11.508 13.5011 11.508Z" fill="#F4B01A"/>
<path id="Fill 5" fill-rule="evenodd" clip-rule="evenodd" d="M9.80314 11.508C9.45814 11.508 9.1748 11.228 9.1748 10.883C9.1748 10.538 9.45064 10.258 9.79564 10.258H9.80314C10.1481 10.258 10.4281 10.538 10.4281 10.883C10.4281 11.228 10.1481 11.508 9.80314 11.508Z" fill="#F4B01A"/>
<path id="Fill 7" fill-rule="evenodd" clip-rule="evenodd" d="M6.09743 11.508C5.75243 11.508 5.46826 11.228 5.46826 10.883C5.46826 10.538 5.74493 10.258 6.08993 10.258H6.09743C6.44243 10.258 6.72243 10.538 6.72243 10.883C6.72243 11.228 6.44243 11.508 6.09743 11.508Z" fill="#F4B01A"/>
<path id="Fill 9" fill-rule="evenodd" clip-rule="evenodd" d="M13.5011 14.7469C13.1561 14.7469 12.8728 14.4669 12.8728 14.1219C12.8728 13.7769 13.1486 13.4969 13.4936 13.4969H13.5011C13.8461 13.4969 14.1261 13.7769 14.1261 14.1219C14.1261 14.4669 13.8461 14.7469 13.5011 14.7469Z" fill="#F4B01A"/>
<path id="Fill 11" fill-rule="evenodd" clip-rule="evenodd" d="M9.80314 14.7469C9.45814 14.7469 9.1748 14.4669 9.1748 14.1219C9.1748 13.7769 9.45064 13.4969 9.79564 13.4969H9.80314C10.1481 13.4969 10.4281 13.7769 10.4281 14.1219C10.4281 14.4669 10.1481 14.7469 9.80314 14.7469Z" fill="#F4B01A"/>
<path id="Fill 13" fill-rule="evenodd" clip-rule="evenodd" d="M6.09743 14.7469C5.75243 14.7469 5.46826 14.4669 5.46826 14.1219C5.46826 13.7769 5.74493 13.4969 6.08993 13.4969H6.09743C6.44243 13.4969 6.72243 13.7769 6.72243 14.1219C6.72243 14.4669 6.44243 14.7469 6.09743 14.7469Z" fill="#F4B01A"/>
<path id="Fill 15" fill-rule="evenodd" clip-rule="evenodd" d="M13.1614 4.82584C12.8164 4.82584 12.5364 4.54584 12.5364 4.20084V1.45834C12.5364 1.11334 12.8164 0.833344 13.1614 0.833344C13.5064 0.833344 13.7864 1.11334 13.7864 1.45834V4.20084C13.7864 4.54584 13.5064 4.82584 13.1614 4.82584Z" fill="#F4B01A"/>
<path id="Fill 17" fill-rule="evenodd" clip-rule="evenodd" d="M6.42944 4.82584C6.08444 4.82584 5.80444 4.54584 5.80444 4.20084V1.45834C5.80444 1.11334 6.08444 0.833344 6.42944 0.833344C6.77444 0.833344 7.05444 1.11334 7.05444 1.45834V4.20084C7.05444 4.54584 6.77444 4.82584 6.42944 4.82584Z" fill="#F4B01A"/>
<g id="Group 21">
<mask id="mask0_66_4404" style="mask-type:alpha" maskUnits="userSpaceOnUse" x="1" y="2" width="17" height="17">
<path id="Clip 20" fill-rule="evenodd" clip-rule="evenodd" d="M1.66675 2.14926H17.9167V18.75H1.66675V2.14926Z" fill="white"/>
</mask>
<g mask="url(#mask0_66_4404)">
<path id="Fill 19" fill-rule="evenodd" clip-rule="evenodd" d="M6.26758 3.39926C4.10675 3.39926 2.91675 4.55176 2.91675 6.64426V14.1851C2.91675 16.3234 4.10675 17.5001 6.26758 17.5001H13.3159C15.4767 17.5001 16.6667 16.3451 16.6667 14.2484V6.64426C16.6701 5.6151 16.3934 4.8151 15.8442 4.2651C15.2792 3.69843 14.4084 3.39926 13.3234 3.39926H6.26758ZM13.3159 18.7501H6.26758C3.43008 18.7501 1.66675 17.0009 1.66675 14.1851V6.64426C1.66675 3.87093 3.43008 2.14926 6.26758 2.14926H13.3234C14.7476 2.14926 15.9251 2.57593 16.7292 3.38176C17.5101 4.16593 17.9209 5.29343 17.9167 6.64593V14.2484C17.9167 17.0251 16.1534 18.7501 13.3159 18.7501Z" fill="#F4B01A"/>
</g>
</g>
</g>
</g>
</svg>
