<svg width="32" height="32" viewBox="0 0 32 32" fill="none" xmlns="http://www.w3.org/2000/svg">
<circle cx="16" cy="16" r="16" fill="#7A7A7A"/>
<path fill-rule="evenodd" clip-rule="evenodd" d="M11.1938 8.83121C11.5958 8.10069 12.033 7.61234 12.6819 7.35409C13.8709 6.8813 18.1293 6.8813 19.3174 7.35418C19.9659 7.6123 20.4033 8.10056 20.8055 8.83094L21.2578 9.69809C21.2681 9.71527 21.2776 9.73038 21.2862 9.74338L21.3246 9.79588C21.5306 10.0204 21.8754 10.156 22.103 10.156C24.255 10.156 26 11.9006 26 14.052V19.847C26 22.5912 23.7742 24.817 21.03 24.817H10.97C8.2251 24.817 6 22.5915 6 19.847V14.052C6 11.9006 7.74498 10.156 9.897 10.156C10.1238 10.156 10.4691 10.0202 10.6754 9.79588C10.6796 9.79139 10.6849 9.7847 10.6914 9.77585L10.7429 9.69696L11.1938 8.83121ZM19.4917 9.55459C19.2417 9.10075 19.0158 8.8486 18.7626 8.74784L18.6433 8.70817C17.6142 8.41729 14.0344 8.43051 13.2364 8.74784C12.9833 8.84854 12.7577 9.10056 12.508 9.55431L12.1232 10.2984L12.0284 10.4698C11.9494 10.6014 11.8703 10.7124 11.7799 10.8108C11.2735 11.3613 10.5242 11.656 9.897 11.656L9.7329 11.6615C8.48575 11.7459 7.5 12.7842 7.5 14.052V19.847C7.5 21.7632 9.05359 23.317 10.97 23.317H21.03C22.9458 23.317 24.5 21.7628 24.5 19.847V14.052C24.5 12.7291 23.4267 11.656 22.103 11.656L21.9289 11.6487C21.3403 11.6003 20.6793 11.3112 20.2194 10.8101C20.1303 10.713 20.0517 10.6028 19.9731 10.4724C19.9618 10.4537 19.9478 10.429 19.9317 10.3999L19.8156 10.1821L19.4917 9.55459Z" fill="#EBEBEB"/>
<path d="M21.5041 12.5C22.0564 12.5 22.5041 12.9477 22.5041 13.5C22.5041 14.0128 22.1181 14.4355 21.6207 14.4933L21.5041 14.5C20.9428 14.5 20.4951 14.0523 20.4951 13.5C20.4951 12.9872 20.8812 12.5645 21.3785 12.5067L21.5041 12.5Z" fill="#EBEBEB"/>
<path fill-rule="evenodd" clip-rule="evenodd" d="M12.0703 17.1277C12.0703 14.9575 13.8291 13.1987 15.9993 13.1987C18.1695 13.1987 19.9283 14.9575 19.9283 17.1277C19.9283 19.2979 18.1695 21.0567 15.9993 21.0567C13.8291 21.0567 12.0703 19.2979 12.0703 17.1277ZM18.4283 17.1277C18.4283 15.7859 17.3411 14.6987 15.9993 14.6987C14.6575 14.6987 13.5703 15.7859 13.5703 17.1277C13.5703 18.4695 14.6575 19.5567 15.9993 19.5567C17.3411 19.5567 18.4283 18.4695 18.4283 17.1277Z" fill="#EBEBEB"/>
</svg>
