<svg width="24" height="24" viewBox="0 0 24 24" fill="none" xmlns="http://www.w3.org/2000/svg">
<g clip-path="url(#clip0_66_8559)">
<path d="M12.0527 2C6.53023 2 2.05273 6.4775 2.05273 12C2.05273 17.5225 6.53023 22 12.0527 22C17.5752 22 22.0527 17.5225 22.0527 12C22.0527 6.4775 17.5752 2 12.0527 2ZM16.6852 9.23375L11.8952 16.555C11.894 16.5562 11.8915 16.5575 11.8915 16.5588C11.8665 16.5963 11.8527 16.6388 11.8215 16.6737C11.7777 16.7213 11.7215 16.7463 11.6715 16.7825C11.659 16.7913 11.6465 16.8012 11.6327 16.81C11.5552 16.8587 11.4752 16.8913 11.3877 16.9125C11.359 16.92 11.3327 16.9275 11.3027 16.9325C11.2331 16.9421 11.1626 16.9429 11.0927 16.935C11.0434 16.9319 10.9945 16.9244 10.9465 16.9125C10.897 16.8976 10.8489 16.8783 10.8027 16.855C10.7627 16.8362 10.7202 16.8312 10.6827 16.8075C10.6552 16.79 10.6402 16.7625 10.6165 16.7413C10.6065 16.7325 10.594 16.73 10.584 16.7213L7.79523 14.1425C7.62993 13.9838 7.5335 13.7665 7.52666 13.5375C7.51982 13.3084 7.60311 13.0858 7.75865 12.9175C7.91418 12.7492 8.12954 12.6486 8.35843 12.6374C8.58733 12.6262 8.81149 12.7052 8.98273 12.8575L11.0015 14.725L15.2202 8.27625C15.3472 8.08198 15.5462 7.9461 15.7733 7.89852C16.0005 7.85093 16.2372 7.89553 16.4315 8.0225C16.6258 8.14947 16.7616 8.34842 16.8092 8.57557C16.8568 8.80273 16.8122 9.03948 16.6852 9.23375Z" fill="#25D216"/>
</g>
<defs>
<clipPath id="clip0_66_8559">
<rect width="20" height="20" fill="white" transform="translate(2 2)"/>
</clipPath>
</defs>
</svg>
