<svg width="35" height="35" viewBox="0 0 35 35" fill="none" xmlns="http://www.w3.org/2000/svg">
<g id="Iconly/Bold/Close Square">
<g id="Close Square">
<path id="Close Square_2" fill-rule="evenodd" clip-rule="evenodd" d="M11.1848 2.91553H23.8285C28.7723 2.91553 32.0827 6.38636 32.0827 11.5489V23.4649C32.0827 28.6128 28.7723 32.0822 23.8285 32.0822H11.1848C6.24102 32.0822 2.91602 28.6128 2.91602 23.4649V11.5489C2.91602 6.38636 6.24102 2.91553 11.1848 2.91553ZM21.8889 21.8739C22.3848 21.3795 22.3848 20.5774 21.8889 20.0816L19.2931 17.4857L21.8889 14.8884C22.3848 14.3941 22.3848 13.5774 21.8889 13.0816C21.3931 12.5843 20.591 12.5843 20.0806 13.0816L17.4993 15.6759L14.9035 13.0816C14.3931 12.5843 13.591 12.5843 13.0952 13.0816C12.5993 13.5774 12.5993 14.3941 13.0952 14.8884L15.691 17.4857L13.0952 20.067C12.5993 20.5774 12.5993 21.3795 13.0952 21.8739C13.3431 22.1218 13.6785 22.2545 13.9993 22.2545C14.3348 22.2545 14.6556 22.1218 14.9035 21.8739L17.4993 19.2941L20.0952 21.8739C20.3431 22.1378 20.6639 22.2545 20.9848 22.2545C21.3202 22.2545 21.641 22.1218 21.8889 21.8739Z" fill="#CA0030"/>
</g>
</g>
</svg>
