<svg width="15" height="15" viewBox="0 0 15 15" fill="none" xmlns="http://www.w3.org/2000/svg">
<path fill-rule="evenodd" clip-rule="evenodd" d="M1.79011 15C1.33244 15 0.874769 14.826 0.526749 14.4756C-0.171677 13.7772 -0.171677 12.6474 0.526749 11.949L11.9495 0.526728C12.6479 -0.17167 13.7778 -0.17167 14.4762 0.526728C15.1746 1.22513 15.1746 2.35496 14.4762 3.05335L3.05347 14.4756C2.70545 14.826 2.24778 15 1.79011 15Z" fill="#6F6F6F"/>
<path fill-rule="evenodd" clip-rule="evenodd" d="M13.211 14.9971C12.7536 14.9971 12.2963 14.8232 11.9485 14.4731L0.523486 3.048C-0.174495 2.35016 -0.174495 1.22123 0.523486 0.523382C1.22385 -0.174461 2.35301 -0.174461 3.04861 0.523382L14.4736 11.9485C15.1716 12.6463 15.1716 13.7753 14.4736 14.4731C14.1258 14.8232 13.666 14.9971 13.211 14.9971Z" fill="#6F6F6F"/>
</svg>
