<svg width="24" height="24" viewBox="0 0 24 24" fill="none" xmlns="http://www.w3.org/2000/svg">
<path d="M12 2C10.0222 2 8.08879 2.58649 6.4443 3.6853C4.79981 4.78412 3.51809 6.3459 2.76121 8.17317C2.00433 10.0004 1.8063 12.0111 2.19215 13.9509C2.578 15.8907 3.53041 17.6725 4.92894 19.0711C6.32746 20.4696 8.10929 21.422 10.0491 21.8079C11.9889 22.1937 13.9996 21.9957 15.8268 21.2388C17.6541 20.4819 19.2159 19.2002 20.3147 17.5557C21.4135 15.9112 22 13.9778 22 12C22 10.6868 21.7413 9.38642 21.2388 8.17317C20.7363 6.95991 19.9997 5.85752 19.0711 4.92893C18.1425 4.00035 17.0401 3.26375 15.8268 2.7612C14.6136 2.25866 13.3132 2 12 2ZM15.21 13.79C15.3037 13.883 15.3781 13.9936 15.4289 14.1154C15.4797 14.2373 15.5058 14.368 15.5058 14.5C15.5058 14.632 15.4797 14.7627 15.4289 14.8846C15.3781 15.0064 15.3037 15.117 15.21 15.21C15.117 15.3037 15.0064 15.3781 14.8846 15.4289C14.7627 15.4797 14.632 15.5058 14.5 15.5058C14.368 15.5058 14.2373 15.4797 14.1154 15.4289C13.9936 15.3781 13.883 15.3037 13.79 15.21L12 13.41L10.21 15.21C10.117 15.3037 10.0064 15.3781 9.88458 15.4289C9.76272 15.4797 9.63202 15.5058 9.5 15.5058C9.36799 15.5058 9.23729 15.4797 9.11543 15.4289C8.99357 15.3781 8.88297 15.3037 8.79 15.21C8.69628 15.117 8.62188 15.0064 8.57111 14.8846C8.52034 14.7627 8.49421 14.632 8.49421 14.5C8.49421 14.368 8.52034 14.2373 8.57111 14.1154C8.62188 13.9936 8.69628 13.883 8.79 13.79L10.59 12L8.79 10.21C8.6017 10.0217 8.49591 9.7663 8.49591 9.5C8.49591 9.2337 8.6017 8.9783 8.79 8.79C8.97831 8.6017 9.2337 8.49591 9.5 8.49591C9.76631 8.49591 10.0217 8.6017 10.21 8.79L12 10.59L13.79 8.79C13.9783 8.6017 14.2337 8.49591 14.5 8.49591C14.7663 8.49591 15.0217 8.6017 15.21 8.79C15.3983 8.9783 15.5041 9.2337 15.5041 9.5C15.5041 9.7663 15.3983 10.0217 15.21 10.21L13.41 12L15.21 13.79Z" fill="#CA1823"/>
</svg>
