<svg width="40" height="40" viewBox="0 0 40 40" fill="none" xmlns="http://www.w3.org/2000/svg">
<path d="M20.0002 3.33301C16.7038 3.33301 13.4815 4.31049 10.7407 6.14185C7.99985 7.9732 5.86364 10.5762 4.60218 13.6216C3.34072 16.6671 3.01066 20.0182 3.65375 23.2512C4.29684 26.4842 5.88418 29.4539 8.21506 31.7848C10.5459 34.1157 13.5156 35.703 16.7487 36.3461C19.9817 36.9892 23.3328 36.6591 26.3782 35.3977C29.4237 34.1362 32.0266 32 33.858 29.2592C35.6894 26.5184 36.6668 23.296 36.6668 19.9997C36.6668 17.811 36.2357 15.6437 35.3982 13.6216C34.5606 11.5995 33.3329 9.7622 31.7853 8.21456C30.2376 6.66692 28.4003 5.43926 26.3782 4.60168C24.3561 3.7641 22.1889 3.33301 20.0002 3.33301ZM25.3502 22.983C25.5064 23.1379 25.6304 23.3223 25.715 23.5254C25.7996 23.7285 25.8432 23.9463 25.8432 24.1663C25.8432 24.3864 25.7996 24.6042 25.715 24.8073C25.6304 25.0104 25.5064 25.1947 25.3502 25.3497C25.1952 25.5059 25.0109 25.6299 24.8078 25.7145C24.6047 25.7991 24.3869 25.8427 24.1668 25.8427C23.9468 25.8427 23.729 25.7991 23.5259 25.7145C23.3228 25.6299 23.1384 25.5059 22.9835 25.3497L20.0002 22.3497L17.0168 25.3497C16.8619 25.5059 16.6776 25.6299 16.4745 25.7145C16.2714 25.7991 16.0535 25.8427 15.8335 25.8427C15.6135 25.8427 15.3956 25.7991 15.1925 25.7145C14.9894 25.6299 14.8051 25.5059 14.6502 25.3497C14.494 25.1947 14.37 25.0104 14.2854 24.8073C14.2007 24.6042 14.1572 24.3864 14.1572 24.1663C14.1572 23.9463 14.2007 23.7285 14.2854 23.5254C14.37 23.3223 14.494 23.1379 14.6502 22.983L17.6502 19.9997L14.6502 17.0163C14.3363 16.7025 14.16 16.2768 14.16 15.833C14.16 15.3892 14.3363 14.9635 14.6502 14.6497C14.964 14.3358 15.3897 14.1595 15.8335 14.1595C16.2773 14.1595 16.703 14.3358 17.0168 14.6497L20.0002 17.6497L22.9835 14.6497C23.2973 14.3358 23.723 14.1595 24.1668 14.1595C24.6107 14.1595 25.0363 14.3358 25.3502 14.6497C25.664 14.9635 25.8403 15.3892 25.8403 15.833C25.8403 16.2768 25.664 16.7025 25.3502 17.0163L22.3502 19.9997L25.3502 22.983Z" fill="#252647"/>
</svg>
