<svg width="20" height="20" viewBox="0 0 20 20" fill="none" xmlns="http://www.w3.org/2000/svg">
<path d="M10.0003 1.66669C8.35215 1.66669 6.74099 2.15543 5.37058 3.07111C4.00017 3.98679 2.93206 5.28827 2.30133 6.81099C1.6706 8.33371 1.50558 10.0093 1.82712 11.6258C2.14866 13.2423 2.94234 14.7271 4.10777 15.8926C5.27321 17.058 6.75807 17.8517 8.37458 18.1732C9.99109 18.4948 11.6666 18.3297 13.1894 17.699C14.7121 17.0683 16.0136 16.0002 16.9292 14.6298C17.8449 13.2594 18.3337 11.6482 18.3337 10C18.3337 8.90567 18.1181 7.82204 17.6993 6.81099C17.2805 5.79995 16.6667 4.88129 15.8929 4.10746C15.1191 3.33364 14.2004 2.71981 13.1894 2.30102C12.1783 1.88224 11.0947 1.66669 10.0003 1.66669V1.66669ZM12.6753 11.4917C12.7534 11.5692 12.8154 11.6613 12.8577 11.7629C12.9 11.8644 12.9218 11.9733 12.9218 12.0834C12.9218 12.1934 12.9 12.3023 12.8577 12.4038C12.8154 12.5054 12.7534 12.5976 12.6753 12.675C12.5979 12.7531 12.5057 12.8151 12.4041 12.8574C12.3026 12.8997 12.1937 12.9215 12.0837 12.9215C11.9737 12.9215 11.8647 12.8997 11.7632 12.8574C11.6616 12.8151 11.5695 12.7531 11.492 12.675L10.0003 11.175L8.50866 12.675C8.43119 12.7531 8.33903 12.8151 8.23748 12.8574C8.13593 12.8997 8.02701 12.9215 7.917 12.9215C7.80699 12.9215 7.69806 12.8997 7.59651 12.8574C7.49497 12.8151 7.4028 12.7531 7.32533 12.675C7.24722 12.5976 7.18523 12.5054 7.14292 12.4038C7.10061 12.3023 7.07883 12.1934 7.07883 12.0834C7.07883 11.9733 7.10061 11.8644 7.14292 11.7629C7.18523 11.6613 7.24722 11.5692 7.32533 11.4917L8.82533 10L7.32533 8.50835C7.16841 8.35143 7.08025 8.13861 7.08025 7.91669C7.08025 7.69477 7.16841 7.48194 7.32533 7.32502C7.48225 7.1681 7.69508 7.07994 7.917 7.07994C8.13891 7.07994 8.35174 7.1681 8.50866 7.32502L10.0003 8.82502L11.492 7.32502C11.6489 7.1681 11.8617 7.07994 12.0837 7.07994C12.3056 7.07994 12.5184 7.1681 12.6753 7.32502C12.8322 7.48194 12.9204 7.69477 12.9204 7.91669C12.9204 8.13861 12.8322 8.35143 12.6753 8.50835L11.1753 10L12.6753 11.4917Z" fill="#CA1823"/>
<circle cx="10" cy="10" r="10" fill="#F4B01A"/>
<path d="M7.684 14V6.272H9.304V12.752H13.108V14H7.684Z" fill="white"/>
</svg>
