<svg width="20" height="20" viewBox="0 0 20 20" fill="none" xmlns="http://www.w3.org/2000/svg">
<g id="Iconly/Light-Outline/Danger Circle">
<g id="Danger Circle">
<path id="Fill 1" fill-rule="evenodd" clip-rule="evenodd" d="M10.0001 2.91667C6.09425 2.91667 2.91675 6.09417 2.91675 10C2.91675 13.9058 6.09425 17.0833 10.0001 17.0833C13.9059 17.0833 17.0834 13.9058 17.0834 10C17.0834 6.09417 13.9059 2.91667 10.0001 2.91667ZM10.0001 18.3333C5.40508 18.3333 1.66675 14.595 1.66675 10C1.66675 5.40501 5.40508 1.66667 10.0001 1.66667C14.5951 1.66667 18.3334 5.40501 18.3334 10C18.3334 14.595 14.5951 18.3333 10.0001 18.3333Z" fill="#CA1823"/>
<path id="Fill 3" fill-rule="evenodd" clip-rule="evenodd" d="M9.99512 11.1442C9.65012 11.1442 9.37012 10.8642 9.37012 10.5192V6.83667C9.37012 6.49167 9.65012 6.21167 9.99512 6.21167C10.3401 6.21167 10.6201 6.49167 10.6201 6.83667V10.5192C10.6201 10.8642 10.3401 11.1442 9.99512 11.1442Z" fill="#CA1823"/>
<path id="Fill 5" fill-rule="evenodd" clip-rule="evenodd" d="M10.0033 13.9966C9.54244 13.9966 9.16577 13.6241 9.16577 13.1633C9.16577 12.7024 9.53494 12.3299 9.99494 12.3299H10.0033C10.4641 12.3299 10.8366 12.7024 10.8366 13.1633C10.8366 13.6241 10.4641 13.9966 10.0033 13.9966Z" fill="#CA1823"/>
</g>
</g>
</svg>
