<svg width="15" height="15" viewBox="0 0 15 15" fill="none" xmlns="http://www.w3.org/2000/svg">
<g id="Iconly/Light/Delete">
<g id="Delete">
<path id="Stroke 1" d="M12.0784 5.91748C12.0784 5.91748 11.739 10.1269 11.5421 11.9C11.4484 12.7469 10.9252 13.2431 10.0684 13.2587C8.43773 13.2881 6.80523 13.29 5.17523 13.2556C4.35086 13.2387 3.83648 12.7362 3.74461 11.9044C3.54648 10.1156 3.20898 5.91748 3.20898 5.91748" stroke="#130F26" stroke-width="1.5" stroke-linecap="round" stroke-linejoin="round"/>
<path id="Stroke 3" d="M12.9425 3.8999H2.34375" stroke="#130F26" stroke-width="1.5" stroke-linecap="round" stroke-linejoin="round"/>
<path id="Stroke 5" d="M10.9001 3.89986C10.4095 3.89986 9.98699 3.55299 9.89074 3.07236L9.73887 2.31236C9.64512 1.96174 9.32762 1.71924 8.96574 1.71924H6.32012C5.95824 1.71924 5.64074 1.96174 5.54699 2.31236L5.39512 3.07236C5.29887 3.55299 4.87637 3.89986 4.38574 3.89986" stroke="#130F26" stroke-width="1.5" stroke-linecap="round" stroke-linejoin="round"/>
</g>
</g>
</svg>
