<svg width="440" height="330" viewBox="0 0 440 330" fill="none" xmlns="http://www.w3.org/2000/svg">
<path d="M59.8836 122.876L173.184 36.6053C176.258 34.2692 179.792 32.6096 183.553 31.7351C187.314 30.8606 191.218 30.7913 195.008 31.5316L330.748 57.9756C334.898 58.7805 338.803 60.5377 342.155 63.109C345.51 65.6802 348.221 68.9951 350.075 72.7926L384.725 144.037C386.573 147.829 387.5 152.002 387.434 156.22C387.368 160.437 386.309 164.579 384.343 168.311L323.125 284.499C320.71 289.055 317.053 292.831 312.579 295.389C308.102 297.946 302.992 299.181 297.841 298.95L142.667 292.289C137.378 292.064 132.267 290.312 127.952 287.246L58.0246 237.553C54.3673 234.964 51.4116 231.506 49.4237 227.491C47.4357 223.475 46.4779 219.028 46.6368 214.55L49.2631 143.294C49.414 139.318 50.4447 135.424 52.2812 131.893C54.1176 128.362 56.7142 125.282 59.8836 122.876Z" fill="#F4F4F4"/>
<path d="M234.968 220.587H204.237L207.35 182.395H231.638L238.109 216.792C238.195 217.254 238.179 217.729 238.062 218.184C237.944 218.64 237.728 219.063 237.428 219.425C237.128 219.787 236.753 220.079 236.328 220.28C235.902 220.481 235.438 220.585 234.968 220.587Z" fill="#3F4249"/>
<path d="M290.246 95.5078H296.244C297.438 95.5078 298.582 95.9816 299.426 96.8256C300.267 97.6693 300.743 98.8136 300.743 100.007V203.99C300.743 205.129 300.289 206.221 299.486 207.027C298.681 207.833 297.589 208.286 296.45 208.288H285.753V100.007C285.753 98.8144 286.226 97.671 287.067 96.8275C287.912 95.9838 289.053 95.5092 290.246 95.5078Z" fill="#3F4249"/>
<path d="M126.775 187.291H298.348V203.94C298.348 205.093 297.888 206.2 297.074 207.016C296.258 207.832 295.152 208.29 293.997 208.29H131.12C129.967 208.288 128.862 207.829 128.047 207.014C127.233 206.198 126.775 205.092 126.775 203.94V187.291Z" fill="#868A91"/>
<path d="M131.272 95.5078H293.846C295.04 95.5078 296.184 95.9816 297.028 96.8256C297.872 97.6693 298.345 98.8136 298.345 100.007V187.292H126.775V100.007C126.775 98.8141 127.249 97.6701 128.092 96.8264C128.935 95.9827 130.079 95.5084 131.272 95.5078Z" fill="#61656D"/>
<path opacity="0.2" d="M212.558 201.489C214.601 201.489 216.257 199.833 216.257 197.791C216.257 195.748 214.601 194.092 212.558 194.092C210.515 194.092 208.859 195.748 208.859 197.791C208.859 199.833 210.515 201.489 212.558 201.489Z" fill="white"/>
<path d="M235.031 221.244C234.791 221.244 234.552 221.226 234.316 221.189H186.961V220.001H234.428H234.489C234.489 220.001 235.823 220.251 236.535 219.544C237.033 219.049 237.165 218.169 236.928 216.902L238.105 216.682C238.421 218.359 238.177 219.613 237.374 220.402C236.733 220.978 235.892 221.28 235.031 221.244Z" fill="#3F4249"/>
<path d="M220.205 219.986H186.961V221.185H220.205V219.986Z" fill="#868A91"/>
<path d="M293.246 100.105H131.87V182.694H293.246V100.105Z" fill="white"/>
<path d="M293.246 100.105H131.87V106.304H293.246V100.105Z" fill="#868A91"/>
<path d="M139.218 106.305H131.87V182.691H139.218V106.305Z" fill="#868A91"/>
<path d="M293.244 106.305H264.748V182.691H293.244V106.305Z" fill="#B2B6BB"/>
<path opacity="0.6" d="M293.246 179.295H131.87V182.694H293.246V179.295Z" fill="#868A91"/>
<path d="M288.478 110.105H269.439C268.505 110.105 267.748 110.863 267.748 111.797V139.709C267.748 140.643 268.505 141.4 269.439 141.4H288.478C289.413 141.4 290.169 140.643 290.169 139.709V111.797C290.169 110.863 289.413 110.105 288.478 110.105Z" fill="#3F4249"/>
<path d="M288.478 143.699H269.439C268.505 143.699 267.748 144.456 267.748 145.39V153.805C267.748 154.74 268.505 155.497 269.439 155.497H288.478C289.413 155.497 290.169 154.74 290.169 153.805V145.39C290.169 144.456 289.413 143.699 288.478 143.699Z" fill="#3F4249"/>
<path d="M288.478 157.695H269.439C268.505 157.695 267.748 158.453 267.748 159.387V177.6C267.748 178.534 268.505 179.291 269.439 179.291H288.478C289.413 179.291 290.169 178.534 290.169 177.6V159.387C290.169 158.453 289.413 157.695 288.478 157.695Z" fill="#3F4249"/>
<path d="M157.877 106.305H139.219V108.903H157.877V106.305Z" fill="#3F4249"/>
<path d="M264.747 106.305H157.877V108.903H264.747V106.305Z" fill="#B2B6BB"/>
<path d="M286.952 114.89H270.891C270.732 114.89 270.58 114.827 270.467 114.715C270.355 114.602 270.292 114.45 270.292 114.291C270.292 114.132 270.355 113.979 270.467 113.867C270.58 113.755 270.732 113.691 270.891 113.691H286.952C287.111 113.691 287.262 113.755 287.375 113.867C287.488 113.979 287.551 114.132 287.551 114.291C287.551 114.45 287.488 114.602 287.375 114.715C287.262 114.827 287.111 114.89 286.952 114.89Z" fill="#B2B6BB"/>
<path d="M286.951 120.368H270.891C270.738 120.358 270.595 120.29 270.491 120.178C270.387 120.067 270.329 119.92 270.329 119.767C270.329 119.614 270.387 119.467 270.491 119.356C270.595 119.244 270.738 119.176 270.891 119.166H286.951C287.102 119.176 287.245 119.244 287.35 119.356C287.454 119.467 287.512 119.614 287.512 119.767C287.512 119.92 287.454 120.067 287.35 120.178C287.245 120.29 287.102 120.358 286.951 120.368Z" fill="#B2B6BB"/>
<path d="M287.693 150.199H270.148C269.996 150.189 269.853 150.121 269.748 150.01C269.644 149.898 269.586 149.751 269.586 149.598C269.586 149.446 269.644 149.299 269.748 149.187C269.853 149.076 269.996 149.008 270.148 148.998H287.693C287.776 148.992 287.858 149.003 287.935 149.031C288.012 149.059 288.084 149.102 288.144 149.158C288.205 149.215 288.254 149.283 288.287 149.359C288.318 149.434 288.337 149.516 288.337 149.598C288.337 149.681 288.318 149.763 288.287 149.838C288.254 149.914 288.205 149.982 288.144 150.038C288.084 150.095 288.012 150.138 287.935 150.166C287.858 150.193 287.776 150.205 287.693 150.199Z" fill="#B2B6BB"/>
<path d="M284.688 125.974H270.891C270.732 125.974 270.58 125.911 270.467 125.799C270.355 125.686 270.292 125.534 270.292 125.375C270.292 125.216 270.355 125.064 270.467 124.951C270.58 124.839 270.732 124.775 270.891 124.775H284.688C284.848 124.775 284.999 124.839 285.112 124.951C285.225 125.064 285.288 125.216 285.288 125.375C285.288 125.534 285.225 125.686 285.112 125.799C284.999 125.911 284.848 125.974 284.688 125.974Z" fill="#B2B6BB"/>
<path d="M284.688 130.967H270.891C270.732 130.967 270.58 130.903 270.467 130.791C270.355 130.679 270.292 130.526 270.292 130.367C270.292 130.208 270.355 130.056 270.467 129.943C270.58 129.831 270.732 129.768 270.891 129.768H284.688C284.848 129.768 284.999 129.831 285.112 129.943C285.225 130.056 285.288 130.208 285.288 130.367C285.288 130.526 285.225 130.679 285.112 130.791C284.999 130.903 284.848 130.967 284.688 130.967Z" fill="#B2B6BB"/>
<path d="M272.698 139.082C272.151 139.082 271.616 138.92 271.161 138.615C270.706 138.312 270.351 137.88 270.142 137.374C269.933 136.868 269.878 136.312 269.985 135.776C270.092 135.239 270.355 134.746 270.742 134.359C271.129 133.972 271.622 133.709 272.159 133.602C272.695 133.495 273.251 133.55 273.757 133.76C274.262 133.969 274.694 134.323 274.998 134.778C275.302 135.233 275.465 135.768 275.465 136.315C275.465 137.049 275.173 137.752 274.654 138.271C274.135 138.789 273.432 139.081 272.698 139.082ZM272.698 134.751C272.389 134.751 272.086 134.843 271.83 135.016C271.572 135.188 271.373 135.432 271.255 135.718C271.136 136.004 271.106 136.319 271.167 136.622C271.227 136.926 271.376 137.204 271.595 137.423C271.814 137.641 272.093 137.79 272.397 137.85C272.7 137.91 273.015 137.879 273.3 137.761C273.586 137.642 273.83 137.442 274.002 137.184C274.174 136.927 274.266 136.625 274.266 136.315C274.266 136.11 274.225 135.906 274.146 135.716C274.068 135.526 273.952 135.353 273.806 135.208C273.661 135.062 273.488 134.947 273.298 134.869C273.108 134.791 272.904 134.75 272.698 134.751Z" fill="white"/>
<path d="M279.125 139.082C278.578 139.085 278.041 138.926 277.582 138.624C277.126 138.321 276.768 137.89 276.556 137.385C276.345 136.88 276.287 136.324 276.391 135.786C276.499 135.248 276.76 134.754 277.145 134.365C277.533 133.976 278.025 133.711 278.561 133.603C279.1 133.495 279.656 133.549 280.162 133.758C280.67 133.967 281.102 134.321 281.407 134.776C281.713 135.232 281.875 135.767 281.875 136.315C281.875 137.046 281.583 137.747 281.069 138.265C280.555 138.783 279.856 139.077 279.125 139.082ZM279.125 134.751C278.814 134.751 278.512 134.843 278.256 135.015C278 135.188 277.799 135.432 277.681 135.718C277.563 136.004 277.533 136.319 277.593 136.622C277.654 136.926 277.802 137.204 278.022 137.423C278.242 137.641 278.52 137.79 278.822 137.85C279.128 137.91 279.441 137.879 279.727 137.761C280.013 137.642 280.258 137.441 280.428 137.184C280.602 136.927 280.692 136.625 280.692 136.315C280.692 136.11 280.651 135.906 280.571 135.716C280.494 135.526 280.379 135.353 280.233 135.208C280.087 135.062 279.914 134.947 279.724 134.869C279.535 134.79 279.331 134.75 279.125 134.751Z" fill="white"/>
<path d="M285.529 139.082C284.982 139.082 284.448 138.92 283.992 138.615C283.538 138.312 283.183 137.88 282.974 137.374C282.763 136.868 282.71 136.312 282.815 135.776C282.922 135.239 283.186 134.746 283.574 134.359C283.959 133.972 284.454 133.709 284.99 133.602C285.526 133.495 286.082 133.55 286.588 133.76C287.094 133.969 287.526 134.323 287.828 134.778C288.133 135.233 288.296 135.768 288.296 136.315C288.296 137.049 288.004 137.752 287.484 138.271C286.965 138.789 286.263 139.081 285.529 139.082ZM285.529 134.751C285.221 134.751 284.916 134.842 284.66 135.014C284.402 135.186 284.201 135.431 284.083 135.716C283.964 136.002 283.934 136.317 283.995 136.621C284.055 136.924 284.204 137.203 284.424 137.422C284.641 137.641 284.921 137.79 285.224 137.85C285.526 137.91 285.843 137.879 286.129 137.761C286.415 137.643 286.659 137.442 286.83 137.185C287.003 136.927 287.094 136.625 287.094 136.315C287.094 135.9 286.929 135.502 286.635 135.209C286.343 134.915 285.944 134.751 285.529 134.751Z" fill="white"/>
<path d="M284.397 152.499C284.237 152.499 284.086 152.435 283.973 152.323C283.86 152.21 283.797 152.058 283.797 151.899V147.098C283.797 146.939 283.86 146.786 283.973 146.673C284.086 146.561 284.237 146.498 284.397 146.498C284.556 146.498 284.707 146.561 284.82 146.673C284.933 146.786 284.996 146.939 284.996 147.098V151.899C284.996 152.058 284.933 152.21 284.82 152.322C284.707 152.434 284.556 152.498 284.397 152.499Z" fill="white"/>
<path d="M274.493 160.098H270.869C270.471 160.098 270.148 160.42 270.148 160.818V164.443C270.148 164.841 270.471 165.163 270.869 165.163H274.493C274.891 165.163 275.214 164.841 275.214 164.443V160.818C275.214 160.42 274.891 160.098 274.493 160.098Z" fill="#B2B6BB"/>
<path d="M277.025 162.629H273.4C273.002 162.629 272.679 162.951 272.679 163.349V166.974C272.679 167.372 273.002 167.694 273.4 167.694H277.025C277.423 167.694 277.745 167.372 277.745 166.974V163.349C277.745 162.951 277.423 162.629 277.025 162.629Z" fill="white"/>
<path d="M287.694 161.496H280.197C280.038 161.496 279.887 161.433 279.774 161.32C279.661 161.208 279.598 161.056 279.598 160.896C279.598 160.737 279.661 160.585 279.774 160.473C279.887 160.36 280.038 160.297 280.197 160.297H287.694C287.853 160.297 288.004 160.36 288.117 160.473C288.23 160.585 288.293 160.737 288.293 160.896C288.293 161.056 288.23 161.208 288.117 161.32C288.004 161.433 287.853 161.496 287.694 161.496Z" fill="#B2B6BB"/>
<path d="M287.694 172.445H270.149C269.99 172.445 269.837 172.382 269.725 172.269C269.613 172.157 269.55 172.005 269.55 171.846C269.55 171.687 269.613 171.534 269.725 171.422C269.837 171.309 269.99 171.246 270.149 171.246H287.694C287.854 171.246 288.005 171.309 288.118 171.422C288.23 171.534 288.294 171.687 288.294 171.846C288.294 172.005 288.23 172.157 288.118 172.269C288.005 172.382 287.854 172.445 287.694 172.445Z" fill="#B2B6BB"/>
<path d="M287.694 176.799H270.149C269.99 176.799 269.837 176.735 269.725 176.623C269.613 176.511 269.55 176.358 269.55 176.199C269.55 176.04 269.613 175.888 269.725 175.775C269.837 175.663 269.99 175.6 270.149 175.6H287.694C287.854 175.6 288.005 175.663 288.118 175.775C288.23 175.888 288.294 176.04 288.294 176.199C288.294 176.358 288.23 176.511 288.118 176.623C288.005 176.735 287.854 176.799 287.694 176.799Z" fill="#B2B6BB"/>
<path opacity="0.1" d="M264.748 115.041V113.85H259.6V108.9H258.398V113.85H253.575V108.9H252.376V113.85H247.555V108.9H246.356V113.85H241.535V108.9H240.35V113.85H235.515V108.9H234.316V113.85H229.496V108.9H228.297V113.85H223.476V108.9H222.277V113.85H217.456V108.9H216.254V113.85H211.436V108.9H210.235V113.85H205.425V108.9H204.215V113.85H199.394V108.9H198.195V113.85H193.374V108.9H192.175V113.85H187.355V108.9H186.156V113.85H181.335V108.9H180.125V113.85H175.315V108.9H174.114V113.85H169.295V108.9H168.094V113.85H163.276V108.9H162.074V113.85H157.253V108.9H156.054V113.85H151.233V108.9H150.035V113.85H145.214V108.9H144.015V113.85H139.219V115.049H144.015V119.777H139.219V120.976H144.015V125.7H139.219V126.902H144.015V131.626H139.219V132.825H144.015V137.553H139.219V138.752H144.015V143.468H139.219V144.667H144.015V149.394H139.219V150.593H144.015V155.32H139.219V156.519H144.015V161.244H139.219V162.443H144.015V167.17H139.219V168.369H144.015V173.094H139.219V174.295H144.015V179.3H145.214V174.295H150.035V179.3H151.233V174.295H156.054V179.3H157.253V174.295H162.074V179.3H163.276V174.295H168.094V179.3H169.295V174.295H174.114V179.3H175.315V174.295H180.125V179.3H181.324V174.295H186.145V179.3H187.344V174.295H192.165V179.3H193.363V174.295H198.184V179.3H199.383V174.295H204.215V179.3H205.425V174.295H210.246V179.3H211.448V174.295H216.265V179.3H217.467V174.295H222.288V179.3H223.487V174.295H228.308V179.3H229.507V174.295H234.327V179.3H235.526V174.295H240.35V179.3H241.549V174.295H246.37V179.3H247.569V174.295H252.389V179.3H253.588V174.295H258.409V179.3H259.6V174.295H264.751V173.094H259.6V168.369H264.751V167.17H259.6V162.443H264.751V161.244H259.6V156.519H264.751V155.32H259.6V150.593H264.751V149.394H259.6V144.667H264.751V143.468H259.6V138.743H264.751V137.544H259.6V132.825H264.751V131.626H259.6V126.894H264.751V125.692H259.6V120.967H264.751V119.768H259.6V115.041H264.748ZM252.373 115.041V119.768H247.555V115.041H252.373ZM222.277 143.468H217.456V138.743H222.277V143.468ZM223.476 138.743H228.297V143.468H223.476V138.743ZM216.254 143.468H211.436V138.743H216.254V143.468ZM210.235 143.468H205.425V138.743H210.246L210.235 143.468ZM204.215 143.468H199.394V138.743H204.215V143.468ZM198.195 143.468H193.374V138.743H198.195V143.468ZM192.175 143.468H187.355V138.743H192.175V143.468ZM186.156 143.468H181.335V138.743H186.156V143.468ZM180.136 143.468H175.315V138.743H180.125L180.136 143.468ZM174.114 143.468H169.295V138.743H174.114V143.468ZM174.114 144.667V149.394H169.295V144.667H174.114ZM175.315 144.667H180.125V149.394H175.315V144.667ZM181.335 144.667H186.156V149.394H181.335V144.667ZM187.355 144.667H192.175V149.394H187.355V144.667ZM193.374 144.667H198.195V149.394H193.374V144.667ZM199.394 144.667H204.215V149.394H199.394V144.667ZM205.414 144.667H210.235V149.394H205.425L205.414 144.667ZM211.436 144.667H216.254V149.394H211.436V144.667ZM217.456 144.667H222.277V149.394H217.456V144.667ZM223.476 144.667H228.297V149.394H223.476V144.667ZM229.496 144.667H234.316V149.394H229.496V144.667ZM229.496 143.468V138.743H234.316V143.468H229.496ZM229.496 137.544V132.825H234.316V137.553L229.496 137.544ZM228.297 137.544H223.476V132.825H228.297V137.544ZM222.277 137.544H217.456V132.825H222.277V137.544ZM216.254 137.544H211.436V132.825H216.254V137.544ZM210.235 137.544H205.425V132.825H210.246L210.235 137.544ZM204.215 137.544H199.394V132.825H204.215V137.544ZM198.195 137.544H193.374V132.825H198.195V137.544ZM192.175 137.544H187.355V132.825H192.175V137.544ZM186.156 137.544H181.335V132.825H186.156V137.544ZM180.136 137.544H175.315V132.825H180.125L180.136 137.544ZM174.114 137.544H169.295V132.825H174.114V137.544ZM168.094 137.544H163.276V132.825H168.094V137.544ZM168.094 138.743V143.468H163.276V138.743H168.094ZM168.094 144.667V149.394H163.276V144.667H168.094ZM168.094 150.593V155.32H163.276V150.593H168.094ZM169.295 150.593H174.114V155.32H169.295V150.593ZM175.315 150.593H180.125V155.32H175.315V150.593ZM181.335 150.593H186.156V155.32H181.335V150.593ZM187.355 150.593H192.175V155.32H187.355V150.593ZM193.374 150.593H198.195V155.32H193.374V150.593ZM199.394 150.593H204.215V155.32H199.394V150.593ZM205.414 150.593H210.235V155.32H205.425L205.414 150.593ZM211.436 150.593H216.254V155.32H211.436V150.593ZM217.456 150.593H222.277V155.32H217.456V150.593ZM223.476 150.593H228.297V155.32H223.476V150.593ZM229.496 150.593H234.316V155.32H229.496V150.593ZM235.515 150.593H240.35V155.32H235.515V150.593ZM235.515 149.394V144.667H240.35V149.394H235.515ZM235.515 143.468V138.743H240.35V143.468H235.515ZM235.515 137.544V132.825H240.35V137.553L235.515 137.544ZM235.515 131.618V126.894H240.35V131.618H235.515ZM234.316 131.618H229.496V126.894H234.316V131.618ZM228.297 131.618H223.476V126.894H228.297V131.618ZM222.277 131.618H217.456V126.894H222.277V131.618ZM216.254 131.618H211.436V126.894H216.254V131.618ZM210.235 131.618H205.425V126.894H210.246L210.235 131.618ZM204.215 131.618H199.394V126.894H204.215V131.618ZM198.195 131.618H193.374V126.894H198.195V131.618ZM192.175 131.618H187.355V126.894H192.175V131.618ZM186.156 131.618H181.335V126.894H186.156V131.618ZM180.136 131.618H175.315V126.894H180.125L180.136 131.618ZM174.114 131.618H169.295V126.894H174.114V131.618ZM168.094 131.618H163.276V126.894H168.094V131.618ZM162.074 131.618H157.253V126.894H162.074V131.618ZM162.074 132.817V137.544H157.253V132.825L162.074 132.817ZM162.074 138.743V143.468H157.253V138.743H162.074ZM162.074 144.667V149.394H157.253V144.667H162.074ZM162.074 150.593V155.32H157.253V150.593H162.074ZM162.074 156.519V161.244H157.253V156.519H162.074ZM163.276 156.519H168.094V161.244H163.276V156.519ZM169.295 156.519H174.114V161.244H169.295V156.519ZM175.315 156.519H180.125V161.244H175.315V156.519ZM181.335 156.519H186.156V161.244H181.335V156.519ZM187.355 156.519H192.175V161.244H187.355V156.519ZM193.374 156.519H198.195V161.244H193.374V156.519ZM199.394 156.519H204.215V161.244H199.394V156.519ZM205.414 156.519H210.235V161.244H205.425L205.414 156.519ZM211.436 156.519H216.254V161.244H211.436V156.519ZM217.456 156.519H222.277V161.244H217.456V156.519ZM223.476 156.519H228.297V161.244H223.476V156.519ZM229.496 156.519H234.316V161.244H229.496V156.519ZM235.515 156.519H240.35V161.244H235.515V156.519ZM241.535 156.519H246.356V161.244H241.535V156.519ZM241.535 155.32V150.593H246.356V155.32H241.535ZM241.535 149.394V144.667H246.356V149.394H241.535ZM241.535 143.468V138.743H246.356V143.468H241.535ZM241.535 137.544V132.825H246.356V137.553L241.535 137.544ZM241.535 131.618V126.894H246.356V131.618H241.535ZM241.535 125.692V120.967H246.356V125.692H241.535ZM240.336 125.692H235.515V120.967H240.35L240.336 125.692ZM234.316 125.692H229.496V120.967H234.316V125.692ZM228.297 125.692H223.476V120.967H228.297V125.692ZM222.277 125.692H217.456V120.967H222.277V125.692ZM216.254 125.692H211.436V120.967H216.254V125.692ZM210.235 125.692H205.425V120.967H210.246L210.235 125.692ZM204.215 125.692H199.394V120.967H204.215V125.692ZM198.195 125.692H193.374V120.967H198.195V125.692ZM192.175 125.692H187.355V120.967H192.175V125.692ZM186.156 125.692H181.335V120.967H186.156V125.692ZM180.136 125.692H175.315V120.967H180.125L180.136 125.692ZM174.114 125.692H169.295V120.967H174.114V125.692ZM168.094 125.692H163.276V120.967H168.094V125.692ZM162.074 125.692H157.253V120.967H162.074V125.692ZM156.054 125.692H151.233V120.967H156.054V125.692ZM156.054 126.894V131.618H151.233V126.894H156.054ZM156.054 132.817V137.544H151.233V132.825L156.054 132.817ZM156.054 138.743V143.468H151.233V138.743H156.054ZM156.054 144.667V149.394H151.233V144.667H156.054ZM156.054 150.593V155.32H151.233V150.593H156.054ZM156.054 156.519V161.244H151.233V156.519H156.054ZM156.054 162.443V167.17H151.233V162.443H156.054ZM157.253 162.443H162.074V167.17H157.253V162.443ZM163.276 162.443H168.094V167.17H163.276V162.443ZM169.295 162.443H174.114V167.17H169.295V162.443ZM175.315 162.443H180.125V167.17H175.315V162.443ZM181.335 162.443H186.156V167.17H181.335V162.443ZM187.355 162.443H192.175V167.17H187.355V162.443ZM193.374 162.443H198.195V167.17H193.374V162.443ZM199.394 162.443H204.215V167.17H199.394V162.443ZM205.414 162.443H210.235V167.17H205.425L205.414 162.443ZM211.436 162.443H216.254V167.17H211.436V162.443ZM217.456 162.443H222.277V167.17H217.456V162.443ZM223.476 162.443H228.297V167.17H223.476V162.443ZM229.496 162.443H234.316V167.17H229.496V162.443ZM235.515 162.443H240.35V167.17H235.515V162.443ZM241.535 162.443H246.356V167.17H241.535V162.443ZM247.555 162.443H252.376V167.17H247.555V162.443ZM247.555 161.244V156.519H252.376V161.244H247.555ZM247.555 155.32V150.593H252.376V155.32H247.555ZM247.555 149.394V144.667H252.376V149.394H247.555ZM247.555 143.468V138.743H252.376V143.468H247.555ZM247.555 137.544V132.825H252.376V137.553L247.555 137.544ZM247.555 131.618V126.894H252.376V131.618H247.555ZM247.555 125.692V120.967H252.376V125.692H247.555ZM246.356 115.041V119.768H241.535V115.041H246.356ZM240.336 115.041V119.768H235.515V115.041H240.336ZM234.316 115.041V119.768H229.496V115.041H234.316ZM228.297 115.041V119.768H223.476V115.041H228.297ZM222.277 115.041V119.768H217.456V115.041H222.277ZM216.254 115.041V119.768H211.436V115.041H216.254ZM210.235 115.041V119.768H205.425V115.041H210.235ZM204.215 115.041V119.768H199.394V115.041H204.215ZM198.195 115.041V119.768H193.374V115.041H198.195ZM192.175 115.041V119.768H187.355V115.041H192.175ZM186.156 115.041V119.768H181.335V115.041H186.156ZM180.136 115.041V119.768H175.315V115.041H180.136ZM174.114 115.041V119.768H169.295V115.041H174.114ZM168.094 115.041V119.768H163.276V115.041H168.094ZM162.074 115.041V119.768H157.253V115.041H162.074ZM156.054 115.041V119.768H151.233V115.041H156.054ZM145.214 115.041H150.035V119.768H145.214V115.041ZM145.214 120.967H150.035V125.692H145.214V120.967ZM145.214 126.894H150.035V131.618H145.214V126.894ZM145.214 132.817H150.035V137.544H145.214V132.817ZM145.214 138.743H150.035V143.468H145.214V138.743ZM145.214 144.667H150.035V149.394H145.214V144.667ZM145.214 150.593H150.035V155.32H145.214V150.593ZM145.214 156.519H150.035V161.244H145.214V156.519ZM145.214 162.443H150.035V167.17H145.214V162.443ZM145.214 173.094V168.369H150.035V173.094H145.214ZM151.233 173.094V168.369H156.054V173.094H151.233ZM157.253 173.094V168.369H162.074V173.094H157.253ZM163.276 173.094V168.369H168.094V173.094H163.276ZM169.295 173.094V168.369H174.114V173.094H169.295ZM175.315 173.094V168.369H180.125V173.094H175.315ZM181.335 173.094V168.369H186.156V173.094H181.335ZM187.355 173.094V168.369H192.175V173.094H187.355ZM193.374 173.094V168.369H198.195V173.094H193.374ZM199.394 173.094V168.369H204.215V173.094H199.394ZM205.414 173.094V168.369H210.235V173.094H205.414ZM211.436 173.094V168.369H216.254V173.094H211.436ZM217.456 173.094V168.369H222.277V173.094H217.456ZM223.476 173.094V168.369H228.297V173.094H223.476ZM229.496 173.094V168.369H234.316V173.094H229.496ZM235.515 173.094V168.369H240.35V173.094H235.515ZM241.535 173.094V168.369H246.356V173.094H241.535ZM247.555 173.094V168.369H252.376V173.094H247.555ZM258.395 173.094H253.575V168.369H258.395V173.094ZM258.395 167.17H253.575V162.443H258.395V167.17ZM258.395 161.244H253.575V156.519H258.395V161.244ZM258.395 155.32H253.575V150.593H258.395V155.32ZM258.395 149.394H253.575V144.667H258.395V149.394ZM258.395 143.468H253.575V138.743H258.395V143.468ZM258.395 137.544H253.575V132.825H258.395V137.544ZM258.395 131.618H253.575V126.894H258.395V131.618ZM258.395 125.692H253.575V120.967H258.395V125.692ZM258.395 119.768H253.575V115.041H258.395V119.768Z" fill="#B2B6BB"/>
<path d="M159.227 159.121L179.536 123.945L199.844 159.121H159.227Z" fill="#3F4249"/>
<path d="M193.749 136.882C195.833 136.882 197.522 135.193 197.522 133.109C197.522 131.025 195.833 129.336 193.749 129.336C191.665 129.336 189.976 131.025 189.976 133.109C189.976 135.193 191.665 136.882 193.749 136.882Z" fill="#F4B01A"/>
<path d="M170.995 130.643H151.115V150.522H170.995V130.643Z" fill="#F4B01A"/>
<path opacity="0.7" d="M197.612 165.39C195.067 165.39 192.578 164.636 190.462 163.221C188.345 161.807 186.696 159.797 185.722 157.445C184.748 155.094 184.493 152.506 184.989 150.009C185.486 147.513 186.712 145.22 188.511 143.42C190.312 141.62 192.605 140.394 195.101 139.898C197.598 139.401 200.185 139.656 202.537 140.63C204.889 141.604 206.899 143.254 208.313 145.37C209.727 147.487 210.482 149.975 210.482 152.52C210.478 155.932 209.121 159.204 206.708 161.617C204.296 164.029 201.024 165.387 197.612 165.39ZM197.612 141.531C195.437 141.531 193.31 142.176 191.501 143.385C189.692 144.594 188.282 146.312 187.449 148.322C186.617 150.332 186.399 152.544 186.824 154.677C187.248 156.811 188.296 158.771 189.834 160.31C191.372 161.848 193.332 162.895 195.466 163.32C197.6 163.744 199.811 163.527 201.821 162.694C203.831 161.861 205.55 160.451 206.758 158.643C207.967 156.834 208.612 154.707 208.612 152.531C208.612 149.614 207.453 146.816 205.39 144.753C203.327 142.69 200.53 141.531 197.612 141.531Z" fill="#B2B6BB"/>
<path d="M242.792 134.895H215.132C214.458 134.895 213.911 135.441 213.911 136.116C213.911 136.79 214.458 137.337 215.132 137.337H242.792C243.466 137.337 244.013 136.79 244.013 136.116C244.013 135.441 243.466 134.895 242.792 134.895Z" fill="#868A91"/>
<path d="M254.831 141.963H215.132C214.458 141.963 213.911 142.51 213.911 143.184C213.911 143.858 214.458 144.405 215.132 144.405H254.831C255.506 144.405 256.052 143.858 256.052 143.184C256.052 142.51 255.506 141.963 254.831 141.963Z" fill="#868A91"/>
<path d="M228.173 150.592H217.22C215.724 150.592 214.511 151.805 214.511 153.301C214.511 154.797 215.724 156.009 217.22 156.009H228.173C229.669 156.009 230.882 154.797 230.882 153.301C230.882 151.805 229.669 150.592 228.173 150.592Z" fill="#F4B01A"/>
<path d="M159.796 107.175C159.814 120.658 154.676 133.638 145.433 143.456C144.582 144.372 143.699 145.249 142.785 146.087C138.603 149.962 133.825 153.138 128.633 155.492C126.563 156.43 124.433 157.232 122.259 157.893C120.733 158.361 119.175 158.758 117.584 159.087C114.024 159.822 110.397 160.191 106.762 160.187H106.738C103.882 160.187 101.031 159.956 98.2125 159.496C95.9911 159.14 93.7955 158.639 91.64 157.995C88.8589 157.17 86.151 156.116 83.544 154.843C74.6439 150.505 67.1356 143.763 61.8688 135.379C56.6017 126.995 53.7863 117.304 53.7412 107.403C53.6958 97.5025 56.4227 87.7865 61.6128 79.3547C66.8031 70.9232 74.2493 64.1123 83.1095 59.6933C85.7979 58.3499 88.5969 57.2395 91.475 56.3741L91.6208 56.3301C92.1323 56.1788 92.6465 56.0331 93.1663 55.8983C93.2405 55.8763 93.3148 55.8543 93.3918 55.8378C94.9785 55.4253 96.59 55.0816 98.229 54.8203C101.053 54.3622 103.909 54.1323 106.771 54.1328C108.47 54.1328 110.156 54.2126 111.814 54.3721C112.763 54.4601 113.703 54.5728 114.638 54.7158C125.48 56.3364 135.548 61.2889 143.45 68.8866C143.981 69.3926 144.498 69.9096 145.006 70.4376C145.155 70.5916 145.304 70.7483 145.447 70.9023C145.87 71.3533 146.283 71.8115 146.687 72.2773C147.937 73.7002 149.107 75.1912 150.193 76.7433C150.867 77.7003 151.508 78.6683 152.118 79.6803C153.454 81.8842 154.628 84.1818 155.632 86.5553C155.795 86.9403 155.952 87.3253 156.106 87.7158V87.7351V87.7571C157.007 90.0473 157.748 92.3977 158.322 94.7916C158.432 95.2481 158.534 95.7073 158.633 96.1666C159.402 99.7856 159.792 103.475 159.796 107.175Z" fill="#B2B6BB"/>
<path d="M105.782 97.5485C97.4215 106.384 84.7138 107.932 77.3905 101.005C70.0673 94.078 70.917 81.3042 79.277 72.4685C80.7216 70.9367 82.3457 69.5851 84.1143 68.4425C92.0013 63.3495 101.651 63.3192 107.668 69.009C108.704 69.991 109.599 71.1116 110.327 72.3392C114.587 79.536 112.937 89.986 105.782 97.5485Z" fill="black"/>
<path d="M102.104 65.6435C96.5678 63.7185 89.8715 64.725 84.113 68.443C87.3718 73.481 92.77 76.7728 98.8833 76.7728C101.355 76.7725 103.796 76.2269 106.033 75.175C104.711 72.0015 103.413 68.8197 102.104 65.6435Z" fill="#F4B01A"/>
<path d="M114.813 57.2635C114.813 66.7895 107.682 74.5087 98.8846 74.5087C90.0873 74.5087 82.9538 66.7895 82.9538 57.2635C82.9461 54.2946 83.6625 51.3683 85.0411 48.7385L85.1181 48.5982C87.7883 43.6482 92.6888 40.252 98.3318 40.043C98.5133 40.043 98.6975 40.043 98.8818 40.043C99.066 40.043 99.297 40.043 99.5005 40.0595C100.196 40.0872 100.889 40.1642 101.574 40.2905C107.236 41.3382 111.881 45.62 113.823 51.3207C113.913 51.5957 113.999 51.846 114.076 52.1155C114.563 53.7883 114.811 55.5213 114.813 57.2635Z" fill="black"/>
<path d="M149.782 92.9822L151.707 83.9567C151.746 83.7758 151.718 83.5869 151.628 83.4249C151.538 83.2629 151.392 83.1394 151.218 83.0767H151.196C150.761 82.9192 150.283 82.9282 149.855 83.1026C149.427 83.2769 149.078 83.6039 148.877 84.02L147.676 86.5417L149.782 92.9822Z" fill="#956363"/>
<path opacity="0.15" d="M149.782 92.9822L151.707 83.9567C151.746 83.7758 151.718 83.5869 151.628 83.4249C151.538 83.2629 151.392 83.1394 151.218 83.0767H151.196C150.761 82.9192 150.283 82.9282 149.855 83.1026C149.427 83.2769 149.078 83.6039 148.877 84.02L147.676 86.5417L149.782 92.9822Z" fill="black"/>
<path d="M156.079 87.7244L162.622 81.2096C162.753 81.0787 162.928 81.0001 163.113 80.988C163.297 80.9759 163.481 81.0311 163.628 81.1436L163.647 81.1574C164.015 81.4381 164.265 81.8451 164.35 82.2997C164.435 82.7543 164.348 83.2243 164.107 83.6186L162.641 86.0139L156.079 87.7244Z" fill="#956363"/>
<path opacity="0.15" d="M156.079 87.7244L162.622 81.2096C162.753 81.0787 162.928 81.0001 163.113 80.988C163.297 80.9759 163.481 81.0311 163.628 81.1436L163.647 81.1574C164.015 81.4381 164.265 81.8451 164.35 82.2997C164.435 82.7543 164.348 83.2243 164.107 83.6186L162.641 86.0139L156.079 87.7244Z" fill="black"/>
<path d="M179.597 44.9121H152.047C148.159 44.9121 145.007 48.0642 145.007 51.9521V79.5016C145.007 83.3898 148.159 86.5416 152.047 86.5416H179.597C183.485 86.5416 186.637 83.3898 186.637 79.5016V51.9521C186.637 48.0642 183.485 44.9121 179.597 44.9121Z" fill="#F4B01A"/>
<path opacity="0.15" d="M179.597 44.9121H152.047C148.159 44.9121 145.007 48.0642 145.007 51.9521V79.5016C145.007 83.3898 148.159 86.5416 152.047 86.5416H179.597C183.485 86.5416 186.637 83.3898 186.637 79.5016V51.9521C186.637 48.0642 183.485 44.9121 179.597 44.9121Z" fill="black"/>
<path d="M178.041 44.9121H150.492C146.603 44.9121 143.452 48.0642 143.452 51.9521V79.5016C143.452 83.3898 146.603 86.5416 150.492 86.5416H178.041C181.929 86.5416 185.081 83.3898 185.081 79.5016V51.9521C185.081 48.0642 181.929 44.9121 178.041 44.9121Z" fill="#F4B01A"/>
<path d="M177.259 77.0245C176.813 77.0311 176.368 76.997 175.928 76.9228C175.893 76.9145 175.858 76.9044 175.824 76.8925C175.62 76.8271 175.432 76.7182 175.274 76.5735C174.961 76.147 174.699 75.6856 174.493 75.1985C174.115 74.4211 173.781 73.7025 173.492 73.0425L172.502 70.7105L165.165 53.4433L165.082 53.248H163.952L163.87 53.4433C163.013 55.4783 162.154 57.5114 161.29 59.5428L156.56 70.2678L154.734 74.2333C154.154 75.4873 153.769 76.2243 153.576 76.4525C153.409 76.6646 153.182 76.8216 152.925 76.9035C152.82 76.9341 152.714 76.9552 152.606 76.9668C152.309 77.0025 151.869 77.0273 151.291 77.0355L151.134 77.173V78.0778L151.291 78.2153C152.589 78.1237 153.872 78.0778 155.141 78.0778C156.265 78.0778 157.575 78.1237 159.071 78.2153L159.211 78.0778V77.173L159.054 77.0355C157.792 77.0355 157 76.9475 156.687 76.8073C156.551 76.763 156.434 76.6772 156.35 76.5623C156.266 76.4473 156.22 76.3087 156.219 76.1665C156.284 75.556 156.454 74.9615 156.722 74.4093L158.62 69.9543H168.69L170.827 75.2618C170.969 75.5805 171.053 75.9223 171.075 76.271C171.081 76.4138 171.035 76.5537 170.944 76.6643C170.854 76.7748 170.726 76.8483 170.585 76.8705C169.78 76.9959 168.966 77.0512 168.151 77.0355L168.011 77.173V78.0778L168.151 78.2153C170.074 78.1713 171.999 78.1199 173.926 78.0613C174.449 78.0613 175.005 78.075 175.596 78.1025C176.118 78.13 176.671 78.1685 177.246 78.2153L177.292 78.1685L177.383 78.0778V77.173L177.259 77.0245ZM159.225 68.4473L163.661 57.9615L168.025 68.4473H159.225Z" fill="white"/>
<path d="M178.867 54.7245V51.7793H175.927V53.0553H152.604V51.7793H149.665V54.7245H150.938V76.7465H149.665V79.6835H152.604V78.4075H175.927V79.6835H178.867V76.7383H177.591V54.7245H178.867ZM152.604 78.0198V76.7465H151.328V54.7245H152.604V53.4513H175.927V54.7245H177.2V76.7465H175.927V78.0198H152.604Z" fill="#F4B01A"/>
<path opacity="0.2" d="M178.867 54.7245V51.7793H175.927V53.0553H152.604V51.7793H149.665V54.7245H150.938V76.7465H149.665V79.6835H152.604V78.4075H175.927V79.6835H178.867V76.7383H177.591V54.7245H178.867ZM152.604 78.0198V76.7465H151.328V54.7245H152.604V53.4513H175.927V54.7245H177.2V76.7465H175.927V78.0198H152.604Z" fill="black"/>
<path d="M111.084 79.8108L116.716 94.1796C113.314 99.2809 97.1055 97.1606 92.7908 90.7806L87.5823 78.6641L88.7813 78.3341C89.356 78.1817 89.8656 77.8471 90.2338 77.3804C90.6023 76.914 90.8094 76.3406 90.8245 75.7463L91.9685 62.2961L106.205 60.3711L106.678 71.3711L106.92 76.8436C106.982 77.3925 107.206 77.91 107.564 78.3302C107.923 78.7502 108.398 79.0532 108.931 79.2003L111.084 79.8108Z" fill="#956363"/>
<path d="M102.693 74.7397L101.948 74.7617C99.3639 74.8409 96.8539 73.8908 94.9699 72.1198C93.0862 70.349 91.9829 67.9024 91.9023 65.3182L91.4788 51.6479C91.4656 51.2209 91.5368 50.7954 91.6878 50.3959C91.839 49.9963 92.0676 49.6303 92.3602 49.319C92.653 49.0077 93.0039 48.7571 93.3936 48.5817C93.783 48.406 94.2032 48.3089 94.6303 48.2957L107.388 47.9024C107.942 47.8851 108.495 47.9775 109.014 48.1736C109.533 48.3699 110.008 48.6667 110.412 49.0467C110.816 49.4268 111.142 49.8824 111.37 50.3884C111.598 50.8942 111.724 51.4398 111.741 51.9944L112.134 64.6939C112.174 65.9735 111.962 67.2484 111.509 68.4458C111.056 69.6434 110.372 70.7398 109.495 71.6726C108.618 72.6054 107.566 73.3564 106.399 73.8828C105.232 74.4091 103.973 74.7001 102.693 74.7397Z" fill="#956363"/>
<path d="M101.867 61.0863C102.452 61.0863 102.926 60.6122 102.926 60.0275C102.926 59.4426 102.452 58.9688 101.867 58.9688C101.283 58.9688 100.809 59.4426 100.809 60.0275C100.809 60.6122 101.283 61.0863 101.867 61.0863Z" fill="#21252B"/>
<path d="M102.478 60.4585C102.604 60.4585 102.706 60.3564 102.706 60.2302C102.706 60.1043 102.604 60.002 102.478 60.002C102.352 60.002 102.25 60.1043 102.25 60.2302C102.25 60.3564 102.352 60.4585 102.478 60.4585Z" fill="white"/>
<path d="M110.019 60.9593C110.603 60.9593 111.077 60.4852 111.077 59.9005C111.077 59.3156 110.603 58.8418 110.019 58.8418C109.434 58.8418 108.96 59.3156 108.96 59.9005C108.96 60.4852 109.434 60.9593 110.019 60.9593Z" fill="#21252B"/>
<path d="M110.555 60.3764C110.681 60.3764 110.783 60.2741 110.783 60.1482C110.783 60.0219 110.681 59.9199 110.555 59.9199C110.429 59.9199 110.327 60.0219 110.327 60.1482C110.327 60.2741 110.429 60.3764 110.555 60.3764Z" fill="white"/>
<g opacity="0.3">
<path opacity="0.3" d="M106.15 65.9995L104.72 66.0902C104.642 66.0897 104.567 66.0594 104.511 66.0061C104.454 65.9525 104.42 65.8793 104.415 65.8018C104.41 65.724 104.435 65.6472 104.484 65.587C104.534 65.5268 104.604 65.4875 104.681 65.477L106.109 65.3863C106.272 65.3648 106.422 65.282 106.526 65.1547C106.631 65.0271 106.683 64.8646 106.672 64.7001C106.661 64.5357 106.588 64.3814 106.468 64.2687C106.347 64.1562 106.188 64.0935 106.023 64.0938C105.945 64.0932 105.871 64.063 105.814 64.0096C105.758 63.956 105.723 63.8828 105.719 63.8053C105.714 63.7275 105.738 63.6507 105.788 63.5905C105.837 63.5303 105.908 63.491 105.985 63.4805C106.317 63.4618 106.643 63.5751 106.893 63.7957C107.142 64.0162 107.294 64.3261 107.316 64.6583C107.338 64.9905 107.227 65.3178 107.009 65.5689C106.791 65.8199 106.482 65.9747 106.15 65.9995Z" fill="black"/>
</g>
<path d="M92.6174 65.8762C92.6174 65.8762 88.0029 66.5802 86.6884 62.0565C85.3739 57.5327 91.0059 56.2815 92.1499 60.841L93.1427 65.8432L92.6174 65.8762Z" fill="#956363"/>
<path opacity="0.3" d="M87.9423 59.5125C88.1265 59.3431 88.3438 59.2133 88.5803 59.1314C88.8168 59.0494 89.0678 59.0173 89.3173 59.0368C89.562 59.0838 89.7941 59.1814 89.9987 59.3236C90.2033 59.4658 90.376 59.6489 90.5053 59.8618C90.8743 60.3769 91.1009 60.9802 91.1625 61.6108L91.2203 62.1085C91.2725 62.4715 90.6455 62.6283 90.6043 62.202L90.5328 61.652C90.4681 61.1364 90.2919 60.6409 90.0158 60.2C89.9415 60.0469 89.8304 59.9146 89.6921 59.815C89.554 59.7155 89.3932 59.652 89.2243 59.63C89.0552 59.6082 88.8836 59.6289 88.7246 59.6899C88.5657 59.751 88.4243 59.8508 88.3135 59.98C88.2833 60.0092 88.2472 60.0317 88.2079 60.046C88.1683 60.0606 88.1262 60.0667 88.0844 60.0639C88.0424 60.0612 88.0017 60.0496 87.9643 60.0304C87.9271 60.0108 87.8941 59.9839 87.868 59.9512C87.8416 59.9184 87.8226 59.8805 87.8116 59.8398C87.8009 59.7991 87.7987 59.7567 87.8053 59.7152C87.8116 59.6737 87.8268 59.6341 87.8493 59.5986C87.8721 59.5634 87.9018 59.5332 87.9368 59.5098L87.9423 59.5125Z" fill="black"/>
<path d="M114.887 60.7753C114.829 59.9179 114.513 59.0981 113.979 58.4249C113.445 57.7514 112.719 57.2564 111.897 57.0051C111.409 56.8522 110.896 56.7917 110.385 56.8263C109.753 56.8684 109.139 57.0515 108.587 57.3623C108.036 57.673 107.561 58.1037 107.198 58.6221C106.351 58.3185 105.424 58.3185 104.577 58.6221C104.096 57.7993 103.35 57.1632 102.462 56.8167C101.574 56.4702 100.595 56.4339 99.6838 56.7133C98.7721 56.9927 97.9818 57.5716 97.4406 58.3561C96.8991 59.141 96.6387 60.0853 96.7009 61.0366C96.7127 61.2431 96.7413 61.448 96.7861 61.6498C97.0111 62.6904 97.6196 63.6081 98.4911 64.2197C99.3623 64.8316 100.432 65.0925 101.487 64.9506C102.542 64.8087 103.505 64.2744 104.184 63.4541C104.863 62.634 105.207 61.5882 105.149 60.5251C105.15 60.5113 105.15 60.4976 105.149 60.4838C105.119 60.01 105.007 59.545 104.819 59.1088C105.501 58.8907 106.233 58.8907 106.914 59.1088C106.551 59.7886 106.381 60.5556 106.425 61.3253C106.46 61.8816 106.605 62.4259 106.851 62.9261C107.097 63.4266 107.439 63.8735 107.858 64.2414C108.277 64.6091 108.765 64.8907 109.293 65.07C109.821 65.249 110.379 65.3222 110.935 65.2853C111.349 65.2542 111.756 65.1616 112.142 65.0103C112.995 64.693 113.724 64.1091 114.219 63.3452C114.714 62.5815 114.95 61.6784 114.892 60.7698L114.887 60.7753ZM101.167 64.4383C100.289 64.495 99.4192 64.2373 98.7136 63.7112C98.0082 63.1851 97.5132 62.4253 97.3168 61.5673C97.2731 61.3776 97.2445 61.1842 97.2316 60.9898C97.2002 60.5058 97.2643 60.0202 97.4203 59.5609C97.5765 59.1014 97.8212 58.6773 98.1413 58.3127C98.4611 57.948 98.85 57.6499 99.285 57.4354C99.7204 57.2212 100.193 57.0944 100.677 57.0628C101.162 57.0312 101.647 57.0953 102.107 57.2515C102.566 57.4074 102.99 57.6524 103.355 57.9725C103.719 58.2923 104.017 58.6809 104.232 59.1162C104.446 59.5513 104.573 60.0246 104.604 60.5086C104.606 60.5341 104.606 60.56 104.604 60.5856C104.649 61.5505 104.315 62.4949 103.672 63.2162C103.03 63.9378 102.131 64.3795 101.167 64.4466V64.4383ZM114.067 62.4748C113.7 63.3567 113.005 64.0618 112.128 64.4411C111.741 64.6135 111.325 64.7141 110.902 64.7381C110.173 64.7854 109.447 64.6157 108.814 64.2502C108.182 63.8847 107.672 63.34 107.349 62.6849C107.027 62.0296 106.905 61.2934 107.001 60.5693C107.096 59.8453 107.405 59.1657 107.886 58.6168C108.368 58.0677 109.002 57.6739 109.707 57.4849C110.413 57.296 111.158 57.3208 111.85 57.5556C112.542 57.7905 113.148 58.225 113.593 58.8044C114.037 59.3841 114.3 60.0823 114.348 60.8111C114.364 61.028 114.364 61.2458 114.348 61.4628C114.305 61.8148 114.211 62.1586 114.067 62.4831V62.4748Z" fill="white"/>
<path d="M91.2532 65.2578C91.765 65.2578 92.18 64.8428 92.18 64.331C92.18 63.819 91.765 63.4043 91.2532 63.4043C90.7415 63.4043 90.3265 63.819 90.3265 64.331C90.3265 64.8428 90.7415 65.2578 91.2532 65.2578Z" fill="white"/>
<path opacity="0.15" d="M91.6189 65.0893C91.353 65.1061 91.0917 65.0167 90.8918 64.841C90.6916 64.665 90.5695 64.4172 90.5519 64.1516C90.5373 63.9604 90.5794 63.769 90.6729 63.6016C90.4818 63.7553 90.3594 63.9783 90.333 64.222C90.3063 64.4656 90.3776 64.7098 90.5313 64.9009C90.6847 65.0921 90.9078 65.2144 91.1517 65.2408C91.3953 65.2675 91.6395 65.1963 91.8307 65.0426C91.7616 65.0651 91.6907 65.0808 91.6189 65.0893Z" fill="black"/>
<path opacity="0.15" d="M91.7077 65.9102H93.212L91.496 68.9104L91.7077 65.9102Z" fill="black"/>
<path opacity="0.15" d="M96.1155 73.4695C97.4858 74.2665 99.0046 74.7747 100.579 74.9628C102.038 76.1062 103.831 76.7423 105.685 76.775C106.096 76.7965 106.507 76.7376 106.895 76.6018L106.769 73.7005L106.494 73.8188C105.265 74.3248 103.958 74.432 102.512 74.4788C102.113 74.4788 101.723 74.4788 101.335 74.4595C101.181 74.4595 101.035 74.443 100.889 74.4238C100.856 74.4279 100.823 74.4279 100.79 74.4238C100.557 74.3963 100.328 74.3605 100.111 74.3248L99.8362 74.2698C98.6279 74.0402 97.4679 73.6048 96.407 72.9828C96.3751 72.9624 96.339 72.9487 96.3016 72.9429C96.2642 72.9369 96.226 72.9388 96.1894 72.9484C96.1529 72.9578 96.1185 72.9748 96.0888 72.9985C96.0588 73.0218 96.0343 73.051 96.0165 73.0845C95.9967 73.1162 95.9837 73.1514 95.9782 73.1879C95.9725 73.2248 95.9744 73.2622 95.9837 73.2982C95.9928 73.3342 96.0093 73.3678 96.0319 73.3972C96.0547 73.4269 96.083 73.4514 96.1155 73.4695Z" fill="black"/>
<path d="M106.933 67.6665C106.965 67.667 106.996 67.6758 107.024 67.6923C107.051 67.7085 107.074 67.7316 107.09 67.7594C107.106 67.7872 107.114 67.8185 107.114 67.8504C107.114 67.8823 107.106 67.9137 107.09 67.9415C106.84 68.453 106.45 68.8831 105.965 69.1817C105.48 69.4801 104.921 69.6349 104.351 69.6275C103.782 69.6203 103.226 69.4518 102.749 69.141C102.272 68.8303 101.893 68.3905 101.656 67.8727C101.64 67.8444 101.632 67.8122 101.632 67.7795C101.632 67.747 101.642 67.7151 101.658 67.6871C101.675 67.659 101.699 67.6359 101.728 67.6203C101.756 67.6046 101.788 67.5969 101.821 67.5977L106.933 67.6665Z" fill="white"/>
<path d="M172.947 79.2001C172.743 79.1613 172.532 79.1996 172.354 79.3071C172.176 79.4149 172.045 79.5843 171.985 79.7831L170.535 84.5819C170.484 84.7485 170.384 84.8956 170.248 85.0051C170.112 85.1143 169.947 85.1805 169.774 85.1951L159.513 86.0558C158.46 86.1449 157.46 86.5585 156.652 87.2397C155.843 87.9209 155.267 88.8361 155.001 89.8591L153.818 94.3251L162.052 97.4628L162.923 94.5891C162.991 94.3666 163.117 94.1664 163.288 94.0088C163.46 93.8513 163.669 93.7421 163.897 93.6926L170.948 92.1718C171.774 91.9931 172.505 91.5162 173.002 90.8326L179.877 81.5459C180.001 81.3701 180.051 81.1534 180.017 80.9411C179.983 80.7291 179.868 80.5385 179.696 80.4101C179.535 80.2985 179.339 80.2476 179.144 80.2665C178.949 80.2858 178.767 80.3738 178.631 80.5146L175.606 83.7926L177.278 78.5099C177.342 78.294 177.317 78.0619 177.21 77.8642C177.103 77.6664 176.922 77.5188 176.706 77.4539C176.508 77.3942 176.294 77.4093 176.105 77.4965C175.917 77.5837 175.767 77.7368 175.683 77.9269L172.502 85.3051L173.602 80.2039C173.625 80.095 173.627 79.9825 173.607 79.8728C173.587 79.763 173.545 79.6585 173.484 79.5653C173.423 79.4718 173.344 79.3915 173.252 79.3288C173.16 79.2661 173.056 79.2224 172.947 79.2001Z" fill="#956363"/>
<g opacity="0.15">
<path opacity="0.15" d="M175.4 85.5768C175.454 85.5768 175.507 85.5594 175.55 85.5273C175.593 85.4951 175.626 85.4497 175.642 85.398L176.208 83.473C176.22 83.4403 176.226 83.4056 176.224 83.371C176.222 83.3361 176.213 83.3022 176.198 83.2712C176.182 83.2401 176.161 83.2123 176.134 83.19C176.107 83.1678 176.076 83.151 176.043 83.1414C176.01 83.1315 175.975 83.1284 175.94 83.1328C175.906 83.137 175.872 83.1485 175.842 83.1661C175.813 83.1837 175.787 83.2076 175.766 83.2357C175.746 83.2637 175.732 83.2959 175.724 83.3297L175.158 85.2547C175.148 85.2866 175.145 85.3199 175.148 85.3532C175.151 85.3862 175.161 85.4181 175.177 85.4472C175.193 85.4767 175.215 85.5022 175.24 85.5231C175.266 85.5438 175.296 85.5592 175.328 85.5685C175.351 85.574 175.375 85.5768 175.4 85.5768Z" fill="black"/>
</g>
<path d="M162.64 95.9555L155.468 140.926C155.274 142.213 154.764 143.431 153.986 144.474C153.772 144.767 153.535 145.043 153.276 145.299C152.138 146.439 150.684 147.212 149.102 147.518C148.569 147.622 148.028 147.675 147.485 147.675C146.938 147.672 146.392 147.613 145.857 147.499L145.651 147.452C145.444 147.402 145.241 147.345 145.04 147.276L144.65 147.125L144.446 147.039C144.248 146.957 144.056 146.866 143.863 146.764C143.695 146.676 143.53 146.58 143.365 146.489L143.222 146.396L142.928 146.192L142.793 146.093C142.595 145.944 142.404 145.784 142.221 145.615C141.925 145.349 141.649 145.062 141.396 144.754L128.227 128.741L126.524 126.67L126.843 131.051L128.631 155.499C126.56 156.436 124.431 157.238 122.256 157.899C120.731 158.367 119.173 158.765 117.581 159.093C114.022 159.829 110.395 160.197 106.76 160.193H106.735L109.45 143.25L110.462 136.925L111.108 132.885L111.779 128.691L113.8 116.041L116.6 98.5982L116.671 98.1445L115.827 95.1497L113.627 87.3507L112.34 84.73L109.785 79.5215L110.288 79.6342L110.907 79.7717L112.612 80.1512L116.561 81.0312C117.846 81.3156 119.059 81.8598 120.126 82.6306C121.192 83.4017 122.09 84.3829 122.762 85.5137L131.496 100.168L135.861 107.494L138.396 111.743L138.622 112.123L144.793 122.479L153.725 93.5162L154.022 93.596L158.353 94.7785L162.525 95.9197L162.64 95.9555Z" fill="#414042"/>
<path opacity="0.2" d="M125.73 118.071C125.717 117.925 125.753 117.778 125.832 117.654C125.911 117.529 126.028 117.435 126.167 117.384C126.305 117.334 126.456 117.33 126.596 117.375C126.737 117.419 126.859 117.508 126.943 117.628L143.897 142.007C146.748 145.472 151.393 145.687 154.586 143.539C152.028 148.239 145.156 149.314 141.386 144.749L126.528 126.665L125.73 118.071Z" fill="black"/>
<path d="M120.519 119.781C119.944 121.033 119.695 122.409 119.793 123.783L120.134 128.504L120.825 138.047L122.26 157.894C120.735 158.361 119.176 158.759 117.585 159.087C114.025 159.823 110.399 160.192 106.764 160.187H106.739C103.883 160.188 101.032 159.957 98.2142 159.497C95.9927 159.141 93.7971 158.639 91.6417 157.995L86.4002 117.595L84.7502 104.89L84.7034 104.535L82.9077 90.7002L81.8077 82.2495L81.5767 80.473V80.4345L83.2267 79.945L87.0767 78.7927H87.0904L88.5589 78.3555C88.5589 78.3692 88.5589 78.3802 88.5589 78.3912C91.6774 89.3445 101.833 95.323 108.634 93.97L108.961 93.8985C112.209 93.1257 112.726 90.406 112.234 87.5102C112.176 87.1802 112.107 86.8447 112.027 86.512C112.027 86.4762 112.008 86.4405 112 86.4075C111.992 86.3745 112 86.3937 112 86.3855C111.956 86.2067 111.906 86.0307 111.86 85.852L111.736 85.4367C111.714 85.3688 111.692 85.2973 111.67 85.2222C111.623 85.082 111.579 84.9472 111.53 84.8015C111.48 84.6557 111.436 84.5265 111.387 84.3835C111.337 84.2405 111.288 84.1085 111.235 83.971C111.183 83.8335 111.134 83.696 111.081 83.5722C111.004 83.377 110.927 83.1845 110.848 82.9975C110.82 82.9287 110.79 82.8627 110.762 82.7967C110.655 82.5465 110.548 82.3045 110.443 82.0735C110.41 82.002 110.377 81.936 110.35 81.8672C110.322 81.7985 110.256 81.672 110.212 81.5785V81.5647C110.111 81.3475 110.009 81.1412 109.913 80.9487C109.906 80.9366 109.9 80.9237 109.896 80.9102C109.849 80.8277 109.808 80.748 109.772 80.6682L109.654 80.4455C109.649 80.4339 109.642 80.4226 109.635 80.4125C109.528 80.2062 109.429 80.022 109.343 79.8625C109.319 79.8075 109.288 79.758 109.261 79.7085C109.115 79.4472 109.016 79.2795 108.986 79.2327L110.287 79.582L110.3 79.6095L110.322 79.648L112.539 83.5667L112.652 83.762L122.343 100.925C123.462 103.113 124.072 105.526 124.125 107.983C124.178 110.44 123.674 112.877 122.651 115.112L120.519 119.781Z" fill="#F4B01A"/>
<path opacity="0.15" d="M120.518 119.782C119.943 121.034 119.693 122.41 119.792 123.784L120.133 128.505L120.823 138.048L122.259 157.895C120.733 158.362 119.175 158.76 117.584 159.088L117.166 152.546C117.03 150.432 116.244 148.412 114.915 146.763C113.585 145.114 111.778 143.917 109.741 143.336L109.444 143.251L96.5516 139.577L94.6899 139.043L92.7456 122.7L92.5146 120.75L94.7146 122.356L110.731 134L111.091 132.878L112.287 129.154L116.412 116.317L117.647 112.467C118.924 108.495 118.787 104.203 117.256 100.321L116.599 98.5992L115.367 95.4752L112.229 87.5002C112.172 87.1702 112.103 86.8347 112.023 86.5019C112.023 86.4634 112.004 86.4249 111.998 86.3919C111.997 86.3864 111.997 86.3809 111.998 86.3754C111.954 86.1967 111.905 86.0207 111.858 85.8419C111.811 85.6632 111.778 85.5669 111.734 85.4267C111.712 85.3587 111.69 85.2872 111.668 85.2122C111.624 85.0719 111.58 84.9372 111.528 84.7914C111.476 84.6457 111.435 84.5164 111.385 84.3734C111.336 84.2304 111.286 84.0984 111.234 83.9609C111.182 83.8234 111.132 83.6859 111.08 83.5622C111.003 83.3669 110.926 83.1744 110.846 82.9874C110.819 82.9187 110.788 82.8527 110.761 82.7867C110.654 82.5364 110.549 82.2944 110.442 82.0634C110.409 81.9919 110.376 81.9259 110.348 81.8572C110.321 81.7884 110.258 81.6619 110.211 81.5684V81.5547C110.109 81.3374 110.007 81.1312 109.911 80.9387C109.904 80.9266 109.899 80.9136 109.895 80.9002C109.851 80.8177 109.809 80.7379 109.771 80.6582L109.653 80.4354C109.647 80.4239 109.641 80.4129 109.633 80.4024C109.529 80.1962 109.43 80.0119 109.342 79.8524C109.317 79.7974 109.287 79.7479 109.259 79.6984C109.114 79.4372 109.015 79.2694 108.984 79.2227L110.285 79.5719L110.299 79.5994L110.321 79.6379L112.537 83.5567L112.65 83.7519L122.341 100.926C123.461 103.114 124.07 105.527 124.123 107.984C124.177 110.441 123.673 112.879 122.649 115.113L120.518 119.782Z" fill="black"/>
<path opacity="0.06" d="M144.804 122.477L144.565 128.161L138.63 112.115L144.804 122.477Z" fill="black"/>
<path d="M91.4778 60.3736C91.4778 60.9038 91.9068 61.3334 92.4362 61.3334C92.9656 61.3334 93.3946 60.9038 93.3946 60.3736V55.3933C93.3946 54.8634 92.9656 54.4336 92.4362 54.4336C91.9068 54.4336 91.4778 54.8634 91.4778 55.3933V60.3736Z" fill="black"/>
<path d="M98.2151 159.5C95.9939 159.144 93.7983 158.643 91.6426 157.999C88.8615 157.174 86.1536 156.12 83.5466 154.847C80.6644 153.441 77.9149 151.777 75.3324 149.875L67.6489 96.6272C67.1995 93.5175 67.8637 90.3492 69.5244 87.682C71.1851 85.015 73.7352 83.0207 76.7239 82.0522L77.3371 81.8542L81.5694 80.4792L83.2056 79.9512L87.0281 78.7109C87.0333 78.7401 87.0416 78.7687 87.0529 78.7962C87.0529 78.8347 87.0804 78.8842 87.1024 78.9502C87.4654 80.1299 89.0961 85.7207 91.1449 97.4714C91.5428 99.7446 91.9545 102.256 92.3796 105.006C92.7261 107.283 93.0809 109.729 93.4439 112.343C93.8674 115.434 94.2936 118.773 94.7226 122.359C94.8051 123.06 94.8904 123.772 94.9729 124.493C95.5064 129.111 96.0316 134.14 96.5486 139.579C97.1355 145.675 97.691 152.315 98.2151 159.5Z" fill="#414042"/>
<path d="M147.825 74.1777C147.968 74.3284 148.051 74.5267 148.056 74.7343C148.062 74.942 147.99 75.1444 147.856 75.3025L144.608 79.1195C144.495 79.2526 144.425 79.4165 144.406 79.59C144.388 79.7638 144.422 79.9387 144.503 80.093L149.338 89.1845C149.834 90.1181 150.027 91.1826 149.891 92.2307C149.756 93.279 149.298 94.2593 148.582 95.0365L145.474 98.4493L138.377 93.2242L140.318 90.9362C140.469 90.7591 140.57 90.5446 140.61 90.3156C140.65 90.0862 140.628 89.8505 140.546 89.6327L138.005 82.8815C137.708 82.0898 137.713 81.2166 138.019 80.4285L142.097 69.6072C142.178 69.409 142.333 69.2497 142.529 69.1637C142.725 69.0773 142.947 69.0707 143.148 69.1452C143.331 69.217 143.482 69.3531 143.573 69.5283C143.663 69.7035 143.686 69.9056 143.637 70.0967L142.537 74.4252L146.071 70.16C146.218 69.9895 146.427 69.8842 146.652 69.8671C146.876 69.8501 147.099 69.9227 147.27 70.0692C147.428 70.2043 147.53 70.3926 147.559 70.5983C147.587 70.804 147.539 71.0128 147.424 71.1857L142.944 77.8545L146.635 74.1612C146.714 74.084 146.808 74.0232 146.911 73.9822C147.013 73.9412 147.123 73.9212 147.234 73.9225C147.344 73.9242 147.453 73.9476 147.555 73.9913C147.657 74.035 147.748 74.0983 147.825 74.1777Z" fill="#956363"/>
<g opacity="0.15">
<path opacity="0.15" d="M141.127 75.5787C141.097 75.5328 141.083 75.4784 141.087 75.4239C141.091 75.3692 141.113 75.3175 141.149 75.2762L142.45 73.7637C142.493 73.7131 142.555 73.6818 142.621 73.6766C142.688 73.6713 142.753 73.6928 142.804 73.7362C142.855 73.7797 142.886 73.8413 142.891 73.9078C142.896 73.9744 142.875 74.0404 142.832 74.091L141.531 75.6062C141.487 75.6568 141.425 75.6879 141.358 75.6931C141.291 75.6984 141.225 75.6769 141.174 75.6337C141.156 75.6175 141.14 75.5988 141.127 75.5787Z" fill="black"/>
</g>
<path d="M68.393 97.1514L69.8258 104.301L110.441 136.894C111.525 137.766 112.784 138.395 114.132 138.739C115.48 139.083 116.886 139.134 118.255 138.889C119.624 138.644 120.925 138.108 122.07 137.317C123.215 136.527 124.177 135.5 124.892 134.307C133.046 120.724 147.005 97.3989 147.126 97.0276C147.192 96.8434 146.35 96.0294 145.225 95.0504L145.192 95.0229C143.127 93.2216 140.149 90.8814 140.149 90.8814L115.435 117.383L82.4345 90.3259L77.3333 81.8477C74.2233 82.8561 71.5921 84.9722 69.9402 87.794C68.2882 90.6155 67.7308 93.9457 68.3738 97.1514H68.393Z" fill="#414042"/>
<path opacity="0.2" d="M147.124 97.0314C147.055 97.2239 143.213 103.678 138.395 111.736C136.118 115.55 133.621 119.711 131.199 123.764C130.187 125.458 129.188 127.127 128.22 128.736C127.753 129.523 127.295 130.293 126.845 131.046L124.89 134.308C124.177 135.498 123.218 136.523 122.076 137.312C120.935 138.102 119.638 138.638 118.272 138.885C116.906 139.132 115.504 139.085 114.158 138.745C112.812 138.406 111.554 137.783 110.469 136.917C110.46 136.911 110.45 136.903 110.442 136.895L94.9894 124.49L92.7591 122.7L86.3984 117.596L74.9034 108.364C74.6691 108.179 74.3828 108.072 74.0847 108.056C73.7863 108.041 73.4907 108.119 73.2385 108.279C72.9864 108.439 72.7903 108.673 72.6773 108.95C72.564 109.226 72.5395 109.531 72.6071 109.822C72.6071 109.835 72.6071 109.846 72.6071 109.86L83.5466 154.858C80.6638 153.449 77.9146 151.781 75.3324 149.875L67.6489 96.6272C67.1995 93.5175 67.8637 90.3492 69.5244 87.682C71.1851 85.015 73.7352 83.0207 76.7239 82.0522L77.3371 81.8542L81.5694 80.4792L83.2056 79.9512L87.0281 78.7109C87.0367 78.7401 87.0496 78.7681 87.0666 78.7934C87.0831 78.8292 87.1051 78.8732 87.1299 78.9309L87.1024 78.9502L81.7976 82.2502L79.2236 83.8754L79.1191 83.9387C78.9926 84.0184 78.8716 84.1009 78.7506 84.1862C73.9546 87.5577 73.5586 94.6087 77.9889 98.5604L84.6989 104.536L85.2076 104.99L93.4576 112.341L111.784 128.684L112.309 129.154L112.73 129.528C113.236 129.979 113.831 130.32 114.476 130.53C115.121 130.739 115.803 130.812 116.478 130.744C117.152 130.676 117.806 130.469 118.396 130.135C118.986 129.801 119.501 129.348 119.907 128.805L120.13 128.505L125.971 120.706L127.599 118.553L135.879 107.487L143.653 97.1057L145.213 95.0239L145.243 95.0542C145.88 95.5756 146.474 96.1476 147.019 96.7647C147.107 96.8912 147.149 96.9819 147.124 97.0314Z" fill="black"/>
<path d="M102.85 47.0088C102.849 47.4782 102.813 47.9471 102.742 48.4113C102.409 50.4972 101.349 52.398 99.7486 53.7768C98.1483 55.1557 96.1114 55.9232 93.9991 55.9441C91.8869 55.9647 89.8354 55.2374 88.2085 53.8901C86.5813 52.5432 85.4835 50.6636 85.1095 48.5846C87.7797 43.6345 92.6802 40.2383 98.3232 40.0293C98.5047 40.0293 98.689 40.0293 98.8732 40.0293C99.0575 40.0293 99.2885 40.0293 99.492 40.0458C100.142 40.5457 100.717 41.1367 101.2 41.8003C102.284 43.3194 102.862 45.1421 102.85 47.0088Z" fill="black"/>
<path d="M113.831 51.2963C112.468 51.937 110.965 52.2233 109.462 52.1285C107.959 52.0338 106.504 51.5611 105.232 50.7543C103.961 49.9472 102.913 48.8323 102.187 47.5129C101.461 46.1934 101.08 44.7117 101.079 43.2058C101.083 42.7347 101.123 42.265 101.2 41.8006C101.283 41.2753 101.414 40.7591 101.591 40.2578C107.25 41.3138 111.89 45.5956 113.831 51.2963Z" fill="black"/>
<path d="M124.622 238.585C142.217 238.585 156.481 224.321 156.481 206.726C156.481 189.131 142.217 174.867 124.622 174.867C107.027 174.867 92.7631 189.131 92.7631 206.726C92.7631 224.321 107.027 238.585 124.622 238.585Z" fill="#B2B6BB"/>
<path d="M154.81 213.093V226.87C154.812 227.243 154.74 227.613 154.598 227.958C154.456 228.303 154.248 228.616 153.985 228.88C153.722 229.145 153.409 229.354 153.064 229.497C152.72 229.64 152.351 229.714 151.978 229.714H112.653C110.075 229.714 107.602 228.69 105.779 226.867C103.956 225.044 102.932 222.571 102.932 219.993C102.932 217.415 103.956 214.942 105.779 213.119C107.602 211.296 110.075 210.271 112.653 210.271H151.978C152.729 210.271 153.45 210.57 153.981 211.101C154.512 211.632 154.81 212.353 154.81 213.104V213.093Z" fill="black"/>
<path d="M154.811 212.302V226.079C154.812 226.452 154.74 226.821 154.599 227.165C154.457 227.51 154.25 227.824 153.987 228.088C153.724 228.352 153.412 228.561 153.069 228.705C152.725 228.848 152.356 228.922 151.984 228.923H112.659C110.08 228.923 107.608 227.899 105.785 226.076C103.962 224.253 102.938 221.78 102.938 219.202C102.938 216.624 103.962 214.151 105.785 212.328C107.608 210.505 110.08 209.48 112.659 209.48H151.984C152.735 209.48 153.455 209.779 153.987 210.31C154.518 210.841 154.816 211.562 154.816 212.313L154.811 212.302Z" fill="#3F4249"/>
<path d="M125.097 212.139V226.744H120.304C119.903 226.744 119.518 226.585 119.235 226.301C118.951 226.017 118.792 225.633 118.792 225.231V213.651C118.792 213.25 118.951 212.866 119.235 212.582C119.518 212.298 119.903 212.139 120.304 212.139H125.097Z" fill="#F4B01A"/>
<path d="M131.403 226.735V212.141H125.097V226.735H131.403Z" fill="#F4B01A"/>
<path d="M137.711 226.735V212.141H131.406V226.735H137.711Z" fill="#F4B01A"/>
<path d="M144.017 226.735V212.141H137.711V226.735H144.017Z" fill="#F4B01A"/>
<path d="M150.326 213.653V225.222C150.326 225.624 150.166 226.008 149.883 226.292C149.599 226.576 149.214 226.735 148.813 226.735H144.02V212.141H148.808C149.007 212.14 149.204 212.179 149.388 212.254C149.572 212.33 149.74 212.441 149.881 212.582C150.022 212.722 150.133 212.889 150.21 213.073C150.286 213.257 150.326 213.454 150.326 213.653Z" fill="#F4B01A"/>
<path opacity="0.15" d="M148.811 212.141H120.302C119.901 212.141 119.516 212.3 119.232 212.584C118.949 212.867 118.789 213.252 118.789 213.653V225.225C118.789 225.626 118.949 226.011 119.232 226.295C119.516 226.578 119.901 226.738 120.302 226.738H148.811C149.212 226.738 149.597 226.578 149.881 226.295C150.164 226.011 150.324 225.626 150.324 225.225V213.653C150.324 213.252 150.164 212.867 149.881 212.584C149.597 212.3 149.212 212.141 148.811 212.141Z" fill="black"/>
<path opacity="0.2" d="M131.403 226.735V212.141H125.097V226.735H131.403Z" fill="white"/>
<path opacity="0.4" d="M137.711 226.735V212.141H131.406V226.735H137.711Z" fill="white"/>
<path opacity="0.6" d="M144.017 226.735V212.141H137.711V226.735H144.017Z" fill="white"/>
<path opacity="0.8" d="M150.326 213.653V225.222C150.326 225.624 150.166 226.008 149.883 226.292C149.599 226.576 149.214 226.735 148.813 226.735H144.02V212.141H148.808C149.007 212.14 149.204 212.179 149.388 212.254C149.572 212.33 149.74 212.441 149.881 212.582C150.022 212.722 150.133 212.889 150.21 213.073C150.286 213.257 150.326 213.454 150.326 213.653Z" fill="white"/>
<path d="M111.138 223.039C113.127 223.039 114.74 221.426 114.74 219.436C114.74 217.447 113.127 215.834 111.138 215.834C109.148 215.834 107.535 217.447 107.535 219.436C107.535 221.426 109.148 223.039 111.138 223.039Z" fill="#B2B6BB"/>
<path d="M111.139 221.396C112.222 221.396 113.099 220.518 113.099 219.435C113.099 218.353 112.222 217.475 111.139 217.475C110.056 217.475 109.178 218.353 109.178 219.435C109.178 220.518 110.056 221.396 111.139 221.396Z" fill="#61656D"/>
<path d="M137.534 184.07L147.276 193.812C147.808 194.343 148.106 195.064 148.106 195.815C148.106 196.566 147.808 197.287 147.276 197.818L119.47 225.625C117.646 227.448 115.174 228.472 112.596 228.472C110.017 228.472 107.545 227.448 105.721 225.625C103.898 223.802 102.874 221.329 102.874 218.751C102.874 216.173 103.898 213.7 105.721 211.877L133.529 184.07C134.06 183.539 134.78 183.24 135.531 183.24C136.283 183.24 137.003 183.539 137.534 184.07Z" fill="black"/>
<path d="M136.966 183.502L146.708 193.244C147.239 193.775 147.538 194.496 147.538 195.247C147.538 195.998 147.239 196.718 146.708 197.25L118.901 225.057C117.078 226.88 114.606 227.904 112.027 227.904C109.449 227.904 106.976 226.88 105.153 225.057C103.33 223.234 102.306 220.761 102.306 218.183C102.306 215.604 103.33 213.132 105.153 211.309L132.96 183.502C133.492 182.971 134.212 182.672 134.963 182.672C135.715 182.672 136.435 182.971 136.966 183.502Z" fill="#3F4249"/>
<path d="M115.849 204.406L126.169 214.726L122.779 218.115C122.495 218.399 122.111 218.558 121.71 218.558C121.309 218.558 120.924 218.399 120.64 218.115L112.46 209.935C112.176 209.651 112.017 209.266 112.017 208.865C112.017 208.464 112.176 208.079 112.46 207.796L115.849 204.406Z" fill="#61656D"/>
<path d="M130.626 210.269L120.306 199.949L115.847 204.408L126.167 214.728L130.626 210.269Z" fill="#61656D"/>
<path d="M135.085 205.808L124.766 195.488L120.307 199.947L130.627 210.267L135.085 205.808Z" fill="#61656D"/>
<path d="M139.549 201.347L129.229 191.027L124.77 195.486L135.09 205.806L139.549 201.347Z" fill="#61656D"/>
<path d="M134.756 187.638L142.937 195.819C143.22 196.103 143.38 196.487 143.38 196.889C143.38 197.29 143.22 197.674 142.937 197.958L139.547 201.347L129.228 191.028L132.617 187.638C132.9 187.355 133.285 187.195 133.686 187.195C134.088 187.195 134.472 187.355 134.756 187.638Z" fill="#61656D"/>
<path opacity="0.2" d="M130.626 210.269L120.306 199.949L115.847 204.408L126.167 214.728L130.626 210.269Z" fill="white"/>
<path opacity="0.4" d="M135.085 205.808L124.766 195.488L120.307 199.947L130.627 210.267L135.085 205.808Z" fill="white"/>
<path opacity="0.6" d="M139.549 201.347L129.229 191.027L124.77 195.486L135.09 205.806L139.549 201.347Z" fill="white"/>
<path opacity="0.8" d="M134.756 187.638L142.937 195.819C143.22 196.103 143.38 196.487 143.38 196.889C143.38 197.29 143.22 197.674 142.937 197.958L139.547 201.347L129.228 191.028L132.617 187.638C132.9 187.355 133.285 187.195 133.686 187.195C134.088 187.195 134.472 187.355 134.756 187.638Z" fill="white"/>
<path d="M111.138 223.039C113.127 223.039 114.74 221.426 114.74 219.436C114.74 217.447 113.127 215.834 111.138 215.834C109.148 215.834 107.535 217.447 107.535 219.436C107.535 221.426 109.148 223.039 111.138 223.039Z" fill="#B2B6BB"/>
<path d="M111.139 221.396C112.222 221.396 113.099 220.518 113.099 219.435C113.099 218.353 112.222 217.475 111.139 217.475C110.056 217.475 109.178 218.353 109.178 219.435C109.178 220.518 110.056 221.396 111.139 221.396Z" fill="#61656D"/>
<path d="M104.795 175.764H118.572C119.323 175.764 120.044 176.062 120.575 176.593C121.106 177.124 121.405 177.845 121.405 178.596V217.921C121.405 220.499 120.381 222.972 118.558 224.795C116.734 226.618 114.262 227.642 111.684 227.642C109.105 227.642 106.633 226.618 104.809 224.795C102.987 222.972 101.962 220.499 101.962 217.921V178.596C101.962 177.845 102.261 177.124 102.792 176.593C103.323 176.062 104.044 175.764 104.795 175.764Z" fill="black"/>
<path d="M104.004 175.764H117.781C118.533 175.764 119.253 176.062 119.785 176.593C120.316 177.124 120.614 177.845 120.614 178.596V217.921C120.614 220.499 119.59 222.972 117.767 224.795C115.944 226.618 113.471 227.642 110.893 227.642C108.315 227.642 105.842 226.618 104.019 224.795C102.196 222.972 101.171 220.499 101.171 217.921V178.596C101.171 177.845 101.47 177.124 102.001 176.593C102.532 176.062 103.253 175.764 104.004 175.764Z" fill="#F4B01A"/>
<path d="M104.004 175.764H117.781C118.533 175.764 119.253 176.062 119.785 176.593C120.316 177.124 120.614 177.845 120.614 178.596V217.921C120.614 220.499 119.59 222.972 117.767 224.795C115.944 226.618 113.471 227.642 110.893 227.642C108.315 227.642 105.842 226.618 104.019 224.795C102.196 222.972 101.171 220.499 101.171 217.921V178.596C101.171 177.845 101.47 177.124 102.001 176.593C102.532 176.062 103.253 175.764 104.004 175.764Z" fill="#3F4249"/>
<path d="M103.84 205.48H118.434V210.274C118.434 210.675 118.274 211.06 117.991 211.343C117.707 211.627 117.322 211.786 116.921 211.786H105.352C104.951 211.786 104.566 211.627 104.283 211.343C103.999 211.06 103.84 210.675 103.84 210.274V205.48Z" fill="#F4B01A"/>
<path d="M118.434 199.172H103.84V205.478H118.434V199.172Z" fill="#F4B01A"/>
<path d="M118.434 192.865H103.84V199.171H118.434V192.865Z" fill="#F4B01A"/>
<path d="M118.434 186.557H103.84V192.862H118.434V186.557Z" fill="#F4B01A"/>
<path d="M105.352 180.252H116.921C117.322 180.252 117.707 180.411 117.991 180.695C118.274 180.979 118.434 181.363 118.434 181.764V186.558H103.839V181.775C103.838 181.576 103.876 181.378 103.951 181.193C104.027 181.008 104.138 180.84 104.279 180.699C104.419 180.557 104.586 180.445 104.771 180.368C104.955 180.291 105.152 180.252 105.352 180.252Z" fill="#F4B01A"/>
<path opacity="0.2" d="M118.434 199.172H103.84V205.478H118.434V199.172Z" fill="white"/>
<path opacity="0.4" d="M118.434 192.865H103.84V199.171H118.434V192.865Z" fill="white"/>
<path opacity="0.6" d="M118.434 186.557H103.84V192.862H118.434V186.557Z" fill="white"/>
<path opacity="0.8" d="M105.352 180.252H116.921C117.322 180.252 117.707 180.411 117.991 180.695C118.274 180.979 118.434 181.363 118.434 181.764V186.558H103.839V181.775C103.838 181.576 103.876 181.378 103.951 181.193C104.027 181.008 104.138 180.84 104.279 180.699C104.419 180.557 104.586 180.445 104.771 180.368C104.955 180.291 105.152 180.252 105.352 180.252Z" fill="white"/>
<path d="M111.138 223.039C113.127 223.039 114.74 221.426 114.74 219.436C114.74 217.447 113.127 215.834 111.138 215.834C109.148 215.834 107.535 217.447 107.535 219.436C107.535 221.426 109.148 223.039 111.138 223.039Z" fill="black"/>
<path d="M111.139 221.396C112.222 221.396 113.099 220.518 113.099 219.435C113.099 218.353 112.222 217.475 111.139 217.475C110.056 217.475 109.178 218.353 109.178 219.435C109.178 220.518 110.056 221.396 111.139 221.396Z" fill="#3F4249"/>
<path d="M213.448 210.523H185.898C182.01 210.523 178.858 213.675 178.858 217.563V245.113C178.858 249.001 182.01 252.153 185.898 252.153H213.448C217.335 252.153 220.488 249.001 220.488 245.113V217.563C220.488 213.675 217.335 210.523 213.448 210.523Z" fill="#F4B01A"/>
<path opacity="0.15" d="M213.448 210.523H185.898C182.01 210.523 178.858 213.675 178.858 217.563V245.113C178.858 249.001 182.01 252.153 185.898 252.153H213.448C217.335 252.153 220.488 249.001 220.488 245.113V217.563C220.488 213.675 217.335 210.523 213.448 210.523Z" fill="black"/>
<path d="M211.89 210.523H184.341C180.453 210.523 177.301 213.675 177.301 217.563V245.113C177.301 249.001 180.453 252.153 184.341 252.153H211.89C215.779 252.153 218.93 249.001 218.93 245.113V217.563C218.93 213.675 215.779 210.523 211.89 210.523Z" fill="#F4B01A"/>
<path d="M210.517 220.505H186.256C186.204 220.505 186.154 220.484 186.116 220.447C186.079 220.41 186.058 220.36 186.058 220.307C186.058 220.255 186.079 220.205 186.116 220.167C186.154 220.13 186.204 220.109 186.256 220.109H210.517C210.569 220.109 210.62 220.13 210.657 220.167C210.694 220.205 210.715 220.255 210.715 220.307C210.715 220.36 210.694 220.41 210.657 220.447C210.62 220.484 210.569 220.505 210.517 220.505Z" fill="white"/>
<path d="M199.388 223.875H197.414C196.366 229.149 193.858 234.303 190.341 237.74L193.778 243.075H203.024L206.459 237.74C202.95 234.3 200.436 229.149 199.388 223.875ZM198.401 239.341C197.966 239.341 197.541 239.212 197.179 238.97C196.817 238.729 196.535 238.385 196.369 237.983C196.202 237.581 196.159 237.138 196.244 236.712C196.328 236.285 196.538 235.893 196.846 235.585C197.153 235.278 197.545 235.068 197.972 234.983C198.399 234.898 198.841 234.942 199.243 235.108C199.645 235.275 199.989 235.557 200.23 235.919C200.472 236.281 200.601 236.706 200.601 237.141C200.601 237.725 200.37 238.284 199.957 238.697C199.544 239.109 198.985 239.341 198.401 239.341Z" fill="white"/>
<path d="M198.687 223.875H198.115V233.076H198.687V223.875Z" fill="#F4B01A"/>
<path d="M202.944 243.076H193.778V245.287H202.944V243.076Z" fill="#F4B01A"/>
<path d="M210.517 231.759C210.468 231.759 210.42 231.74 210.383 231.707C210.347 231.673 210.325 231.627 210.322 231.577C210.139 228.776 208.973 226.129 207.03 224.103C205.086 222.077 202.49 220.802 199.698 220.503C199.647 220.497 199.599 220.471 199.567 220.43C199.534 220.389 199.519 220.338 199.525 220.286C199.531 220.234 199.557 220.187 199.598 220.154C199.639 220.122 199.691 220.107 199.743 220.113C202.623 220.428 205.301 221.747 207.307 223.838C209.313 225.929 210.519 228.659 210.715 231.55C210.718 231.602 210.7 231.653 210.666 231.692C210.631 231.731 210.583 231.755 210.531 231.759H210.517Z" fill="white"/>
<path d="M186.284 231.762C186.259 231.761 186.233 231.755 186.209 231.743C186.186 231.732 186.165 231.717 186.147 231.697C186.13 231.677 186.117 231.655 186.109 231.63C186.101 231.605 186.098 231.579 186.1 231.553C186.302 228.664 187.511 225.938 189.516 223.849C191.521 221.76 194.195 220.44 197.073 220.118C197.125 220.113 197.177 220.127 197.217 220.16C197.258 220.193 197.284 220.24 197.29 220.292C197.296 220.344 197.281 220.396 197.248 220.436C197.216 220.477 197.168 220.503 197.117 220.509C194.327 220.811 191.732 222.086 189.79 224.111C187.847 226.136 186.68 228.78 186.493 231.58C186.488 231.632 186.464 231.679 186.425 231.713C186.386 231.747 186.336 231.764 186.284 231.762Z" fill="white"/>
<path d="M197.081 221.716H199.721V220.308V219.076H197.081V220.308V221.716Z" fill="#F4B01A"/>
<path d="M184.938 221.716H187.578V220.308V219.076H184.938V220.308V221.716Z" fill="#F4B01A"/>
<path d="M209.226 221.716H211.866V220.308V219.076H209.226V220.308V221.716Z" fill="#F4B01A"/>
<path d="M209.224 234.204H211.864V231.564H209.224V234.204Z" fill="#F4B01A"/>
<path d="M184.934 234.204H187.574V231.564H184.934V234.204Z" fill="#F4B01A"/>
<g opacity="0.2">
<path opacity="0.2" d="M198.687 223.875H198.115V233.076H198.687V223.875Z" fill="black"/>
</g>
<g opacity="0.2">
<path opacity="0.2" d="M202.944 243.076H193.778V245.287H202.944V243.076Z" fill="black"/>
</g>
<g opacity="0.2">
<path opacity="0.2" d="M197.081 221.716H199.721V220.308V219.076H197.081V220.308V221.716Z" fill="black"/>
</g>
<g opacity="0.2">
<path opacity="0.2" d="M184.938 221.716H187.578V220.308V219.076H184.938V220.308V221.716Z" fill="black"/>
</g>
<g opacity="0.2">
<path opacity="0.2" d="M209.226 221.716H211.866V220.308V219.076H209.226V220.308V221.716Z" fill="black"/>
</g>
<g opacity="0.2">
<path opacity="0.2" d="M209.226 234.204H211.866V231.564H209.226V234.204Z" fill="black"/>
</g>
<g opacity="0.2">
<path opacity="0.2" d="M184.934 234.204H187.574V231.564H184.934V234.204Z" fill="black"/>
</g>
<path d="M314.668 74.6934H287.119C283.23 74.6934 280.079 77.8454 280.079 81.7334V109.283C280.079 113.171 283.23 116.323 287.119 116.323H314.668C318.557 116.323 321.708 113.171 321.708 109.283V81.7334C321.708 77.8454 318.557 74.6934 314.668 74.6934Z" fill="#F4B01A"/>
<path opacity="0.15" d="M314.668 74.6934H287.119C283.23 74.6934 280.079 77.8454 280.079 81.7334V109.283C280.079 113.171 283.23 116.323 287.119 116.323H314.668C318.557 116.323 321.708 113.171 321.708 109.283V81.7334C321.708 77.8454 318.557 74.6934 314.668 74.6934Z" fill="black"/>
<path d="M313.112 74.6934H285.563C281.674 74.6934 278.523 77.8454 278.523 81.7334V109.283C278.523 113.171 281.674 116.323 285.563 116.323H313.112C317.001 116.323 320.152 113.171 320.152 109.283V81.7334C320.152 77.8454 317.001 74.6934 313.112 74.6934Z" fill="#F4B01A"/>
<g opacity="0.8">
<path opacity="0.8" d="M306.182 98.8632C310.656 98.8632 314.284 95.2359 314.284 90.7617C314.284 86.2874 310.656 82.6602 306.182 82.6602C301.708 82.6602 298.081 86.2874 298.081 90.7617C298.081 95.2359 301.708 98.8632 306.182 98.8632Z" fill="white"/>
</g>
<g opacity="0.42">
<path opacity="0.42" d="M294.054 98.5409C298.528 98.5409 302.156 94.9136 302.156 90.4394C302.156 85.9651 298.528 82.3379 294.054 82.3379C289.58 82.3379 285.953 85.9651 285.953 90.4394C285.953 94.9136 289.58 98.5409 294.054 98.5409Z" fill="white"/>
</g>
<path d="M301.518 87.2875C301.205 86.5422 300.781 85.8489 300.262 85.2305C298.914 86.6764 298.141 88.5654 298.092 90.5407C298.042 92.5163 298.716 94.4421 299.987 95.9555C301.051 94.812 301.76 93.3853 302.033 91.8475C302.305 90.3097 302.126 88.7263 301.518 87.2875Z" fill="#F4B01A"/>
<path d="M307.816 102.487C308.58 98.0784 305.627 93.8844 301.219 93.1188C296.81 92.3534 292.617 95.3067 291.849 99.7149C291.085 104.123 294.038 108.317 298.447 109.083C302.855 109.848 307.049 106.895 307.816 102.487Z" fill="white"/>
<path d="M307.584 98.741C307.01 96.8481 305.761 95.2314 304.073 94.1969C302.387 93.1623 300.382 92.7812 298.432 93.1255C299.01 95.0175 300.258 96.6334 301.944 97.6679C303.63 98.7025 305.637 99.0839 307.584 98.741Z" fill="#F4B01A"/>
<path d="M293.378 96.2148C292.889 96.8574 292.498 97.5702 292.223 98.3295C294.151 98.7819 296.175 98.5121 297.919 97.5716C299.659 96.6311 300.996 95.0851 301.675 93.2255C300.152 92.868 298.557 92.9604 297.083 93.4909C295.611 94.0214 294.324 94.9676 293.378 96.2148Z" fill="#F4B01A"/>
<path d="M299.976 95.9757C300.719 95.182 301.293 94.2465 301.665 93.2257C301.601 93.2092 301.538 93.1982 301.472 93.1845L301.362 93.1625L301.156 93.124L301.013 93.102L300.815 93.0772C300.716 93.0635 300.617 93.0552 300.518 93.047L300.345 93.0332H300.155H299.993H299.566L299.291 93.047H299.168C299.071 93.047 298.975 93.0635 298.879 93.0745H298.81C298.692 93.0882 298.574 93.1075 298.455 93.1267H298.422C298.741 94.1711 299.272 95.1402 299.976 95.9757Z" fill="white"/>
<path d="M393.376 226.203C393.387 237.431 390.437 248.463 384.827 258.188C379.217 267.913 371.143 275.989 361.419 281.599C360.715 282.012 359.997 282.408 359.276 282.793L358.669 283.109C349.756 287.699 339.883 290.122 329.86 290.177H329.398C328.573 290.177 327.764 290.16 326.953 290.133C319.833 289.871 312.81 288.417 306.171 285.832C304.304 285.097 302.478 284.286 300.696 283.395L300.63 283.359C294.742 280.387 289.349 276.526 284.639 271.908C283.354 270.643 282.117 269.323 280.926 267.948C270.91 256.348 265.407 241.527 265.427 226.201C265.427 198.547 282.969 174.993 307.538 166.061C309.831 165.225 312.174 164.523 314.55 163.96C314.864 163.883 315.18 163.809 315.496 163.74C320.061 162.731 324.725 162.223 329.403 162.225C331.405 162.225 333.385 162.316 335.343 162.5C335.657 162.527 335.967 162.56 336.281 162.593C339.553 162.942 342.793 163.544 345.972 164.394C373.268 171.696 393.376 196.602 393.376 226.203Z" fill="#3F4249"/>
<path d="M312.826 171.832C312.625 171.779 312.424 171.719 312.226 171.653C308.495 170.407 307.037 166.832 307.436 163.109C308.261 155.315 315.034 151.897 323.152 155.959C331.27 160.02 334.529 152.221 339.71 154.878C344.891 157.534 343.01 163.012 343.01 163.012C343.01 163.012 346.56 162.603 348.801 169.412C351.043 176.221 343.521 185.111 339.322 188.051C335.123 190.991 331.438 167.751 331.438 167.751C328.941 168.814 326.386 169.744 323.79 170.536C320.35 171.601 316.459 172.789 312.826 171.832Z" fill="black"/>
<path d="M328.364 217.937C327.368 217.362 309.9 200.887 306.124 201.561C305.459 197.769 311.641 200.343 313.849 196.927C314.407 196.013 315.219 195.28 316.184 194.815C318.015 193.99 319.509 194.265 319.998 194.749C327.118 201.814 331.908 198.822 339.317 193.564C340.194 192.942 343.717 193.264 344.633 196.589C347.581 202.235 353.284 197.656 353.281 203.236C353.281 203.659 352.753 203.626 351.961 203.434C349.145 202.77 346.184 203.24 343.711 204.743L328.364 217.937Z" fill="#F4B01A"/>
<path d="M225.622 239.683L220.229 237.549L213.145 237.876C213.014 237.876 212.885 237.908 212.769 237.969C212.653 238.031 212.555 238.12 212.481 238.228C212.408 238.337 212.363 238.462 212.35 238.593C212.337 238.723 212.355 238.855 212.405 238.976C212.481 239.167 212.612 239.332 212.781 239.449C212.951 239.567 213.151 239.632 213.357 239.636L219.957 239.963L223.603 242.265L219.957 239.963L214.088 240.238C213.982 240.241 213.878 240.267 213.783 240.315C213.688 240.363 213.605 240.431 213.54 240.514C213.474 240.598 213.428 240.695 213.405 240.798C213.381 240.902 213.381 241.009 213.404 241.113C213.464 241.299 213.585 241.46 213.747 241.57C213.91 241.679 214.104 241.732 214.3 241.718L220.116 241.993L225.402 245.279L220.116 241.993L215.78 242.65C215.709 242.662 215.641 242.69 215.582 242.732C215.523 242.774 215.475 242.828 215.439 242.891C215.404 242.954 215.383 243.024 215.378 243.096C215.374 243.168 215.385 243.24 215.411 243.307C215.472 243.423 215.564 243.519 215.676 243.587C215.787 243.655 215.915 243.691 216.046 243.692H220.908L225.982 246.442L225.622 239.683Z" fill="#FC9D9D"/>
<path opacity="0.15" d="M225.622 239.683L220.229 237.549L213.145 237.876C213.014 237.876 212.885 237.908 212.769 237.969C212.653 238.031 212.555 238.12 212.481 238.228C212.408 238.337 212.363 238.462 212.35 238.593C212.337 238.723 212.355 238.855 212.405 238.976C212.481 239.167 212.612 239.332 212.781 239.449C212.951 239.567 213.151 239.632 213.357 239.636L219.957 239.963L223.603 242.265L219.957 239.963L214.088 240.238C213.982 240.241 213.878 240.267 213.783 240.315C213.688 240.363 213.605 240.431 213.54 240.514C213.474 240.598 213.428 240.695 213.405 240.798C213.381 240.902 213.381 241.009 213.404 241.113C213.464 241.299 213.585 241.46 213.747 241.57C213.91 241.679 214.104 241.732 214.3 241.718L220.116 241.993L225.402 245.279L220.116 241.993L215.78 242.65C215.709 242.662 215.641 242.69 215.582 242.732C215.523 242.774 215.475 242.828 215.439 242.891C215.404 242.954 215.383 243.024 215.378 243.096C215.374 243.168 215.385 243.24 215.411 243.307C215.472 243.423 215.564 243.519 215.676 243.587C215.787 243.655 215.915 243.691 216.046 243.692H220.908L225.982 246.442L225.622 239.683Z" fill="black"/>
<path d="M225.673 237.71L232.702 244.612C233.115 244.997 233.6 245.295 234.129 245.49L250.2 250.31L245.919 260.172L231.434 254.419C228.409 254.474 225.725 252.887 223.666 250.858H223.611C223.32 250.579 222.979 250.355 222.607 250.2C221.232 249.708 217.849 248.449 217.849 248.449C217.798 248.435 217.751 248.412 217.71 248.379C217.668 248.347 217.634 248.306 217.608 248.261C217.582 248.215 217.566 248.164 217.56 248.112C217.555 248.06 217.559 248.007 217.574 247.956C217.786 247.079 218.674 246.422 219.794 246.532L222.269 246.807C223.589 246.917 224.595 245.877 224.328 244.725L222.901 239.684C222.863 239.524 222.791 239.373 222.691 239.241C222.591 239.11 222.465 239 222.321 238.92L214.233 234.426C214.151 234.394 214.076 234.345 214.012 234.283C213.949 234.221 213.899 234.147 213.864 234.065C213.83 233.984 213.812 233.896 213.812 233.807C213.812 233.719 213.83 233.631 213.865 233.549C213.953 233.346 214.119 233.186 214.325 233.104C214.531 233.023 214.761 233.025 214.965 233.112C217.079 233.937 223.58 236.618 225.06 237.275C225.283 237.393 225.489 237.539 225.673 237.71Z" fill="#FC9D9D"/>
<path opacity="0.15" d="M232.554 252.929C229.529 252.984 226.322 251.392 224.263 249.354H224.21C223.918 249.075 223.577 248.853 223.204 248.697C221.829 248.205 218.446 246.945 218.446 246.945C218.404 246.931 218.364 246.911 218.328 246.885C217.958 247.134 217.693 247.513 217.586 247.946C217.571 247.997 217.566 248.049 217.572 248.102C217.578 248.154 217.594 248.204 217.619 248.25C217.645 248.296 217.68 248.336 217.721 248.369C217.762 248.401 217.81 248.425 217.861 248.439C217.861 248.439 221.243 249.698 222.618 250.19C222.991 250.345 223.331 250.568 223.622 250.847H223.677C225.737 252.877 228.432 254.464 231.446 254.409L245.93 260.162C245.93 260.162 241.53 255.509 237.421 253.405C235.642 252.508 233.654 252.759 232.554 252.929Z" fill="black"/>
<path d="M301.185 202.534L300.426 227.469L290.32 262.834C287.364 272.866 279.199 277.117 270.933 273.138L236.203 256.423L239.872 247.269L272.047 255.725L283.596 216.675C284.586 213.33 286.456 210.313 289.014 207.94C291.571 205.566 294.717 203.925 298.127 203.186L301.194 202.523L301.185 202.534Z" fill="#F4B01A"/>
<path opacity="0.15" d="M301.183 202.535L300.424 227.469L290.32 262.832C287.364 272.866 279.199 277.132 270.933 273.139L236.203 256.427L237.411 253.402L268.4 268.334C276.666 272.311 284.831 268.059 287.787 258.027L297.894 222.665L298.488 203.118L301.183 202.535Z" fill="black"/>
<path d="M366.614 207.799C364.285 207.07 363.454 216.748 363.075 228.908C363.017 230.66 362.973 232.458 362.935 234.29L362.558 238.599V238.69L361.81 247.215L358.678 283.105C349.765 287.695 339.895 290.118 329.869 290.173H329.407C328.582 290.173 327.773 290.156 326.962 290.129C319.842 289.867 312.819 288.413 306.18 285.828C304.313 285.093 302.49 284.282 300.705 283.391L299.115 253.939L298.796 248.056L298.711 246.489L298.615 244.756L298.12 235.563L298.098 235.162C297.804 231.93 297.531 228.578 297.24 225.333V225.237C297.24 225.19 297.24 225.149 297.24 225.102C296.371 215.455 295.337 206.804 293.131 205.181C294.88 204.403 296.682 203.751 298.524 203.231C299.239 203.022 299.976 202.83 300.724 202.651C302.457 202.228 304.274 201.87 306.155 201.573H306.191C310.36 200.937 314.568 200.557 318.783 200.435C318.811 200.432 318.836 200.432 318.863 200.435C323.183 200.289 327.589 200.36 331.906 200.602C334.915 200.767 337.877 201.015 340.734 201.328C341.518 201.416 342.296 201.507 343.063 201.603C344.268 201.752 345.447 201.912 346.602 202.085C348.97 202.437 351.22 202.835 353.304 203.267C358.152 204.26 362.104 205.429 364.637 206.628C365.335 206.944 366.001 207.337 366.614 207.799Z" fill="#F4B01A"/>
<path opacity="0.15" d="M342.809 234.95C344.916 234.95 346.626 232.161 346.626 228.721C346.626 225.281 344.916 222.492 342.809 222.492C340.7 222.492 338.992 225.281 338.992 228.721C338.992 232.161 340.7 234.95 342.809 234.95Z" fill="black"/>
<path opacity="0.15" d="M353.282 203.224C353.285 203.233 353.285 203.243 353.282 203.252C353.285 203.276 353.285 203.301 353.282 203.326C353.276 203.355 353.263 203.383 353.246 203.409C353.238 203.419 353.23 203.431 353.221 203.444C353.191 203.471 353.155 203.493 353.117 203.508C352.894 203.596 352.498 203.538 351.987 203.414C351.162 203.214 350.315 203.115 349.465 203.12H349.127C348.868 203.12 348.61 203.142 348.357 203.172L347.985 203.216L347.68 203.263L347.468 203.301L347.155 203.365C347.034 203.387 346.91 203.417 346.789 203.45C346.514 203.516 346.272 203.59 346.014 203.678L345.739 203.769C345.565 203.832 345.392 203.898 345.222 203.975C345.136 204.008 345.054 204.044 344.969 204.082L344.617 204.245C344.501 204.3 344.383 204.36 344.27 204.421C344.094 204.511 343.921 204.61 343.748 204.715L329.888 216.636V290.16H329.426C328.601 290.16 327.792 290.144 326.981 290.116V216.757C326.871 216.658 326.753 216.559 326.632 216.455C326.607 216.429 326.582 216.405 326.555 216.383L326.079 215.965L325.29 215.269L324.715 214.763C324.396 214.479 324.063 214.187 323.711 213.886C323.629 213.812 323.549 213.74 323.464 213.669L323.136 213.394L322.531 212.868C322.397 212.75 322.256 212.629 322.119 212.514C322.119 212.514 322.119 212.514 322.1 212.495L321.684 212.137C321.272 211.777 320.84 211.411 320.408 211.037C320.364 211.001 320.323 210.963 320.276 210.927L319.52 210.286C319.372 210.16 319.22 210.033 319.066 209.91C318.912 209.786 318.767 209.657 318.613 209.533C318.459 209.409 318.31 209.28 318.156 209.156C318.002 209.032 317.854 208.9 317.7 208.777C317.664 208.744 317.625 208.716 317.59 208.686C317.202 208.367 316.811 208.051 316.418 207.737C316.292 207.633 316.162 207.528 316.03 207.426C315.827 207.261 315.618 207.099 315.412 206.937L315.255 206.813C314.741 206.414 314.232 206.018 313.729 205.644L313.616 205.559C313.404 205.4 313.192 205.243 312.983 205.092L312.618 204.817C312.373 204.641 312.134 204.47 311.897 204.305C311.757 204.206 311.622 204.11 311.482 204.03C311.207 203.84 310.932 203.664 310.684 203.494L310.316 203.26C310.297 203.247 310.277 203.235 310.255 203.224C310.143 203.147 310.027 203.081 309.917 203.013C309.807 202.944 309.672 202.861 309.551 202.793C309.43 202.724 309.315 202.652 309.197 202.589C309.078 202.526 308.966 202.46 308.85 202.402C308.625 202.278 308.41 202.171 308.201 202.075C308.097 202.028 307.998 201.981 307.899 201.94C307.8 201.899 307.753 201.877 307.684 201.852C307.637 201.831 307.588 201.814 307.538 201.8H307.514C307.45 201.775 307.39 201.753 307.335 201.737L307.145 201.679H307.126L306.986 201.646C306.975 201.642 306.961 201.642 306.947 201.646C306.906 201.634 306.862 201.625 306.818 201.621H306.799L306.653 201.599H306.623C306.548 201.599 306.482 201.599 306.416 201.599C306.345 201.597 306.276 201.603 306.205 201.616H306.169C305.503 197.823 311.669 200.397 313.891 196.979C314.452 196.066 315.26 195.334 316.226 194.87C316.341 194.818 316.459 194.768 316.572 194.724C316.767 194.648 316.965 194.583 317.166 194.529C317.251 194.504 317.334 194.485 317.414 194.466H317.463L317.642 194.43L317.777 194.408L317.975 194.383L318.164 194.367H318.266C318.395 194.367 318.519 194.367 318.637 194.367C318.676 194.364 318.712 194.364 318.747 194.367L318.934 194.386C319.009 194.386 319.08 194.408 319.149 194.422L319.322 194.46H319.344C319.377 194.467 319.41 194.478 319.443 194.49C319.504 194.509 319.564 194.531 319.622 194.556C319.674 194.577 319.726 194.601 319.776 194.628H319.792C319.878 194.675 319.957 194.734 320.026 194.801C320.411 195.183 320.788 195.535 321.162 195.863L321.398 196.063C321.805 196.41 322.207 196.718 322.603 196.998C322.694 197.064 322.782 197.128 322.878 197.185C323.552 197.644 324.269 198.032 325.023 198.343C325.265 198.439 325.504 198.525 325.741 198.593C325.804 198.615 325.864 198.632 325.928 198.648C325.991 198.665 326.12 198.706 326.203 198.728C326.285 198.75 326.423 198.78 326.53 198.8C326.582 198.812 326.634 198.822 326.687 198.83C326.78 198.849 326.871 198.86 326.962 198.874C327.052 198.888 327.107 198.893 327.173 198.901L327.402 198.926H327.451C327.547 198.926 327.638 198.943 327.726 198.945C327.814 198.948 327.976 198.945 328.1 198.945C328.227 198.945 328.356 198.945 328.482 198.945H328.507C328.631 198.945 328.76 198.945 328.884 198.918C329.008 198.89 329.12 198.893 329.241 198.874C329.263 198.877 329.288 198.877 329.31 198.874C329.42 198.86 329.536 198.841 329.646 198.819C329.945 198.767 330.245 198.695 330.55 198.61L330.856 198.519C330.99 198.478 331.131 198.434 331.254 198.387C331.378 198.34 331.474 198.31 331.587 198.266L331.719 198.214C331.964 198.12 332.209 198.016 332.459 197.9C332.588 197.843 332.717 197.785 332.849 197.719C332.924 197.686 332.995 197.65 333.069 197.612L333.372 197.458C333.751 197.263 334.136 197.051 334.524 196.822C334.642 196.754 334.763 196.682 334.882 196.608C335 196.534 335.066 196.495 335.157 196.437C336.086 195.868 337.046 195.219 338.055 194.512L338.921 193.907L339.32 193.632C339.35 193.612 339.383 193.594 339.414 193.577C339.471 193.545 339.532 193.518 339.592 193.498L339.719 193.459C339.774 193.444 339.826 193.432 339.881 193.423C339.922 193.414 339.964 193.408 340.005 193.404L340.156 193.385H340.178H340.294C340.404 193.385 340.519 193.385 340.637 193.385H340.767L340.992 193.407C341.086 193.407 341.185 193.44 341.284 193.459C341.545 193.515 341.801 193.592 342.048 193.69L342.199 193.756L342.353 193.828C342.406 193.851 342.458 193.878 342.507 193.907C342.813 194.069 343.096 194.268 343.352 194.501L343.396 194.54C343.451 194.592 343.506 194.644 343.558 194.699C343.624 194.768 343.684 194.84 343.748 194.914C343.811 194.988 343.841 195.029 343.885 195.087L343.962 195.194C344.006 195.251 344.047 195.311 344.083 195.373C344.091 195.388 344.1 195.401 344.111 195.414C344.157 195.5 344.207 195.585 344.254 195.673C344.298 195.756 344.339 195.841 344.375 195.929L344.405 195.997C344.443 196.088 344.482 196.187 344.515 196.272C344.553 196.382 344.589 196.492 344.622 196.611C347.581 202.223 353.285 197.645 353.282 203.224Z" fill="black"/>
<path d="M388.129 251.625C382.657 264.214 373.296 274.72 361.418 281.6C360.714 282.012 359.997 282.408 359.276 282.793L370.576 257.562L362.557 238.587L360.863 234.58C359.166 232.094 358.055 229.257 357.607 226.281C356.933 221.96 357.28 217.542 358.622 213.38C360.03 209.115 362.348 206.23 364.611 206.607C364.886 206.687 374.071 209.335 376.741 217.398L387.136 245.467C387.717 247.472 388.049 249.539 388.129 251.625Z" fill="#F4B01A"/>
<path opacity="0.15" d="M371.833 259.562L361.419 281.601C360.715 282.013 359.997 282.409 359.276 282.794L370.576 257.563L362.549 238.701L362.522 238.64L361.801 247.226C359.169 243.483 357.836 234.353 357.607 226.298C357.456 220.826 357.811 215.848 358.622 213.398C358.867 212.656 359.703 212.928 359.843 213.698C360.814 218.97 361.664 224.525 363.074 228.919C363.355 229.815 363.682 230.695 364.056 231.556L371.929 252.987C372.38 254.027 372.606 255.151 372.589 256.285C372.573 257.419 372.314 258.536 371.833 259.562Z" fill="black"/>
<path d="M345.912 167.346C345.777 168.105 344.751 184.566 336.265 191.249V172.111L345.912 167.346Z" fill="black"/>
<path d="M340.783 202.401L339.43 182.543L339.155 178.594C338.478 163.419 318.678 175.844 318.678 175.844C318.678 175.844 319.228 181.091 319.47 186.902C319.476 188.097 319.605 189.288 319.863 190.455L318.565 202.244L340.783 202.401Z" fill="#FC9D9D"/>
<path d="M340.78 202.399C340.777 202.761 340.681 203.116 340.505 203.432C340.329 203.748 340.076 204.014 339.768 204.206L336.278 206.576L328.881 211.595C328.713 211.691 328.518 211.732 328.325 211.712C328.133 211.692 327.951 211.611 327.808 211.482L321.5 206.059L319.347 204.206C319.055 203.972 318.832 203.667 318.695 203.32C318.557 202.974 318.511 202.598 318.56 202.229L340.78 202.399Z" fill="#FC9D9D"/>
<path d="M338.526 164.658L339.076 177.858C339.076 177.858 337.61 198.208 324.523 196.473C309.461 194.498 316.454 165.051 316.454 165.051L338.526 164.658Z" fill="#FC9D9D"/>
<path opacity="0.15" d="M327.019 197.205C329.719 196.837 332.2 195.518 334.015 193.484C334.067 193.431 334.097 193.36 334.097 193.286C334.097 193.212 334.067 193.14 334.015 193.088C333.963 193.035 333.891 193.006 333.817 193.006C333.743 193.006 333.671 193.035 333.619 193.088C332.194 194.655 330.357 195.789 328.317 196.36C324.255 197.262 320.644 195.401 319.346 194.103L318.84 198.841C321.676 199.402 324.618 198.813 327.019 197.205Z" fill="black"/>
<path d="M326.455 180.001C327.109 180.001 327.64 179.471 327.64 178.816C327.64 178.161 327.109 177.631 326.455 177.631C325.8 177.631 325.27 178.161 325.27 178.816C325.27 179.471 325.8 180.001 326.455 180.001Z" fill="black"/>
<path d="M325.946 178.705C326.103 178.705 326.229 178.578 326.229 178.422C326.229 178.265 326.103 178.139 325.946 178.139C325.789 178.139 325.663 178.265 325.663 178.422C325.663 178.578 325.789 178.705 325.946 178.705Z" fill="white"/>
<path d="M317.149 180.001C317.803 180.001 318.334 179.471 318.334 178.816C318.334 178.161 317.803 177.631 317.149 177.631C316.494 177.631 315.964 178.161 315.964 178.816C315.964 179.471 316.494 180.001 317.149 180.001Z" fill="black"/>
<path d="M316.64 178.705C316.797 178.705 316.923 178.578 316.923 178.422C316.923 178.265 316.797 178.139 316.64 178.139C316.483 178.139 316.357 178.265 316.357 178.422C316.357 178.578 316.483 178.705 316.64 178.705Z" fill="white"/>
<g opacity="0.15">
<path opacity="0.15" d="M320.65 184.233C320.697 183.856 320.89 183.511 321.184 183.269C321.478 183.028 321.852 182.908 322.232 182.935C322.399 182.935 322.507 183.103 322.507 183.329C322.507 183.499 322.339 183.604 322.113 183.604C322.017 183.596 321.921 183.608 321.83 183.638C321.737 183.668 321.651 183.716 321.58 183.778C321.506 183.841 321.445 183.918 321.401 184.004C321.357 184.09 321.332 184.184 321.324 184.28C321.316 184.376 321.33 184.473 321.36 184.565C321.387 184.657 321.437 184.742 321.5 184.815C321.563 184.888 321.638 184.948 321.726 184.992C321.811 185.036 321.904 185.062 322.001 185.069L323.579 185.182C323.75 185.182 323.854 185.353 323.854 185.578C323.854 185.746 323.683 185.853 323.458 185.853L321.88 185.74C321.698 185.729 321.519 185.68 321.357 185.597C321.195 185.514 321.052 185.398 320.936 185.256C320.821 185.114 320.736 184.951 320.686 184.775C320.637 184.598 320.626 184.414 320.65 184.233Z" fill="black"/>
</g>
<path d="M330.913 175.725H314.325C314.094 175.708 313.861 175.743 313.643 175.825C313.429 175.908 313.231 176.038 313.071 176.204C312.909 176.371 312.785 176.571 312.711 176.79C312.634 177.01 312.607 177.243 312.631 177.474V178.829C312.637 179.659 312.86 180.473 313.275 181.191C313.69 181.909 314.287 182.507 315.005 182.924C315.645 183.3 316.369 183.517 317.111 183.556C317.856 183.596 318.596 183.456 319.275 183.15C320.117 182.78 320.835 182.173 321.341 181.404C321.844 180.635 322.116 179.736 322.119 178.816V177.46C322.108 177.07 321.97 176.694 321.726 176.39H323.587C323.455 176.534 323.351 176.702 323.282 176.885C323.213 177.069 323.183 177.264 323.191 177.46V178.816C323.191 180.072 323.689 181.278 324.58 182.166C325.468 183.055 326.673 183.554 327.93 183.554C329.186 183.554 330.391 183.055 331.279 182.166C332.167 181.278 332.668 180.072 332.668 178.816V177.46C332.662 176.998 332.475 176.557 332.145 176.233C331.818 175.908 331.375 175.725 330.913 175.725ZM321.266 178.829C321.275 179.55 321.09 180.259 320.73 180.883C320.37 181.508 319.847 182.023 319.22 182.377C318.602 182.716 317.909 182.892 317.205 182.888C316.404 182.893 315.621 182.662 314.95 182.226C314.386 181.857 313.927 181.353 313.61 180.759C313.294 180.165 313.135 179.502 313.143 178.829V177.474C313.151 177.192 313.267 176.925 313.465 176.726C313.663 176.527 313.932 176.412 314.213 176.404H320.194C320.474 176.411 320.744 176.526 320.945 176.725C321.143 176.924 321.258 177.192 321.266 177.474V178.829ZM331.925 178.75C331.939 179.292 331.846 179.831 331.648 180.336C331.45 180.841 331.153 181.301 330.773 181.69C330.396 182.078 329.943 182.387 329.445 182.598C328.944 182.808 328.408 182.917 327.864 182.917C327.322 182.917 326.786 182.808 326.285 182.598C325.787 182.387 325.334 182.078 324.957 181.69C324.577 181.301 324.28 180.841 324.082 180.336C323.884 179.831 323.791 179.292 323.805 178.75V177.397C323.862 176.833 324.355 176.44 324.932 176.324H330.856C331.136 176.332 331.406 176.447 331.604 176.647C331.804 176.846 331.917 177.115 331.925 177.397V178.75Z" fill="black"/>
<path d="M337.851 179.721C337.342 181.976 336.778 183.667 339.71 183.442C345.295 183.048 345.916 175.546 342.644 174.092C339.768 172.796 338.794 175.56 338.794 175.56L337.851 179.721Z" fill="#FC9D9D"/>
<path opacity="0.15" d="M342.983 177.569C342.87 177.737 342.708 177.737 342.477 177.682C342.081 177.407 341.685 177.286 341.405 177.407C341.13 177.407 340.896 177.682 340.615 178.083C340.219 178.592 340.107 179.552 340.107 179.777L339.994 180.454C339.994 180.624 339.823 180.729 339.598 180.729C339.43 180.729 339.323 180.558 339.323 180.333L339.436 179.656C339.548 178.867 339.603 178.188 339.986 177.569C340.382 177.06 340.775 176.667 341.284 176.609C341.842 176.535 342.406 176.676 342.862 177.005C342.983 177.06 343.041 177.231 342.983 177.569Z" fill="black"/>
<path opacity="0.15" d="M306.172 285.835C304.304 285.101 302.481 284.289 300.696 283.398L300.63 283.363L299.071 253.938L298.76 248.055L298.675 246.488L298.584 244.755L298.1 235.834L298.084 235.628L297.22 225.338V225.241L297.534 223.963L297.911 222.434L298.81 218.768C298.92 217.896 300.094 217.734 300.707 218.218C300.817 218.301 300.905 218.408 300.969 218.53C301.032 218.652 301.068 218.787 301.073 218.925L303.042 244.775L303.177 246.507L303.292 248.075L303.743 253.957L306.172 285.835Z" fill="black"/>
<path d="M314.495 163.746C314.495 163.746 315.51 169.67 324.525 168.729C329.538 168.204 331.95 167.75 333.074 167.45C333.195 167.421 333.319 167.419 333.44 167.445C333.561 167.471 333.677 167.524 333.773 167.599C333.872 167.675 333.952 167.772 334.007 167.883C334.062 167.994 334.092 168.116 334.095 168.24V170.459C334.095 170.824 334.238 171.173 334.496 171.431C334.755 171.689 335.104 171.834 335.47 171.834C335.833 171.834 336.185 171.979 336.44 172.237C336.699 172.495 336.845 172.844 336.845 173.209V178.178C336.845 178.477 336.963 178.764 337.175 178.976C337.386 179.187 337.672 179.306 337.972 179.306C338.269 179.306 338.558 179.187 338.77 178.976C338.981 178.764 339.1 178.477 339.1 178.178V163.746H314.495Z" fill="black"/>
<path d="M315.263 185.044C315.263 185.044 315.741 187.027 317.361 187.244C318.981 187.461 318.975 185.71 321.599 185.712C324.222 185.715 327.099 185.289 328.724 186.73C330.553 188.341 332.904 188.138 334.257 186.089C335.261 184.571 336.009 182.899 336.473 181.139C336.534 180.894 336.977 178.186 336.836 178.186H339.091C339.091 178.186 339.743 185.3 337.791 189.991C335.838 194.683 331.147 205.301 324.437 204.401C317.727 203.502 315.617 193.737 315.263 185.044Z" fill="black"/>
<path d="M325.823 188.98V189.013C325.823 190.251 324.61 191.249 323.111 191.249C321.612 191.249 320.4 190.251 320.4 189.013V188.98H325.823Z" fill="white"/>
</svg>
