<svg width="111" height="111" viewBox="0 0 111 111" fill="none" xmlns="http://www.w3.org/2000/svg">
<path d="M68.3792 92.195H48.861L51.4171 82.0706L52.7655 76.7266H64.4747L65.8232 82.0706L68.3792 92.195Z" fill="white"/>
<path d="M88.2325 79.6858H29.0101C27.2137 79.6858 25.7573 78.2296 25.7573 76.433V34.0302C25.7573 32.2338 27.2135 30.7773 29.0101 30.7773H88.2325C90.0289 30.7773 91.4853 32.2336 91.4853 34.0302V76.433C91.4853 78.2294 90.0289 79.6858 88.2325 79.6858Z" fill="white"/>
<path d="M82.5767 55.3899H34.6646C34.3053 55.3899 34.0142 55.0987 34.0142 54.7395V39.0664H83.2271V54.7397C83.2271 55.0988 82.9359 55.3899 82.5767 55.3899Z" fill="#F4B01A"/>
<path d="M63.2282 60.4609H40.1349C39.5362 60.4609 39.051 59.9755 39.051 59.377C39.051 58.7784 39.5362 58.293 40.1349 58.293H63.2282C63.8269 58.293 64.3121 58.7784 64.3121 59.377C64.3121 59.9755 63.8267 60.4609 63.2282 60.4609Z" fill="#252647"/>
<path d="M63.2282 64.7969H40.1349C39.5362 64.7969 39.051 64.3115 39.051 63.7129C39.051 63.1143 39.5362 62.6289 40.1349 62.6289H63.2282C63.8269 62.6289 64.3121 63.1143 64.3121 63.7129C64.3121 64.3115 63.8267 64.7969 63.2282 64.7969Z" fill="#252647"/>
<path d="M74.7184 64.7969H71.1369C70.5381 64.7969 70.0529 64.3115 70.0529 63.7129C70.0529 63.1143 70.5381 62.6289 71.1369 62.6289H74.7184C75.3172 62.6289 75.8024 63.1143 75.8024 63.7129C75.8024 64.3115 75.317 64.7969 74.7184 64.7969Z" fill="#252647"/>
<path d="M91.4853 39.0659V34.0302C91.4853 32.2338 90.0289 30.7773 88.2325 30.7773H29.0101C27.2137 30.7773 25.7573 32.2336 25.7573 34.0302V39.0659H91.4853Z" fill="white"/>
<path d="M25.7573 71.0156V76.4329C25.7573 78.2293 27.2137 79.6858 29.0101 79.6858H88.2325C90.0289 79.6858 91.4853 78.2295 91.4853 76.4329V71.0156H25.7573Z" fill="white"/>
<path d="M102.111 92.1947H86.0639C84.8663 92.1947 83.8953 91.2238 83.8953 90.026V59.8835C83.8953 58.6859 84.8661 57.7148 86.0639 57.7148H102.111C103.309 57.7148 104.28 58.6857 104.28 59.8835V90.026C104.28 91.2236 103.309 92.1947 102.111 92.1947Z" fill="#F4B01A"/>
<path d="M83.8948 78.7578V90.0265C83.8948 91.2241 84.8656 92.1951 86.0632 92.1951H102.11C103.308 92.1951 104.279 91.2243 104.279 90.0265V78.7578H83.8948Z" fill="white"/>
<path d="M98.2159 60.7975L99.2199 57.7148H88.9554L89.9594 60.7975C90.1049 61.2439 90.5209 61.5461 90.9903 61.5461H97.1848C97.6544 61.5461 98.0704 61.2439 98.2159 60.7975Z" fill="white"/>
<path d="M37.9477 92.1944H8.88932C7.69174 92.1944 6.7207 91.2236 6.7207 90.0258V53.3776C6.7207 52.18 7.69152 51.209 8.88932 51.209H37.9477C39.1453 51.209 40.1163 52.1798 40.1163 53.3776V90.0258C40.1161 91.2234 39.1453 92.1944 37.9477 92.1944Z" fill="white"/>
<path d="M40.1161 58.293V53.3776C40.1161 52.18 39.1453 51.209 37.9475 51.209H8.88932C7.69174 51.209 6.7207 52.1798 6.7207 53.3776V58.293H40.1161Z" fill="white"/>
<path d="M19.1912 87.8272H12.4705C12.1113 87.8272 11.8201 87.536 11.8201 87.1768V63.8711C11.8201 63.5119 12.1113 63.2207 12.4705 63.2207H19.1912C19.5505 63.2207 19.8416 63.5119 19.8416 63.8711V87.1768C19.8416 87.536 19.5505 87.8272 19.1912 87.8272Z" fill="#F4B01A"/>
<path d="M34.367 71.2422H23.5272C23.1679 71.2422 22.8768 70.951 22.8768 70.5918V63.8711C22.8768 63.5119 23.1679 63.2207 23.5272 63.2207H34.367C34.7262 63.2207 35.0174 63.5119 35.0174 63.8711V70.5918C35.0174 70.951 34.7262 71.2422 34.367 71.2422Z" fill="#F4B01A"/>
<path d="M34.367 87.8267H23.5272C23.1679 87.8267 22.8768 87.5355 22.8768 87.1763V74.916C22.8768 74.5568 23.1679 74.2656 23.5272 74.2656H34.367C34.7262 74.2656 35.0174 74.5568 35.0174 74.916V87.1763C35.0174 87.5355 34.7262 87.8267 34.367 87.8267Z" fill="#F4B01A"/>
<path d="M32.3098 33.8242C31.711 33.8242 31.2258 34.3096 31.2258 34.9082V34.9331C31.2258 35.5317 31.711 36.0171 32.3098 36.0171C32.9086 36.0171 33.3938 35.5317 33.3938 34.9331V34.9082C33.3938 34.3096 32.9086 33.8242 32.3098 33.8242Z" fill="#252647"/>
<path d="M35.6351 33.8242C35.0363 33.8242 34.5511 34.3096 34.5511 34.9082V34.9331C34.5511 35.5317 35.0363 36.0171 35.6351 36.0171C36.2339 36.0171 36.7191 35.5317 36.7191 34.9331V34.9082C36.7191 34.3096 36.2339 33.8242 35.6351 33.8242Z" fill="#252647"/>
<path d="M38.9594 33.8242C38.3606 33.8242 37.8754 34.3096 37.8754 34.9082V34.9331C37.8754 35.5317 38.3606 36.0171 38.9594 36.0171C39.5582 36.0171 40.0434 35.5317 40.0434 34.9331V34.9082C40.0434 34.3096 39.5582 33.8242 38.9594 33.8242Z" fill="#252647"/>
<path d="M102.111 56.6312H92.5688V34.0302C92.5688 31.6389 90.6233 29.6934 88.232 29.6934H29.0096C26.6183 29.6934 24.6728 31.6389 24.6728 34.0302V45.239C24.6728 45.8376 25.158 46.323 25.7568 46.323C26.3556 46.323 26.8408 45.8376 26.8408 45.239V40.1499H90.4008V56.6312H86.0636C84.2702 56.6312 82.811 58.0903 82.811 59.8838V65.0449C82.811 65.6435 83.2962 66.1289 83.895 66.1289C84.4938 66.1289 84.979 65.6435 84.979 65.0449V59.8838C84.979 59.2857 85.4654 58.7992 86.0636 58.7992H88.168L88.9281 61.1337C89.2199 62.0288 90.0483 62.6304 90.9899 62.6304H97.1844C98.1259 62.6304 98.9543 62.0291 99.2461 61.1337L100.006 58.7994H102.111C102.709 58.7994 103.195 59.2859 103.195 59.8841V90.0266C103.195 90.6246 102.709 91.111 102.111 91.111H86.0636C85.4654 91.111 84.979 90.6246 84.979 90.0266V71.0159C84.979 70.4174 84.4938 69.9319 83.895 69.9319H41.2001V53.3784C41.2001 51.5851 39.741 50.126 37.9475 50.126H8.88932C7.09598 50.126 5.63672 51.5851 5.63672 53.3784V90.0266C5.63672 91.82 7.09576 93.279 8.88932 93.279H37.9475C39.7408 93.279 41.2001 91.82 41.2001 90.0266V80.7701H50.6277L48.0181 91.1113H45.5555C44.9567 91.1113 44.4715 91.5967 44.4715 92.1952C44.4715 92.7938 44.9567 93.2792 45.5555 93.2792H71.6863C72.2851 93.2792 72.7703 92.7938 72.7703 92.1952C72.7703 91.5967 72.2851 91.1113 71.6863 91.1113H69.2237L66.6143 80.7701H82.8112V90.0266C82.8112 91.82 84.2702 93.279 86.0638 93.279H102.111C103.904 93.279 105.364 91.82 105.364 90.0266V59.8838C105.363 58.0905 103.904 56.6312 102.111 56.6312ZM26.841 37.9819V34.0302C26.841 32.8343 27.8137 31.8613 29.0098 31.8613H88.2322C89.4283 31.8613 90.401 32.8343 90.401 34.0302V37.9819H26.841ZM97.1844 60.4625H90.9894L90.4479 58.7994H97.7262L97.1844 60.4625ZM8.88932 52.2936H37.9475C38.5456 52.2936 39.0321 52.7801 39.0321 53.378V57.2094H7.80469V53.378C7.80469 52.7801 8.29118 52.2936 8.88932 52.2936ZM39.0321 90.0264C39.0321 90.6243 38.5456 91.1108 37.9475 91.1108H8.88932C8.29118 91.1108 7.80469 90.6243 7.80469 90.0264V59.3776H39.0321V90.0264ZM66.9879 91.111H50.2539L52.8633 80.7698H64.3785L66.9879 91.111ZM41.2001 78.6019V72.0997H82.8112V78.6019H41.2001Z" fill="#252647"/>
<path d="M12.3953 55.8492C12.9941 55.8492 13.4792 55.3637 13.4792 54.7652V54.7402C13.4792 54.1417 12.9941 53.6562 12.3953 53.6562C11.7965 53.6562 11.3113 54.1417 11.3113 54.7402V54.7652C11.3113 55.3637 11.7965 55.8492 12.3953 55.8492Z" fill="#252647"/>
<path d="M15.7196 55.8492C16.3184 55.8492 16.8036 55.3637 16.8036 54.7652V54.7402C16.8036 54.1417 16.3184 53.6562 15.7196 53.6562C15.1208 53.6562 14.6356 54.1417 14.6356 54.7402V54.7652C14.6356 55.3637 15.1208 55.8492 15.7196 55.8492Z" fill="#252647"/>
<path d="M19.0454 55.8492C19.6442 55.8492 20.1294 55.3637 20.1294 54.7652V54.7402C20.1294 54.1417 19.6442 53.6562 19.0454 53.6562C18.4466 53.6562 17.9615 54.1417 17.9615 54.7402V54.7652C17.9615 55.3637 18.4466 55.8492 19.0454 55.8492Z" fill="#252647"/>
<path d="M58.1223 46.6425L58.6207 46.1443L59.1191 46.6425C59.3309 46.8541 59.6082 46.9599 59.8855 46.9599C60.1628 46.9599 60.4405 46.8541 60.6521 46.6423C61.0753 46.2189 61.0753 45.5327 60.6519 45.1093L59.3871 43.8447C58.9641 43.4215 58.2773 43.4215 57.8543 43.8447L56.5896 45.1093C56.1661 45.5327 56.1661 46.2189 56.5893 46.6423C57.0127 47.0659 57.6993 47.0659 58.1223 46.6425Z" fill="#252647"/>
<path d="M91.9219 87.1396H88.8867C88.5275 87.1396 88.2363 86.8484 88.2363 86.4892V67.8809C88.2363 67.5216 88.5275 67.2305 88.8867 67.2305H91.9219C92.2811 67.2305 92.5723 67.5216 92.5723 67.8809V86.4892C92.5723 86.8484 92.2811 87.1396 91.9219 87.1396Z" fill="white"/>
<path d="M91.9219 87.1396H88.8867C88.5275 87.1396 88.2363 86.8484 88.2363 86.4892V67.8809C88.2363 67.5216 88.5275 67.2305 88.8867 67.2305H91.9219C92.2811 67.2305 92.5723 67.5216 92.5723 67.8809V86.4892C92.5723 86.8484 92.2811 87.1396 91.9219 87.1396Z" stroke="#252647" stroke-width="2" stroke-miterlimit="10"/>
<path d="M78.7701 49.9941C79.4394 49.9941 79.982 50.5368 79.982 51.206C79.982 51.8753 79.4394 52.4179 78.7701 52.4179C78.1009 52.4179 77.5582 51.8753 77.5582 51.206C77.5582 50.5368 78.1009 49.9941 78.7701 49.9941Z" fill="#252647"/>
<path d="M78.7701 46.3281C79.4394 46.3281 79.982 46.8708 79.982 47.54C79.982 48.2093 79.4394 48.7519 78.7701 48.7519C78.1009 48.7519 77.5582 48.2093 77.5582 47.54C77.5582 46.8708 78.1009 46.3281 78.7701 46.3281Z" fill="#252647"/>
<path d="M78.7701 42.6621C79.4394 42.6621 79.982 43.2048 79.982 43.874C79.982 44.5433 79.4394 45.0859 78.7701 45.0859C78.1009 45.0859 77.5582 44.5433 77.5582 43.874C77.5582 43.2048 78.1009 42.6621 78.7701 42.6621Z" fill="#252647"/>
</svg>
