<svg width="24" height="24" viewBox="0 0 24 24" fill="none" xmlns="http://www.w3.org/2000/svg">
  <g id="Iconly/Light-Outline/Edit Square">
    <g id="Edit Square">
      <path id="Fill 1" fill-rule="evenodd" clip-rule="evenodd"
            d="M16.577 22.3681H7.753C4.312 22.3681 2 19.9531 2 16.3591V8.04513C2 4.45113 4.312 2.03613 7.753 2.03613H11.492C11.906 2.03613 12.242 2.37213 12.242 2.78613C12.242 3.20013 11.906 3.53613 11.492 3.53613H7.753C5.169 3.53613 3.5 5.30613 3.5 8.04513V16.3591C3.5 19.0981 5.169 20.8681 7.753 20.8681H16.577C19.161 20.8681 20.831 19.0981 20.831 16.3591V12.3311C20.831 11.9171 21.167 11.5811 21.581 11.5811C21.995 11.5811 22.331 11.9171 22.331 12.3311V16.3591C22.331 19.9531 20.018 22.3681 16.577 22.3681Z"
            fill="currentColor"/>
      <path id="Fill 3" fill-rule="evenodd" clip-rule="evenodd"
            d="M8.86762 15.428H11.8446C12.2246 15.428 12.5806 15.281 12.8496 15.012L20.3586 7.503C20.6666 7.195 20.8366 6.785 20.8366 6.349C20.8366 5.912 20.6666 5.501 20.3586 5.193L19.1416 3.976C18.5046 3.341 17.4686 3.341 16.8306 3.976L9.35762 11.449C9.09862 11.708 8.95162 12.052 8.94262 12.417L8.86762 15.428ZM11.8446 16.928H8.09862C7.89662 16.928 7.70262 16.846 7.56162 16.701C7.42062 16.557 7.34362 16.362 7.34862 16.159L7.44262 12.38C7.46162 11.628 7.76462 10.921 8.29662 10.388H8.29762L15.7706 2.915C16.9926 1.695 18.9796 1.695 20.2016 2.915L21.4186 4.132C22.0116 4.724 22.3376 5.511 22.3366 6.349C22.3366 7.187 22.0106 7.973 21.4186 8.564L13.9096 16.073C13.3586 16.624 12.6246 16.928 11.8446 16.928Z"
            fill="currentColor"/>
      <path id="Fill 5" fill-rule="evenodd" clip-rule="evenodd"
            d="M19.7308 9.91636C19.5388 9.91636 19.3468 9.84336 19.2008 9.69636L14.6348 5.13036C14.3418 4.83736 14.3418 4.36236 14.6348 4.06936C14.9278 3.77636 15.4018 3.77636 15.6948 4.06936L20.2608 8.63636C20.5538 8.92936 20.5538 9.40336 20.2608 9.69636C20.1148 9.84336 19.9228 9.91636 19.7308 9.91636Z"
            fill="currentColor"/>
    </g>
  </g>
</svg>
