<svg width="60" height="60" viewBox="0 0 60 60" fill="none" xmlns="http://www.w3.org/2000/svg">
<path d="M27.2361 10.5C29.9699 10.5 32.1861 8.28378 32.1861 5.54998C32.1861 2.81617 29.9699 0.599976 27.2361 0.599976C24.5023 0.599976 22.2861 2.81617 22.2861 5.54998C22.2861 8.28378 24.5023 10.5 27.2361 10.5Z" fill="#EF4496"/>
<path d="M39.1824 38.4L32.0916 18.9156L32.0508 18.7152C32.0508 18.4308 32.2896 18.2004 32.5872 18.2004C32.8404 18.2004 33.0528 18.3696 33.1092 18.5952L37.9296 31.2C38.25 31.9212 39.5676 32.4 40.434 32.4C41.592 32.4 41.712 30.126 41.6868 30L36.8664 17.5716C36.4476 14.7864 33.6348 12 30.4248 12H24.1428C20.9328 12 17.9112 14.7864 17.4924 17.5716L12.888 30C12.7836 30.2388 12.888 32.4 14.1396 32.4C15.1128 32.4 16.4076 32.0604 16.644 31.2L21.294 18.5412C21.3337 18.4398 21.4033 18.353 21.4935 18.2921C21.5838 18.2312 21.6904 18.1992 21.7992 18.2004C22.0956 18.2004 22.3344 18.4308 22.3344 18.714L22.3008 18.8976L15.3924 38.4C15.3792 38.4576 15.3924 39.5412 15.3924 39.6C15.3924 40.0152 16.3944 40.8 16.83 40.8H21.2868V56.514C21.2868 57.762 22.386 58.8 23.6868 58.8C24.9876 58.8 26.0868 57.7608 26.0868 56.514V40.7892C26.0868 40.4496 28.4868 40.4604 28.4868 40.8V56.4C28.4868 57.648 29.5872 58.8 30.8868 58.8C32.19 58.8 33.2868 57.6468 33.2868 56.4V40.8H37.9296C38.364 40.8 39.1824 40.0152 39.1824 39.6C39.1824 39.504 39.2172 38.4828 39.1824 38.4Z" fill="#EF4496"/>
</svg>
