<svg width="111" height="111" viewBox="0 0 111 111" fill="none" xmlns="http://www.w3.org/2000/svg">
<path d="M42.3773 99.0221H68.6205C69.9634 99.0221 71.0521 97.9336 71.0521 96.5906V96.5472C71.0521 95.5356 70.4163 94.6539 69.4795 94.2723C67.5892 93.5025 66.1367 91.834 65.7046 89.7352L64.2714 82.7715H46.7262L45.293 89.7352C44.8611 91.834 43.4086 93.5025 41.5183 94.2723C40.5815 94.6539 39.9457 95.5356 39.9457 96.5472V96.5906C39.9457 97.9336 41.0342 99.0221 42.3773 99.0221Z" fill="white"/>
<path d="M97.6492 84.5429H13.3458C11.7981 84.5429 10.5435 83.2883 10.5435 81.7406V23.1265C10.5435 21.5788 11.7981 20.3242 13.3458 20.3242H97.6492C99.1969 20.3242 100.452 21.5788 100.452 23.1265V81.7406C100.452 83.2883 99.1969 84.5429 97.6492 84.5429Z" fill="#F4B01A"/>
<path d="M100.453 36.4609V73.0996H44.6581V37.5449C44.6581 36.9463 45.1436 36.4609 45.7421 36.4609H100.453Z" fill="white"/>
<path d="M68.6325 66.4102H52.0432C51.4444 66.4102 50.9592 65.9247 50.9592 65.3262C50.9592 64.7276 51.4444 64.2422 52.0432 64.2422H68.6325C69.2313 64.2422 69.7165 64.7276 69.7165 65.3262C69.7165 65.9247 69.2313 66.4102 68.6325 66.4102Z" fill="#252647"/>
<path d="M88.183 49.5407C87.7667 47.7651 86.945 46.2649 85.7245 45.0421C84.3912 43.7088 82.7262 42.7658 80.7251 42.2086C76.3827 41.001 71.7454 41.0292 67.3466 41.9268C63.6958 42.6704 59.6525 44.0449 57.4347 47.2491C54.6033 51.3401 57.207 57.625 62.3928 57.625C68.8382 57.625 71.3704 49.3217 65.8074 45.8768C67.3206 45.2698 70.2018 44.4308 73.057 45.3261C75.2792 46.0221 76.8033 48.0946 76.8098 50.423V56.9573C76.8098 58.4575 76.1009 59.6391 74.6852 60.4998C68.8252 64.0596 60.6151 64.3327 56.1014 69.9976C55.3708 70.9168 54.8396 71.9748 54.5057 73.1H66.1044C66.8458 69.9955 70.6116 68.3977 72.5584 67.1511C74.7264 65.8178 76.1421 64.5951 76.8098 63.4829V73.1H88.8073V56.7904C88.8073 53.7357 88.5992 51.3206 88.183 49.5407Z" fill="#F4B01A"/>
<path d="M20.1597 20.3242H13.3458C11.7981 20.3242 10.5435 21.5788 10.5435 23.1265V81.7406C10.5435 83.2883 11.7981 84.5429 13.3458 84.5429H20.1595V20.3242H20.1597Z" fill="#F4B01A"/>
<path d="M100.452 28.6709V23.1265C100.452 21.5788 99.1969 20.3242 97.6492 20.3242H13.3458C11.7981 20.3242 10.5435 21.5788 10.5435 23.1265V28.6709H100.452Z" fill="white"/>
<path d="M10.5435 73.0996V81.7416C10.5435 83.2893 11.7981 84.5439 13.3458 84.5439H97.6492C99.1969 84.5439 100.452 83.2893 100.452 81.7416V73.0996H10.5435Z" fill="white"/>
<path d="M100.452 66.773C101.051 66.773 101.536 66.2875 101.536 65.689V23.1274C101.536 20.9839 99.7935 19.2402 97.6513 19.2402H13.3477C11.2044 19.2402 9.46051 20.9839 9.46051 23.1274V81.7406C9.46051 83.8841 11.2042 85.6278 13.3477 85.6278H45.0317L44.2315 89.516C43.8826 91.2112 42.7156 92.6136 41.1096 93.2679C41.107 93.269 41.1048 93.2701 41.1022 93.2712C41.0972 93.2731 41.0927 93.2755 41.0879 93.2777C39.7351 93.8387 38.8619 95.1187 38.8619 96.5465V96.5901C38.8619 98.5285 40.4388 100.106 42.3774 100.106H68.6207C70.5591 100.106 72.1363 98.5287 72.1363 96.5901V96.5468C72.1363 95.1187 71.2628 93.8383 69.9095 93.2775C69.905 93.2755 69.9009 93.2733 69.8963 93.2714C69.8937 93.2703 69.8911 93.269 69.8885 93.2679C68.2825 92.6138 67.1155 91.2114 66.7666 89.5163L65.9664 85.628H97.6513C99.7935 85.628 101.536 83.8843 101.536 81.7408V73.0989C101.536 72.5003 101.051 72.0149 100.452 72.0149H11.6285V23.1274C11.6285 22.1793 12.3996 21.4082 13.3477 21.4082H97.6513C98.5981 21.4082 99.3683 22.1796 99.3683 23.1274V65.689C99.3683 66.2875 99.8538 66.773 100.452 66.773ZM69.9681 96.5899C69.9681 97.3329 69.3634 97.9375 68.6205 97.9375H42.3772C41.6343 97.9375 41.0296 97.3329 41.0296 96.5899V96.5463C41.0296 96.0538 41.3136 95.6039 41.7643 95.3555H69.2336C69.6843 95.6039 69.9681 96.0538 69.9681 96.5463V96.5899ZM99.3683 74.1826V81.7406C99.3683 82.6887 98.5981 83.4598 97.6513 83.4598H53.7478C53.1492 83.4598 52.6638 83.9452 52.6638 84.5438C52.6638 85.1424 53.1492 85.6278 53.7478 85.6278H63.753L64.6431 89.9529C64.8924 91.1641 65.4366 92.2696 66.2056 93.1875H44.7928C45.5617 92.2696 46.1059 91.1641 46.3552 89.9529L47.4236 84.7623C47.4893 84.4432 47.408 84.1115 47.202 83.8589C46.9961 83.6064 46.6876 83.4598 46.3617 83.4598H13.3477C12.3998 83.4598 11.6285 82.6884 11.6285 81.7406V74.1826H99.3683Z" fill="#252647"/>
<path d="M93.7116 43.2065H88.6635C88.0649 43.2065 87.5795 42.7211 87.5795 42.1225V33.1094C87.5795 32.5108 88.0649 32.0254 88.6635 32.0254H93.7116C94.3101 32.0254 94.7956 32.5108 94.7956 33.1094V42.1225C94.7956 42.7213 94.3101 43.2065 93.7116 43.2065Z" fill="#F4B01A"/>
<path d="M94.7956 35.727H87.5795V33.1094C87.5795 32.5108 88.0649 32.0254 88.6635 32.0254H93.7116C94.3101 32.0254 94.7956 32.5108 94.7956 33.1094V35.727Z" fill="white"/>
<path d="M37.9339 46.0149H26.3818C25.7833 46.0149 25.2979 45.5294 25.2979 44.9309V35.918C25.2979 35.3194 25.7833 34.834 26.3818 34.834H37.9339C38.5324 34.834 39.0178 35.3194 39.0178 35.918V44.9309C39.0178 45.5297 38.5324 46.0149 37.9339 46.0149Z" fill="white"/>
<path d="M39.0178 38.5354H25.2979V35.918C25.2979 35.3194 25.7833 34.834 26.3818 34.834H37.9339C38.5324 34.834 39.0178 35.3194 39.0178 35.918V38.5354Z" fill="#F4B01A"/>
<path d="M37.9339 47.0988H26.3818C25.1864 47.0988 24.2139 46.1263 24.2139 44.9309V35.918C24.2139 34.7226 25.1864 33.75 26.3818 33.75H37.9339C39.1293 33.75 40.1018 34.7226 40.1018 35.918V44.9309C40.1018 46.1263 39.1293 47.0988 37.9339 47.0988ZM26.3818 35.918V44.9309L37.9352 44.9306L37.9339 35.9178H26.3818V35.918Z" fill="#252647"/>
<path d="M37.9339 64.7846H26.3818C25.7833 64.7846 25.2979 64.2992 25.2979 63.7006V47.0996C25.2979 46.501 25.7833 46.0156 26.3818 46.0156H37.9339C38.5324 46.0156 39.0178 46.501 39.0178 47.0996V63.7006C39.0178 64.2992 38.5324 64.7846 37.9339 64.7846Z" fill="white"/>
<path d="M39.0178 49.7172H25.2979V47.0996C25.2979 46.501 25.7833 46.0156 26.3818 46.0156H37.9339C38.5324 46.0156 39.0178 46.501 39.0178 47.0996V49.7172Z" fill="#F4B01A"/>
<path d="M37.9339 65.8684H26.3818C25.1864 65.8684 24.2139 64.8958 24.2139 63.7004V47.0996C24.2139 45.9042 25.1864 44.9316 26.3818 44.9316H37.9339C39.1293 44.9316 40.1018 45.9042 40.1018 47.0996V63.7004C40.1018 64.8958 39.1293 65.8684 37.9339 65.8684ZM26.3818 47.0996V63.7004H37.9352L37.9339 47.0996H26.3818Z" fill="#252647"/>
<path d="M87.6187 62.387L88.7532 65.7905C88.9275 66.3132 89.5909 66.4698 89.9804 66.0802L92.2494 63.8112C92.639 63.4216 92.4825 62.7582 91.9598 62.5839L88.5563 61.4494C87.9768 61.2565 87.4257 61.8078 87.6187 62.387Z" fill="#252647"/>
<path d="M95.5854 54.5625H83.3321C82.7333 54.5625 82.2481 54.0771 82.2481 53.4785C82.2481 52.8799 82.7333 52.3945 83.3321 52.3945H95.5854C96.1842 52.3945 96.6694 52.8799 96.6694 53.4785C96.6694 54.0771 96.1842 54.5625 95.5854 54.5625Z" fill="#252647"/>
<path d="M95.5854 50.8926H83.3321C82.7333 50.8926 82.2481 50.4072 82.2481 49.8086C82.2481 49.21 82.7333 48.7246 83.3321 48.7246H95.5854C96.1842 48.7246 96.6694 49.21 96.6694 49.8086C96.6694 50.4072 96.1842 50.8926 95.5854 50.8926Z" fill="#252647"/>
<path d="M52.0432 62.5074C51.4446 62.5074 50.9592 62.0219 50.9592 61.4234V61.3984C50.9592 60.7999 51.4446 60.3145 52.0432 60.3145C52.6418 60.3145 53.1272 60.7999 53.1272 61.3984V61.4234C53.1272 62.0219 52.642 62.5074 52.0432 62.5074Z" fill="#252647"/>
<path d="M54.9935 62.5074C54.395 62.5074 53.9095 62.0219 53.9095 61.4234V61.3984C53.9095 60.7999 54.395 60.3145 54.9935 60.3145C55.5921 60.3145 56.0775 60.7999 56.0775 61.3984V61.4234C56.0775 62.0219 55.5923 62.5074 54.9935 62.5074Z" fill="#252647"/>
<path d="M19.0761 28.6719H21.2441V73.0996H19.0761V28.6719Z" fill="#252647"/>
</svg>
