<svg width="54" height="53" viewBox="0 0 54 53" fill="none" xmlns="http://www.w3.org/2000/svg">
<path fill-rule="evenodd" clip-rule="evenodd" d="M35.0758 24.0647C35.0758 26.4195 35.6982 27.8075 37.0678 29.407C38.1058 30.5854 38.4375 32.098 38.4375 33.7391C38.4375 35.3782 37.899 36.9343 36.82 38.1977C35.4075 39.7122 33.4154 40.679 31.3823 40.8471C28.4361 41.0983 25.4881 41.3098 22.5009 41.3098C19.5119 41.3098 16.5657 41.1833 13.6195 40.8471C11.5846 40.679 9.59254 39.7122 8.18187 38.1977C7.10291 36.9343 6.5625 35.3782 6.5625 33.7391C6.5625 32.098 6.89606 30.5854 7.93217 29.407C9.34469 27.8075 9.9261 26.4195 9.9261 24.0647V23.2658C9.9261 20.1122 10.7125 18.05 12.3319 16.0313C14.7395 13.0872 18.5988 11.3215 22.4171 11.3215H22.5848C26.4851 11.3215 30.4692 13.1722 32.8358 16.2428C34.3714 18.22 35.0758 20.1953 35.0758 23.2658V24.0647ZM17.0131 45.1856C17.0131 44.2414 17.8797 43.8089 18.681 43.6239C19.6183 43.4256 25.3299 43.4256 26.2672 43.6239C27.0685 43.8089 27.9351 44.2414 27.9351 45.1856C27.8885 46.0845 27.3611 46.8814 26.6325 47.3875C25.6877 48.124 24.5789 48.5904 23.4198 48.7585C22.7788 48.8416 22.1489 48.8435 21.5302 48.7585C20.3693 48.5904 19.2605 48.124 18.3176 47.3856C17.5871 46.8814 17.0597 46.0845 17.0131 45.1856Z" fill="#252647"/>
<rect x="30" width="24" height="16" rx="8" fill="#FE3030"/>
<path d="M44.3271 9.98438V11H39.5127V10.1309L41.8223 7.63574C42.0632 7.3623 42.2536 7.12467 42.3936 6.92285C42.5335 6.72103 42.6328 6.53874 42.6914 6.37598C42.7533 6.20996 42.7842 6.05208 42.7842 5.90234C42.7842 5.68424 42.7451 5.49382 42.667 5.33105C42.5889 5.16504 42.4749 5.03646 42.3252 4.94531C42.1787 4.85417 41.998 4.80859 41.7832 4.80859C41.5456 4.80859 41.3421 4.86393 41.1729 4.97461C41.0068 5.08203 40.8799 5.23177 40.792 5.42383C40.7074 5.61589 40.665 5.83561 40.665 6.08301H39.3711C39.3711 5.66309 39.4688 5.2806 39.6641 4.93555C39.8594 4.58724 40.1393 4.30892 40.5039 4.10059C40.8685 3.89225 41.3014 3.78809 41.8027 3.78809C42.291 3.78809 42.7044 3.86947 43.043 4.03223C43.3815 4.19173 43.6387 4.4196 43.8145 4.71582C43.9902 5.01204 44.0781 5.36523 44.0781 5.77539C44.0781 6.00326 44.0407 6.22786 43.9658 6.44922C43.891 6.67057 43.7852 6.8903 43.6484 7.1084C43.515 7.32324 43.3555 7.54134 43.1699 7.7627C42.9844 7.98405 42.7777 8.21029 42.5498 8.44141L41.1631 9.98438H44.3271Z" fill="white"/>
</svg>
