<svg width="65" height="65" viewBox="0 0 65 65" fill="none" xmlns="http://www.w3.org/2000/svg">
<circle cx="32.5" cy="32.5" r="32.5" fill="#F4B01A"/>
<path d="M26.2751 19.7754C26.0433 20.0067 25.8594 20.2814 25.734 20.5839C25.6085 20.8863 25.5439 21.2105 25.5439 21.5379C25.5439 21.8653 25.6085 22.1895 25.734 22.492C25.8594 22.7944 26.0433 23.0691 26.2751 23.3004L35.9751 33.0004L26.2751 42.7004C25.8076 43.1679 25.545 43.8019 25.545 44.4629C25.545 45.124 25.8076 45.758 26.2751 46.2254C26.7425 46.6929 27.3765 46.9555 28.0376 46.9555C28.6986 46.9555 29.3326 46.6929 29.8001 46.2254L41.2751 34.7504C41.5068 34.5191 41.6907 34.2444 41.8161 33.942C41.9416 33.6396 42.0062 33.3153 42.0062 32.9879C42.0062 32.6605 41.9416 32.3363 41.8161 32.0339C41.6907 31.7314 41.5068 31.4567 41.2751 31.2254L29.8001 19.7504C28.8501 18.8004 27.2501 18.8004 26.2751 19.7754Z" fill="white"/>
</svg>
