<svg width="35" height="35" viewBox="0 0 35 35" fill="none" xmlns="http://www.w3.org/2000/svg">
<g id="Iconly/Bold/Home">
<g id="Home">
<path id="Home_2" d="M13.3212 30.2945V25.8353C13.3212 24.697 14.2508 23.7742 15.3974 23.7742H19.5889C20.1395 23.7742 20.6676 23.9914 21.057 24.3779C21.4463 24.7644 21.6651 25.2887 21.6651 25.8353V30.2945C21.6616 30.7677 21.8485 31.2228 22.1844 31.5586C22.5202 31.8945 22.9772 32.0834 23.454 32.0833H26.3136C27.6491 32.0868 28.9312 31.5625 29.8768 30.6262C30.8224 29.6899 31.3538 28.4185 31.3538 27.0927V14.3892C31.3538 13.3182 30.8756 12.3023 30.0481 11.6152L20.3201 3.90233C18.6279 2.55001 16.2034 2.59367 14.5617 4.00603L5.05573 11.6152C4.18909 12.282 3.6711 13.3009 3.64551 14.3892V27.0797C3.64551 29.8431 5.90211 32.0833 8.68576 32.0833H11.4801C12.4702 32.0834 13.2749 31.2903 13.2821 30.3074L13.3212 30.2945Z" fill="#2300C8"/>
</g>
</g>
</svg>
