<svg width="25" height="25" viewBox="0 0 25 25" fill="none" xmlns="http://www.w3.org/2000/svg">
<path d="M12.5 0C10.0277 0 7.61099 0.733112 5.55538 2.10663C3.49976 3.48015 1.89761 5.43238 0.951511 7.71646C0.00541604 10.0005 -0.242126 12.5139 0.24019 14.9386C0.722505 17.3634 1.91301 19.5907 3.66117 21.3388C5.40933 23.087 7.63661 24.2775 10.0614 24.7598C12.4861 25.2421 14.9995 24.9946 17.2835 24.0485C19.5676 23.1024 21.5199 21.5002 22.8934 19.4446C24.2669 17.389 25 14.9723 25 12.5C25 9.18479 23.683 6.00537 21.3388 3.66116C18.9946 1.31696 15.8152 0 12.5 0ZM16.2857 7.44643L17.5536 6.1875C17.6336 6.09403 17.7321 6.01812 17.8429 5.96453C17.9537 5.91094 18.0743 5.88082 18.1973 5.87607C18.3202 5.87132 18.4429 5.89204 18.5574 5.93693C18.672 5.98182 18.7761 6.0499 18.8631 6.13692C18.9501 6.22393 19.0182 6.32799 19.0631 6.44257C19.108 6.55714 19.1287 6.67976 19.1239 6.80272C19.1192 6.92569 19.0891 7.04634 19.0355 7.15711C18.9819 7.26789 18.906 7.36638 18.8125 7.44643L17.5536 8.71428C17.4706 8.79797 17.3718 8.86439 17.263 8.90972C17.1542 8.95505 17.0375 8.97839 16.9196 8.97839C16.8018 8.97839 16.6851 8.95505 16.5763 8.90972C16.4675 8.86439 16.3687 8.79797 16.2857 8.71428C16.202 8.63128 16.1356 8.53253 16.0903 8.42373C16.0449 8.31493 16.0216 8.19822 16.0216 8.08036C16.0216 7.96249 16.0449 7.84579 16.0903 7.73698C16.1356 7.62818 16.202 7.52943 16.2857 7.44643ZM3.57143 12.5C3.57143 12.2632 3.6655 12.0361 3.83295 11.8687C4.00039 11.7012 4.22749 11.6071 4.46429 11.6071H6.25C6.4868 11.6071 6.71391 11.7012 6.88135 11.8687C7.04879 12.0361 7.14286 12.2632 7.14286 12.5C7.14286 12.7368 7.04879 12.9639 6.88135 13.1313C6.71391 13.2988 6.4868 13.3929 6.25 13.3929H4.46429C4.22749 13.3929 4.00039 13.2988 3.83295 13.1313C3.6655 12.9639 3.57143 12.7368 3.57143 12.5ZM8.71429 17.5536L7.44643 18.8125C7.27915 18.9788 7.05285 19.0721 6.81697 19.0721C6.58109 19.0721 6.35479 18.9788 6.1875 18.8125C6.02121 18.6452 5.92787 18.4189 5.92787 18.183C5.92787 17.9472 6.02121 17.7209 6.1875 17.5536L7.44643 16.2857C7.52968 16.2025 7.62851 16.1364 7.73728 16.0914C7.84605 16.0463 7.96263 16.0231 8.08036 16.0231C8.19809 16.0231 8.31467 16.0463 8.42344 16.0914C8.53221 16.1364 8.63104 16.2025 8.71429 16.2857C8.79754 16.369 8.86357 16.4678 8.90863 16.5766C8.95368 16.6853 8.97687 16.8019 8.97687 16.9196C8.97687 17.0374 8.95368 17.1539 8.90863 17.2627C8.86357 17.3715 8.79754 17.4703 8.71429 17.5536ZM13.3929 20.5357C13.3929 20.7725 13.2988 20.9996 13.1313 21.1671C12.9639 21.3345 12.7368 21.4286 12.5 21.4286C12.2632 21.4286 12.0361 21.3345 11.8687 21.1671C11.7012 20.9996 11.6071 20.7725 11.6071 20.5357V18.75C11.6071 18.5132 11.7012 18.2861 11.8687 18.1187C12.0361 17.9512 12.2632 17.8571 12.5 17.8571C12.7368 17.8571 12.9639 17.9512 13.1313 18.1187C13.2988 18.2861 13.3929 18.5132 13.3929 18.75V20.5357ZM13.3929 6.25C13.3929 6.4868 13.2988 6.7139 13.1313 6.88134C12.9639 7.04879 12.7368 7.14286 12.5 7.14286C12.2632 7.14286 12.0361 7.04879 11.8687 6.88134C11.7012 6.7139 11.6071 6.4868 11.6071 6.25V4.46428C11.6071 4.22748 11.7012 4.00038 11.8687 3.83294C12.0361 3.6655 12.2632 3.57143 12.5 3.57143C12.7368 3.57143 12.9639 3.6655 13.1313 3.83294C13.2988 4.00038 13.3929 4.22748 13.3929 4.46428V6.25ZM18.8125 18.8125C18.6452 18.9788 18.4189 19.0721 18.183 19.0721C17.9472 19.0721 17.7209 18.9788 17.5536 18.8125L16.2857 17.5536C16.1176 17.3854 16.0231 17.1574 16.0231 16.9196C16.0231 16.6819 16.1176 16.4538 16.2857 16.2857C16.4538 16.1176 16.6819 16.0231 16.9196 16.0231C17.1574 16.0231 17.3854 16.1176 17.5536 16.2857L18.8125 17.5536C18.9788 17.7209 19.0721 17.9472 19.0721 18.183C19.0721 18.4189 18.9788 18.6452 18.8125 18.8125ZM20.5357 13.3929H18.75C18.5132 13.3929 18.2861 13.2988 18.1187 13.1313C17.9512 12.9639 17.8571 12.7368 17.8571 12.5C17.8571 12.2632 17.9512 12.0361 18.1187 11.8687C18.2861 11.7012 18.5132 11.6071 18.75 11.6071H20.5357C20.7725 11.6071 20.9996 11.7012 21.1671 11.8687C21.3345 12.0361 21.4286 12.2632 21.4286 12.5C21.4286 12.7368 21.3345 12.9639 21.1671 13.1313C20.9996 13.2988 20.7725 13.3929 20.5357 13.3929Z" fill="#FABD39"/>
</svg>
