<svg width="60" height="60" viewBox="0 0 60 60" fill="none" xmlns="http://www.w3.org/2000/svg">
<path d="M30.6002 9.99048C33.3959 10.0039 35.6623 7.7674 35.6623 4.99524C35.6623 2.23647 33.3959 0 30.6002 0C27.8045 0 25.5381 2.23647 25.5381 4.99524C25.5381 7.75401 27.8045 9.99048 30.6002 9.99048ZM35.6759 11.1154H30.6002H25.5245C21.6973 11.1154 19.2002 14.4366 19.2002 17.5972V32.8106C19.2002 35.7568 23.4073 35.7568 23.4073 32.8106V18.7489H24.2216V56.9966C24.2216 61.0678 29.9216 60.9339 30.0573 56.9966V34.9533H31.0073H31.1431V57.01C31.3738 61.1883 36.9788 60.7866 36.9788 56.9966V18.7489H37.6573V32.8106C37.6573 35.7568 42.0002 35.7568 42.0002 32.8106V17.5972C42.0002 14.45 39.4895 11.1154 35.6759 11.1154Z" fill="#4167C7"/>
</svg>
