<svg width="45" height="46" viewBox="0 0 45 46" fill="none" xmlns="http://www.w3.org/2000/svg">
<path fill-rule="evenodd" clip-rule="evenodd" d="M35.0758 17.0646C35.0758 19.4194 35.6982 20.8074 37.0678 22.4069C38.1058 23.5853 38.4375 25.0979 38.4375 26.739C38.4375 28.3781 37.899 29.9342 36.82 31.1976C35.4075 32.7121 33.4154 33.679 31.3823 33.847C28.4361 34.0982 25.4881 34.3097 22.5009 34.3097C19.5119 34.3097 16.5657 34.1832 13.6195 33.847C11.5846 33.679 9.59254 32.7121 8.18187 31.1976C7.10291 29.9342 6.5625 28.3781 6.5625 26.739C6.5625 25.0979 6.89606 23.5853 7.93217 22.4069C9.34469 20.8074 9.9261 19.4194 9.9261 17.0646V16.2658C9.9261 13.1121 10.7125 11.0499 12.3319 9.03118C14.7395 6.08712 18.5988 4.32144 22.4171 4.32144H22.5848C26.4851 4.32144 30.4692 6.1721 32.8358 9.24269C34.3714 11.2199 35.0758 13.1952 35.0758 16.2658V17.0646ZM17.0131 38.1855C17.0131 37.2413 17.8797 36.8088 18.681 36.6238C19.6183 36.4255 25.3299 36.4255 26.2672 36.6238C27.0685 36.8088 27.9351 37.2413 27.9351 38.1855C27.8885 39.0844 27.3611 39.8813 26.6325 40.3874C25.6877 41.1239 24.5789 41.5903 23.4198 41.7584C22.7788 41.8415 22.1489 41.8434 21.5302 41.7584C20.3693 41.5903 19.2605 41.1239 18.3176 40.3855C17.5871 39.8813 17.0597 39.0844 17.0131 38.1855Z" fill="#252647"/>
</svg>
