<svg width="111" height="111" viewBox="0 0 111 111" fill="none" xmlns="http://www.w3.org/2000/svg">
<path d="M70.2443 60.6445H93.3527V94.2112H70.2443V60.6445Z" fill="white"/>
<path d="M70.2443 77.6582H93.3527V94.2106H70.2443V77.6582Z" fill="#F4B01A"/>
<path d="M70.2432 62.1362H95.6859C96.2844 62.1362 96.7698 61.6508 96.7698 61.0522V56.4238C96.7698 55.825 96.2844 55.3398 95.6859 55.3398H70.2432V62.1362Z" fill="white"/>
<path d="M17.6523 60.6445H40.7607V94.2112H17.6523V60.6445Z" fill="white"/>
<path d="M17.6523 77.6582H40.7607V94.2106H17.6523V77.6582Z" fill="#F4B01A"/>
<path d="M40.7609 62.1362H15.3181C14.7195 62.1362 14.2341 61.6508 14.2341 61.0522V56.4238C14.2341 55.825 14.7195 55.3398 15.3181 55.3398H40.7607V62.1362H40.7609Z" fill="white"/>
<path d="M70.2443 33.7695V94.2103H40.7599V35.9375C40.7599 34.7408 41.7312 33.7695 42.9279 33.7695H70.2443Z" fill="white"/>
<path d="M53.6659 41.0391V46.5197C53.6659 47.118 53.1802 47.6037 52.5819 47.6037H40.7599V39.9551H52.5819C53.1802 39.9551 53.6659 40.4407 53.6659 41.0391Z" fill="#F4B01A"/>
<path d="M53.6648 52.4824V57.963C53.6648 58.5636 53.1792 59.047 52.5808 59.047H40.7589V51.3984H52.5808C53.1792 51.3984 53.6648 51.8841 53.6648 52.4824Z" fill="#F4B01A"/>
<path d="M53.6648 63.9258V69.4086C53.6648 70.0069 53.1792 70.4926 52.5808 70.4926H40.7589V62.8418H52.5808C53.1792 62.8418 53.6648 63.3274 53.6648 63.9258Z" fill="#F4B01A"/>
<path d="M40.7598 77.6582H70.2427V94.2119H40.7598V77.6582Z" fill="#F4B01A"/>
<path d="M60.8403 94.21H50.1654V84.6191C50.1654 84.0206 50.6508 83.5352 51.2494 83.5352H59.7563C60.3549 83.5352 60.8403 84.0206 60.8403 84.6191V94.21Z" fill="white"/>
<path d="M84.6437 14.6983V23.1122C84.6437 24.4433 83.5641 25.5252 82.2308 25.5252C80.8975 25.5252 79.8179 24.4433 79.8179 23.1122V20.5237L48.3238 52.0177C47.3807 52.9586 45.8523 52.9586 44.9114 52.0177L40.8985 48.0027L33.5642 55.3391H26.7373L39.1923 42.8841C40.1332 41.941 41.6616 41.941 42.6025 42.8841L46.6176 46.897L76.4033 17.1113H73.8169C72.4836 17.1113 71.4018 16.0295 71.4018 14.6983C71.4018 13.365 72.4836 12.2832 73.8169 12.2832H82.2308C83.5641 12.2832 84.6437 13.365 84.6437 14.6983Z" fill="white"/>
<path d="M73.5812 66.6707H59.8174C59.2188 66.6707 58.7334 66.1853 58.7334 65.5867V27.957C58.7334 27.3585 59.2188 26.873 59.8174 26.873H73.5812C74.1797 26.873 74.6652 27.3585 74.6652 27.957V65.5869C74.6652 66.1855 74.1797 66.6707 73.5812 66.6707Z" fill="white"/>
<path d="M65.6158 49.5639V32.9746C65.6158 32.3758 66.1013 31.8906 66.6998 31.8906C67.2984 31.8906 67.7838 32.3758 67.7838 32.9746V49.5639C67.7838 50.1627 67.2984 50.6479 66.6998 50.6479C66.1013 50.6479 65.6158 50.1627 65.6158 49.5639Z" fill="#252647"/>
<path d="M50.8453 27.4708C52.2126 20.6621 47.8015 14.0341 40.9927 12.6668C34.184 11.2995 27.556 15.7106 26.1887 22.5194C24.8214 29.3281 29.2326 35.9561 36.0413 37.3234C42.85 38.6907 49.478 34.2795 50.8453 27.4708Z" fill="white"/>
<path d="M39.908 23.9256H39.5793V21.7189H41.6287C42.2273 21.7189 42.7127 21.2334 42.7127 20.6349C42.7127 20.0363 42.2273 19.5509 41.6287 19.5509H39.5793V19.0059C39.5793 18.4073 39.0939 17.9219 38.4953 17.9219C37.8968 17.9219 37.4113 18.4073 37.4113 19.0059V19.5509H37.0827C35.2787 19.5509 33.8112 21.0184 33.8112 22.8221C33.8112 24.6261 35.2787 26.0936 37.0827 26.0936H37.4113V28.3006H35.362C34.7634 28.3006 34.278 28.786 34.278 29.3846C34.278 29.9832 34.7634 30.4686 35.362 30.4686H37.4113V31.0136C37.4113 31.6122 37.8968 32.0976 38.4953 32.0976C39.0939 32.0976 39.5793 31.6122 39.5793 31.0136V30.4686H39.908C41.7119 30.4686 43.1794 29.0011 43.1794 27.1971C43.1794 25.3931 41.7119 23.9256 39.908 23.9256ZM37.0829 23.9256C36.4743 23.9256 35.9794 23.4307 35.9794 22.8221C35.9794 22.2138 36.4743 21.7189 37.0829 21.7189H37.4116V23.9256H37.0829ZM39.908 28.3006H39.5793V26.0936H39.908C40.5165 26.0936 41.0115 26.5885 41.0115 27.1971C41.0115 27.8056 40.5165 28.3006 39.908 28.3006Z" fill="#252647"/>
<path d="M98.7197 93.1285H94.4354V63.2211H95.6856C96.881 63.2211 97.8536 62.2486 97.8536 61.0532V56.4248C97.8536 55.2294 96.881 54.2568 95.6856 54.2568H75.7488V27.9585C75.7488 27.446 75.5693 26.9753 75.2709 26.6039L78.7325 23.1423C78.7477 25.0577 80.3106 26.6111 82.2293 26.6111C84.1575 26.6111 85.7262 25.0424 85.7262 23.1142V14.7003C85.7262 12.771 84.1575 11.2012 82.2293 11.2012H73.8154C71.8859 11.2012 70.3163 12.7708 70.3163 14.7003C70.3163 16.6185 71.8694 18.1807 73.785 18.1972L66.1915 25.7907H59.817C58.6216 25.7907 57.649 26.7633 57.649 27.9587V32.6879H49.7752C51.2694 30.4991 52.1448 27.8559 52.1448 25.0116C52.1448 17.4844 46.0209 11.3607 38.4937 11.3607C30.9665 11.3607 24.8427 17.4846 24.8427 25.0116C24.8427 32.5388 30.9663 38.6626 38.4937 38.6626C38.892 38.6626 39.2855 38.6418 39.6753 38.6082V41.3171C39.2111 41.4901 38.7842 41.7587 38.4244 42.1197L26.2868 54.2572H15.3166C14.1212 54.2572 13.1487 55.2298 13.1487 56.4252V61.0536C13.1487 62.249 14.1212 63.2216 15.3166 63.2216H16.5669V93.1289H12.2828C11.6842 93.1289 11.1988 93.6143 11.1988 94.2129C11.1988 94.8115 11.6842 95.2969 12.2828 95.2969H98.7197C99.3183 95.2969 99.8037 94.8115 99.8037 94.2129C99.8037 93.6143 99.3183 93.1285 98.7197 93.1285ZM95.6856 56.4248V61.0532H75.7488V56.4248H95.6856ZM77.1684 17.8796C77.4784 17.5696 77.5709 17.1032 77.4031 16.6983C77.2356 16.2933 76.8401 16.0292 76.4018 16.0292H73.8154C73.0813 16.0292 72.4842 15.433 72.4842 14.7003C72.4842 13.9664 73.0813 13.3691 73.8154 13.3691H82.2293C82.962 13.3691 83.5582 13.9662 83.5582 14.7003V23.1142C83.5582 23.8469 82.962 24.4431 82.2293 24.4431C81.4965 24.4431 80.9003 23.8469 80.9003 23.1142V20.5256C80.9003 20.0872 80.6362 19.6918 80.2313 19.524C79.8265 19.3566 79.3602 19.4488 79.0499 19.759L73.0184 25.7905H69.2577L77.1684 17.8796ZM59.8172 27.9585H73.581L73.5823 65.5881H59.8172V27.9585ZM69.1584 67.7561V73.8219C69.1584 74.4204 69.6438 74.9058 70.2423 74.9058C70.8409 74.9058 71.3263 74.4204 71.3263 73.8219V67.7561H73.5808C74.7762 67.7561 75.7488 66.7836 75.7488 65.5881V63.2211H92.2674V93.1285H71.3263V80.9742C71.3263 80.3756 70.8409 79.8902 70.2423 79.8902C69.6438 79.8902 69.1584 80.3756 69.1584 80.9742V93.1285H41.8433V50.4845L44.1432 52.7858C45.5049 54.1478 47.7232 54.1484 49.0888 52.7861L57.649 44.2256V65.5881C57.649 66.7836 58.6216 67.7561 59.817 67.7561H69.1584ZM39.6753 54.2568H36.1792L39.6753 50.7597V54.2568ZM27.0109 25.0111C27.0109 18.6794 32.1622 13.5283 38.494 13.5283C44.8257 13.5283 49.977 18.6796 49.977 25.0111C49.977 31.3429 44.8257 36.4942 38.494 36.4942C32.1622 36.4942 27.0109 31.3429 27.0109 25.0111ZM47.9363 34.8557H57.1263L46.616 45.366L43.3684 42.1203C42.9383 41.6889 42.4143 41.3867 41.8433 41.2267V38.2451C44.169 37.6562 46.2568 36.4673 47.9363 34.8557ZM39.9582 43.6513C40.2084 43.4005 40.5414 43.2624 40.8958 43.2624C41.2503 43.2624 41.5833 43.4005 41.8348 43.6524L45.8499 47.6653C46.2733 48.0883 46.9592 48.0883 47.3826 47.6651L57.649 37.3987V41.1597L47.5565 51.2522C47.0375 51.7702 46.1939 51.7708 45.6764 51.2533L41.6635 47.2382C41.4602 47.0349 41.1844 46.9206 40.8969 46.9206C40.8967 46.9206 40.8967 46.9206 40.8967 46.9206C40.6092 46.9206 40.3333 47.0349 40.1301 47.2382L33.1135 54.2572H29.3525L39.9582 43.6513ZM18.7351 63.2211H33.6073C34.2059 63.2211 34.6913 62.7357 34.6913 62.1372C34.6913 61.5386 34.2059 61.0532 33.6073 61.0532H15.3166V56.4248H39.6753V93.1285H18.7349V63.2211H18.7351Z" fill="#252647"/>
</svg>
