<svg width="440" height="330" viewBox="0 0 440 330" fill="none" xmlns="http://www.w3.org/2000/svg">
<path d="M80.8689 290.399L64.4487 141.091C64.2312 139.113 64.4061 137.112 64.9632 135.201C65.5206 133.291 66.4493 131.51 67.6964 129.959L130.625 51.6994C132.239 49.6924 134.338 48.1307 136.725 47.1624C139.111 46.1942 141.706 45.8512 144.262 46.1664L322.555 68.1664C325.3 68.5049 327.899 69.589 330.068 71.3008C332.241 73.0127 333.902 75.2872 334.87 77.8766L371.475 175.669C372.344 177.994 372.627 180.497 372.3 182.957L358.066 290.399H80.8689Z" fill="#F4F4F4"/>
<path d="M133.045 173.701C139.879 173.701 145.42 168.16 145.42 161.326C145.42 154.492 139.879 148.951 133.045 148.951C126.21 148.951 120.67 154.492 120.67 161.326C120.67 168.16 126.21 173.701 133.045 173.701Z" fill="white"/>
<path d="M127.427 157.807C127.427 157.403 127.547 157.008 127.771 156.672C127.996 156.336 128.315 156.074 128.688 155.919C129.061 155.765 129.472 155.724 129.869 155.803C130.265 155.882 130.629 156.076 130.915 156.362C131.201 156.648 131.395 157.012 131.474 157.408C131.553 157.805 131.513 158.216 131.358 158.589C131.203 158.962 130.941 159.281 130.605 159.506C130.269 159.73 129.874 159.85 129.47 159.85C128.928 159.85 128.409 159.635 128.025 159.252C127.642 158.869 127.427 158.349 127.427 157.807Z" fill="#F4B01A"/>
<path d="M128.59 165.387L136.139 155.762C136.163 155.732 136.192 155.707 136.225 155.688C136.259 155.669 136.296 155.657 136.334 155.653C136.372 155.648 136.41 155.651 136.447 155.661C136.484 155.672 136.519 155.689 136.549 155.713L137.701 156.607C137.762 156.655 137.801 156.726 137.81 156.803C137.819 156.88 137.798 156.957 137.751 157.019L130.202 166.644C130.154 166.705 130.084 166.744 130.008 166.754C129.931 166.764 129.853 166.743 129.792 166.696L128.643 165.8C128.612 165.776 128.586 165.747 128.567 165.713C128.547 165.68 128.535 165.643 128.53 165.604C128.525 165.566 128.528 165.527 128.538 165.49C128.549 165.452 128.566 165.418 128.59 165.387Z" fill="#F4B01A"/>
<path d="M136.619 166.997C136.215 166.997 135.82 166.877 135.484 166.652C135.148 166.428 134.886 166.108 134.732 165.735C134.577 165.361 134.537 164.95 134.616 164.554C134.695 164.157 134.89 163.793 135.176 163.508C135.462 163.222 135.826 163.028 136.223 162.949C136.619 162.87 137.03 162.911 137.403 163.067C137.777 163.222 138.096 163.484 138.32 163.82C138.544 164.157 138.663 164.552 138.663 164.956C138.662 165.498 138.446 166.016 138.063 166.399C137.68 166.782 137.161 166.997 136.619 166.997Z" fill="#F4B01A"/>
<g opacity="0.4">
<path opacity="0.4" d="M127.427 157.807C127.427 157.403 127.547 157.008 127.771 156.672C127.996 156.336 128.315 156.074 128.688 155.919C129.061 155.765 129.472 155.724 129.869 155.803C130.265 155.882 130.629 156.076 130.915 156.362C131.201 156.648 131.395 157.012 131.474 157.408C131.553 157.805 131.513 158.216 131.358 158.589C131.203 158.962 130.941 159.281 130.605 159.506C130.269 159.73 129.874 159.85 129.47 159.85C128.928 159.85 128.409 159.635 128.025 159.252C127.642 158.869 127.427 158.349 127.427 157.807Z" fill="white"/>
<path opacity="0.4" d="M128.59 165.387L136.139 155.762C136.163 155.732 136.192 155.707 136.225 155.688C136.259 155.669 136.296 155.657 136.334 155.653C136.372 155.648 136.41 155.651 136.447 155.661C136.484 155.672 136.519 155.689 136.549 155.713L137.701 156.607C137.762 156.655 137.801 156.726 137.81 156.803C137.819 156.88 137.798 156.957 137.751 157.019L130.202 166.644C130.154 166.705 130.084 166.744 130.008 166.754C129.931 166.764 129.853 166.743 129.792 166.696L128.643 165.8C128.612 165.776 128.586 165.747 128.567 165.713C128.547 165.68 128.535 165.643 128.53 165.604C128.525 165.566 128.528 165.527 128.538 165.49C128.549 165.452 128.566 165.418 128.59 165.387Z" fill="white"/>
<path opacity="0.4" d="M136.62 166.997C136.216 166.997 135.821 166.877 135.485 166.652C135.149 166.428 134.887 166.108 134.733 165.735C134.578 165.361 134.538 164.95 134.617 164.554C134.696 164.157 134.891 163.793 135.177 163.508C135.463 163.222 135.827 163.028 136.224 162.949C136.62 162.87 137.031 162.911 137.404 163.067C137.778 163.222 138.097 163.484 138.321 163.82C138.545 164.157 138.664 164.552 138.664 164.956C138.663 165.498 138.447 166.016 138.064 166.399C137.681 166.782 137.162 166.997 136.62 166.997Z" fill="white"/>
</g>
<path d="M122.133 123.111C128.968 123.111 134.508 117.571 134.508 110.736C134.508 103.902 128.968 98.3613 122.133 98.3613C115.299 98.3613 109.758 103.902 109.758 110.736C109.758 117.571 115.299 123.111 122.133 123.111Z" fill="white"/>
<path d="M128.777 106.507C128.751 106.473 128.717 106.446 128.679 106.427C128.641 106.409 128.599 106.399 128.557 106.399H117.95L117.659 104.947C117.646 104.884 117.612 104.827 117.561 104.786C117.511 104.745 117.448 104.724 117.384 104.725H115.709C115.636 104.725 115.566 104.754 115.514 104.805C115.463 104.857 115.434 104.927 115.434 105C115.434 105.073 115.463 105.143 115.514 105.194C115.566 105.246 115.636 105.275 115.709 105.275H117.15L118.525 112.081C118.614 112.525 118.855 112.924 119.206 113.211C119.557 113.497 119.997 113.653 120.45 113.651H126.893C126.966 113.651 127.036 113.622 127.087 113.571C127.139 113.519 127.168 113.449 127.168 113.376C127.168 113.303 127.139 113.233 127.087 113.182C127.036 113.13 126.966 113.101 126.893 113.101H120.45C120.227 113.101 120.008 113.048 119.811 112.946C119.613 112.844 119.443 112.697 119.314 112.515L127.49 111.415C127.545 111.409 127.598 111.385 127.639 111.347C127.681 111.31 127.71 111.261 127.724 111.206L128.84 106.738C128.847 106.697 128.846 106.655 128.835 106.615C128.824 106.575 128.804 106.538 128.777 106.507Z" fill="#F4B01A"/>
<path d="M125.991 116.987C126.752 116.864 127.269 116.146 127.146 115.384C127.022 114.623 126.305 114.106 125.543 114.229C124.781 114.353 124.264 115.07 124.388 115.832C124.511 116.594 125.229 117.111 125.991 116.987Z" fill="#F4B01A"/>
<path d="M120.178 117.013C120.95 117.013 121.575 116.387 121.575 115.616C121.575 114.844 120.95 114.219 120.178 114.219C119.407 114.219 118.781 114.844 118.781 115.616C118.781 116.387 119.407 117.013 120.178 117.013Z" fill="#F4B01A"/>
<g opacity="0.4">
<path opacity="0.4" d="M128.777 106.507C128.751 106.473 128.717 106.446 128.679 106.427C128.641 106.409 128.599 106.399 128.557 106.399H117.95L117.659 104.947C117.646 104.884 117.612 104.827 117.561 104.786C117.511 104.745 117.448 104.724 117.384 104.725H115.709C115.636 104.725 115.566 104.754 115.514 104.805C115.463 104.857 115.434 104.927 115.434 105C115.434 105.073 115.463 105.143 115.514 105.194C115.566 105.246 115.636 105.275 115.709 105.275H117.15L118.525 112.081C118.614 112.525 118.855 112.924 119.206 113.211C119.557 113.497 119.997 113.653 120.45 113.651H126.893C126.966 113.651 127.036 113.622 127.087 113.571C127.139 113.519 127.168 113.449 127.168 113.376C127.168 113.303 127.139 113.233 127.087 113.182C127.036 113.13 126.966 113.101 126.893 113.101H120.45C120.227 113.101 120.008 113.048 119.811 112.946C119.613 112.844 119.443 112.697 119.314 112.515L127.49 111.415C127.545 111.409 127.598 111.385 127.639 111.347C127.681 111.31 127.71 111.261 127.724 111.206L128.84 106.738C128.847 106.697 128.846 106.655 128.835 106.615C128.824 106.575 128.804 106.538 128.777 106.507Z" fill="white"/>
<path opacity="0.4" d="M125.991 116.987C126.752 116.864 127.269 116.146 127.146 115.384C127.022 114.623 126.305 114.106 125.543 114.229C124.781 114.353 124.264 115.07 124.388 115.832C124.511 116.594 125.229 117.111 125.991 116.987Z" fill="white"/>
<path opacity="0.4" d="M120.177 117.011C120.949 117.011 121.574 116.385 121.574 115.614C121.574 114.842 120.949 114.217 120.177 114.217C119.406 114.217 118.78 114.842 118.78 115.614C118.78 116.385 119.406 117.011 120.177 117.011Z" fill="white"/>
</g>
<path d="M363.751 290.951H74.861C74.8043 290.951 74.7496 290.929 74.7094 290.887C74.6693 290.846 74.6465 290.794 74.6465 290.736C74.6465 290.678 74.6693 290.623 74.7094 290.585C74.7496 290.544 74.8043 290.521 74.861 290.521H363.751C363.809 290.521 363.864 290.544 363.902 290.585C363.944 290.623 363.966 290.678 363.966 290.736C363.966 290.794 363.944 290.846 363.902 290.887C363.864 290.929 363.809 290.951 363.751 290.951Z" fill="#B2B6BB"/>
<path d="M189.39 85.4492C196.224 85.4492 201.765 79.9088 201.765 73.0742C201.765 66.2396 196.224 60.6992 189.39 60.6992C182.555 60.6992 177.015 66.2396 177.015 73.0742C177.015 79.9088 182.555 85.4492 189.39 85.4492Z" fill="white"/>
<path d="M185.88 71.2255H187.079L189.453 67.6752L189.648 65.6897C189.654 65.6182 189.678 65.5495 189.716 65.4887C189.755 65.4282 189.807 65.3779 189.869 65.3416C189.931 65.3053 190 65.2841 190.072 65.28C190.143 65.2761 190.215 65.2893 190.28 65.3185C190.8 65.5632 191.328 66.2535 191.331 68.206C191.331 70.406 191.35 70.5407 191.35 70.5407L195.043 70.571C195.26 70.5765 195.467 70.665 195.621 70.8187C195.774 70.9722 195.863 71.1787 195.868 71.396C195.896 72.7875 195.954 75.6172 195.984 77.171C196.01 77.6822 195.864 78.1874 195.57 78.6062C195.275 79.0247 194.849 79.3327 194.359 79.481C194.22 79.5175 194.078 79.5371 193.935 79.5387C192.953 79.5387 187.94 78.7412 187.94 78.7412H185.867L185.88 71.2255Z" fill="#F4B01A"/>
<path d="M182.424 71.2227L183.189 78.8759H185.24V71.2227H182.424Z" fill="#F4B01A"/>
<g opacity="0.4">
<path opacity="0.4" d="M185.881 71.2255H187.08L189.454 67.6752L189.649 65.6897C189.655 65.6182 189.679 65.5495 189.717 65.4887C189.756 65.4282 189.808 65.3779 189.87 65.3416C189.932 65.3053 190.001 65.2841 190.073 65.28C190.144 65.2761 190.216 65.2893 190.281 65.3185C190.801 65.5632 191.329 66.2535 191.332 68.206C191.332 70.406 191.351 70.5407 191.351 70.5407L195.044 70.571C195.261 70.5765 195.468 70.665 195.622 70.8187C195.775 70.9722 195.864 71.1787 195.869 71.396C195.897 72.7875 195.955 75.6172 195.985 77.171C196.011 77.6822 195.865 78.1874 195.57 78.6062C195.276 79.0247 194.85 79.3327 194.36 79.481C194.221 79.5175 194.079 79.5371 193.936 79.5387C192.954 79.5387 187.941 78.7412 187.941 78.7412H185.868L185.881 71.2255Z" fill="white"/>
<path opacity="0.4" d="M182.424 71.2227L183.189 78.8759H185.24V71.2227H182.424Z" fill="white"/>
</g>
<path d="M228.003 89.5664H245.688C247.071 89.5664 248.44 89.8389 249.718 90.3683C250.995 90.8977 252.156 91.6737 253.133 92.6516C254.111 93.6298 254.886 94.7909 255.415 96.0688C255.944 97.3467 256.216 98.7162 256.215 100.099V280.001C256.215 282.793 255.106 285.471 253.132 287.446C251.157 289.42 248.48 290.528 245.688 290.528H228.003C227.493 290.528 226.989 290.429 226.518 290.234C226.048 290.039 225.62 289.753 225.26 289.393C224.9 289.032 224.614 288.606 224.42 288.136C224.225 287.666 224.125 287.16 224.125 286.651V93.4439C224.125 92.9346 224.225 92.4303 224.42 91.9597C224.614 91.4892 224.9 91.0616 225.26 90.7013C225.62 90.3414 226.048 90.0556 226.518 89.8609C226.989 89.6662 227.493 89.5661 228.003 89.5664Z" fill="#21252B"/>
<path d="M238.906 89.5664H154.49C148.235 89.5664 143.165 94.6366 143.165 100.891V279.201C143.165 285.455 148.235 290.526 154.49 290.526H238.906C245.161 290.526 250.231 285.455 250.231 279.201V100.891C250.231 94.6366 245.161 89.5664 238.906 89.5664Z" fill="#61656D"/>
<path d="M238.768 94.1875H216.917C216.195 94.1872 215.497 94.4383 214.94 94.8976C214.384 95.3568 214.006 95.9956 213.87 96.7038C213.735 97.4124 213.357 98.0521 212.802 98.5119C212.246 98.972 211.547 99.2233 210.825 99.2228H182.572C181.85 99.2228 181.151 98.9714 180.595 98.5116C180.039 98.0518 179.66 97.4124 179.525 96.7038C179.389 95.9956 179.011 95.3571 178.455 94.8978C177.9 94.4386 177.201 94.1875 176.481 94.1875H154.626C153.706 94.1875 152.794 94.369 151.943 94.7213C151.093 95.0738 150.32 95.5906 149.67 96.2418C149.019 96.893 148.503 97.666 148.151 98.5168C147.799 99.3677 147.619 100.279 147.619 101.2V278.872C147.619 279.793 147.801 280.703 148.153 281.553C148.505 282.403 149.021 283.176 149.672 283.827C150.322 284.476 151.095 284.993 151.945 285.345C152.795 285.697 153.706 285.879 154.626 285.879H238.776C239.697 285.879 240.608 285.697 241.459 285.345C242.309 284.993 243.082 284.479 243.733 283.827C244.384 283.176 244.9 282.406 245.252 281.553C245.605 280.703 245.786 279.793 245.786 278.872V101.2C245.787 100.278 245.606 99.3658 245.253 98.5144C244.901 97.663 244.384 96.8894 243.732 96.2379C243.08 95.5864 242.306 95.07 241.454 94.7183C240.602 94.3665 239.69 94.1861 238.768 94.1875Z" fill="#F4B01A"/>
<path opacity="0.7" d="M238.768 94.1875H216.917C216.195 94.1872 215.497 94.4383 214.94 94.8976C214.384 95.3568 214.006 95.9956 213.87 96.7038C213.735 97.4124 213.357 98.0521 212.802 98.5119C212.246 98.972 211.547 99.2233 210.825 99.2228H182.572C181.85 99.2228 181.151 98.9714 180.595 98.5116C180.039 98.0518 179.66 97.4124 179.525 96.7038C179.389 95.9956 179.011 95.3571 178.455 94.8978C177.9 94.4386 177.201 94.1875 176.481 94.1875H154.626C153.706 94.1875 152.794 94.369 151.943 94.7213C151.093 95.0738 150.32 95.5906 149.67 96.2418C149.019 96.893 148.503 97.666 148.151 98.5168C147.799 99.3677 147.619 100.279 147.619 101.2V278.872C147.619 279.793 147.801 280.703 148.153 281.553C148.505 282.403 149.021 283.176 149.672 283.827C150.322 284.476 151.095 284.993 151.945 285.345C152.795 285.697 153.706 285.879 154.626 285.879H238.776C239.697 285.879 240.608 285.697 241.459 285.345C242.309 284.993 243.082 284.479 243.733 283.827C244.384 283.176 244.9 282.406 245.252 281.553C245.605 280.703 245.786 279.793 245.786 278.872V101.2C245.787 100.278 245.606 99.3658 245.253 98.5144C244.901 97.663 244.384 96.8894 243.732 96.2379C243.08 95.5864 242.306 95.07 241.454 94.7183C240.602 94.3665 239.69 94.1861 238.768 94.1875Z" fill="white"/>
<path opacity="0.5" d="M207.972 94.1875H185.425C184.985 94.1875 184.627 94.5439 184.627 94.9836C184.627 95.4233 184.985 95.7797 185.425 95.7797H207.972C208.413 95.7797 208.77 95.4233 208.77 94.9836C208.77 94.5439 208.413 94.1875 207.972 94.1875Z" fill="black"/>
<path d="M238.777 94.1875L229.493 117.318H211.594L220.825 94.1875H238.777Z" fill="#F4B01A"/>
<path d="M220.88 94.1875L211.593 117.318H193.696L202.928 94.1875H220.88Z" fill="#3F4249"/>
<path d="M202.98 94.1875L193.696 117.318H175.797L185.028 94.1875H202.98Z" fill="#F4B01A"/>
<path d="M185.083 94.1875L175.797 117.318H157.897L167.129 94.1875H185.083Z" fill="#3F4249"/>
<path d="M167.183 94.1875L157.899 117.318H139.944L147.204 99.2365C147.803 97.7457 148.834 96.4684 150.164 95.5686C151.495 94.6688 153.064 94.1878 154.671 94.1875H167.183Z" fill="#F4B01A"/>
<path d="M238.777 94.1875L229.493 117.318H211.594L220.825 94.1875H238.777Z" fill="#F4B01A"/>
<path d="M202.98 94.1875L193.696 117.318H175.797L185.028 94.1875H202.98Z" fill="#F4B01A"/>
<path d="M167.183 94.1875L157.899 117.318H139.944L147.204 99.2365C147.803 97.7457 148.834 96.4684 150.164 95.5686C151.495 94.6688 153.064 94.1878 154.671 94.1875H167.183Z" fill="#F4B01A"/>
<path d="M229.493 117.318H245.779V101.2C245.779 99.3437 245.041 97.5636 243.729 96.251C242.417 94.9384 240.636 94.2012 238.78 94.2012L229.493 117.318Z" fill="#21252B"/>
<path d="M139.944 117.318H157.899V119.656C157.899 120.835 157.667 122.002 157.216 123.091C156.764 124.181 156.103 125.17 155.269 126.004C154.435 126.837 153.446 127.499 152.356 127.95C151.267 128.4 150.099 128.632 148.92 128.632C146.54 128.632 144.257 127.686 142.573 126.003C140.89 124.32 139.944 122.037 139.944 119.656V117.318Z" fill="#F4B01A"/>
<path d="M157.85 117.318H175.802V119.656C175.802 122.037 174.856 124.32 173.173 126.003C171.49 127.686 169.207 128.632 166.826 128.632C164.445 128.632 162.162 127.686 160.479 126.003C158.796 124.32 157.85 122.037 157.85 119.656V117.318Z" fill="#21252B"/>
<path d="M175.742 117.318H193.696V119.656C193.696 120.835 193.464 122.002 193.013 123.091C192.561 124.181 191.9 125.17 191.066 126.004C190.232 126.837 189.243 127.499 188.153 127.95C187.064 128.4 185.896 128.632 184.718 128.632C182.337 128.632 180.054 127.686 178.371 126.003C176.687 124.32 175.742 122.037 175.742 119.656V117.318Z" fill="#F4B01A"/>
<path d="M193.641 117.318H211.593V119.656C211.593 122.037 210.648 124.32 208.964 126.003C207.281 127.686 204.998 128.632 202.617 128.632C200.237 128.632 197.954 127.686 196.27 126.003C194.587 124.32 193.641 122.037 193.641 119.656V117.318Z" fill="#21252B"/>
<path d="M211.538 117.318H229.493V119.656C229.493 122.037 228.547 124.32 226.864 126.003C225.18 127.686 222.897 128.632 220.517 128.632C219.338 128.632 218.17 128.4 217.081 127.95C215.991 127.499 215.002 126.837 214.168 126.004C213.334 125.17 212.673 124.181 212.221 123.091C211.77 122.002 211.538 120.835 211.538 119.656V117.318Z" fill="#F4B01A"/>
<path opacity="0.3" d="M139.944 117.318H157.899V119.656C157.899 120.835 157.667 122.002 157.216 123.091C156.764 124.181 156.103 125.17 155.269 126.004C154.435 126.837 153.446 127.499 152.356 127.95C151.267 128.4 150.099 128.632 148.92 128.632C146.54 128.632 144.257 127.686 142.573 126.003C140.89 124.32 139.944 122.037 139.944 119.656V117.318Z" fill="black"/>
<path opacity="0.3" d="M175.742 117.318H193.696V119.656C193.696 120.835 193.464 122.002 193.013 123.091C192.561 124.181 191.9 125.17 191.066 126.004C190.232 126.837 189.243 127.499 188.153 127.95C187.064 128.4 185.896 128.632 184.718 128.632C182.337 128.632 180.054 127.686 178.371 126.003C176.687 124.32 175.742 122.037 175.742 119.656V117.318Z" fill="black"/>
<path opacity="0.3" d="M211.538 117.318H229.493V119.656C229.493 122.037 228.547 124.32 226.864 126.003C225.18 127.686 222.897 128.632 220.517 128.632C219.338 128.632 218.17 128.4 217.081 127.95C215.991 127.499 215.002 126.837 214.168 126.004C213.334 125.17 212.673 124.181 212.221 123.091C211.77 122.002 211.538 120.835 211.538 119.656V117.318Z" fill="black"/>
<path d="M219.976 141.826H175.734C172.165 141.826 169.271 144.72 169.271 148.289V192.531C169.271 196.1 172.165 198.993 175.734 198.993H219.976C223.545 198.993 226.438 196.1 226.438 192.531V148.289C226.438 144.72 223.545 141.826 219.976 141.826Z" fill="#F4B01A"/>
<g opacity="0.5">
<path opacity="0.5" d="M219.976 141.826H175.734C172.165 141.826 169.271 144.72 169.271 148.289V192.531C169.271 196.1 172.165 198.993 175.734 198.993H219.976C223.545 198.993 226.438 196.1 226.438 192.531V148.289C226.438 144.72 223.545 141.826 219.976 141.826Z" fill="white"/>
</g>
<path d="M217.663 141.826H173.421C169.851 141.826 166.958 144.72 166.958 148.289V192.531C166.958 196.1 169.851 198.993 173.421 198.993H217.663C221.232 198.993 224.125 196.1 224.125 192.531V148.289C224.125 144.72 221.232 141.826 217.663 141.826Z" fill="white"/>
<path d="M232.014 223.844H161.386C160.301 223.844 159.423 224.723 159.423 225.807C159.423 226.892 160.301 227.771 161.386 227.771H232.014C233.099 227.771 233.978 226.892 233.978 225.807C233.978 224.723 233.099 223.844 232.014 223.844Z" fill="white"/>
<path d="M232.014 212.188H161.386C160.301 212.188 159.423 213.066 159.423 214.151C159.423 215.235 160.301 216.114 161.386 216.114H232.014C233.099 216.114 233.978 215.235 233.978 214.151C233.978 213.066 233.099 212.188 232.014 212.188Z" fill="white"/>
<path d="M219.368 235.502H174.028C172.944 235.502 172.065 236.381 172.065 237.465C172.065 238.55 172.944 239.429 174.028 239.429H219.368C220.452 239.429 221.331 238.55 221.331 237.465C221.331 236.381 220.452 235.502 219.368 235.502Z" fill="white"/>
<path d="M321.857 197.979H290.216V215.249H321.857V197.979Z" fill="#B2B6BB"/>
<path d="M321.857 197.979H315.12V215.249H321.857V197.979Z" fill="#61656D"/>
<path d="M329.494 202.972L326.015 185.854" stroke="#868A91" stroke-width="0.37" stroke-miterlimit="10"/>
<path d="M330.464 180.076L329.972 202.337" stroke="#868A91" stroke-width="0.37" stroke-miterlimit="10"/>
<path d="M335.531 184.209L330.218 190.869" stroke="#868A91" stroke-width="0.37" stroke-miterlimit="10"/>
<path d="M332.137 207.243L331.612 206.448C331.087 205.651 330.803 204.716 330.803 203.761V201.869H328.763V203.775C328.763 204.73 328.482 205.664 327.957 206.462L327.429 207.256C326.885 208.081 326.519 209.011 326.354 209.985C326.189 210.96 326.227 211.958 326.469 212.916L327.063 215.262H332.506L333.1 212.916C333.344 211.956 333.386 210.955 333.218 209.977C333.053 209 332.684 208.069 332.137 207.243Z" fill="#868A91"/>
<path d="M332.137 207.243L331.611 206.448C331.086 205.65 330.806 204.716 330.806 203.761V201.869H330.217V203.775C330.231 204.705 330.462 205.62 330.891 206.445L331.493 207.589C332.989 210.958 330.168 215.262 330.168 215.262H332.505L333.099 212.916C333.344 211.956 333.385 210.955 333.217 209.977C333.052 209 332.684 208.069 332.137 207.243Z" fill="#61656D"/>
<path d="M328.135 196.282L334.452 191.049" stroke="#868A91" stroke-width="0.37" stroke-miterlimit="10"/>
<path d="M323.383 195.113L328.969 200.382" stroke="#868A91" stroke-width="0.37" stroke-miterlimit="10"/>
<path d="M332.373 188.179L333.247 184.329C333.319 184.015 333.467 183.724 333.682 183.483C333.896 183.243 334.168 183.061 334.474 182.954C334.776 182.848 335.103 182.821 335.42 182.875C335.739 182.929 336.038 183.063 336.289 183.265C336.542 183.465 336.737 183.727 336.861 184.025C336.984 184.322 337.028 184.647 336.993 184.967C336.957 185.287 336.839 185.592 336.652 185.854C336.465 186.117 336.214 186.327 335.923 186.466L332.373 188.179Z" fill="#F4B01A"/>
<path opacity="0.3" d="M332.373 188.179L333.247 184.329C333.319 184.015 333.467 183.724 333.682 183.483C333.896 183.243 334.168 183.061 334.474 182.954C334.776 182.848 335.103 182.821 335.42 182.875C335.739 182.929 336.038 183.063 336.289 183.265C336.542 183.465 336.737 183.727 336.861 184.025C336.984 184.322 337.028 184.647 336.993 184.967C336.957 185.287 336.839 185.592 336.652 185.854C336.465 186.117 336.214 186.327 335.923 186.466L332.373 188.179Z" fill="white"/>
<path d="M337.004 184.8C337.001 185.155 336.896 185.502 336.707 185.801C336.517 186.1 336.245 186.339 335.926 186.492L332.373 188.194L336.289 183.285C336.517 183.466 336.698 183.697 336.822 183.959C336.946 184.222 337.009 184.51 337.004 184.8Z" fill="#F4B01A"/>
<path d="M330.358 186.469L327.847 181.274C327.641 180.849 327.547 180.38 327.575 179.909C327.6 179.438 327.745 178.982 327.996 178.582C328.246 178.182 328.592 177.853 329.005 177.624C329.417 177.396 329.882 177.276 330.352 177.275C330.825 177.275 331.287 177.394 331.7 177.622C332.112 177.85 332.462 178.18 332.712 178.579C332.965 178.978 333.108 179.435 333.135 179.905C333.163 180.376 333.069 180.846 332.863 181.271L330.358 186.469Z" fill="#F4B01A"/>
<path opacity="0.3" d="M330.358 186.469L327.847 181.274C327.641 180.849 327.547 180.38 327.575 179.909C327.6 179.438 327.745 178.982 327.996 178.582C328.246 178.182 328.592 177.853 329.005 177.624C329.417 177.396 329.882 177.276 330.352 177.275C330.825 177.275 331.287 177.394 331.7 177.622C332.112 177.85 332.462 178.18 332.712 178.579C332.965 178.978 333.108 179.435 333.135 179.905C333.163 180.376 333.069 180.846 332.863 181.271L330.358 186.469Z" fill="white"/>
<path opacity="0.3" d="M330.476 177.285L330.357 186.47L332.863 181.273C333.063 180.858 333.157 180.4 333.135 179.939C333.113 179.479 332.978 179.031 332.742 178.636C332.505 178.241 332.175 177.911 331.779 177.675C331.383 177.439 330.935 177.305 330.476 177.285Z" fill="white"/>
<path d="M327.575 193.401L323.912 189.048C323.612 188.691 323.408 188.265 323.32 187.808C323.23 187.352 323.257 186.88 323.4 186.437C323.543 185.994 323.796 185.595 324.134 185.276C324.473 184.957 324.888 184.73 325.339 184.615C325.79 184.501 326.26 184.503 326.711 184.622C327.159 184.74 327.572 184.97 327.907 185.29C328.246 185.611 328.496 186.011 328.633 186.454C328.774 186.897 328.798 187.369 328.708 187.824L327.575 193.401Z" fill="#F4B01A"/>
<path opacity="0.3" d="M328.707 187.825C328.8 187.369 328.776 186.898 328.635 186.454C328.495 186.011 328.245 185.61 327.909 185.289C327.574 184.968 327.161 184.738 326.71 184.62C326.262 184.501 325.789 184.499 325.338 184.613L327.579 193.372L328.707 187.825Z" fill="white"/>
<path d="M327.052 198.58L325.402 194.416C325.265 194.076 325.045 193.776 324.762 193.544C324.478 193.312 324.14 193.156 323.78 193.09C323.42 193.024 323.048 193.051 322.702 193.167C322.355 193.284 322.042 193.486 321.794 193.756C321.547 194.027 321.374 194.356 321.288 194.712C321.203 195.068 321.209 195.441 321.305 195.794C321.404 196.148 321.588 196.47 321.844 196.732C322.102 196.994 322.419 197.187 322.771 197.293L327.052 198.58Z" fill="#F4B01A"/>
<path opacity="0.3" d="M327.052 198.58L325.402 194.416C325.265 194.076 325.045 193.776 324.762 193.544C324.478 193.312 324.14 193.156 323.78 193.09C323.42 193.024 323.048 193.051 322.702 193.167C322.355 193.284 322.042 193.486 321.794 193.756C321.547 194.027 321.374 194.356 321.288 194.712C321.203 195.068 321.209 195.441 321.305 195.794C321.404 196.148 321.588 196.47 321.844 196.732C322.102 196.994 322.419 197.187 322.771 197.293L327.052 198.58Z" fill="white"/>
<path opacity="0.3" d="M321.86 193.683L327.049 198.578L325.399 194.414C325.267 194.082 325.053 193.787 324.781 193.557C324.506 193.327 324.178 193.168 323.826 193.096C323.477 193.023 323.111 193.039 322.77 193.141C322.427 193.244 322.113 193.43 321.86 193.683Z" fill="white"/>
<path d="M329.829 194.939L331.641 190.539C331.79 190.18 332.026 189.865 332.329 189.622C332.634 189.38 332.994 189.219 333.377 189.154C333.759 189.088 334.152 189.122 334.518 189.25C334.886 189.378 335.214 189.597 335.472 189.887C335.731 190.177 335.912 190.527 335.997 190.906C336.083 191.284 336.072 191.678 335.964 192.051C335.857 192.424 335.656 192.764 335.381 193.038C335.106 193.312 334.768 193.512 334.394 193.619L329.829 194.939Z" fill="#F4B01A"/>
<path opacity="0.3" d="M329.829 194.939L331.641 190.539C331.79 190.18 332.026 189.865 332.329 189.622C332.634 189.38 332.994 189.219 333.377 189.154C333.759 189.088 334.152 189.122 334.518 189.25C334.886 189.378 335.214 189.597 335.472 189.887C335.731 190.177 335.912 190.527 335.997 190.906C336.083 191.284 336.072 191.678 335.964 192.051C335.857 192.424 335.656 192.764 335.381 193.038C335.106 193.312 334.768 193.512 334.394 193.619L329.829 194.939Z" fill="white"/>
<path d="M330.006 200.268L338.641 195.541" stroke="#868A91" stroke-width="0.37" stroke-miterlimit="10"/>
<path d="M331.419 199.494L334.546 195.212C334.801 194.861 335.142 194.581 335.536 194.399C335.929 194.216 336.363 194.136 336.795 194.166C337.23 194.197 337.648 194.337 338.011 194.573C338.374 194.809 338.673 195.134 338.877 195.517C339.08 195.9 339.185 196.328 339.177 196.761C339.171 197.195 339.053 197.62 338.838 197.996C338.621 198.372 338.313 198.687 337.945 198.912C337.573 199.137 337.153 199.264 336.718 199.282L331.419 199.494Z" fill="#F4B01A"/>
<path opacity="0.3" d="M331.419 199.494L334.546 195.212C334.801 194.861 335.142 194.581 335.536 194.399C335.929 194.216 336.363 194.136 336.795 194.166C337.23 194.197 337.648 194.337 338.011 194.573C338.374 194.809 338.673 195.134 338.877 195.517C339.08 195.9 339.185 196.328 339.177 196.761C339.171 197.195 339.053 197.62 338.838 197.996C338.621 198.372 338.313 198.687 337.945 198.912C337.573 199.137 337.153 199.264 336.718 199.282L331.419 199.494Z" fill="white"/>
<path d="M338.954 197.769C338.762 198.206 338.448 198.579 338.052 198.846C337.659 199.114 337.194 199.265 336.719 199.282L331.417 199.494L338.874 195.525C339.059 195.868 339.163 196.249 339.177 196.638C339.191 197.027 339.114 197.414 338.954 197.769Z" fill="#F4B01A"/>
<path opacity="0.3" d="M331.65 190.55L329.838 194.951L335.476 189.904C335.217 189.616 334.89 189.397 334.524 189.269C334.158 189.141 333.768 189.108 333.386 189.173C333.003 189.237 332.643 189.397 332.341 189.638C332.038 189.879 331.799 190.193 331.65 190.55Z" fill="white"/>
<path d="M335.09 217.109H353.54C353.785 217.109 354.018 217.012 354.192 216.839C354.365 216.667 354.464 216.432 354.464 216.188C354.464 216.066 354.439 215.946 354.392 215.834C354.348 215.722 354.28 215.62 354.194 215.534C354.106 215.448 354.005 215.381 353.895 215.334C353.782 215.288 353.661 215.264 353.54 215.264H335.09V217.109Z" fill="#B2B6BB"/>
<path d="M351.147 216.193H332.53V273.542H351.147V216.193Z" fill="#B2B6BB"/>
<path d="M333.1 216.193H270.653V273.542H333.1V216.193Z" fill="#DADDDF"/>
<path d="M330.215 269.167H273.317V224.18L330.215 224.232V269.167ZM273.732 268.754H329.802V224.65H273.732V268.754Z" fill="#B2B6BB"/>
<path d="M335.11 215.264H268.541C268.032 215.264 267.619 215.676 267.619 216.185V216.188C267.619 216.696 268.032 217.109 268.541 217.109H335.11C335.619 217.109 336.031 216.696 336.031 216.188V216.185C336.031 215.676 335.619 215.264 335.11 215.264Z" fill="#DADDDF"/>
<path d="M273.319 246.808H330.214V246.393H273.319V246.808Z" fill="#B2B6BB"/>
<path d="M299.555 231.407C300.344 231.407 300.982 230.768 300.982 229.98C300.982 229.192 300.344 228.553 299.555 228.553C298.766 228.553 298.128 229.192 298.128 229.98C298.128 230.768 298.766 231.407 299.555 231.407Z" fill="#B2B6BB"/>
<path opacity="0.15" d="M300.071 229.981C300.071 229.682 299.978 229.392 299.802 229.149C299.629 228.907 299.384 228.726 299.101 228.63C299.246 228.582 299.4 228.557 299.554 228.556C299.747 228.548 299.939 228.578 300.118 228.646C300.3 228.714 300.465 228.818 300.605 228.951C300.742 229.084 300.855 229.244 300.929 229.421C301.006 229.599 301.045 229.789 301.045 229.982C301.045 230.175 301.006 230.366 300.929 230.543C300.855 230.72 300.742 230.88 300.605 231.013C300.465 231.147 300.3 231.25 300.118 231.318C299.939 231.386 299.747 231.416 299.554 231.408C299.4 231.407 299.246 231.382 299.101 231.334C299.384 231.238 299.629 231.056 299.802 230.813C299.978 230.57 300.071 230.279 300.071 229.981Z" fill="black"/>
<path d="M299.555 253.538C300.344 253.538 300.982 252.899 300.982 252.111C300.982 251.323 300.344 250.684 299.555 250.684C298.766 250.684 298.128 251.323 298.128 252.111C298.128 252.899 298.766 253.538 299.555 253.538Z" fill="#B2B6BB"/>
<path opacity="0.15" d="M300.071 252.112C300.071 251.814 299.978 251.523 299.802 251.28C299.629 251.037 299.384 250.855 299.101 250.759C299.246 250.711 299.4 250.686 299.554 250.685C299.747 250.676 299.939 250.707 300.118 250.775C300.3 250.843 300.465 250.947 300.605 251.08C300.742 251.213 300.855 251.373 300.929 251.55C301.006 251.728 301.045 251.918 301.045 252.111C301.045 252.304 301.006 252.494 300.929 252.672C300.855 252.849 300.742 253.009 300.605 253.142C300.465 253.275 300.3 253.379 300.118 253.447C299.939 253.515 299.747 253.545 299.554 253.537C299.4 253.536 299.246 253.511 299.101 253.462C299.384 253.367 299.629 253.186 299.802 252.943C299.978 252.701 300.071 252.411 300.071 252.112Z" fill="black"/>
<path d="M336.031 219.034L333.1 217.109H270.653V217.989L336.031 219.034Z" fill="#B2B6BB"/>
<path d="M347.487 273.543L348.925 289.411C348.953 289.546 348.95 289.686 348.917 289.821C348.887 289.955 348.824 290.082 348.736 290.189C348.648 290.296 348.538 290.382 348.414 290.442C348.287 290.503 348.15 290.533 348.012 290.533C347.817 290.533 347.63 290.472 347.471 290.359C347.314 290.247 347.196 290.087 347.132 289.903L342.972 273.543H347.487Z" fill="#DADDDF"/>
<path d="M346.954 282.765L345.21 282.345L342.972 273.545H347.487L348.925 289.412C348.969 289.624 348.939 289.844 348.837 290.034C348.738 290.223 348.573 290.375 348.375 290.457L346.954 282.765Z" fill="#B2B6BB"/>
<path d="M331.281 273.543L332.72 289.411C332.747 289.546 332.747 289.686 332.714 289.821C332.681 289.955 332.621 290.082 332.533 290.189C332.445 290.296 332.335 290.382 332.211 290.442C332.084 290.503 331.947 290.533 331.809 290.533C331.614 290.533 331.427 290.472 331.268 290.359C331.111 290.247 330.993 290.087 330.929 289.903L326.766 273.543H331.281Z" fill="#DADDDF"/>
<path d="M329.774 275.298L327.2 274.811L326.766 273.543H331.281L332.72 289.411C332.764 289.623 332.731 289.84 332.632 290.032C332.53 290.222 332.368 290.37 332.17 290.456L329.774 275.298Z" fill="#B2B6BB"/>
<path d="M290.083 273.543L288.645 289.411C288.618 289.546 288.62 289.686 288.653 289.821C288.686 289.955 288.75 290.079 288.835 290.189C288.923 290.296 289.033 290.382 289.159 290.442C289.283 290.5 289.421 290.533 289.558 290.533C289.753 290.533 289.94 290.472 290.1 290.359C290.257 290.247 290.375 290.087 290.438 289.903L294.602 273.543H290.083Z" fill="#DADDDF"/>
<path d="M290.884 281.989L289.352 281.612L290.084 273.543H294.602L290.438 289.903C290.375 290.087 290.257 290.247 290.1 290.359C289.941 290.472 289.754 290.533 289.558 290.533H289.517L290.884 281.989Z" fill="#B2B6BB"/>
<path d="M273.449 273.543L272.013 289.411C271.984 289.546 271.986 289.686 272.019 289.821C272.051 289.955 272.113 290.082 272.201 290.189C272.288 290.296 272.398 290.382 272.523 290.442C272.648 290.503 272.785 290.533 272.923 290.533C273.117 290.533 273.307 290.472 273.464 290.359C273.622 290.247 273.741 290.087 273.803 289.903L277.967 273.543H273.449Z" fill="#DADDDF"/>
<path d="M275.212 274.926L273.24 274.558L273.449 273.543H277.967L273.804 289.903C273.741 290.087 273.622 290.247 273.465 290.359C273.307 290.472 273.118 290.533 272.924 290.533H272.882L275.212 274.926Z" fill="#B2B6BB"/>
<path d="M229.493 117.318V120.489C229.493 122.649 230.351 124.72 231.878 126.247C233.405 127.774 235.476 128.632 237.636 128.632C239.796 128.632 241.867 127.774 243.394 126.247C244.921 124.72 245.779 122.649 245.779 120.489V117.318H229.493Z" fill="#21252B"/>
<path opacity="0.2" d="M229.493 117.318V120.489C229.493 122.649 230.351 124.72 231.878 126.247C233.405 127.774 235.476 128.632 237.636 128.632C239.796 128.632 241.867 127.774 243.394 126.247C244.921 124.72 245.779 122.649 245.779 120.489V117.318H229.493Z" fill="black"/>
<path d="M191.669 263.537H157.685C156.834 263.537 156.145 264.227 156.145 265.077V272.961C156.145 273.812 156.834 274.501 157.685 274.501H191.669C192.52 274.501 193.209 273.812 193.209 272.961V265.077C193.209 264.227 192.52 263.537 191.669 263.537Z" fill="#21252B"/>
<path d="M189.887 263.537H155.903C155.052 263.537 154.363 264.227 154.363 265.077V272.961C154.363 273.812 155.052 274.501 155.903 274.501H189.887C190.738 274.501 191.427 273.812 191.427 272.961V265.077C191.427 264.227 190.738 263.537 189.887 263.537Z" fill="#3F4249"/>
<path d="M161.535 269.947H160.325L160.097 270.497H159.5L160.649 267.918H161.238L162.393 270.497H161.766L161.535 269.947ZM161.348 269.494L160.938 268.506L160.528 269.499L161.348 269.494Z" fill="white"/>
<path d="M162.657 267.922H163.831C164.087 267.917 164.34 267.972 164.571 268.082C164.778 268.182 164.952 268.338 165.074 268.533C165.191 268.739 165.253 268.973 165.253 269.211C165.253 269.448 165.191 269.682 165.074 269.888C164.953 270.084 164.778 270.24 164.571 270.339C164.34 270.45 164.087 270.506 163.831 270.502H162.657V267.922ZM163.801 270.009C164.026 270.021 164.247 269.944 164.417 269.795C164.565 269.637 164.648 269.428 164.648 269.211C164.648 268.994 164.565 268.785 164.417 268.626C164.247 268.477 164.026 268.4 163.801 268.412H163.251V270.009H163.801Z" fill="white"/>
<path d="M165.701 267.922H166.872C167.129 267.917 167.383 267.971 167.615 268.082C167.821 268.182 167.995 268.338 168.115 268.533C168.233 268.74 168.294 268.973 168.294 269.211C168.294 269.448 168.233 269.682 168.115 269.888C167.996 270.084 167.822 270.24 167.615 270.339C167.383 270.451 167.129 270.506 166.872 270.502H165.701V267.922ZM166.842 270.009C167.069 270.021 167.29 269.944 167.461 269.795C167.609 269.637 167.692 269.428 167.692 269.211C167.692 268.994 167.609 268.785 167.461 268.626C167.29 268.477 167.069 268.4 166.842 268.412H166.292V270.009H166.842Z" fill="white"/>
<path d="M170.322 268.401H169.497V267.914H171.743V268.401H170.918V270.494H170.322V268.401Z" fill="white"/>
<path d="M172.551 270.371C172.342 270.261 172.168 270.096 172.048 269.893C171.931 269.69 171.871 269.459 171.875 269.225C171.871 268.984 171.934 268.747 172.056 268.54C172.177 268.338 172.351 268.173 172.559 268.064C172.783 267.947 173.033 267.887 173.285 267.891C173.536 267.887 173.784 267.946 174.006 268.064C174.215 268.174 174.389 268.338 174.512 268.54C174.634 268.747 174.698 268.984 174.696 269.225C174.699 269.463 174.636 269.697 174.514 269.902C174.392 270.107 174.216 270.274 174.006 270.385C173.784 270.503 173.536 270.562 173.285 270.558C173.028 270.559 172.776 270.495 172.551 270.371ZM173.69 269.931C173.805 269.859 173.9 269.758 173.965 269.637C174.035 269.511 174.072 269.369 174.075 269.225C174.077 269.075 174.04 268.928 173.97 268.796C173.905 268.676 173.811 268.575 173.695 268.504C173.569 268.433 173.427 268.397 173.283 268.4C173.138 268.396 172.995 268.432 172.87 268.504C172.748 268.573 172.647 268.673 172.579 268.796C172.508 268.928 172.472 269.075 172.474 269.225C172.472 269.373 172.508 269.52 172.579 269.651C172.647 269.774 172.748 269.876 172.87 269.945C172.996 270.016 173.138 270.052 173.283 270.05C173.426 270.046 173.566 270.006 173.69 269.931Z" fill="white"/>
<path d="M176.701 270.371C176.495 270.262 176.321 270.099 176.201 269.898C176.08 269.689 176.017 269.452 176.017 269.211C176.017 268.969 176.08 268.732 176.201 268.523C176.32 268.321 176.494 268.157 176.701 268.048C176.905 267.945 177.129 267.887 177.357 267.878C177.585 267.869 177.813 267.909 178.024 267.995C178.201 268.069 178.357 268.185 178.478 268.334L178.096 268.675C178.017 268.579 177.918 268.502 177.805 268.451C177.693 268.399 177.57 268.373 177.447 268.375C177.298 268.37 177.15 268.406 177.02 268.479C176.897 268.547 176.795 268.648 176.726 268.771C176.656 268.903 176.62 269.05 176.622 269.2C176.62 269.348 176.656 269.495 176.726 269.626C176.795 269.75 176.897 269.852 177.02 269.92C177.151 269.991 177.298 270.027 177.447 270.025C177.571 270.026 177.694 269.999 177.806 269.946C177.918 269.893 178.017 269.816 178.096 269.72L178.478 270.072C178.356 270.222 178.2 270.34 178.021 270.415C177.829 270.495 177.622 270.536 177.414 270.534C177.166 270.54 176.921 270.484 176.701 270.371Z" fill="white"/>
<path d="M180.526 269.947H179.33L179.102 270.497H178.488L179.638 267.918H180.229L181.381 270.497H180.754L180.526 269.947ZM180.339 269.494L179.929 268.506L179.522 269.499L180.339 269.494Z" fill="white"/>
<path d="M183.292 270.502L182.797 269.781H182.247V270.502H181.651V267.922H182.767C182.971 267.918 183.173 267.956 183.361 268.035C183.519 268.104 183.655 268.216 183.752 268.359C183.844 268.509 183.891 268.682 183.886 268.857C183.898 269.033 183.853 269.209 183.757 269.357C183.661 269.506 183.521 269.619 183.356 269.682L183.936 270.507L183.292 270.502ZM183.144 268.524C183.025 268.44 182.88 268.399 182.734 268.409H182.247V269.305H182.734C182.88 269.315 183.025 269.275 183.144 269.19C183.19 269.148 183.226 269.097 183.25 269.039C183.274 268.981 183.285 268.919 183.281 268.857C183.286 268.795 183.276 268.733 183.253 268.676C183.23 268.618 183.195 268.567 183.149 268.524H183.144Z" fill="white"/>
<path d="M184.857 268.401H184.032V267.914H186.282V268.401H185.457V270.494H184.86L184.857 268.401Z" fill="white"/>
<path d="M235.183 263.537H201.198C200.348 263.537 199.658 264.227 199.658 265.077V272.961C199.658 273.812 200.348 274.501 201.198 274.501H235.183C236.033 274.501 236.723 273.812 236.723 272.961V265.077C236.723 264.227 236.033 263.537 235.183 263.537Z" fill="#F4B01A"/>
<path opacity="0.15" d="M235.183 263.537H201.198C200.348 263.537 199.658 264.227 199.658 265.077V272.961C199.658 273.812 200.348 274.501 201.198 274.501H235.183C236.033 274.501 236.723 273.812 236.723 272.961V265.077C236.723 264.227 236.033 263.537 235.183 263.537Z" fill="black"/>
<path d="M233.399 263.537H199.414C198.564 263.537 197.874 264.227 197.874 265.077V272.961C197.874 273.812 198.564 274.501 199.414 274.501H233.399C234.249 274.501 234.939 273.812 234.939 272.961V265.077C234.939 264.227 234.249 263.537 233.399 263.537Z" fill="#F4B01A"/>
<path d="M209.17 269.394C209.255 269.511 209.299 269.653 209.294 269.798C209.297 269.901 209.273 270.003 209.225 270.094C209.177 270.185 209.106 270.262 209.019 270.318C208.787 270.456 208.518 270.52 208.249 270.502H206.915V267.922H208.175C208.429 267.906 208.683 267.969 208.901 268.101C208.98 268.156 209.045 268.229 209.089 268.315C209.132 268.401 209.154 268.497 209.151 268.593C209.154 268.711 209.123 268.827 209.063 268.929C209 269.027 208.913 269.106 208.81 269.16C208.952 269.197 209.079 269.279 209.17 269.394ZM207.52 268.371V268.978H208.114C208.231 268.986 208.348 268.959 208.45 268.901C208.485 268.875 208.514 268.841 208.534 268.801C208.554 268.761 208.563 268.717 208.562 268.673C208.565 268.629 208.556 268.585 208.536 268.545C208.516 268.506 208.486 268.472 208.45 268.448C208.348 268.39 208.231 268.363 208.114 268.371H207.52ZM208.573 269.974C208.612 269.947 208.643 269.911 208.664 269.869C208.684 269.828 208.694 269.781 208.692 269.735C208.692 269.52 208.532 269.413 208.216 269.413H207.52V270.051H208.216C208.341 270.059 208.466 270.032 208.576 269.974H208.573Z" fill="white"/>
<path d="M210.034 270.237C209.926 270.12 209.843 269.983 209.79 269.833C209.737 269.683 209.715 269.524 209.726 269.366V267.922H210.323V269.344C210.323 269.806 210.515 270.037 210.897 270.037C210.977 270.041 211.056 270.029 211.13 270C211.204 269.971 211.271 269.926 211.326 269.869C211.435 269.716 211.487 269.53 211.472 269.344V267.922H212.063V269.366C212.073 269.524 212.051 269.683 211.998 269.833C211.945 269.982 211.863 270.12 211.755 270.237C211.513 270.437 211.209 270.546 210.895 270.546C210.581 270.546 210.276 270.437 210.034 270.237Z" fill="white"/>
<path d="M213.854 269.585V270.501H213.257V269.58L212.259 267.93H212.891L213.582 269.074L214.269 267.93H214.855L213.854 269.585Z" fill="white"/>
<path d="M218.512 267.922V270.501H218.023L216.739 268.934V270.501H216.15V267.922H216.645L217.927 269.487V267.922H218.512Z" fill="white"/>
<path d="M219.651 270.371C219.44 270.261 219.264 270.093 219.143 269.889C219.021 269.684 218.959 269.449 218.964 269.211C218.96 268.97 219.023 268.733 219.145 268.526C219.267 268.324 219.442 268.159 219.651 268.05C219.875 267.936 220.123 267.877 220.374 267.877C220.626 267.877 220.874 267.936 221.098 268.05C221.308 268.161 221.484 268.329 221.605 268.533C221.726 268.738 221.789 268.973 221.785 269.211C221.789 269.451 221.725 269.687 221.601 269.893C221.48 270.095 221.306 270.261 221.098 270.371C220.874 270.485 220.626 270.545 220.374 270.545C220.123 270.545 219.875 270.485 219.651 270.371ZM220.787 269.931C220.904 269.86 220.999 269.758 221.062 269.637C221.134 269.507 221.17 269.359 221.166 269.211C221.17 269.061 221.134 268.913 221.062 268.782C220.999 268.661 220.904 268.56 220.787 268.49C220.66 268.422 220.518 268.386 220.374 268.386C220.23 268.386 220.089 268.422 219.962 268.49C219.84 268.558 219.74 268.659 219.673 268.782C219.601 268.913 219.565 269.061 219.569 269.211C219.565 269.359 219.601 269.507 219.673 269.637C219.74 269.76 219.84 269.862 219.962 269.931C220.089 270 220.23 270.036 220.374 270.036C220.518 270.036 220.66 270 220.787 269.931Z" fill="white"/>
<path d="M226.05 267.922L225.206 270.501H224.565L223.999 268.755L223.413 270.501H222.775L221.925 267.922H222.544L223.127 269.734L223.735 267.922H224.285L224.873 269.748L225.476 267.922H226.05Z" fill="white"/>
<path opacity="0.3" d="M245.743 100.475C245.743 100.563 245.743 100.653 245.762 100.75C245.757 100.651 245.751 100.563 245.743 100.475Z" fill="black"/>
<path opacity="0.3" d="M238.779 94.1875H154.596C153.275 94.2048 151.979 94.5458 150.82 95.1805C149.661 95.8155 148.676 96.7246 147.95 97.8285C148.791 97.2455 149.979 97.3335 151.387 97.3307H240.647C243.193 97.3307 245.456 98.0017 245.742 100.474C245.566 98.7503 244.756 97.1534 243.47 95.9921C242.183 94.831 240.512 94.1881 238.779 94.1875Z" fill="black"/>
<path d="M212.781 165.352H178.305C176.801 165.352 175.582 166.571 175.582 168.074V188.32C175.582 189.823 176.801 191.042 178.305 191.042H212.781C214.285 191.042 215.504 189.823 215.504 188.32V168.074C215.504 166.571 214.285 165.352 212.781 165.352Z" fill="#3F4249"/>
<path fill-rule="evenodd" clip-rule="evenodd" d="M205.037 172.233C205.977 172.233 206.745 171.095 206.745 169.701C206.745 168.306 205.977 167.168 205.037 167.168C204.096 167.168 203.329 168.306 203.329 169.701C203.329 171.095 204.096 172.233 205.037 172.233Z" fill="#868A91"/>
<path fill-rule="evenodd" clip-rule="evenodd" d="M186.048 172.233C186.989 172.233 187.756 171.095 187.756 169.701C187.756 168.306 186.989 167.168 186.048 167.168C185.108 167.168 184.338 168.306 184.338 169.701C184.338 171.095 185.105 172.233 186.048 172.233Z" fill="#868A91"/>
<path d="M186.808 169.709L185.284 169.692C185.284 168.867 185.628 149.361 195.572 149.361C205.516 149.361 205.791 168.864 205.799 169.695H204.276C204.194 166.453 203.783 163.228 203.049 160.07C201.545 153.973 199.029 150.882 195.572 150.882C192.115 150.882 189.585 153.976 188.065 160.073C187.319 163.233 186.898 166.462 186.808 169.709Z" fill="#868A91"/>
<path d="M194.818 165.352H193.372V191.042H194.818V165.352Z" fill="#868A91"/>
<path d="M197.714 165.352H196.268V191.042H197.714V165.352Z" fill="#868A91"/>
<path d="M178.313 186.4C178.882 184.2 179.199 181.285 179.199 178.197C179.199 175.109 178.882 172.199 178.313 169.994C177.799 168.014 177.078 166.746 176.229 166.322C175.937 166.663 175.736 167.071 175.643 167.51C175.805 167.549 176.38 167.865 177.018 170.329C177.568 172.419 177.859 175.213 177.859 178.197C177.859 181.181 177.56 183.972 177.018 186.067C176.38 188.542 175.805 188.848 175.643 188.886C175.736 189.324 175.938 189.733 176.229 190.074C177.078 189.651 177.799 188.375 178.313 186.4Z" fill="#868A91"/>
<path d="M215.44 188.886C215.278 188.848 214.703 188.531 214.065 186.067C213.515 183.977 213.24 181.183 213.24 178.197C213.24 175.21 213.537 172.422 214.065 170.329C214.703 167.854 215.278 167.549 215.44 167.51C215.346 167.072 215.145 166.664 214.854 166.322C214.002 166.743 213.282 168.011 212.767 169.994C212.198 172.194 211.882 175.111 211.882 178.197C211.882 181.282 212.198 184.197 212.767 186.4C213.282 188.383 214.002 189.651 214.854 190.074C215.145 189.732 215.346 189.324 215.44 188.886Z" fill="#868A91"/>
<path d="M198.756 173.959H192.327C192.046 173.959 191.818 174.187 191.818 174.468V178.243C191.818 178.525 192.046 178.752 192.327 178.752H198.756C199.037 178.752 199.265 178.525 199.265 178.243V174.468C199.265 174.187 199.037 173.959 198.756 173.959Z" fill="#21252B"/>
<path opacity="0.2" d="M155.746 240.35L143.165 266.202L143.099 236.164L155.746 240.35Z" fill="black"/>
<path d="M120.492 206.394L71.9777 254.909C70.7072 256.179 70.7072 258.239 71.9777 259.509L102.075 289.607C103.346 290.878 105.406 290.878 106.676 289.607L155.191 241.093C156.461 239.822 156.461 237.762 155.191 236.492L125.093 206.394C123.822 205.124 121.763 205.124 120.492 206.394Z" fill="#21252B"/>
<path d="M122.076 211.787L112.369 221.495C111.973 221.891 111.973 222.533 112.369 222.93L114.074 224.635C114.47 225.031 115.113 225.031 115.509 224.635L125.217 214.928C125.613 214.532 125.613 213.889 125.217 213.493L123.511 211.787C123.115 211.391 122.472 211.391 122.076 211.787Z" fill="#F4B01A"/>
<path d="M93.5315 254.471L85.1602 262.842L87.0929 264.775L95.4642 256.404L93.5315 254.471Z" fill="#F4B01A"/>
<path d="M88.5141 255.08L83.5806 260.011C83.4145 260.178 83.3213 260.404 83.3213 260.639C83.3213 260.875 83.4145 261.1 83.5806 261.268L84.8869 262.571L90.4447 257.013L88.5141 255.08Z" fill="#F4B01A"/>
<path d="M90.6949 252.896L88.7864 254.821L90.7114 256.746L93.2524 254.205L91.9462 252.902C91.7804 252.737 91.556 252.644 91.3217 252.643C91.0876 252.642 90.8624 252.733 90.6949 252.896Z" fill="#F4B01A"/>
<path d="M88.6683 266.355C88.8352 266.521 89.061 266.614 89.2967 266.614C89.5321 266.614 89.7581 266.521 89.9251 266.355L92.0316 264.245L90.1066 262.32L87.373 265.054L88.6683 266.355Z" fill="#F4B01A"/>
<path d="M92.3037 263.972L97.0392 259.236C97.1217 259.154 97.1871 259.056 97.2317 258.948C97.2765 258.841 97.2993 258.726 97.2993 258.609C97.2993 258.493 97.2765 258.377 97.2317 258.27C97.1871 258.162 97.1217 258.064 97.0392 257.982L95.7357 256.676L90.3705 262.041L92.3037 263.972Z" fill="#F4B01A"/>
<path d="M102.677 261.664L93.6857 270.655C93.4882 270.853 93.4882 271.173 93.6857 271.371L95.5719 273.257C95.7696 273.455 96.09 273.455 96.2874 273.257L105.279 264.265C105.477 264.068 105.477 263.748 105.279 263.55L103.393 261.664C103.195 261.466 102.875 261.466 102.677 261.664Z" fill="white"/>
<path d="M113.864 250.476L104.873 259.468C104.675 259.666 104.675 259.986 104.873 260.183L106.759 262.07C106.956 262.267 107.277 262.267 107.474 262.07L116.466 253.078C116.663 252.88 116.663 252.56 116.466 252.363L114.58 250.476C114.382 250.279 114.062 250.279 113.864 250.476Z" fill="white"/>
<path d="M125.053 239.287L116.061 248.278C115.864 248.476 115.864 248.796 116.061 248.994L117.947 250.88C118.145 251.078 118.465 251.078 118.663 250.88L127.655 241.889C127.852 241.691 127.852 241.371 127.655 241.173L125.768 239.287C125.571 239.089 125.25 239.089 125.053 239.287Z" fill="white"/>
<path d="M136.24 228.099L127.248 237.091C127.05 237.289 127.05 237.609 127.248 237.806L129.134 239.693C129.332 239.89 129.652 239.89 129.85 239.693L138.841 230.701C139.039 230.504 139.039 230.183 138.841 229.985L136.955 228.099C136.757 227.902 136.437 227.902 136.24 228.099Z" fill="white"/>
<path d="M118.452 262.61L102.009 279.054C101.714 279.348 101.713 279.827 102.008 280.121C102.303 280.418 102.782 280.418 103.077 280.121L119.52 263.678C119.815 263.383 119.816 262.904 119.521 262.61C119.226 262.315 118.748 262.315 118.452 262.61Z" fill="white"/>
<path opacity="0.7" d="M122.076 211.787L112.369 221.495C111.973 221.891 111.973 222.533 112.369 222.93L114.074 224.635C114.47 225.031 115.113 225.031 115.509 224.635L125.217 214.928C125.613 214.532 125.613 213.889 125.217 213.493L123.511 211.787C123.115 211.391 122.472 211.391 122.076 211.787Z" fill="white"/>
<path opacity="0.7" d="M118.452 262.61L102.009 279.054C101.714 279.348 101.713 279.827 102.008 280.121C102.303 280.418 102.782 280.418 103.077 280.121L119.52 263.678C119.815 263.383 119.816 262.904 119.521 262.61C119.226 262.315 118.748 262.315 118.452 262.61Z" fill="white"/>
<path d="M147.324 236.942C145.705 235.324 143.081 235.324 141.463 236.942C139.845 238.561 139.845 241.185 141.463 242.803C143.081 244.422 145.705 244.422 147.324 242.803C148.942 241.185 148.942 238.561 147.324 236.942Z" fill="#F4B01A"/>
<path d="M143.387 240.882C141.768 239.263 139.144 239.263 137.526 240.882C135.907 242.5 135.907 245.124 137.526 246.743C139.144 248.361 141.768 248.361 143.387 246.743C145.005 245.124 145.005 242.5 143.387 240.882Z" fill="white"/>
<path d="M320.721 275.208V284.935H313.085L311.996 275.742L311.93 275.184L320.721 275.208Z" fill="#F59A9C"/>
<path opacity="0.15" d="M320.721 275.209V277.684L317.512 277.992C317.053 278.033 316.618 278.215 316.266 278.509C315.912 278.803 315.656 279.199 315.532 279.642L313.206 284.925H313.085L311.985 275.731C313.145 275.344 320.721 275.209 320.721 275.209Z" fill="#231F20"/>
<path d="M319.902 280.437L319.682 280.217C318.826 279.386 317.68 278.924 316.489 278.938C315.295 278.949 314.157 279.433 313.321 280.28L313.194 280.437C312.771 280.866 312.534 281.44 312.534 282.043V282.989C312.548 283.55 312.46 284.108 312.281 284.639L311.495 287.254C311.297 287.886 311.19 288.544 311.181 289.206V289.52C311.19 289.77 311.297 290.006 311.481 290.177C311.663 290.347 311.905 290.438 312.155 290.433H321.23C321.354 290.438 321.48 290.419 321.596 290.378C321.714 290.334 321.821 290.268 321.912 290.182C322.003 290.097 322.077 289.995 322.126 289.883C322.176 289.767 322.203 289.644 322.206 289.52V289.393C322.203 288.623 322.074 287.856 321.827 287.127L320.914 284.575C320.716 283.987 320.611 283.371 320.6 282.749L320.567 282.026C320.562 281.429 320.322 280.86 319.902 280.437Z" fill="#F4B01A"/>
<path d="M321.216 290.025H312.141C311.935 290.031 311.732 289.97 311.561 289.852C311.393 289.731 311.267 289.56 311.201 289.365C311.179 289.552 311.168 289.742 311.168 289.932V290.234C311.182 290.479 311.292 290.71 311.473 290.875C311.655 291.04 311.897 291.125 312.141 291.114H321.216C321.337 291.122 321.461 291.106 321.577 291.065C321.692 291.026 321.799 290.963 321.89 290.88C321.981 290.798 322.055 290.699 322.107 290.589C322.16 290.476 322.187 290.358 322.193 290.234V290.124C322.19 289.888 322.176 289.651 322.146 289.415C322.077 289.602 321.948 289.761 321.78 289.871C321.612 289.981 321.417 290.036 321.216 290.025Z" fill="#61656D"/>
<path opacity="0.4" d="M313.987 282.452C314.174 282.452 314.328 282.3 314.328 282.111C314.328 281.924 314.174 281.77 313.987 281.77C313.797 281.77 313.646 281.924 313.646 282.111C313.646 282.3 313.797 282.452 313.987 282.452Z" fill="#231F20"/>
<path opacity="0.4" d="M314.168 283.813C314.355 283.813 314.509 283.662 314.509 283.472C314.509 283.285 314.355 283.131 314.168 283.131C313.978 283.131 313.827 283.285 313.827 283.472C313.827 283.662 313.978 283.813 314.168 283.813Z" fill="#231F20"/>
<path opacity="0.4" d="M314.622 285.127C314.809 285.127 314.963 284.973 314.963 284.786C314.963 284.597 314.809 284.445 314.622 284.445C314.435 284.445 314.281 284.597 314.281 284.786C314.281 284.973 314.435 285.127 314.622 285.127Z" fill="#231F20"/>
<path opacity="0.4" d="M314.682 286.729C314.869 286.729 315.023 286.575 315.023 286.388C315.023 286.201 314.869 286.047 314.682 286.047C314.493 286.047 314.341 286.201 314.341 286.388C314.341 286.575 314.493 286.729 314.682 286.729Z" fill="#231F20"/>
<path opacity="0.4" d="M314.85 288.112C315.037 288.112 315.191 287.96 315.191 287.771C315.191 287.584 315.037 287.43 314.85 287.43C314.663 287.43 314.509 287.584 314.509 287.771C314.509 287.96 314.663 288.112 314.85 288.112Z" fill="#231F20"/>
<path opacity="0.4" d="M319.146 287.815C319.333 287.815 319.487 287.664 319.487 287.474C319.487 287.287 319.333 287.133 319.146 287.133C318.956 287.133 318.805 287.287 318.805 287.474C318.805 287.664 318.956 287.815 319.146 287.815Z" fill="#231F20"/>
<path opacity="0.4" d="M319.003 286.526C319.19 286.526 319.344 286.372 319.344 286.185C319.344 285.995 319.19 285.844 319.003 285.844C318.813 285.844 318.662 285.995 318.662 286.185C318.662 286.372 318.813 286.526 319.003 286.526Z" fill="#231F20"/>
<path opacity="0.4" d="M318.829 284.821C319.016 284.821 319.17 284.669 319.17 284.48C319.17 284.293 319.016 284.139 318.829 284.139C318.639 284.139 318.488 284.293 318.488 284.48C318.488 284.669 318.639 284.821 318.829 284.821Z" fill="#231F20"/>
<path opacity="0.4" d="M318.376 283.475C318.563 283.475 318.717 283.321 318.717 283.134C318.717 282.947 318.563 282.793 318.376 282.793C318.186 282.793 318.035 282.947 318.035 283.134C318.035 283.321 318.186 283.475 318.376 283.475Z" fill="#231F20"/>
<path opacity="0.4" d="M318.318 282.194C318.505 282.194 318.659 282.04 318.659 281.853C318.659 281.663 318.505 281.512 318.318 281.512C318.128 281.512 317.977 281.663 317.977 281.853C317.977 282.04 318.128 282.194 318.318 282.194Z" fill="#231F20"/>
<path d="M314.113 282.045C314.113 282.045 315.653 280.395 318.318 281.77" stroke="white" stroke-miterlimit="10" stroke-linecap="round"/>
<path d="M314.168 283.389C314.168 283.389 315.708 281.739 318.376 283.114" stroke="white" stroke-miterlimit="10" stroke-linecap="round"/>
<path d="M314.622 284.732C314.969 284.361 316.883 283.454 318.83 284.457" stroke="white" stroke-miterlimit="10" stroke-linecap="round"/>
<path d="M314.795 286.357C314.795 286.357 316.338 284.707 319.003 286.082" stroke="white" stroke-miterlimit="10" stroke-linecap="round"/>
<path d="M314.85 287.703C314.85 287.703 316.393 286.053 319.058 287.428" stroke="white" stroke-miterlimit="10" stroke-linecap="round"/>
<path d="M291.709 275.694L291.651 276.343L291.618 276.706L290.84 285.465L276.309 285.778L280.486 282.836C280.86 282.539 281.179 282.178 281.429 281.771C281.894 281.095 282.194 280.317 282.298 279.503L282.873 275.793L282.892 275.672L291.709 275.694Z" fill="#F59A9C"/>
<path opacity="0.15" d="M291.651 276.343L291.618 276.706L286.189 277.751C285.606 277.864 285.078 278.166 284.688 278.609C284.295 279.054 284.064 279.618 284.025 280.209L283.904 282.134L281.429 281.785C281.894 281.109 282.194 280.33 282.298 279.516L282.873 275.807L291.651 276.343Z" fill="#231F20"/>
<path d="M291.72 289.269L267.726 289.319C267.674 289.217 267.636 289.107 267.614 288.994C267.574 289.261 267.564 289.53 267.586 289.797C267.601 290.006 267.694 290.201 267.847 290.344C268 290.487 268.202 290.564 268.411 290.564L290.945 290.52C291.157 290.52 291.36 290.441 291.511 290.295C291.665 290.152 291.759 289.954 291.77 289.742L291.72 289.269Z" fill="#61656D"/>
<path d="M269.035 286.726C273.317 284.939 276.796 283.456 279.986 280.781C280.712 280.17 281.611 279.804 282.557 279.727L291.165 279.034C291.313 279.023 291.461 279.043 291.602 279.092C291.742 279.144 291.871 279.224 291.978 279.329C292.083 279.433 292.168 279.56 292.22 279.697C292.275 279.837 292.297 279.986 292.289 280.134L291.72 289.267L267.726 289.317C267.22 288.335 268.282 287.042 269.035 286.726Z" fill="#F4B01A"/>
<path opacity="0.4" d="M273.234 287.135C273.479 287.135 273.677 286.956 273.677 286.734C273.677 286.511 273.479 286.332 273.234 286.332C272.99 286.332 272.791 286.511 272.791 286.734C272.791 286.956 272.99 287.135 273.234 287.135Z" fill="#231F20"/>
<path opacity="0.4" d="M275.864 286.457C276.109 286.457 276.307 286.279 276.307 286.056C276.307 285.833 276.109 285.654 275.864 285.654C275.619 285.654 275.421 285.833 275.421 286.056C275.421 286.279 275.619 286.457 275.864 286.457Z" fill="#231F20"/>
<path opacity="0.4" d="M278.047 285.031C278.291 285.031 278.489 284.853 278.489 284.63C278.489 284.407 278.291 284.229 278.047 284.229C277.802 284.229 277.604 284.407 277.604 284.63C277.604 284.853 277.802 285.031 278.047 285.031Z" fill="#231F20"/>
<path opacity="0.4" d="M280.164 283.588C280.409 283.588 280.607 283.409 280.607 283.187C280.607 282.964 280.409 282.785 280.164 282.785C279.92 282.785 279.722 282.964 279.722 283.187C279.722 283.409 279.92 283.588 280.164 283.588Z" fill="#231F20"/>
<path opacity="0.4" d="M282.04 281.828C282.285 281.828 282.483 281.65 282.483 281.427C282.483 281.204 282.285 281.025 282.04 281.025C281.795 281.025 281.597 281.204 281.597 281.427C281.597 281.65 281.795 281.828 282.04 281.828Z" fill="#231F20"/>
<path d="M272.398 285.782L272.69 286.527C272.736 286.626 272.818 286.706 272.92 286.747C273.022 286.791 273.137 286.791 273.24 286.752C273.292 286.736 273.341 286.708 273.381 286.673C273.422 286.634 273.453 286.587 273.473 286.538C273.494 286.486 273.502 286.431 273.499 286.378C273.495 286.323 273.479 286.268 273.452 286.222L273.031 285.504L272.398 285.782Z" fill="white"/>
<path d="M274.738 284.736L275.288 285.863C275.343 285.965 275.44 286.042 275.55 286.075C275.662 286.108 275.781 286.097 275.885 286.042C275.932 286.02 275.973 285.99 276.009 285.954C276.042 285.915 276.069 285.871 276.083 285.822C276.1 285.775 276.105 285.723 276.102 285.671C276.097 285.621 276.08 285.572 276.056 285.528L275.42 284.428L274.738 284.736Z" fill="white"/>
<path d="M276.7 283.586L277.45 284.552C277.527 284.642 277.635 284.7 277.753 284.711C277.871 284.722 277.989 284.684 278.08 284.609L278.108 284.585C278.143 284.554 278.174 284.519 278.196 284.48C278.218 284.439 278.229 284.395 278.234 284.348C278.24 284.304 278.234 284.257 278.22 284.213C278.209 284.169 278.187 284.128 278.157 284.092L277.434 283.188L276.7 283.586Z" fill="white"/>
<path d="M278.613 282.384L279.578 283.229C279.658 283.297 279.76 283.333 279.864 283.333C279.971 283.333 280.073 283.297 280.153 283.229C280.197 283.193 280.23 283.149 280.255 283.099C280.277 283.047 280.288 282.992 280.285 282.937C280.282 282.882 280.266 282.827 280.238 282.778C280.211 282.731 280.172 282.69 280.125 282.659L279.157 281.975L278.613 282.384Z" fill="white"/>
<path d="M280.5 280.803C280.5 280.803 281.064 281.23 281.432 281.502C281.518 281.562 281.622 281.59 281.727 281.579C281.831 281.568 281.927 281.516 281.996 281.439C282.032 281.397 282.054 281.348 282.068 281.296C282.079 281.243 282.079 281.188 282.065 281.136C282.051 281.084 282.026 281.034 281.991 280.993C281.955 280.952 281.908 280.922 281.859 280.902L280.736 280.396L280.5 280.803Z" fill="white"/>
<path d="M284.9 175.725L281.944 276.069L291.967 276.102L300.602 192.632C300.663 192.016 301.683 191.548 301.683 191.548C301.966 191.562 302.233 191.681 302.434 191.881C302.632 192.082 302.75 192.349 302.764 192.632L311.272 276.025H320.988L320.65 175.725H284.9Z" fill="#414042"/>
<path opacity="0.4" d="M315.466 276.023L307.249 196.625C307.131 195.485 306.636 194.418 305.844 193.591C305.049 192.764 304.004 192.224 302.871 192.057L302.525 192.008C302.659 192.194 302.742 192.412 302.764 192.64L311.272 276.034L315.466 276.023Z" fill="#231F20"/>
<path opacity="0.4" d="M288.2 175.725H284.9L281.944 276.025H285.466L288.2 175.725Z" fill="#231F20"/>
<path d="M292.152 276.103H281.732L281.889 273.92H292.364L292.152 276.103Z" fill="#3F4249"/>
<path opacity="0.4" d="M285.458 276.103H281.732L281.889 273.92H285.538L285.458 276.103Z" fill="#231F20"/>
<path d="M321.134 276.026H310.893L310.69 273.92H321.134V276.026Z" fill="#3F4249"/>
<path opacity="0.4" d="M315.466 276.024L310.893 276.026L310.69 273.92H315.299L315.466 276.024Z" fill="#231F20"/>
<path d="M324.75 121.385C323.417 120.975 320.65 157.96 320.65 172.15V175.725H284.9L282.925 138.688C282.191 130.782 283.8 121.135 281.949 119.801C294.891 114.07 320.122 117.799 324.75 121.385Z" fill="#F4B01A"/>
<path d="M285.175 175.724H320.65V174.492H284.834L284.925 175.724H285.175Z" fill="#F4B01A"/>
<path opacity="0.5" d="M285.175 175.724H320.65V174.492H284.834L284.925 175.724H285.175Z" fill="#231F20"/>
<path d="M285.175 173.525H320.65V172.293H284.834L284.925 173.525H285.175Z" fill="#F4B01A"/>
<path opacity="0.5" d="M285.175 173.525H320.65V172.293H284.834L284.925 173.525H285.175Z" fill="#231F20"/>
<path d="M285.175 171.05H320.65V169.818H284.834L284.925 171.05H285.175Z" fill="#F4B01A"/>
<path opacity="0.5" d="M285.175 171.05H320.65V169.818H284.834L284.925 171.05H285.175Z" fill="#231F20"/>
<path d="M297.135 121.52V137.541" stroke="black" stroke-width="4" stroke-miterlimit="10" stroke-linecap="round"/>
<path d="M297.245 136.4C297.566 136.4 297.825 136.139 297.825 135.817C297.825 135.495 297.566 135.234 297.245 135.234C296.923 135.234 296.664 135.495 296.664 135.817C296.664 136.139 296.923 136.4 297.245 136.4Z" fill="white"/>
<path d="M307.612 121.346V137.37" stroke="black" stroke-width="4" stroke-miterlimit="10" stroke-linecap="round"/>
<path d="M307.695 135.85C308.017 135.85 308.275 135.589 308.275 135.267C308.275 134.945 308.017 134.684 307.695 134.684C307.373 134.684 307.115 134.945 307.115 135.267C307.115 135.589 307.373 135.85 307.695 135.85Z" fill="white"/>
<path d="M311.3 141.074L322.256 140.172L335.256 157.272L323.304 170.89L326.035 177.061L346.533 160.814C347.394 160.123 347.983 159.152 348.197 158.07C348.412 156.988 348.236 155.865 347.705 154.899L328.625 124.338C327.094 121.544 321.572 119.558 318.467 119.899L309.925 125.674L311.3 141.074Z" fill="#F4B01A"/>
<path opacity="0.15" d="M335.225 157.3L322.3 140.25L323.4 132L337.285 152.056C337.568 152.464 337.717 152.95 337.711 153.447C337.709 153.943 337.552 154.427 337.263 154.831L335.225 157.3Z" fill="#231F20"/>
<path d="M323.284 170.924L326.023 177.062L326.656 176.55L323.824 170.338L323.284 170.924Z" fill="#F4B01A"/>
<path opacity="0.5" d="M323.284 170.924L326.023 177.062L326.656 176.55L323.812 170.311L323.284 170.924Z" fill="#231F20"/>
<path d="M324.181 169.889L327.002 176.272L327.654 175.75L324.709 169.287L324.181 169.889Z" fill="#F4B01A"/>
<path opacity="0.5" d="M324.181 169.889L327.002 176.272L327.654 175.75L324.709 169.287L324.181 169.889Z" fill="#231F20"/>
<path d="M325.064 168.885L327.982 175.485L328.633 174.965L325.589 168.285L325.064 168.885Z" fill="#F4B01A"/>
<path opacity="0.5" d="M325.064 168.885L327.982 175.485L328.633 174.965L325.589 168.285L325.064 168.885Z" fill="#231F20"/>
<path opacity="0.4" d="M320.507 186.23L315.2 178.131C316.25 177.1 318.857 175.137 320.504 175.656C320.504 175.662 320.738 186.852 320.507 186.23Z" fill="#231F20"/>
<path d="M326.034 177.062L323.304 170.891L321.28 173.459C321.131 173.647 320.955 173.811 320.757 173.946C320.078 174.408 318.48 175.497 318.486 175.489L316.165 177.603L320.174 183.975C325.099 180.785 322.583 179.721 324.758 178.145C325.05 177.925 326.034 177.062 326.034 177.062Z" fill="#FC9D9D"/>
<path opacity="0.2" d="M323.609 171.581L323.334 170.871L320.966 173.836C319.132 174.912 317.452 176.234 315.975 177.765L316.489 178.59L323.609 171.581Z" fill="#231F20"/>
<path d="M302.453 124.803C299.703 123.06 290.54 117.395 288.544 117.725C288.129 115.544 291.987 117.024 293.365 115.06C293.725 114.525 294.231 114.104 294.822 113.847C295.966 113.372 296.896 113.528 297.201 113.809C301.645 117.871 304.626 116.149 309.257 113.127C309.807 112.769 312.007 112.954 312.576 114.859C314.416 118.104 317.972 115.473 317.972 118.679C317.972 118.924 317.642 118.905 317.147 118.795C315.398 118.414 313.569 118.682 312.004 119.548L304.029 124.79C303.795 124.943 303.523 125.025 303.243 125.028C302.965 125.03 302.69 124.952 302.453 124.803Z" fill="black"/>
<path d="M232.207 131.599L229.251 130.059L225.181 129.828C225.106 129.821 225.031 129.832 224.962 129.86C224.892 129.889 224.831 129.933 224.783 129.991C224.735 130.049 224.702 130.117 224.687 130.19C224.671 130.263 224.674 130.339 224.694 130.411C224.726 130.525 224.791 130.626 224.881 130.703C224.97 130.78 225.08 130.829 225.197 130.843L228.957 131.421L230.906 132.952L228.957 131.421L225.585 131.231C225.524 131.227 225.463 131.236 225.406 131.257C225.349 131.279 225.297 131.314 225.255 131.358C225.213 131.402 225.181 131.455 225.161 131.513C225.142 131.571 225.135 131.632 225.142 131.693C225.166 131.803 225.227 131.902 225.313 131.973C225.4 132.045 225.508 132.086 225.621 132.089L228.921 132.589L231.748 134.789L228.921 132.589L226.402 132.71C226.36 132.712 226.319 132.724 226.283 132.744C226.246 132.764 226.214 132.792 226.19 132.826C226.166 132.861 226.15 132.9 226.143 132.941C226.137 132.983 226.14 133.025 226.152 133.065C226.181 133.134 226.228 133.194 226.288 133.239C226.348 133.284 226.418 133.312 226.493 133.321L229.273 133.596L232.023 135.463L232.207 131.599Z" fill="#FC9D9D"/>
<path opacity="0.15" d="M232.207 131.599L229.251 130.059L225.181 129.828C225.106 129.821 225.031 129.832 224.962 129.86C224.892 129.889 224.831 129.933 224.783 129.991C224.735 130.049 224.702 130.117 224.687 130.19C224.671 130.263 224.674 130.339 224.694 130.411C224.726 130.525 224.791 130.626 224.881 130.703C224.97 130.78 225.08 130.829 225.197 130.843L228.957 131.421L230.906 132.952L228.957 131.421L225.585 131.231C225.524 131.227 225.463 131.236 225.406 131.257C225.349 131.279 225.297 131.314 225.255 131.358C225.213 131.402 225.181 131.455 225.161 131.513C225.142 131.571 225.135 131.632 225.142 131.693C225.166 131.803 225.227 131.902 225.313 131.973C225.4 132.045 225.508 132.086 225.621 132.089L228.921 132.589L231.748 134.789L228.921 132.589L226.402 132.71C226.36 132.712 226.319 132.724 226.283 132.744C226.246 132.764 226.214 132.792 226.19 132.826C226.166 132.861 226.15 132.9 226.143 132.941C226.137 132.983 226.14 133.025 226.152 133.065C226.181 133.134 226.228 133.194 226.288 133.239C226.348 133.284 226.418 133.312 226.493 133.321L229.273 133.596L232.023 135.463L232.207 131.599Z" fill="black"/>
<path d="M232.353 130.473L235.967 134.835C236.18 135.079 236.44 135.278 236.731 135.421L245.108 139.298L242.484 144.399L234.663 140.368C232.936 140.222 231.487 139.152 230.428 137.874H230.398C230.249 137.696 230.068 137.547 229.864 137.436C229.108 137.073 227.246 136.155 227.246 136.155C227.219 136.144 227.193 136.126 227.172 136.105C227.151 136.084 227.134 136.059 227.123 136.03C227.111 136.002 227.106 135.972 227.106 135.943C227.107 135.912 227.113 135.883 227.125 135.855C227.23 135.597 227.425 135.386 227.674 135.261C227.923 135.135 228.209 135.104 228.478 135.173L229.884 135.476C230.632 135.616 231.259 135.082 231.184 134.409L230.667 131.45C230.656 131.356 230.626 131.266 230.578 131.185C230.531 131.103 230.468 131.033 230.392 130.977L226.034 127.93C225.988 127.906 225.949 127.874 225.916 127.835C225.883 127.796 225.859 127.751 225.844 127.702C225.829 127.653 225.824 127.602 225.83 127.551C225.834 127.501 225.85 127.452 225.874 127.407C225.905 127.352 225.947 127.303 225.997 127.264C226.047 127.224 226.105 127.195 226.166 127.178C226.227 127.161 226.291 127.156 226.355 127.164C226.418 127.171 226.479 127.191 226.534 127.223C227.695 127.817 231.253 129.736 232.062 130.198C232.17 130.277 232.268 130.369 232.353 130.473Z" fill="#FC9D9D"/>
<path opacity="0.15" d="M235.4 139.582C233.673 139.436 231.929 138.336 230.871 137.055H230.84C230.685 136.876 230.499 136.728 230.29 136.618C229.534 136.255 227.675 135.336 227.675 135.336C227.651 135.327 227.629 135.313 227.609 135.295C227.385 135.413 227.212 135.609 227.122 135.845C227.11 135.873 227.104 135.902 227.103 135.932C227.102 135.963 227.108 135.993 227.12 136.02C227.131 136.048 227.148 136.074 227.169 136.095C227.19 136.117 227.215 136.133 227.243 136.145C227.243 136.145 229.105 137.063 229.861 137.426C230.065 137.537 230.246 137.685 230.395 137.863H230.425C231.484 139.142 232.933 140.212 234.66 140.358L242.481 144.389C242.481 144.389 240.35 141.592 238.15 140.146C237.179 139.522 236.027 139.549 235.4 139.582Z" fill="black"/>
<path d="M265.41 144.926L278.187 122.486C278.88 121.266 279.903 120.267 281.14 119.605C282.378 118.943 283.775 118.645 285.175 118.746L291.992 119.235L286.151 135.801L273.017 156.701C272.474 157.564 271.758 158.304 270.915 158.876C270.071 159.449 269.118 159.84 268.116 160.025C267.113 160.211 266.084 160.186 265.091 159.954C264.099 159.722 263.165 159.287 262.35 158.676L259.509 156.544L265.41 144.926Z" fill="#F4B01A"/>
<path d="M242.569 144.403L262.474 158.703C266.34 161.178 270.669 160.133 274.824 153.802L277.769 149.127L266.802 142.472L264.756 146.201L245.108 139.299L242.569 144.403Z" fill="#F4B01A"/>
<path d="M245.11 139.406L242.484 144.4L243.232 144.879L245.938 139.753L245.11 139.406Z" fill="#F4B01A"/>
<path opacity="0.6" d="M245.108 139.299L242.484 144.4L243.232 144.879L246.01 139.615L245.108 139.299Z" fill="#231F20"/>
<path d="M246.34 139.904L243.59 145.138L244.329 145.63L247.184 140.221L246.34 139.904Z" fill="#F4B01A"/>
<path opacity="0.6" d="M246.43 139.764L243.59 145.137L244.316 145.657L247.283 140.061L246.43 139.764Z" fill="#231F20"/>
<path d="M247.586 140.371L244.693 145.877L245.449 146.339L248.43 140.69L247.586 140.371Z" fill="#F4B01A"/>
<path opacity="0.6" d="M247.687 140.184L244.673 145.915L245.396 146.437L248.531 140.5L247.687 140.184Z" fill="#231F20"/>
<path d="M312.986 98.6094C312.911 99.0439 312.32 108.509 307.442 112.359V101.359L312.986 98.6094Z" fill="black"/>
<path d="M310.041 118.756L309.262 107.344L309.1 105.072C308.71 96.3491 297.327 103.485 297.327 103.485C297.327 103.485 297.652 106.51 297.781 109.841C297.784 110.528 297.861 111.213 298.009 111.884L297.275 118.66" fill="#FC9D9D"/>
<path d="M310.038 118.756C310.035 118.965 309.98 119.169 309.879 119.351C309.777 119.532 309.631 119.685 309.455 119.796L307.45 121.157L303.199 124.042C303.103 124.097 302.99 124.121 302.88 124.11C302.767 124.099 302.663 124.053 302.58 123.979L298.956 120.86L297.718 119.796C297.55 119.661 297.421 119.486 297.341 119.287C297.264 119.089 297.237 118.872 297.264 118.66L310.038 118.756Z" fill="#FC9D9D"/>
<path d="M308.743 97.0742L309.067 104.661C309.067 104.661 308.223 116.368 300.702 115.362C292.042 114.229 296.062 97.2997 296.062 97.2997L308.743 97.0742Z" fill="#FC9D9D"/>
<path opacity="0.15" d="M302.128 115.775C303.679 115.56 305.107 114.801 306.149 113.632C306.179 113.602 306.196 113.561 306.196 113.519C306.196 113.476 306.179 113.436 306.149 113.406C306.119 113.376 306.077 113.359 306.033 113.359C305.992 113.36 305.951 113.377 305.921 113.407C305.101 114.306 304.045 114.958 302.874 115.288C300.539 115.805 298.474 114.738 297.717 113.99L297.426 116.712C298.234 116.873 299.065 116.873 299.871 116.712C300.676 116.551 301.444 116.232 302.128 115.775Z" fill="black"/>
<path opacity="0.15" d="M299.923 111.722C299.921 111.691 299.923 111.66 299.934 111.631C299.943 111.602 299.959 111.575 299.981 111.554C300.003 111.532 300.031 111.515 300.058 111.504C300.088 111.494 300.119 111.49 300.149 111.493C300.482 111.546 300.817 111.578 301.155 111.59C301.216 111.59 301.274 111.614 301.318 111.656C301.359 111.699 301.384 111.757 301.384 111.818C301.384 111.878 301.359 111.936 301.318 111.979C301.274 112.022 301.216 112.046 301.155 112.046C300.801 111.989 300.443 111.955 300.086 111.947C299.987 111.884 299.857 111.752 299.923 111.722Z" fill="black"/>
<path opacity="0.15" d="M298.722 110.681C298.694 110.669 298.672 110.652 298.65 110.63C298.631 110.609 298.617 110.583 298.606 110.556C298.598 110.528 298.593 110.499 298.595 110.47C298.598 110.44 298.604 110.412 298.617 110.386C298.631 110.36 298.65 110.336 298.672 110.317C298.694 110.298 298.719 110.284 298.747 110.276C298.777 110.267 298.804 110.264 298.835 110.267C298.865 110.27 298.892 110.279 298.917 110.294C301.189 111.039 302.129 109.969 302.421 109.449C302.434 109.423 302.454 109.4 302.476 109.382C302.5 109.364 302.525 109.351 302.555 109.343C302.583 109.335 302.613 109.334 302.641 109.338C302.671 109.343 302.698 109.354 302.723 109.37C302.748 109.385 302.77 109.406 302.786 109.431C302.8 109.455 302.811 109.483 302.817 109.512C302.822 109.541 302.822 109.571 302.814 109.599C302.806 109.628 302.795 109.654 302.775 109.678C302.484 110.195 301.642 111.201 299.728 110.91C299.387 110.86 299.052 110.784 298.722 110.681Z" fill="black"/>
<path d="M301.804 105.884C302.181 105.884 302.486 105.578 302.486 105.202C302.486 104.825 302.181 104.52 301.804 104.52C301.427 104.52 301.122 104.825 301.122 105.202C301.122 105.578 301.427 105.884 301.804 105.884Z" fill="black"/>
<path d="M301.51 105.139C301.601 105.139 301.672 105.066 301.672 104.977C301.672 104.887 301.601 104.814 301.51 104.814C301.419 104.814 301.348 104.887 301.348 104.977C301.348 105.066 301.419 105.139 301.51 105.139Z" fill="white"/>
<path d="M296.453 105.884C296.83 105.884 297.135 105.578 297.135 105.202C297.135 104.825 296.83 104.52 296.453 104.52C296.076 104.52 295.771 104.825 295.771 105.202C295.771 105.578 296.076 105.884 296.453 105.884Z" fill="black"/>
<path d="M296.161 105.139C296.252 105.139 296.324 105.066 296.324 104.977C296.324 104.887 296.252 104.814 296.161 104.814C296.071 104.814 295.999 104.887 295.999 104.977C295.999 105.066 296.071 105.139 296.161 105.139Z" fill="white"/>
<path opacity="0.15" d="M298.463 108.314C298.491 108.097 298.601 107.899 298.768 107.761C298.939 107.622 299.153 107.553 299.371 107.568C299.47 107.568 299.533 107.667 299.533 107.797C299.533 107.926 299.437 107.959 299.307 107.959C299.252 107.955 299.197 107.961 299.145 107.978C299.09 107.996 299.043 108.023 298.999 108.059C298.958 108.095 298.922 108.139 298.898 108.188C298.873 108.238 298.859 108.291 298.854 108.347C298.848 108.402 298.856 108.458 298.873 108.51C298.889 108.563 298.917 108.612 298.953 108.654C298.988 108.696 299.032 108.731 299.082 108.756C299.131 108.781 299.186 108.796 299.241 108.8L300.149 108.866C300.248 108.866 300.311 108.963 300.311 109.092C300.311 109.221 300.215 109.254 300.086 109.254L299.175 109.191C299.068 109.185 298.966 109.157 298.87 109.109C298.777 109.061 298.691 108.993 298.625 108.91C298.557 108.828 298.51 108.732 298.48 108.629C298.452 108.526 298.447 108.419 298.463 108.314Z" fill="black"/>
<path d="M293.86 104.424V105.202C293.849 105.567 293.91 105.931 294.042 106.272C294.174 106.612 294.372 106.923 294.627 107.185C294.88 107.447 295.186 107.656 295.521 107.798C295.857 107.941 296.22 108.014 296.583 108.014C296.948 108.014 297.311 107.941 297.647 107.798C297.982 107.656 298.288 107.447 298.541 107.185C298.796 106.923 298.994 106.612 299.126 106.272C299.258 105.931 299.319 105.567 299.308 105.202V104.424C299.3 104.199 299.22 103.983 299.08 103.808H300.149C300.072 103.891 300.015 103.988 299.976 104.094C299.938 104.199 299.918 104.312 299.924 104.424V105.202C299.913 105.567 299.973 105.931 300.105 106.272C300.237 106.612 300.435 106.923 300.691 107.185C300.944 107.447 301.249 107.656 301.585 107.798C301.92 107.941 302.283 108.014 302.646 108.014C303.012 108.014 303.375 107.941 303.711 107.798C304.046 107.656 304.351 107.447 304.604 107.185C304.86 106.923 305.058 106.612 305.19 106.272C305.322 105.931 305.383 105.567 305.372 105.202V104.424C305.369 104.158 305.264 103.903 305.075 103.715C304.888 103.527 304.632 103.421 304.365 103.42H294.831C294.699 103.411 294.564 103.431 294.44 103.478C294.317 103.525 294.204 103.6 294.11 103.695C294.02 103.791 293.948 103.906 293.904 104.032C293.86 104.158 293.846 104.292 293.86 104.424ZM300.928 103.778H304.332C304.494 103.783 304.648 103.85 304.761 103.964C304.877 104.079 304.943 104.232 304.948 104.394V105.172C304.948 105.792 304.701 106.386 304.263 106.825C303.826 107.263 303.229 107.51 302.611 107.51C301.992 107.51 301.395 107.263 300.958 106.825C300.521 106.386 300.273 105.792 300.273 105.172V104.394C300.301 104.235 300.38 104.089 300.499 103.978C300.617 103.867 300.768 103.797 300.928 103.778ZM294.152 104.424C294.157 104.262 294.223 104.109 294.339 103.995C294.451 103.88 294.605 103.814 294.768 103.808H298.205C298.367 103.814 298.521 103.88 298.634 103.995C298.75 104.109 298.816 104.262 298.821 104.424V105.202C298.821 105.822 298.574 106.417 298.136 106.855C297.699 107.294 297.102 107.54 296.484 107.54C295.865 107.54 295.268 107.294 294.831 106.855C294.394 106.417 294.146 105.822 294.146 105.202L294.152 104.424Z" fill="black"/>
<path d="M293.975 101.169C290.422 100.894 286.473 95.0448 291.692 91.445C291.692 91.445 294.591 90.2188 294.591 93.2878C297.003 88.8878 298.35 94.2338 298.35 94.2338C298.35 94.2338 301.007 88.8353 305.957 92.7925C308.206 90.0948 309.466 93.0675 308.924 94.0988C311.715 92.2535 314.46 96.7773 312.257 100.735C311.899 101.375 311.737 102.497 311.179 102.357C309.496 101.939 308.847 102.858 308.811 104.345C308.784 105.382 307.585 105.28 307.596 104.274C307.596 103.215 307.684 100.399 306.991 100.399C306.135 100.399 305.64 102.063 304.741 100.982C303.842 99.9013 306.003 98.606 304.741 97.7508C303.539 96.934 297.415 101.431 293.975 101.169Z" fill="black"/>
<path d="M308.352 105.72C308.06 107.018 307.736 107.992 309.424 107.86C312.634 107.634 312.999 103.322 311.11 102.478C309.46 101.733 308.91 103.322 308.91 103.322L308.352 105.72Z" fill="#FC9D9D"/>
<path opacity="0.15" d="M311.3 104.5C311.234 104.596 311.138 104.596 311.006 104.563C310.923 104.489 310.824 104.436 310.717 104.407C310.61 104.379 310.497 104.377 310.39 104.401C310.227 104.401 310.098 104.563 309.936 104.792C309.757 105.086 309.655 105.421 309.644 105.765L309.581 106.153C309.581 106.252 309.482 106.315 309.353 106.315C309.224 106.315 309.191 106.219 309.191 106.09L309.257 105.699C309.273 105.28 309.386 104.871 309.581 104.5C309.664 104.363 309.771 104.245 309.897 104.15C310.027 104.056 310.172 103.988 310.326 103.95C310.648 103.908 310.97 103.99 311.234 104.178C311.3 104.195 311.336 104.291 311.3 104.5Z" fill="black"/>
<path opacity="0.15" d="M282.65 133.101L283.525 129.737C283.61 129.066 284.79 129.124 284.825 129.828L288.2 175.726H284.9L282.65 133.101Z" fill="#231F20"/>
</svg>
