<svg width="440" height="330" viewBox="0 0 440 330" fill="none" xmlns="http://www.w3.org/2000/svg">
<path d="M76.5925 289.818H353.311L379.428 206.028C380.303 203.22 380.355 200.22 379.579 197.382L348.361 83.2323C346.678 77.0806 341.379 72.6035 335.035 71.971L140.651 52.5973C135.063 52.0418 129.618 54.569 126.436 59.1945L59.4958 156.52C57.2518 159.781 56.3525 163.78 56.9795 167.69L76.5925 289.818Z" fill="#EFEFEF"/>
<path d="M297.74 209.517H144.086C142.208 209.517 140.685 207.994 140.685 206.115V95.4389C140.685 93.5606 142.208 92.0371 144.086 92.0371H297.74C299.618 92.0371 301.142 93.5606 301.142 95.4389V206.115C301.142 207.994 299.618 209.517 297.74 209.517Z" fill="#F4B01A"/>
<path opacity="0.15" d="M297.74 209.517H144.086C142.208 209.517 140.685 207.994 140.685 206.115V95.4389C140.685 93.5606 142.208 92.0371 144.086 92.0371H297.74C299.618 92.0371 301.142 93.5606 301.142 95.4389V206.115C301.142 207.994 299.618 209.517 297.74 209.517Z" fill="white"/>
<path d="M216.5 289.597L227.145 210.337L216.5 203.17L223.108 109.868L216.5 101.97L220.564 60.5605L224.375 60.94L220.985 100.752L226.606 112.027L221.021 198.842L231.594 209.028L219.117 289.597H216.5Z" fill="white"/>
<path d="M220.563 60.5611L140.23 52.4541C135.137 51.9398 130.168 54.2361 127.259 58.4463L59.2237 156.902C57.164 159.88 56.3362 163.54 56.9082 167.115L76.59 289.815L216.496 289.595L227.141 210.334L216.496 203.168L223.107 109.863L216.496 101.968L220.563 60.5611Z" fill="#DCDCDC"/>
<path d="M295.19 209.517H141.487C139.623 209.517 138.11 208.005 138.11 206.14V95.4141C138.11 93.5496 139.623 92.0371 141.487 92.0371H295.19C297.055 92.0371 298.567 93.5496 298.567 95.4141V206.14C298.567 208.005 297.055 209.517 295.19 209.517Z" fill="#F4B01A"/>
<path opacity="0.3" d="M295.165 209.517H141.512C139.634 209.517 138.11 207.994 138.11 206.115V95.4389C138.11 93.5606 139.634 92.0371 141.512 92.0371H295.165C297.044 92.0371 298.567 93.5606 298.567 95.4389V206.115C298.567 207.994 297.044 209.517 295.165 209.517Z" fill="white"/>
<path opacity="0.6" d="M292.416 206.757H144.196C142.521 206.757 141.166 205.398 141.166 203.726V97.3782C141.166 95.7034 142.524 94.3477 144.196 94.3477H292.416C294.09 94.3477 295.446 95.7062 295.446 97.3782V203.726C295.446 205.398 294.088 206.757 292.416 206.757Z" fill="white"/>
<path d="M280.569 191.922H243.975C243.68 191.922 243.441 191.683 243.441 191.389V124.52C243.441 124.226 243.68 123.986 243.975 123.986H280.569C280.864 123.986 281.103 124.226 281.103 124.52V191.389C281.103 191.683 280.864 191.922 280.569 191.922Z" fill="white"/>
<path opacity="0.8" d="M282.651 188.851H249.367C249.098 188.851 248.881 188.634 248.881 188.364V127.545C248.881 127.276 249.098 127.059 249.367 127.059H282.651C282.92 127.059 283.137 127.276 283.137 127.545V188.364C283.137 188.634 282.92 188.851 282.651 188.851Z" fill="white"/>
<path opacity="0.6" d="M284.458 129H283.138V186.909H284.458C284.711 186.909 284.914 186.706 284.914 186.453V129.457C284.914 129.204 284.711 129 284.458 129Z" fill="white"/>
<path d="M276.521 151.077H248.023C247.632 151.077 247.316 150.76 247.316 150.37V141.509C247.316 141.119 247.632 140.803 248.023 140.803H276.518C276.909 140.803 277.225 141.119 277.225 141.509V150.37C277.225 150.76 276.909 151.077 276.521 151.077Z" fill="#F4B01A"/>
<path opacity="0.5" d="M276.521 151.077H248.023C247.632 151.077 247.316 150.76 247.316 150.37V141.509C247.316 141.119 247.632 140.803 248.023 140.803H276.518C276.909 140.803 277.225 141.119 277.225 141.509V150.37C277.225 150.76 276.909 151.077 276.521 151.077Z" fill="white"/>
<path d="M276.521 138.096H248.023C247.632 138.096 247.316 137.78 247.316 137.39V128.529C247.316 128.139 247.632 127.822 248.023 127.822H276.518C276.909 127.822 277.225 128.139 277.225 128.529V137.39C277.225 137.78 276.909 138.096 276.521 138.096Z" fill="#F4B01A"/>
<path d="M275.421 164.797C275.344 164.797 275.284 164.737 275.284 164.66C275.284 164.583 275.344 164.522 275.421 164.522H276.521C276.598 164.522 276.664 164.583 276.664 164.66C276.664 164.737 276.607 164.797 276.532 164.797V164.66L276.53 164.797H275.421ZM274.324 164.797H273.224C273.147 164.797 273.086 164.737 273.086 164.66C273.086 164.583 273.147 164.522 273.224 164.522H274.324C274.401 164.522 274.461 164.583 274.461 164.66C274.461 164.737 274.398 164.797 274.324 164.797ZM272.124 164.797H271.024C270.947 164.797 270.886 164.737 270.886 164.66C270.886 164.583 270.947 164.522 271.024 164.522H272.124C272.201 164.522 272.261 164.583 272.261 164.66C272.261 164.737 272.201 164.797 272.124 164.797ZM269.927 164.797H268.827C268.75 164.797 268.689 164.737 268.689 164.66C268.689 164.583 268.75 164.522 268.827 164.522H269.927C270.004 164.522 270.064 164.583 270.064 164.66C270.064 164.737 270.001 164.797 269.927 164.797ZM267.727 164.797H266.627C266.55 164.797 266.489 164.737 266.489 164.66C266.489 164.583 266.55 164.522 266.627 164.522H267.727C267.804 164.522 267.864 164.583 267.864 164.66C267.864 164.737 267.804 164.797 267.727 164.797ZM265.529 164.797H264.429C264.352 164.797 264.292 164.737 264.292 164.66C264.292 164.583 264.352 164.522 264.429 164.522H265.529C265.606 164.522 265.667 164.583 265.667 164.66C265.667 164.737 265.604 164.797 265.529 164.797ZM263.329 164.797H262.229C262.152 164.797 262.092 164.737 262.092 164.66C262.092 164.583 262.152 164.522 262.229 164.522H263.329C263.406 164.522 263.467 164.583 263.467 164.66C263.467 164.737 263.406 164.797 263.329 164.797ZM261.132 164.797H260.032C259.955 164.797 259.895 164.737 259.895 164.66C259.895 164.583 259.955 164.522 260.032 164.522H261.132C261.209 164.522 261.27 164.583 261.27 164.66C261.27 164.737 261.206 164.797 261.132 164.797ZM258.932 164.797H257.832C257.755 164.797 257.695 164.737 257.695 164.66C257.695 164.583 257.755 164.522 257.832 164.522H258.932C259.009 164.522 259.07 164.583 259.07 164.66C259.07 164.737 259.009 164.797 258.932 164.797ZM256.735 164.797H255.635C255.558 164.797 255.497 164.737 255.497 164.66C255.497 164.583 255.558 164.522 255.635 164.522H256.735C256.812 164.522 256.872 164.583 256.872 164.66C256.872 164.737 256.812 164.797 256.735 164.797ZM254.535 164.797H253.435C253.358 164.797 253.297 164.737 253.297 164.66C253.297 164.583 253.358 164.522 253.435 164.522H254.535C254.612 164.522 254.672 164.583 254.672 164.66C254.672 164.737 254.612 164.797 254.535 164.797ZM252.338 164.797H251.238C251.161 164.797 251.1 164.737 251.1 164.66C251.1 164.583 251.161 164.522 251.238 164.522H252.338C252.415 164.522 252.475 164.583 252.475 164.66C252.475 164.737 252.415 164.797 252.338 164.797ZM250.138 164.797H249.038C248.961 164.797 248.9 164.737 248.9 164.66C248.9 164.583 248.961 164.522 249.038 164.522H250.138C250.215 164.522 250.275 164.583 250.275 164.66C250.275 164.737 250.215 164.797 250.138 164.797ZM247.94 164.792C247.935 164.792 247.929 164.792 247.924 164.792C247.498 164.742 247.179 164.382 247.179 163.953V163.881C247.179 163.804 247.239 163.744 247.316 163.744C247.393 163.744 247.454 163.804 247.454 163.881V163.953C247.454 164.242 247.671 164.486 247.957 164.519C248.031 164.528 248.086 164.596 248.078 164.671C248.07 164.742 248.009 164.792 247.94 164.792ZM277.225 164.09C277.148 164.09 277.088 164.03 277.088 163.953V162.853C277.088 162.776 277.148 162.715 277.225 162.715C277.302 162.715 277.363 162.776 277.363 162.853V163.953C277.363 164.03 277.302 164.09 277.225 164.09ZM247.316 162.919C247.239 162.919 247.179 162.858 247.179 162.781V161.681C247.179 161.604 247.239 161.544 247.316 161.544C247.393 161.544 247.454 161.604 247.454 161.681V162.781C247.454 162.858 247.393 162.919 247.316 162.919ZM277.225 161.893C277.148 161.893 277.088 161.833 277.088 161.756V160.656C277.088 160.579 277.148 160.518 277.225 160.518C277.302 160.518 277.363 160.579 277.363 160.656V161.756C277.363 161.83 277.302 161.893 277.225 161.893ZM247.316 160.722C247.239 160.722 247.179 160.661 247.179 160.584V159.484C247.179 159.407 247.239 159.347 247.316 159.347C247.393 159.347 247.454 159.407 247.454 159.484V160.584C247.454 160.661 247.393 160.722 247.316 160.722ZM277.225 159.693C277.148 159.693 277.088 159.633 277.088 159.556V158.456C277.088 158.379 277.148 158.318 277.225 158.318C277.302 158.318 277.363 158.379 277.363 158.456V159.556C277.363 159.633 277.302 159.693 277.225 159.693ZM247.316 158.524C247.239 158.524 247.179 158.464 247.179 158.387V157.287C247.179 157.21 247.239 157.149 247.316 157.149C247.393 157.149 247.454 157.21 247.454 157.287V158.387C247.454 158.461 247.393 158.524 247.316 158.524ZM277.225 157.496C277.148 157.496 277.088 157.435 277.088 157.358V156.258C277.088 156.181 277.148 156.121 277.225 156.121C277.302 156.121 277.363 156.181 277.363 156.258V157.358C277.363 157.433 277.302 157.496 277.225 157.496ZM247.316 156.324C247.239 156.324 247.179 156.264 247.179 156.187V155.092C247.179 155.015 247.239 154.952 247.316 154.952C247.393 154.952 247.454 155.013 247.454 155.087V156.187C247.454 156.264 247.393 156.324 247.316 156.324ZM277.225 155.296C277.148 155.296 277.088 155.235 277.088 155.158V155.092C277.088 154.801 276.871 154.559 276.582 154.526C276.508 154.518 276.453 154.449 276.461 154.375C276.469 154.3 276.538 154.243 276.612 154.254C277.041 154.3 277.363 154.661 277.363 155.092V155.158C277.363 155.235 277.302 155.296 277.225 155.296ZM275.498 154.523H274.398C274.321 154.523 274.261 154.463 274.261 154.386C274.261 154.309 274.321 154.248 274.398 154.248H275.498C275.575 154.248 275.636 154.309 275.636 154.386C275.636 154.463 275.573 154.523 275.498 154.523ZM273.298 154.523H272.198C272.121 154.523 272.061 154.463 272.061 154.386C272.061 154.309 272.121 154.248 272.198 154.248H273.298C273.375 154.248 273.436 154.309 273.436 154.386C273.436 154.463 273.375 154.523 273.298 154.523ZM271.101 154.523H270.001C269.924 154.523 269.863 154.463 269.863 154.386C269.863 154.309 269.924 154.248 270.001 154.248H271.101C271.178 154.248 271.238 154.309 271.238 154.386C271.238 154.463 271.175 154.523 271.101 154.523ZM268.901 154.523H267.801C267.724 154.523 267.663 154.463 267.663 154.386C267.663 154.309 267.724 154.248 267.801 154.248H268.901C268.978 154.248 269.038 154.309 269.038 154.386C269.038 154.463 268.978 154.523 268.901 154.523ZM266.704 154.523H265.604C265.527 154.523 265.466 154.463 265.466 154.386C265.466 154.309 265.527 154.248 265.604 154.248H266.704C266.781 154.248 266.841 154.309 266.841 154.386C266.841 154.463 266.781 154.523 266.704 154.523ZM264.504 154.523H263.404C263.327 154.523 263.266 154.463 263.266 154.386C263.266 154.309 263.327 154.248 263.404 154.248H264.504C264.581 154.248 264.641 154.309 264.641 154.386C264.641 154.463 264.581 154.523 264.504 154.523ZM262.306 154.523H261.206C261.129 154.523 261.069 154.463 261.069 154.386C261.069 154.309 261.129 154.248 261.206 154.248H262.306C262.383 154.248 262.444 154.309 262.444 154.386C262.444 154.463 262.383 154.523 262.306 154.523ZM260.109 154.523H259.009C258.932 154.523 258.872 154.463 258.872 154.386C258.872 154.309 258.932 154.248 259.009 154.248H260.109C260.186 154.248 260.247 154.309 260.247 154.386C260.247 154.463 260.183 154.523 260.109 154.523ZM257.909 154.523H256.809C256.732 154.523 256.672 154.463 256.672 154.386C256.672 154.309 256.732 154.248 256.809 154.248H257.909C257.986 154.248 258.047 154.309 258.047 154.386C258.047 154.463 257.986 154.523 257.909 154.523ZM255.712 154.523H254.612C254.535 154.523 254.474 154.463 254.474 154.386C254.474 154.309 254.535 154.248 254.612 154.248H255.712C255.789 154.248 255.849 154.309 255.849 154.386C255.849 154.463 255.786 154.523 255.712 154.523ZM253.512 154.523H252.412C252.335 154.523 252.274 154.463 252.274 154.386C252.274 154.309 252.335 154.248 252.412 154.248H253.512C253.589 154.248 253.649 154.309 253.649 154.386C253.649 154.463 253.589 154.523 253.512 154.523ZM251.315 154.523H250.215C250.138 154.523 250.077 154.463 250.077 154.386C250.077 154.309 250.138 154.248 250.215 154.248H251.315C251.392 154.248 251.452 154.309 251.452 154.386C251.452 154.463 251.389 154.523 251.315 154.523ZM249.115 154.523H248.023C247.946 154.523 247.883 154.463 247.883 154.386C247.883 154.309 247.94 154.248 248.017 154.248H249.117C249.194 154.248 249.255 154.309 249.255 154.386C249.255 154.463 249.192 154.523 249.115 154.523Z" fill="#61656D"/>
<path d="M271.736 136.361H250.14C249.884 136.361 249.678 136.155 249.678 135.899V134.458C249.678 134.202 249.884 133.996 250.14 133.996H271.739C271.994 133.996 272.201 134.202 272.201 134.458V135.899C272.201 136.155 271.992 136.361 271.736 136.361Z" fill="white"/>
<path opacity="0.5" d="M254.743 148.955H250.178C249.68 148.955 249.276 148.55 249.276 148.053V143.826C249.276 143.328 249.68 142.924 250.178 142.924H254.743C255.241 142.924 255.645 143.328 255.645 143.826V148.053C255.645 148.55 255.241 148.955 254.743 148.955Z" fill="white"/>
<path d="M274.277 131.691H254.823C254.6 131.691 254.419 131.51 254.419 131.287C254.419 131.064 254.6 130.883 254.823 130.883H274.277C274.499 130.883 274.681 131.064 274.681 131.287C274.681 131.51 274.499 131.691 274.277 131.691Z" fill="#F4B01A"/>
<path opacity="0.3" d="M274.277 131.691H254.823C254.6 131.691 254.419 131.51 254.419 131.287C254.419 131.064 254.6 130.883 254.823 130.883H274.277C274.499 130.883 274.681 131.064 274.681 131.287C274.681 131.51 274.499 131.691 274.277 131.691Z" fill="white"/>
<path d="M274.401 148.015H257.617C257.362 148.015 257.155 147.809 257.155 147.553V146.112C257.155 145.857 257.362 145.65 257.617 145.65H274.401C274.656 145.65 274.863 145.857 274.863 146.112V147.553C274.863 147.809 274.656 148.015 274.401 148.015Z" fill="white"/>
<path opacity="0.3" d="M272.198 144.287H257.56C257.337 144.287 257.155 144.105 257.155 143.883C257.155 143.66 257.337 143.479 257.56 143.479H272.198C272.421 143.479 272.602 143.66 272.602 143.883C272.602 144.105 272.421 144.287 272.198 144.287Z" fill="white"/>
<path d="M251.328 132.94C252.24 132.94 252.98 132.201 252.98 131.288C252.98 130.375 252.24 129.635 251.328 129.635C250.415 129.635 249.675 130.375 249.675 131.288C249.675 132.201 250.415 132.94 251.328 132.94Z" fill="#F4B01A"/>
<path opacity="0.3" d="M251.328 132.94C252.24 132.94 252.98 132.201 252.98 131.288C252.98 130.375 252.24 129.635 251.328 129.635C250.415 129.635 249.675 130.375 249.675 131.288C249.675 132.201 250.415 132.94 251.328 132.94Z" fill="white"/>
<path d="M295.441 103.497H141.166V97.2434C141.166 95.6429 142.464 94.3477 144.061 94.3477H292.545C294.145 94.3477 295.441 95.6457 295.441 97.2434V103.497Z" fill="#F4B01A"/>
<path d="M206.341 287.559H166.752C166.43 287.559 166.147 287.842 166.147 288.164V289.167C166.147 289.489 166.43 289.772 166.752 289.772H206.344C206.665 289.772 206.949 289.489 206.949 289.167V288.164C206.946 287.836 206.701 287.559 206.341 287.559Z" fill="#21252B"/>
<path opacity="0.6" d="M206.341 287.559H166.752C166.43 287.559 166.147 287.842 166.147 288.164V289.167C166.147 289.489 166.43 289.772 166.752 289.772H206.344C206.665 289.772 206.949 289.489 206.949 289.167V288.164C206.946 287.836 206.701 287.559 206.341 287.559Z" fill="black"/>
<path d="M178.558 287.559H109.536C109.214 287.559 108.931 287.842 108.931 288.164V289.167C108.931 289.489 109.214 289.772 109.536 289.772H178.558C178.88 289.772 179.163 289.489 179.163 289.167V288.164C179.119 287.836 178.88 287.559 178.558 287.559Z" fill="#21252B"/>
<g opacity="0.6">
<path opacity="0.6" d="M109.483 287.958H179.745C179.866 287.958 179.946 287.881 179.946 287.757C179.946 287.634 179.869 287.557 179.745 287.557H109.483C109.362 287.557 109.282 287.634 109.282 287.757C109.282 287.881 109.4 287.958 109.483 287.958Z" fill="black"/>
</g>
<path d="M178.513 287.559H168.116C167.313 287.559 166.631 286.998 166.468 286.195L161.903 240.383C161.703 239.341 162.508 238.414 163.551 238.414H173.948C174.751 238.414 175.433 238.975 175.596 239.778L180.161 285.59C180.32 286.632 179.556 287.559 178.513 287.559Z" fill="#21252B"/>
<path opacity="0.6" d="M178.513 287.559H168.116C167.313 287.559 166.631 286.998 166.468 286.195L161.903 240.383C161.703 239.341 162.508 238.414 163.551 238.414H173.948C174.751 238.414 175.433 238.975 175.596 239.778L180.161 285.59C180.32 286.632 179.556 287.559 178.513 287.559Z" fill="black"/>
<path opacity="0.6" d="M177.592 287.559H167.194C166.391 287.559 165.709 286.998 165.547 286.195L160.982 240.383C160.781 239.341 161.587 238.414 162.629 238.414H173.027C173.83 238.414 174.512 238.975 174.674 239.778L179.239 285.59C179.399 286.632 178.634 287.559 177.592 287.559Z" fill="black"/>
<path d="M177.652 287.559H110.882C110.079 287.559 109.397 286.998 109.235 286.195L104.67 240.383C104.469 239.341 105.275 238.414 106.317 238.414H173.043C173.846 238.414 174.528 238.975 174.691 239.778L179.256 285.59C179.454 286.632 178.695 287.559 177.652 287.559Z" fill="#21252B"/>
<path d="M176.127 286.393H111.9C111.136 286.393 110.487 285.857 110.33 285.093L106.177 241.442C105.988 240.449 106.752 239.566 107.748 239.566H171.935C172.7 239.566 173.349 240.103 173.506 240.867L177.661 284.515C177.848 285.516 177.122 286.393 176.127 286.393Z" fill="white"/>
<path d="M176.168 286.393H111.862C111.021 286.393 110.317 285.753 110.237 284.914L106.148 241.227C106.057 240.27 106.813 239.443 107.776 239.445L171.743 239.566C172.579 239.569 173.278 240.202 173.363 241.032L177.793 284.598C177.89 285.557 177.133 286.393 176.168 286.393Z" fill="#F4B01A"/>
<path opacity="0.7" d="M176.168 286.393H111.862C111.021 286.393 110.317 285.753 110.237 284.914L106.148 241.227C106.057 240.27 106.813 239.443 107.776 239.445L171.743 239.566C172.579 239.569 173.278 240.202 173.363 241.032L177.793 284.598C177.89 285.557 177.133 286.393 176.168 286.393Z" fill="white"/>
<path d="M129.121 269.417H120.948L119.82 266.309C118.019 267.492 116.465 266.57 116.465 266.57L115.272 255.961H127.606L129.121 269.417Z" fill="white"/>
<path d="M161.356 251.853H117.284C115.698 251.853 114.358 250.667 114.169 249.092C113.943 247.224 115.401 245.58 117.284 245.58H161.356C162.943 245.58 164.282 246.765 164.472 248.341C164.694 250.208 163.237 251.853 161.356 251.853Z" fill="white"/>
<path d="M124.492 281.163H117.68L116.847 273.732H123.656L124.492 281.163Z" fill="white"/>
<path d="M133.859 281.163H127.047L126.214 273.732H133.023L133.859 281.163Z" fill="white"/>
<path d="M156.637 198.226C158.612 199.735 160.677 206.005 161.606 211.349C162.596 217.041 160.545 218.172 165.539 221.276C168.27 222.973 166.642 224.648 167.128 226.724C167.612 228.798 167.538 231.135 166.301 232.865C165.443 234.067 163.278 235.741 161.906 236.28C160.352 236.894 158.631 237.224 157.006 236.852C154.96 236.388 153.285 234.853 152.193 233.063C149.627 228.861 149.957 223.597 149.856 218.672C149.699 211.241 148.368 203.893 147.04 196.584" fill="#263238"/>
<path d="M163.576 230.153C166.148 230.153 168.234 228.067 168.234 225.494C168.234 222.922 166.148 220.836 163.576 220.836C161.003 220.836 158.917 222.922 158.917 225.494C158.917 228.067 161.003 230.153 163.576 230.153Z" fill="#263238"/>
<path d="M182.121 254.899C182.121 254.899 173.69 233.29 173.373 232.764L173.338 232.66C172.284 230.834 170.667 229.462 168.418 228.76L161.075 226.723L159.178 226.195L142.84 226.055L139.958 226.651L132.052 228.373C128.469 229.146 126.219 232.66 126.992 236.243C128.117 241.268 129.065 245.976 129.065 245.976L131.491 261.084C132.052 263.895 132.335 266.777 132.123 269.623C131.562 277.598 129.211 286.392 129.211 286.392H172.804C172.804 286.392 167.612 269.868 169.966 261.752L171.371 257.396L175.274 264.01C176.434 266.328 178.681 267.34 181.071 266.251L182.121 254.899Z" fill="#F4B01A"/>
<path d="M171.3 257.326L176.533 266.115C177.531 267.793 179.341 268.821 181.296 268.821C184.516 268.821 187.06 266.085 186.824 262.873L186.23 254.774L184.822 232.37L177.897 232.246L176.03 249.687" fill="#F4B01A"/>
<path opacity="0.6" d="M177.722 233.881L184.927 234.04L184.82 232.368L177.89 232.297L177.722 233.881Z" fill="black"/>
<path d="M179.872 235.991C180.18 236.11 180.331 236.456 180.213 236.764C180.095 237.072 179.748 237.223 179.44 237.105C179.132 236.987 178.981 236.64 179.099 236.332C179.22 236.024 179.567 235.873 179.872 235.991Z" fill="white"/>
<path opacity="0.6" d="M183.213 242.148C183.378 242.212 183.458 242.393 183.406 242.525L182.85 244.346C182.787 244.511 182.606 244.59 182.474 244.538C182.309 244.475 182.229 244.293 182.281 244.161L182.837 242.341C182.867 242.165 183.048 242.085 183.213 242.148Z" fill="black"/>
<path opacity="0.6" d="M149.903 234.592C150.115 234.628 150.324 234.628 150.535 234.628C154.19 234.628 157.562 232.73 159.635 229.744L161.569 226.862L161.04 226.722L160.092 226.441L147.233 227.145L141.084 226.408L139.959 226.653L139.431 226.757L139.676 227.109L141.573 229.815C143.473 232.59 146.529 234.383 149.903 234.592Z" fill="black"/>
<path d="M132.756 224.265C132.756 224.265 143.291 222.516 136.922 210.466L144.422 202.139C144.422 202.139 142.777 202.903 143.759 207.166C144.622 210.919 147.037 215.724 147.815 220.52C148.032 221.856 147.766 225.36 146.459 227.326C145.893 228.181 144.57 228.706 144.57 228.706L139.906 230.854L132.756 224.265Z" fill="#263238"/>
<path d="M135.424 198.638C133.697 196.702 131 195.728 128.285 196.336C124.298 197.227 121.787 201.179 122.675 205.172C123.566 209.159 127.518 211.67 131.511 210.782C132.702 210.515 133.761 209.976 134.635 209.245C133.821 208.334 133.224 207.212 132.938 205.939C132.311 203.14 133.362 200.357 135.424 198.638Z" fill="#263238"/>
<path d="M137.117 201.946C136.831 200.673 136.235 199.551 135.423 198.641C133.364 200.359 132.31 203.14 132.935 205.939C133.221 207.212 133.817 208.334 134.631 209.245C136.688 207.523 137.739 204.743 137.117 201.946Z" fill="#F4B01A"/>
<path d="M146.748 193.003C145.415 193.124 144.295 193.773 143.539 194.702C143.336 194.955 143.055 195.128 142.739 195.192C142.208 195.296 141.309 195.541 140.148 196.184C135.966 198.5 134.068 202.449 135.886 207.952C137.126 211.716 139.202 214.362 142.758 215.399C143.542 215.624 141.826 208.133 143.976 203.761C144.323 203.059 144.733 202.43 145.175 201.858C146.077 202.281 147.117 202.427 148.165 202.19C150.846 201.594 152.468 198.789 151.547 196.116C150.857 194.116 148.849 192.813 146.748 193.003Z" fill="#263238"/>
<path d="M155.243 209.574L156.86 224.122C156.965 225.035 157.633 225.807 158.513 226.055L160.094 226.476L158.513 228.758C156.687 231.393 153.734 233.045 150.538 233.01C150.362 232.974 150.15 232.974 149.977 232.974C147.026 232.798 144.356 231.217 142.668 228.794L141.015 226.404L142.42 226.016C143.369 225.772 144.037 224.892 144.073 223.907L144.425 211.645L155.243 209.574Z" fill="#FB9C9C"/>
<path d="M160.388 209.544L156.648 200.433C155.974 198.772 154.041 197.974 152.38 198.651L143.236 202.402C141.938 202.946 141.309 204.407 141.853 205.705L145.89 215.53C147.477 219.402 151.88 221.25 155.752 219.664L156.269 219.441C160.138 217.851 161.972 213.416 160.388 209.544Z" fill="#FB9C9C"/>
<path d="M151.921 209.797C152.368 209.797 152.73 209.435 152.73 208.988C152.73 208.542 152.368 208.18 151.921 208.18C151.475 208.18 151.113 208.542 151.113 208.988C151.113 209.435 151.475 209.797 151.921 209.797Z" fill="#21252B"/>
<path d="M152.353 209.299C152.45 209.299 152.529 209.22 152.529 209.123C152.529 209.026 152.45 208.947 152.353 208.947C152.256 208.947 152.177 209.026 152.177 209.123C152.177 209.22 152.256 209.299 152.353 209.299Z" fill="white"/>
<path d="M157.866 207.646C158.313 207.646 158.675 207.284 158.675 206.838C158.675 206.391 158.313 206.029 157.866 206.029C157.42 206.029 157.058 206.391 157.058 206.838C157.058 207.284 157.42 207.646 157.866 207.646Z" fill="#21252B"/>
<path d="M158.354 207.09C158.451 207.09 158.53 207.012 158.53 206.914C158.53 206.817 158.451 206.738 158.354 206.738C158.257 206.738 158.178 206.817 158.178 206.914C158.178 207.012 158.257 207.09 158.354 207.09Z" fill="white"/>
<g opacity="0.3">
<path opacity="0.3" d="M156.921 210.909C156.698 210.392 156.104 210.197 155.62 210.408C155.521 210.444 155.458 210.579 155.504 210.711C155.54 210.81 155.675 210.873 155.807 210.826C156.06 210.697 156.329 210.824 156.459 211.077C156.588 211.33 156.461 211.599 156.208 211.728L155.207 212.166C155.108 212.201 155.045 212.336 155.092 212.468C155.128 212.567 155.262 212.63 155.394 212.584L156.395 212.146C156.879 211.932 157.121 211.36 156.921 210.909Z" fill="black"/>
</g>
<path d="M159.635 203.951C159.39 205.235 158.967 206.135 158.967 206.135L157.157 201.746C157.003 201.317 156.497 201.163 156.126 201.372C154.471 202.268 150.282 204.119 146.71 202.197C146.71 202.197 146.614 205.035 144.169 206.327L144.664 207.493C145.195 208.758 145.508 210.139 145.566 211.538C145.585 211.904 145.148 212.138 144.843 211.912C144.345 211.569 143.6 211.054 143.545 211.112C143.124 211.602 142.91 214.629 142.453 214.085C141.4 212.823 139.86 211.25 138.556 209.404L136.964 209.344C137.861 208.31 137.253 207.147 137.253 207.147C135.974 204.432 135.625 201.196 137.863 197.362C140.314 192.387 151.16 189.244 155.543 196.353C155.672 196.606 155.934 196.809 156.2 196.826C156.968 196.884 158.09 197.736 158.917 200.129C159.159 200.896 159.635 203.951 159.635 203.951Z" fill="#263238"/>
<path d="M145.979 216.673L145.217 212.798C144.345 209.24 139.975 210.241 140.99 213.733C142.002 217.259 145.594 216.703 145.594 216.703L145.979 216.673Z" fill="#FB9C9C"/>
<path opacity="0.3" d="M141.886 212.094C141.955 212.202 142.095 212.202 142.202 212.133C142.45 211.924 142.697 211.822 142.909 211.861C143.121 211.863 143.294 212.042 143.5 212.29C143.778 212.644 143.91 213.313 143.91 213.42C143.91 213.42 143.91 213.42 143.976 213.843C144.006 214.195 144.501 214.061 144.468 213.78L144.438 213.392C144.375 212.9 144.204 212.441 143.926 212.05C143.684 211.66 143.371 211.445 143.022 211.407C142.672 211.368 142.318 211.503 141.963 211.781C141.853 211.847 141.853 211.987 141.886 212.094Z" fill="black"/>
<path d="M157.022 204.371C156.087 204.784 155.408 205.59 155.188 206.53C154.209 206.511 153.555 206.97 153.271 207.223C152.331 206.481 151.014 206.247 149.859 206.775C148.222 207.517 147.469 209.47 148.211 211.106C148.954 212.742 150.906 213.496 152.543 212.753C154.179 212.011 154.932 210.058 154.19 208.422C154.039 208.103 153.808 207.776 153.568 207.526C153.797 207.33 154.344 206.984 155.075 206.943C154.979 207.501 155.081 208.098 155.331 208.681C156.074 210.317 158.026 211.07 159.662 210.328C161.299 209.585 162.052 207.633 161.31 205.997C160.556 204.327 158.615 203.607 157.022 204.371ZM152.345 212.412C150.893 213.048 149.177 212.437 148.541 210.985C147.906 209.533 148.517 207.817 149.969 207.182C151.421 206.547 153.137 207.157 153.772 208.609C154.429 210.014 153.786 211.741 152.345 212.412ZM159.497 209.976C158.045 210.611 156.329 210.001 155.694 208.549C155.059 207.097 155.669 205.381 157.121 204.745C158.573 204.11 160.289 204.721 160.925 206.173C161.582 207.581 160.936 209.308 159.497 209.976Z" fill="white"/>
<path d="M144.553 216.203C144.942 216.203 145.257 215.888 145.257 215.499C145.257 215.11 144.942 214.795 144.553 214.795C144.165 214.795 143.849 215.11 143.849 215.499C143.849 215.888 144.165 216.203 144.553 216.203Z" fill="#F4B01A"/>
<path opacity="0.15" d="M145.002 216.065C144.895 216.169 144.755 216.238 144.614 216.235C144.227 216.266 143.88 215.947 143.85 215.559C143.817 215.311 143.924 215.102 144.103 214.965C144.031 215.105 143.993 215.245 143.993 215.386C144.023 215.806 144.405 216.128 144.829 216.098C144.898 216.098 144.933 216.101 145.002 216.065Z" fill="black"/>
<path opacity="0.15" d="M144.232 219.134L145.434 216.662L144.276 216.676L144.232 219.134Z" fill="black"/>
<path opacity="0.15" d="M156.475 220.668C155.834 220.632 155.267 220.509 154.83 220.379C153.285 220.751 152.014 220.649 151.175 220.503C151.052 220.473 150.972 220.352 151.002 220.231C151.032 220.107 151.154 220.027 151.275 220.058C151.957 220.184 152.924 220.283 154.121 220.074C154.187 220.049 154.264 220.06 154.33 220.036C154.506 220.008 154.673 219.95 154.849 219.923C154.882 219.912 154.882 219.912 154.915 219.898C155.025 219.895 155.157 219.849 155.259 219.813C155.556 219.706 155.82 219.609 156.117 219.502C156.191 219.472 156.266 219.444 156.34 219.414L156.475 220.668Z" fill="black"/>
<path d="M153.73 214.489C153.598 214.535 153.601 214.648 153.67 214.733C154.341 215.349 155.248 215.583 156.106 215.272C156.964 214.962 157.514 214.203 157.635 213.301C157.632 213.191 157.531 213.114 157.432 213.149L153.73 214.489Z" fill="white"/>
<path opacity="0.15" d="M169.79 242.99V246.257L170.635 247.733C172.111 250.404 172.461 253.53 171.583 256.412L171.303 257.325L176.536 266.114C177.699 268.21 180.944 269.475 183.334 268.383L184.178 267.995C182.176 268.664 179.437 267.462 178.629 265.881L173.517 257.006C174.185 253.704 173.588 250.261 171.864 247.379L170.879 245.726L170.107 242.951C170.035 242.778 169.755 242.814 169.79 242.99Z" fill="black"/>
<path d="M184.863 264.388L185.32 264.176L184.863 264.388Z" fill="black"/>
<path d="M164.767 231.324C165.096 231.324 165.363 231.057 165.363 230.728C165.363 230.398 165.096 230.131 164.767 230.131C164.437 230.131 164.17 230.398 164.17 230.728C164.17 231.057 164.437 231.324 164.767 231.324Z" fill="white"/>
<path d="M175.799 244.608C176.129 244.608 176.396 244.34 176.396 244.011C176.396 243.681 176.129 243.414 175.799 243.414C175.469 243.414 175.202 243.681 175.202 244.011C175.202 244.34 175.469 244.608 175.799 244.608Z" fill="white"/>
<path d="M179.559 264.317C179.888 264.317 180.155 264.049 180.155 263.72C180.155 263.39 179.888 263.123 179.559 263.123C179.229 263.123 178.962 263.39 178.962 263.72C178.962 264.049 179.229 264.317 179.559 264.317Z" fill="white"/>
<path d="M132.861 237.016C133.19 237.016 133.457 236.749 133.457 236.419C133.457 236.09 133.19 235.822 132.861 235.822C132.531 235.822 132.264 236.09 132.264 236.419C132.264 236.749 132.531 237.016 132.861 237.016Z" fill="white"/>
<path d="M133.706 253.53C133.706 253.86 133.439 254.127 133.109 254.127C132.779 254.127 132.512 253.86 132.512 253.53C132.512 253.2 132.779 252.934 133.109 252.934C133.436 252.934 133.706 253.2 133.706 253.53Z" fill="white"/>
<path d="M146.108 253.706C146.108 254.036 145.841 254.303 145.511 254.303C145.181 254.303 144.914 254.036 144.914 253.706C144.914 253.376 145.181 253.109 145.511 253.109C145.841 253.109 146.108 253.376 146.108 253.706Z" fill="white"/>
<path d="M154.646 242.85C154.976 242.85 155.243 242.582 155.243 242.253C155.243 241.924 154.976 241.656 154.646 241.656C154.316 241.656 154.049 241.924 154.049 242.253C154.049 242.582 154.316 242.85 154.646 242.85Z" fill="white"/>
<path d="M144.455 268.815C144.785 268.815 145.052 268.547 145.052 268.218C145.052 267.888 144.785 267.621 144.455 267.621C144.126 267.621 143.858 267.888 143.858 268.218C143.858 268.547 144.126 268.815 144.455 268.815Z" fill="white"/>
<path d="M159.635 261.541C159.965 261.541 160.232 261.274 160.232 260.944C160.232 260.615 159.965 260.348 159.635 260.348C159.305 260.348 159.038 260.615 159.038 260.944C159.038 261.274 159.305 261.541 159.635 261.541Z" fill="white"/>
<path d="M167.577 248.718C167.577 249.048 167.31 249.315 166.98 249.315C166.65 249.315 166.383 249.048 166.383 248.718C166.383 248.388 166.65 248.121 166.98 248.121C167.307 248.118 167.577 248.388 167.577 248.718Z" fill="white"/>
<path d="M136.268 281.533C136.598 281.533 136.865 281.8 136.865 282.13C136.865 282.46 136.598 282.727 136.268 282.727C135.938 282.727 135.671 282.46 135.671 282.13C135.671 281.8 135.938 281.533 136.268 281.533Z" fill="white"/>
<path d="M163.009 280.762C163.338 280.762 163.605 280.495 163.605 280.165C163.605 279.835 163.338 279.568 163.009 279.568C162.679 279.568 162.412 279.835 162.412 280.165C162.412 280.495 162.679 280.762 163.009 280.762Z" fill="white"/>
<path opacity="0.6" d="M149.199 278.513C149.339 278.584 149.375 278.758 149.303 278.901L148.355 280.553C148.283 280.694 148.11 280.729 147.967 280.658C147.827 280.586 147.791 280.413 147.862 280.27L148.811 278.617C148.883 278.48 149.059 278.408 149.199 278.513Z" fill="black"/>
<path opacity="0.6" d="M168.841 232.485C168.981 232.557 169.017 232.73 168.946 232.873L167.997 234.526C167.925 234.666 167.752 234.702 167.609 234.63C167.469 234.559 167.433 234.385 167.505 234.242L168.453 232.59C168.525 232.449 168.701 232.414 168.841 232.485Z" fill="black"/>
<path opacity="0.6" d="M157.985 252.933C157.985 253.073 157.845 253.213 157.704 253.213H155.771C155.631 253.213 155.491 253.073 155.491 252.933C155.491 252.793 155.631 252.652 155.771 252.652H157.704C157.878 252.652 158.018 252.793 157.985 252.933Z" fill="black"/>
<path opacity="0.6" d="M141.751 245.099C141.647 245.17 141.471 245.17 141.364 245.027L140.239 243.482C140.167 243.377 140.167 243.201 140.31 243.094C140.415 243.022 140.591 243.022 140.698 243.165L141.823 244.711C141.927 244.815 141.892 244.991 141.751 245.099Z" fill="black"/>
<path opacity="0.6" d="M138.097 229.146C138.132 229.322 137.992 229.463 137.852 229.463L135.954 229.639C135.778 229.674 135.638 229.534 135.638 229.394C135.602 229.218 135.743 229.078 135.883 229.078L137.78 228.902C137.921 228.866 138.061 228.97 138.097 229.146Z" fill="black"/>
<path opacity="0.6" d="M163.711 272.329C163.606 272.401 163.43 272.401 163.323 272.258L162.198 270.712C162.127 270.608 162.127 270.432 162.27 270.324C162.374 270.253 162.55 270.253 162.658 270.396L163.782 271.941C163.887 272.049 163.851 272.258 163.711 272.329Z" fill="black"/>
<path opacity="0.6" d="M176.853 251C176.924 251.14 176.888 251.316 176.748 251.388L175.095 252.336C174.955 252.408 174.779 252.372 174.708 252.232C174.636 252.092 174.672 251.916 174.812 251.844L176.465 250.895C176.605 250.788 176.781 250.86 176.853 251Z" fill="black"/>
<path opacity="0.6" d="M135.708 268.814C135.708 268.954 135.603 269.095 135.463 269.13L133.565 269.482C133.425 269.482 133.285 269.378 133.249 269.238C133.249 269.097 133.354 268.957 133.494 268.921L135.391 268.569C135.532 268.534 135.672 268.638 135.708 268.814Z" fill="black"/>
<path d="M183.076 270.897C183.098 270.938 183.079 270.991 183.037 271.013L182.776 271.145L182.699 270.994L182.96 270.861C183.001 270.839 183.054 270.856 183.076 270.897Z" fill="#3F4249"/>
<path d="M183.076 270.897C183.098 270.938 183.079 270.991 183.037 271.013L182.776 271.145L182.699 270.994L182.96 270.861C183.001 270.839 183.054 270.856 183.076 270.897Z" fill="black"/>
<path d="M179.955 271.676L180.12 272.003L165.185 279.5L165.058 279.247C165.039 279.206 165.055 279.156 165.094 279.134L179.955 271.676Z" fill="#3F4249"/>
<path d="M180.191 272.15L180.581 272.929L165.72 280.387C165.679 280.406 165.63 280.389 165.608 280.351L165.253 279.647L180.191 272.15Z" fill="#3F4249"/>
<path d="M179.955 271.676L180.12 272.003L165.185 279.5L165.058 279.247C165.039 279.206 165.055 279.156 165.094 279.134L179.955 271.676Z" fill="black"/>
<path d="M180.191 272.15L180.581 272.929L165.72 280.387C165.679 280.406 165.63 280.389 165.608 280.351L165.253 279.647L180.191 272.15Z" fill="black"/>
<path d="M164.249 279.977L164.541 280.557C164.574 280.623 164.653 280.651 164.722 280.618L165.539 280.208L165.126 279.389L164.31 279.798C164.244 279.831 164.216 279.911 164.249 279.977Z" fill="#3F4249"/>
<path d="M179.954 271.676L180.584 272.93L181.417 272.512C181.764 272.338 182.987 271.373 182.814 271.027C182.641 270.68 181.134 271.084 180.787 271.258L179.954 271.676Z" fill="#3F4249"/>
<path d="M167.769 279.358L166.267 280.111L167.076 280.37L167.367 280.224L168.58 279.616L172.284 277.757L172.922 277.438L172.864 277.32C172.776 277.144 172.562 277.073 172.386 277.161C172.254 277.227 172.18 277.364 172.191 277.504L168.214 279.501L167.769 279.358Z" fill="#3F4249"/>
<path d="M180.121 272.02L165.184 279.515L165.258 279.663L180.195 272.167L180.121 272.02Z" fill="white"/>
<path d="M140.101 242.648L139.988 264.967L156.901 269.172L156.582 276.737L134.406 274.65C131.725 274.405 129.64 272.252 129.439 269.601L126.841 235.336L140.101 242.648Z" fill="#F4B01A"/>
<path opacity="0.15" d="M139.978 264.019C139.992 264.591 140.399 265.086 140.952 265.198L142.291 265.482L155.433 268.82L142.217 264.596L140.806 247.477C140.784 247.213 140.523 247.037 140.27 247.117C140.099 247.172 139.981 247.331 139.981 247.51L139.978 264.019Z" fill="black"/>
<path opacity="0.6" d="M156.607 276.762L155.028 276.594L155.432 268.822L156.95 269.169L156.607 276.762Z" fill="black"/>
<path opacity="0.6" d="M134.525 267.424C134.508 267.55 134.393 267.682 134.217 267.668L132.314 267.495C132.187 267.479 132.055 267.363 132.069 267.187C132.085 267.061 132.201 266.929 132.377 266.942L134.28 267.116C134.428 267.105 134.538 267.248 134.525 267.424Z" fill="black"/>
<path opacity="0.6" d="M129.882 242.904C130.034 242.943 130.144 243.086 130.103 243.237L129.728 245.104C129.69 245.256 129.547 245.366 129.396 245.324C129.244 245.286 129.134 245.143 129.176 244.992L129.55 243.124C129.588 242.973 129.731 242.866 129.882 242.904Z" fill="black"/>
<path opacity="0.6" d="M151.374 269.567C151.525 269.605 151.635 269.748 151.594 269.899L151.22 271.767C151.181 271.918 151.038 272.028 150.887 271.987C150.736 271.948 150.626 271.805 150.667 271.654L151.041 269.787C151.055 269.613 151.223 269.525 151.374 269.567Z" fill="black"/>
<g opacity="0.15">
<path opacity="0.15" d="M134.712 274.73L156.61 276.762L156.668 274.991L135.094 272.59C132.361 272.299 130.089 270.357 129.322 267.77L129.47 269.629C129.685 272.15 131.426 274.375 134.712 274.73Z" fill="black"/>
</g>
<path d="M156.901 269.172L171.113 272.252L173.607 271.996C173.813 271.955 174.039 271.949 174.242 272.048L176.948 273.195L176.145 273.781C175.846 273.998 175.887 274.457 176.187 274.633L178.373 275.832L178.238 276.198C178.103 276.564 177.787 276.721 177.399 276.693L177.072 276.649C176.904 276.641 176.737 276.773 176.654 276.897L176.522 277.122C176.313 277.444 175.873 277.518 175.491 277.463L175.142 277.389C174.955 277.348 174.79 277.455 174.696 277.631C174.523 278.043 174.267 278.186 173.83 278.12L173.145 278.03L172.936 278.222C172.548 278.588 172.163 278.673 171.671 278.483L168.929 277.408L156.579 276.74L156.901 269.172Z" fill="#FA9B9B"/>
<path opacity="0.15" d="M175.145 277.389C174.958 277.348 174.793 277.455 174.7 277.631C174.526 278.044 174.271 278.187 173.833 278.121L173.149 278.03L172.94 278.223C172.552 278.588 172.167 278.674 171.675 278.484L168.933 277.409L156.583 276.74L156.665 275.129L169.015 275.797L171.757 276.872C171.757 276.872 173.451 277.59 173.776 277.59C174.1 277.59 174.361 277.42 174.548 277.235C174.733 277.048 175.145 277.389 175.145 277.389Z" fill="black"/>
<path d="M184.803 217C184.803 217 184.806 222.671 184.176 223.116L184.82 232.37L177.895 232.246C177.895 232.246 179.597 224.907 178.082 220.683C177.56 219.225 177.065 217.834 177.29 216.725L184.374 216.588C184.611 216.585 184.8 216.769 184.803 217Z" fill="#FB9C9C"/>
<path d="M177.278 216.8L177.386 209.54C177.391 209.245 177.639 209.012 177.933 209.028C178.189 209.042 178.395 209.24 178.42 209.496L179.212 216.725L177.278 216.8Z" fill="#FB9C9C"/>
<path d="M177.895 232.245L178.038 223.258C176.124 222.048 176.311 216.63 176.302 216.537C176.159 215.764 175.832 213.853 175.832 213.853C175.802 213.74 175.871 213.633 175.986 213.602C176.44 213.476 176.976 213.729 177.221 214.279L177.757 215.516L178.37 217.348C178.37 217.348 179.622 217.593 179.987 218.624C180.678 220.574 179.809 221.682 179.809 221.682L177.895 232.245Z" fill="#FB9C9C"/>
<path opacity="0.15" d="M178.992 216.326L179.091 220.963C179.096 221.282 179.324 221.554 179.635 221.617C180.023 221.697 180.4 221.43 180.449 221.034L181.134 216.554L178.992 216.326Z" fill="black"/>
<path opacity="0.15" d="M181.132 216.557L180.474 221.523C180.436 221.864 180.683 222.192 181.044 222.269C181.409 222.348 181.764 222.145 181.847 221.809L182.93 216.623L181.132 216.557Z" fill="black"/>
<path opacity="0.15" d="M183.183 216.521L182.212 220.715C182.138 221.04 182.418 221.419 182.743 221.485C183.034 221.546 183.323 221.381 183.419 221.097L184.805 217.151C184.805 217.151 184.893 216.752 184.5 216.587L183.183 216.521Z" fill="black"/>
<path d="M179.154 216.425L179.237 220.687C179.242 221.006 179.47 221.278 179.781 221.342C180.169 221.421 180.546 221.155 180.595 220.759L181.131 216.557C181.186 216.133 180.884 215.748 180.458 215.701L180.001 215.649C179.545 215.6 179.146 215.963 179.154 216.425Z" fill="#FB9C9C"/>
<path d="M181.112 216.678L180.51 221.21C180.466 221.551 180.689 221.867 181.027 221.936C181.368 222.004 181.704 221.795 181.792 221.46L182.941 217.046C183.057 216.606 182.784 216.158 182.342 216.053L182.105 215.998C181.638 215.883 181.176 216.202 181.112 216.678Z" fill="#FB9C9C"/>
<path d="M182.891 216.744L182.204 220.402C182.143 220.729 182.363 221.04 182.691 221.092C182.985 221.139 183.265 220.963 183.351 220.677L184.415 217.096C184.511 216.772 184.31 216.436 183.978 216.367L183.571 216.285C183.26 216.222 182.952 216.428 182.891 216.744Z" fill="#FB9C9C"/>
<path opacity="0.15" d="M176.899 241.569L176.134 248.719L175.081 236.889L176.899 241.569Z" fill="black"/>
<path d="M108.758 173.028C107.781 168.188 110.911 163.472 115.751 162.496C120.591 161.517 125.307 164.649 126.283 169.489C126.674 171.419 126.41 173.328 125.645 174.989C124.776 177.126 121.955 179.911 122.213 181.187L122.508 182.645C122.565 182.936 122.378 183.22 122.087 183.277L120.679 183.561L119.384 183.822L117.976 184.105C117.684 184.163 117.401 183.976 117.343 183.684L117.049 182.227C116.79 180.951 113.111 179.48 111.48 177.849C110.133 176.614 109.148 174.959 108.758 173.028Z" fill="#F4B01A"/>
<path d="M120.997 183.342C120.942 183.125 120.076 179.638 119.735 176.497C119.397 176.607 119.034 176.704 118.638 176.783C118.242 176.863 117.868 176.915 117.516 176.946C118.42 179.971 118.973 183.521 119.009 183.744L118.852 183.768C118.844 183.713 118.272 180.042 117.348 176.959C114.675 177.122 113.215 175.887 112.725 174.539C112.439 173.753 112.552 172.887 112.997 172.485C113.267 172.24 113.627 172.128 114.045 172.163C114.7 172.216 115.395 172.631 115.907 173.272C116.498 174.014 117.023 175.334 117.469 176.794C117.826 176.767 118.206 176.715 118.607 176.632C119.009 176.552 119.377 176.453 119.718 176.341C119.562 174.823 119.534 173.398 119.79 172.485C120.013 171.696 120.491 171.044 121.074 170.742C121.445 170.549 121.822 170.511 122.166 170.632C122.73 170.832 123.172 171.583 123.214 172.419C123.285 173.852 122.419 175.56 119.894 176.445C120.241 179.643 121.137 183.251 121.151 183.304L120.997 183.342ZM121.528 170.742C121.401 170.766 121.275 170.813 121.148 170.879C120.604 171.162 120.153 171.778 119.941 172.526C119.694 173.404 119.721 174.792 119.875 176.283C122.292 175.422 123.123 173.791 123.054 172.427C123.016 171.663 122.611 170.956 122.111 170.78C121.927 170.714 121.729 170.7 121.528 170.742ZM113.63 172.337C113.426 172.378 113.25 172.466 113.105 172.598C112.714 172.955 112.615 173.764 112.876 174.482C113.344 175.766 114.741 176.946 117.304 176.8C116.867 175.364 116.352 174.075 115.786 173.362C115.302 172.755 114.647 172.361 114.034 172.312C113.891 172.304 113.754 172.312 113.63 172.337Z" fill="white" stroke="white" stroke-width="2" stroke-miterlimit="10"/>
<path d="M122.545 181.764L116.968 182.891L117.505 185.55C117.593 185.985 117.802 186.384 118.11 186.705C118.69 187.31 119.537 187.574 120.359 187.409L121.176 187.244C121.995 187.079 122.675 186.505 122.974 185.724C123.134 185.311 123.17 184.86 123.082 184.426L122.545 181.764Z" fill="#28364C"/>
<path d="M117.332 184.685C117.348 184.682 117.365 184.68 117.378 184.674L122.84 182.969C123.027 182.911 123.126 182.713 123.06 182.526C122.994 182.339 122.79 182.238 122.603 182.295L117.142 184C116.955 184.058 116.856 184.256 116.922 184.443C116.982 184.611 117.158 184.713 117.332 184.685Z" fill="#475577"/>
<path d="M117.577 185.9C117.593 185.897 117.61 185.895 117.623 185.889L123.085 184.184C123.272 184.126 123.371 183.928 123.305 183.741C123.239 183.554 123.035 183.453 122.848 183.51L117.387 185.215C117.2 185.273 117.101 185.471 117.167 185.658C117.227 185.829 117.403 185.928 117.577 185.9Z" fill="#475577"/>
<path d="M118.041 187.06C118.057 187.057 118.074 187.055 118.087 187.049L123.263 185.432C123.45 185.374 123.549 185.176 123.483 184.989C123.417 184.802 123.213 184.701 123.026 184.758L117.851 186.375C117.664 186.433 117.565 186.631 117.631 186.818C117.694 186.986 117.87 187.088 118.041 187.06Z" fill="#475577"/>
<path d="M115.227 155.278C115.172 155.011 114.914 154.838 114.647 154.893C114.38 154.948 114.207 155.206 114.262 155.473L115.054 159.398C115.098 159.62 115.291 159.78 115.508 159.794C115.549 159.796 115.593 159.794 115.637 159.785C115.904 159.733 116.077 159.472 116.022 159.205L115.227 155.278Z" fill="#32353A"/>
<path d="M122.246 155.028C122.116 154.998 121.984 155.023 121.874 155.094C121.762 155.166 121.687 155.276 121.657 155.405L120.796 159.316C120.739 159.582 120.906 159.844 121.173 159.904C121.198 159.91 121.223 159.912 121.247 159.915C121.289 159.918 121.333 159.915 121.374 159.907C121.566 159.868 121.718 159.72 121.759 159.53L122.62 155.62C122.647 155.49 122.625 155.358 122.554 155.248C122.482 155.133 122.372 155.056 122.246 155.028Z" fill="#32353A"/>
<path d="M129.468 158.571C129.449 158.441 129.377 158.326 129.273 158.249C129.053 158.089 128.745 158.136 128.582 158.356L126.217 161.587C126.058 161.807 126.105 162.115 126.325 162.275C126.402 162.333 126.492 162.363 126.586 162.368C126.627 162.371 126.671 162.368 126.712 162.36C126.833 162.335 126.941 162.267 127.012 162.168L129.377 158.939C129.457 158.832 129.49 158.703 129.468 158.571Z" fill="#32353A"/>
<path d="M108.386 158.085C108.309 157.977 108.196 157.906 108.067 157.884C107.938 157.862 107.806 157.892 107.699 157.966C107.591 158.043 107.52 158.156 107.498 158.285C107.476 158.415 107.506 158.547 107.58 158.654L109.89 161.924C109.978 162.047 110.116 162.122 110.262 162.133C110.303 162.135 110.347 162.133 110.391 162.124C110.46 162.111 110.52 162.083 110.578 162.045C110.685 161.968 110.757 161.855 110.779 161.726C110.801 161.596 110.77 161.464 110.696 161.357L108.386 158.085Z" fill="#32353A"/>
<path d="M106.581 165.553L103.146 163.496C102.913 163.356 102.61 163.433 102.47 163.666C102.401 163.779 102.382 163.911 102.415 164.04C102.448 164.167 102.528 164.277 102.64 164.343L106.075 166.4C106.144 166.441 106.221 166.466 106.298 166.469C106.339 166.471 106.383 166.469 106.424 166.46C106.559 166.433 106.677 166.348 106.749 166.232C106.892 165.996 106.815 165.693 106.581 165.553Z" fill="#32353A"/>
<path d="M360.998 290.038H72.7647C72.6547 290.038 72.5447 289.955 72.5447 289.818C72.5447 289.68 72.6547 289.598 72.7647 289.598H361.025C361.135 289.598 361.245 289.68 361.245 289.818C361.245 289.955 361.135 290.038 360.998 290.038Z" fill="#ADB1B6"/>
<path d="M227.838 287.559H267.43C267.752 287.559 268.035 287.842 268.035 288.164V289.167C268.035 289.489 267.752 289.772 267.43 289.772H227.838C227.516 289.772 227.233 289.489 227.233 289.167V288.164C227.233 287.836 227.478 287.559 227.838 287.559Z" fill="#21252B"/>
<path opacity="0.6" d="M227.838 287.559H267.43C267.752 287.559 268.035 287.842 268.035 288.164V289.167C268.035 289.489 267.752 289.772 267.43 289.772H227.838C227.516 289.772 227.233 289.489 227.233 289.167V288.164C227.233 287.836 227.478 287.559 227.838 287.559Z" fill="black"/>
<path d="M255.621 287.559H324.643C324.965 287.559 325.248 287.842 325.248 288.164V289.167C325.248 289.489 324.965 289.772 324.643 289.772H255.621C255.3 289.772 255.016 289.489 255.016 289.167V288.164C255.063 287.836 255.3 287.559 255.621 287.559Z" fill="#21252B"/>
<g opacity="0.6">
<path opacity="0.6" d="M324.699 287.958H254.436C254.315 287.958 254.236 287.881 254.236 287.757C254.236 287.634 254.313 287.557 254.436 287.557H324.699C324.82 287.557 324.899 287.634 324.899 287.757C324.899 287.881 324.781 287.958 324.699 287.958Z" fill="black"/>
</g>
<path d="M313.313 287.559H323.711C324.514 287.559 325.196 286.998 325.358 286.195L329.923 240.383C330.124 239.341 329.318 238.414 328.276 238.414H317.878C317.075 238.414 316.393 238.975 316.231 239.778L311.666 285.59C311.506 286.632 312.271 287.559 313.313 287.559Z" fill="#21252B"/>
<path opacity="0.6" d="M313.313 287.559H323.711C324.514 287.559 325.196 286.998 325.358 286.195L329.923 240.383C330.124 239.341 329.318 238.414 328.276 238.414H317.878C317.075 238.414 316.393 238.975 316.231 239.778L311.666 285.59C311.506 286.632 312.271 287.559 313.313 287.559Z" fill="black"/>
<path d="M255.86 287.559H322.629C323.432 287.559 324.114 286.998 324.277 286.195L328.842 240.383C329.042 239.341 328.237 238.414 327.194 238.414H260.469C259.666 238.414 258.984 238.975 258.821 239.778L254.256 285.59C254.058 286.632 254.817 287.559 255.86 287.559Z" fill="#21252B"/>
<path d="M257.386 286.393H321.612C322.377 286.393 323.026 285.856 323.182 285.092L327.338 241.444C327.527 240.451 326.763 239.568 325.767 239.568H261.58C260.815 239.568 260.166 240.105 260.009 240.869L255.854 284.517C255.665 285.515 256.391 286.393 257.386 286.393Z" fill="#F4B01A"/>
<g opacity="0.7">
<path opacity="0.7" d="M257.386 286.393H321.612C322.377 286.393 323.026 285.856 323.182 285.092L327.338 241.444C327.527 240.451 326.763 239.568 325.767 239.568H261.58C260.815 239.568 260.166 240.105 260.009 240.869L255.854 284.517C255.665 285.515 256.391 286.393 257.386 286.393Z" fill="white"/>
</g>
<path d="M316.965 250.378H287.647C286.3 250.378 285.252 249.207 285.4 247.868C285.527 246.724 286.495 245.857 287.647 245.857H316.965C318.313 245.857 319.36 247.029 319.212 248.368C319.085 249.512 318.117 250.378 316.965 250.378Z" fill="white"/>
<path d="M274.128 280.865H260.865L262.122 267.561H275.385L274.128 280.865Z" fill="white"/>
<path d="M317.187 262.302H309.163L309.924 254.256H317.946L317.187 262.302Z" fill="white"/>
<path d="M315.658 280.159H307.634L309.185 265.133H317.209L315.658 280.159Z" fill="white"/>
<path d="M282.939 169.161H252.736C252.323 169.161 251.988 168.825 251.988 168.413V159.021C251.988 158.609 252.323 158.273 252.736 158.273H282.939C283.352 158.273 283.687 158.609 283.687 159.021V168.413C283.69 168.825 283.354 169.161 282.939 169.161Z" fill="#F4B01A"/>
<path opacity="0.2" d="M282.939 169.161H252.736C252.323 169.161 251.988 168.825 251.988 168.413V159.021C251.988 158.609 252.323 158.273 252.736 158.273H282.939C283.352 158.273 283.687 158.609 283.687 159.021V168.413C283.69 168.825 283.354 169.161 282.939 169.161Z" fill="white"/>
<path d="M277.662 161.335H255.555C255.197 161.335 254.903 161.043 254.903 160.683C254.903 160.325 255.194 160.031 255.555 160.031H277.662C278.019 160.031 278.314 160.323 278.314 160.683C278.311 161.04 278.022 161.335 277.662 161.335Z" fill="#F4B01A"/>
<path opacity="0.15" d="M264.014 167.398H255.827C255.319 167.398 254.906 166.985 254.906 166.476V164.958C254.906 164.45 255.319 164.037 255.827 164.037H264.014C264.523 164.037 264.936 164.45 264.936 164.958V166.476C264.936 166.985 264.523 167.398 264.014 167.398Z" fill="white"/>
<path opacity="0.5" d="M277.662 161.335H255.555C255.197 161.335 254.903 161.043 254.903 160.683C254.903 160.325 255.194 160.031 255.555 160.031H277.662C278.019 160.031 278.314 160.323 278.314 160.683C278.311 161.04 278.022 161.335 277.662 161.335Z" fill="white"/>
<path d="M264.014 167.398H255.827C255.319 167.398 254.906 166.985 254.906 166.476V164.958C254.906 164.45 255.319 164.037 255.827 164.037H264.014C264.523 164.037 264.935 164.45 264.935 164.958V166.476C264.935 166.985 264.523 167.398 264.014 167.398Z" fill="#F4B01A"/>
<path opacity="0.15" d="M264.014 167.398H255.827C255.319 167.398 254.906 166.985 254.906 166.476V164.958C254.906 164.45 255.319 164.037 255.827 164.037H264.014C264.523 164.037 264.935 164.45 264.935 164.958V166.476C264.935 166.985 264.523 167.398 264.014 167.398Z" fill="white"/>
<path d="M264.014 167.398H255.827C255.319 167.398 254.906 166.985 254.906 166.476V164.958C254.906 164.45 255.319 164.037 255.827 164.037H264.014C264.523 164.037 264.935 164.45 264.935 164.958V166.476C264.935 166.985 264.523 167.398 264.014 167.398Z" fill="white"/>
<path d="M232.716 235.31L229.957 232.444L228.277 227.854C228.151 227.461 228.368 227.098 228.767 227.09C229.047 227.087 229.3 227.263 229.421 227.538L231.407 231.66L233.802 233.376L231.407 231.66L229.979 227.854C229.864 227.535 230.051 227.236 230.337 227.186C230.598 227.156 230.851 227.335 230.953 227.582L232.688 231.201L236.126 233.728L232.688 231.201L231.946 228.27C231.907 228.055 232.053 227.865 232.262 227.874C232.424 227.876 232.592 227.995 232.658 228.19L233.961 231.278L237.003 233.814L232.716 235.31Z" fill="#FB9C9C"/>
<path opacity="0.15" d="M232.716 235.31L229.957 232.444L228.277 227.854C228.151 227.461 228.368 227.098 228.767 227.09C229.047 227.087 229.3 227.263 229.421 227.538L231.407 231.66L233.802 233.376L231.407 231.66L229.979 227.854C229.864 227.535 230.051 227.236 230.337 227.186C230.598 227.156 230.851 227.335 230.953 227.582L232.688 231.201L236.126 233.728L232.688 231.201L231.946 228.27C231.907 228.055 232.053 227.865 232.262 227.874C232.424 227.876 232.592 227.995 232.658 228.19L233.961 231.278L237.003 233.814L232.716 235.31Z" fill="black"/>
<path d="M231.539 235.854L237.68 238.533C238.032 238.679 238.34 238.937 238.598 239.231L245.877 248.235L250.805 242.947L243.848 236.578C243.603 236.355 243.408 236.091 243.287 235.816L243.056 235.337C242.278 233.401 240.916 231.936 239.096 231.171L239.077 231.144C238.837 231.036 238.604 230.885 238.403 230.668C237.726 229.912 236.065 228.099 236.065 228.099C235.969 227.967 235.807 227.967 235.7 228.044C235.202 228.413 235.064 229.161 235.43 229.821L236.272 231.347C236.709 232.158 236.335 233.082 235.526 233.192L232.061 233.599C231.847 233.638 231.624 233.555 231.437 233.412L226.517 229.428C226.311 229.257 226.011 229.235 225.866 229.422C225.648 229.623 225.684 230 225.904 230.244C226.99 231.388 230.362 234.812 231.176 235.588C231.278 235.722 231.382 235.808 231.539 235.854Z" fill="#FB9C9C"/>
<path opacity="0.15" d="M245.966 248.133L247.682 244.968C248.29 243.87 248.081 242.487 247.19 241.607L243.073 237.556C242.724 237.248 242.46 236.833 242.314 236.415C241.935 235.238 240.939 232.733 238.945 231.127C238.992 231.135 239.011 231.16 239.031 231.187L239.05 231.215C240.868 231.979 242.232 233.445 243.01 235.381L243.241 235.86C243.381 236.159 243.574 236.423 243.802 236.621L250.759 242.99L245.966 248.133Z" fill="black"/>
<path d="M272.919 170.715C271.527 170.352 270.199 169.326 269.894 167.926C269.833 167.599 269.693 167.123 269.83 166.799C268.211 167.585 267.765 169.158 267.765 169.158H263.753C264.066 172.192 266.412 173.842 266.412 173.842L266.481 175.151C267.149 175.244 268.114 175.395 268.741 175.228C270.848 174.711 272.426 172.813 272.919 170.715Z" fill="#F79898"/>
<path d="M274.514 184.654L273.219 173.973C273.219 173.973 274.883 168.654 275.27 167.508C275.542 166.702 276.244 164.243 276.321 162.816C276.334 162.574 276.191 162.351 275.969 162.261C275.798 162.192 275.606 162.208 275.452 162.307C275.116 162.525 274.484 162.989 273.761 163.779C273.01 164.598 272.424 165.75 272.144 166.042C272.094 166.091 272.034 166.127 271.965 166.141C271.363 166.265 270.705 166.325 269.828 166.798C269.691 167.125 269.834 167.601 269.891 167.926C270.199 169.325 271.525 170.351 272.916 170.714C272.424 172.81 270.848 174.71 268.736 175.224C268.112 175.392 267.144 175.238 266.476 175.147L266.831 185.663L274.514 184.654Z" fill="#F79898"/>
<g opacity="0.15">
<path opacity="0.15" d="M274.862 162.725C274.142 163.328 273.495 164.01 272.954 164.777C272.703 165.132 272.481 165.503 272.269 165.88C272.118 166.149 271.947 166.144 271.661 166.188C271.46 166.221 271.262 166.262 271.064 166.311C269.392 166.732 267.899 167.981 267.61 169.732C267.517 169.752 267.401 171.454 267.635 172.18C267.742 172.518 268.262 172.328 268.152 171.99C267.962 171.399 268.116 170.082 268.133 169.961C268.369 168.148 270.003 167.007 271.711 166.738C272.115 166.674 272.453 166.636 272.684 166.259C272.915 165.882 273.116 165.495 273.372 165.134C273.886 164.406 274.491 163.748 275.176 163.176C275.445 162.954 275.134 162.5 274.862 162.725Z" fill="black"/>
</g>
<path d="M282.194 237.606L270.443 216.497C269.055 214.005 268.252 211.228 268.095 208.381L266.835 185.664L274.516 184.654L279.59 208.447L292.704 222.027L282.194 237.606Z" fill="#3F4249"/>
<path opacity="0.15" d="M274.514 184.654L272.765 184.883L280.478 223.842L276.323 227.057L277.453 229.092L283.336 225.36L274.514 184.654Z" fill="black"/>
<path d="M276.947 218.347L277.42 218.565C280.863 220.08 284.853 218.526 286.355 215.116L290.197 206.415C290.711 205.271 290.18 203.948 289.036 203.434L280.904 199.815C279.419 199.166 277.681 199.832 277.032 201.314L273.466 209.399C271.992 212.825 273.535 216.843 276.947 218.347Z" fill="#F49595"/>
<path d="M274.448 207.256C274.448 207.256 273.235 208.07 272.652 208.708C272.066 209.346 273.414 209.901 273.414 209.901L274.448 207.256Z" fill="#F49595"/>
<path d="M279.028 217.993L282.342 226.037L278.495 228.474L283.379 229.629L292.278 220.191L289.39 213.261L291.046 201.59L280.016 199.568L279.028 217.993Z" fill="#F49595"/>
<g opacity="0.15">
<g opacity="0.15">
<path opacity="0.15" d="M289.39 213.487C289.069 213.044 288.769 212.404 288.51 211.557L285.125 212.657C284.968 212.61 284.82 212.549 284.688 212.467L286.198 214.595L289.39 213.487Z" fill="black"/>
</g>
</g>
<path d="M275.503 203.852L275.289 204.402L286.225 208.696L286.443 208.145L275.503 203.852Z" fill="white"/>
<path d="M274.23 207.091C274.34 207.091 274.447 207.028 274.496 206.92L276.798 202.009C276.867 201.86 276.804 201.684 276.655 201.616C276.507 201.547 276.331 201.61 276.262 201.759L273.963 206.67C273.894 206.819 273.957 206.995 274.106 207.063C274.144 207.083 274.188 207.091 274.23 207.091Z" fill="white"/>
<g opacity="0.3">
<g opacity="0.3">
<g opacity="0.3">
<path opacity="0.3" d="M274.549 212.442C273.66 212.662 272.956 212.483 272.91 212.472L272.945 211.878C272.956 211.881 274.059 212.148 274.983 211.645C275.112 211.573 275.277 211.614 275.363 211.735C275.464 211.881 275.418 212.085 275.261 212.17C275.027 212.296 274.785 212.384 274.549 212.442Z" fill="black"/>
</g>
</g>
</g>
<path d="M309.163 230.646C308.952 227.833 303.075 226.766 301.386 224.659C299.695 222.561 297.377 220.958 294.671 220.146C294.671 220.146 288.095 226.667 284.754 228.24C283.255 228.946 278.495 228.471 278.495 228.471L275.619 230.181C273.13 231.661 271.257 233.984 270.339 236.732L269.781 238.409L281.542 251.439L273.985 269.699L272.979 286.391H308.523L309.163 230.646Z" fill="#3F4249"/>
<path opacity="0.15" d="M276.485 229.669C276.485 229.669 282.153 231.498 286.52 229.628C291.814 227.362 295.884 220.764 295.884 220.764L294.671 220.148C294.671 220.148 286.429 227.755 284.754 228.242C282.211 228.981 278.495 228.473 278.495 228.473L276.485 229.669Z" fill="black"/>
<path d="M281.542 251.444L273.985 269.704C272.621 272.03 270.221 273.235 267.809 273.235C265.79 273.235 263.758 272.388 262.314 270.65L242.448 244.013L247.555 239.973L264.11 255.417L269.781 238.414L281.542 251.444Z" fill="#3F4249"/>
<path d="M283.412 201.527C286.794 200.977 289.225 198.622 288.843 196.265C288.458 193.908 285.408 192.443 282.026 192.992C278.643 193.541 276.212 195.897 276.595 198.254C276.977 200.611 280.029 202.076 283.412 201.527Z" fill="#21252B"/>
<path d="M278.495 228.473C286.585 221.49 287.677 218.306 285.623 212.787C285.254 211.797 284.985 210.606 285.274 209.432L285.133 209.239C285.07 209.154 285.051 209.044 285.078 208.942C286.891 202.532 294.624 205.815 294.624 205.815L300.877 208.994L308.426 215.79L307.164 234.055L304.15 242.712L289.984 238.925C289.982 238.925 276.826 231.498 278.495 228.473Z" fill="#21252B"/>
<path d="M297.297 239.004C299.085 233.225 295.848 227.091 290.071 225.303C284.293 223.515 278.158 226.75 276.37 232.529C274.581 238.308 277.817 244.442 283.594 246.23C289.375 248.019 295.507 244.783 297.297 239.004Z" fill="#21252B"/>
<path d="M305.42 243.438C310.269 243.438 314.201 239.507 314.201 234.658C314.201 229.808 310.269 225.877 305.42 225.877C300.572 225.877 296.639 229.808 296.639 234.658C296.639 239.507 300.572 243.438 305.42 243.438Z" fill="#21252B"/>
<path d="M303.96 230.709C308.665 230.709 312.48 226.895 312.48 222.19C312.48 217.484 308.665 213.67 303.96 213.67C299.255 213.67 295.441 217.484 295.441 222.19C295.441 226.895 299.255 230.709 303.96 230.709Z" fill="#21252B"/>
<path d="M299.296 201.635C299.951 196.974 296.7 192.668 292.042 192.016C287.38 191.361 277.549 194.252 278.217 198.91C279.207 205.769 286.572 207.776 291.233 208.428C295.892 209.08 298.642 206.297 299.296 201.635Z" fill="#21252B"/>
<path d="M308.426 214.931C308.426 214.931 304.667 212.863 302.764 210.336C298.818 205.094 301.54 198.104 295.749 193.473C293.763 191.85 293.059 212.662 293.059 212.662L308.426 214.931Z" fill="#21252B"/>
<path d="M308.66 242.858C308.66 242.858 301.708 249.758 285.813 246.628L291.773 237.605L308.66 242.858Z" fill="#21252B"/>
<path d="M286.602 207.544C286.602 207.544 287.933 206.081 289.388 207.613C291.052 209.368 288.706 213.842 285.128 212.657C283.253 212.035 284.061 211.147 284.955 209.876L286.602 207.544Z" fill="#F49595"/>
<g opacity="0.3">
<g opacity="0.3">
<g opacity="0.3">
<path opacity="0.3" d="M288.987 208.864C288.734 208.479 288.434 208.251 288.096 208.191C287.758 208.13 287.403 208.232 287.04 208.499C286.674 208.765 286.372 209.156 286.168 209.621L285.965 210.011C285.912 210.127 285.967 210.265 286.083 210.314C286.198 210.366 286.336 210.311 286.385 210.195L286.589 209.805C286.627 209.692 286.952 209.126 287.312 208.87C287.573 208.683 287.807 208.606 288.013 208.642C288.222 208.68 288.42 208.84 288.602 209.115C288.671 209.222 288.814 209.252 288.921 209.181C289.025 209.115 289.056 208.972 288.987 208.864Z" fill="black"/>
</g>
</g>
</g>
<path opacity="0.15" d="M279.491 219.111L281.078 219.276C281.485 219.317 281.609 219.851 281.262 220.068L280.168 220.764L279.491 219.111Z" fill="black"/>
<path opacity="0.15" d="M273.985 269.703L282.067 250.178C282.249 249.738 282.912 249.958 282.793 250.42L273.581 276.344L273.985 269.703Z" fill="black"/>
<path d="M170.965 275.839L170.197 274.42L169.249 274.896L170.965 275.839Z" fill="#FA9B9B"/>
<path opacity="0.15" d="M169.249 274.896L170.965 275.839L170.197 274.42" fill="black"/>
<path d="M135.501 242.071C140.532 242.071 144.611 237.992 144.611 232.96C144.611 227.929 140.532 223.85 135.501 223.85C130.469 223.85 126.39 227.929 126.39 232.96C126.39 237.992 130.469 242.071 135.501 242.071Z" fill="#263238"/>
<path d="M144.282 216.676C144.282 216.676 146.209 231.056 143.506 236.154C140.803 241.253 138.905 224.321 138.905 224.321L144.282 216.676Z" fill="#263238"/>
<path d="M173.058 209.555C173.267 209.679 173.465 209.813 173.671 209.943C173.872 210.075 174.07 210.212 174.265 210.352C174.461 210.493 174.689 210.594 174.843 210.781C175 210.966 175.14 211.166 175.22 211.439C175.225 211.455 175.214 211.474 175.198 211.48C175.192 211.483 175.187 211.483 175.184 211.48C174.903 211.436 174.686 211.323 174.48 211.194C174.274 211.067 174.142 210.856 173.977 210.682C173.812 210.509 173.649 210.33 173.49 210.149C173.333 209.965 173.174 209.786 173.022 209.593C173.011 209.582 173.014 209.563 173.028 209.555C173.036 209.549 173.047 209.549 173.058 209.555Z" fill="#F4B01A"/>
<path d="M175.796 210.303C175.752 209.918 175.722 209.533 175.686 209.148L175.604 207.993C175.579 207.608 175.508 207.223 175.549 206.838C175.585 206.453 175.645 206.068 175.796 205.683C175.802 205.666 175.819 205.661 175.835 205.666C175.843 205.669 175.849 205.674 175.851 205.683C176.003 206.068 176.063 206.453 176.099 206.838C176.14 207.223 176.069 207.608 176.044 207.993L175.961 209.148C175.926 209.533 175.895 209.918 175.851 210.303C175.849 210.319 175.835 210.33 175.821 210.327C175.81 210.325 175.799 210.314 175.796 210.303Z" fill="#F4B01A"/>
<path d="M346.803 277.224C346.803 273.261 346.946 270.206 345.227 264.717C343.509 259.228 343.269 254.118 343.269 253.26C343.269 252.402 343.269 252.256 343.509 251.877C343.748 251.497 343.509 250.923 343.509 250.923L343.234 250.191H343.368V249.473C343.368 249.473 343.481 248.723 342.714 248.723H339.359C338.589 248.723 338.704 249.473 338.704 249.473V250.191H338.839L338.564 250.923C338.564 250.923 338.325 251.495 338.564 251.877C338.803 252.259 338.803 252.402 338.803 253.26C338.803 254.121 338.564 259.228 336.845 264.717C335.127 270.206 335.27 273.261 335.27 277.224C335.27 281.186 335.27 287.448 335.27 287.448C335.27 287.448 335.223 289.596 337.274 289.596H344.771C346.825 289.596 346.803 287.448 346.803 287.448C346.803 287.448 346.803 281.186 346.803 277.224Z" fill="#3F4249"/>
<path d="M345.23 264.715C343.511 259.226 343.272 254.117 343.272 253.256C343.272 252.395 343.272 252.253 343.511 251.873C343.75 251.491 343.511 250.919 343.511 250.919L343.236 250.187H343.371V249.469C343.371 249.469 343.483 248.719 342.716 248.719H341.209C341.979 248.719 341.864 249.469 341.864 249.469V250.187H341.729L342.004 250.919C342.004 250.919 342.243 251.491 342.004 251.873C341.765 252.255 341.765 252.398 341.765 253.256C341.765 254.114 342.004 259.224 343.723 264.715C345.441 270.204 345.298 273.26 345.298 277.222C345.298 281.185 345.298 287.447 345.298 287.447C345.298 287.447 345.318 289.595 343.266 289.595H344.773C346.827 289.595 346.805 287.447 346.805 287.447C346.805 287.447 346.805 281.185 346.805 277.222C346.803 273.262 346.946 270.207 345.23 264.715Z" fill="black"/>
<path d="M120.86 269.417L116.381 266.568C116.381 266.568 117.626 267.574 119.736 266.307L120.86 269.417Z" fill="#83878E"/>
<path d="M109.75 241.797C109.974 241.797 110.155 241.616 110.155 241.393C110.155 241.169 109.974 240.988 109.75 240.988C109.527 240.988 109.346 241.169 109.346 241.393C109.346 241.616 109.527 241.797 109.75 241.797Z" fill="#F4B01A"/>
<path d="M111.317 241.797C111.541 241.797 111.722 241.616 111.722 241.393C111.722 241.169 111.541 240.988 111.317 240.988C111.094 240.988 110.913 241.169 110.913 241.393C110.913 241.616 111.094 241.797 111.317 241.797Z" fill="#21252B"/>
<path d="M112.882 241.797C113.106 241.797 113.287 241.616 113.287 241.393C113.287 241.169 113.106 240.988 112.882 240.988C112.659 240.988 112.478 241.169 112.478 241.393C112.478 241.616 112.659 241.797 112.882 241.797Z" fill="#21252B"/>
<path d="M263.299 241.912C263.522 241.912 263.703 241.731 263.703 241.508C263.703 241.284 263.522 241.104 263.299 241.104C263.076 241.104 262.895 241.284 262.895 241.508C262.895 241.731 263.076 241.912 263.299 241.912Z" fill="#F4B01A"/>
<path d="M264.864 241.912C265.087 241.912 265.268 241.731 265.268 241.508C265.268 241.284 265.087 241.104 264.864 241.104C264.64 241.104 264.459 241.284 264.459 241.508C264.459 241.731 264.64 241.912 264.864 241.912Z" fill="#21252B"/>
<path d="M266.431 241.912C266.654 241.912 266.835 241.731 266.835 241.508C266.835 241.284 266.654 241.104 266.431 241.104C266.208 241.104 266.027 241.284 266.027 241.508C266.027 241.731 266.208 241.912 266.431 241.912Z" fill="#21252B"/>
<path d="M339.523 201.588H312.235C310.788 201.588 309.617 200.417 309.617 198.97V192.288C309.617 190.841 310.788 189.67 312.235 189.67H339.523C340.969 189.67 342.141 190.841 342.141 192.288V198.97C342.141 200.414 340.969 201.588 339.523 201.588Z" fill="#F4B01A"/>
<path d="M319.418 197.413C320.402 197.413 321.203 196.614 321.203 195.628C321.203 194.643 320.402 193.844 319.418 193.844C318.433 193.844 317.633 194.643 317.633 195.628C317.633 196.614 318.433 197.413 319.418 197.413Z" fill="white"/>
<path d="M326.384 197.413C327.368 197.413 328.168 196.614 328.168 195.628C328.168 194.643 327.368 193.844 326.384 193.844C325.399 193.844 324.599 194.643 324.599 195.628C324.599 196.614 325.399 197.413 326.384 197.413Z" fill="white"/>
<path d="M333.346 197.413C334.331 197.413 335.131 196.614 335.131 195.628C335.131 194.643 334.331 193.844 333.346 193.844C332.362 193.844 331.562 194.643 331.562 195.628C331.562 196.614 332.362 197.413 333.346 197.413Z" fill="white"/>
<path opacity="0.6" d="M156.45 124.182H146.614V188.21H156.45V124.182Z" fill="white"/>
<path d="M153.876 129.258H149.188V133.947H153.876V129.258Z" fill="#F4B01A"/>
<path d="M151.341 139.156H149.471V141.499H151.341V139.156Z" fill="#61656D"/>
<path d="M153.593 141.387H151.723V143.73H153.593V141.387Z" fill="#61656D"/>
<path d="M151.341 141.859H149.471V143.729H151.341V141.859Z" fill="#61656D"/>
<path d="M153.593 139.156H151.723V141.026H153.593V139.156Z" fill="#61656D"/>
<path d="M153.876 178.445H149.188V183.134H153.876V178.445Z" fill="#61656D"/>
<path d="M151.632 182.351H151.434C151.368 182.351 151.316 182.299 151.316 182.233V179.351C151.316 179.285 151.368 179.232 151.434 179.232H151.632C151.698 179.232 151.751 179.285 151.751 179.351V182.233C151.751 182.296 151.696 182.351 151.632 182.351Z" fill="white"/>
<path d="M153.09 180.692V180.89C153.09 180.956 153.038 181.009 152.972 181.009H150.09C150.024 181.009 149.971 180.956 149.971 180.89V180.692C149.971 180.626 150.024 180.574 150.09 180.574H152.972C153.038 180.574 153.09 180.626 153.09 180.692Z" fill="white"/>
<path d="M150.155 152.826L149.985 152.656C149.93 152.601 149.93 152.51 149.985 152.452L152.454 149.983C152.509 149.928 152.6 149.928 152.658 149.983L152.828 150.153C152.883 150.208 152.883 150.299 152.828 150.357L150.359 152.826C150.301 152.881 150.21 152.881 150.155 152.826Z" fill="#61656D"/>
<path d="M153.12 151.102L151.709 149.691H153.12V151.102Z" fill="#61656D"/>
<path d="M149.313 160.736L151.533 159.141L153.749 160.736L151.533 162.229L149.313 160.736Z" fill="#61656D"/>
<path d="M153.749 161.119L151.533 162.615L149.313 161.119V161.537L151.533 163.091L153.749 161.548V161.119Z" fill="#61656D"/>
<path d="M152.298 170.023C152.323 170.001 152.334 169.97 152.334 169.937V169.401C152.334 169.365 152.323 169.335 152.298 169.313C152.273 169.288 152.243 169.277 152.21 169.277H149.606C149.57 169.277 149.54 169.288 149.518 169.313C149.493 169.338 149.482 169.368 149.482 169.401V169.937C149.482 169.973 149.493 170.001 149.518 170.023C149.542 170.045 149.57 170.056 149.606 170.056H150.45V172.511C150.45 172.547 150.461 172.575 150.486 172.597C150.51 172.619 150.538 172.63 150.574 172.63H151.242C151.278 172.63 151.308 172.619 151.33 172.597C151.355 172.575 151.366 172.544 151.366 172.511V170.056H152.21C152.243 170.056 152.273 170.045 152.298 170.023Z" fill="#61656D"/>
<path d="M153.535 170.501C153.502 170.468 153.458 170.451 153.411 170.451H151.92C151.874 170.451 151.83 170.468 151.797 170.503C151.764 170.536 151.744 170.58 151.744 170.627V170.935C151.744 170.985 151.764 171.029 151.797 171.062C151.83 171.092 151.871 171.108 151.918 171.108H152.297V172.409C152.297 172.459 152.316 172.503 152.352 172.536C152.385 172.566 152.426 172.582 152.473 172.582H152.855C152.902 172.582 152.943 172.566 152.976 172.536C153.012 172.503 153.031 172.459 153.031 172.409V171.108H153.411C153.458 171.108 153.499 171.092 153.532 171.062C153.568 171.029 153.584 170.985 153.584 170.935V170.627C153.584 170.578 153.568 170.536 153.535 170.501Z" fill="#61656D"/>
<path opacity="0.6" d="M254.554 107.912H182.056V118.365H254.554V107.912Z" fill="white"/>
<path d="M219.906 109.986H186.076V116.289H219.906V109.986Z" fill="white"/>
<path d="M189.186 113.882C189.049 113.882 188.93 113.86 188.829 113.817C188.73 113.775 188.655 113.719 188.602 113.649C188.549 113.578 188.521 113.503 188.518 113.422C188.518 113.409 188.523 113.397 188.533 113.387C188.544 113.376 188.557 113.37 188.572 113.37H188.698C188.73 113.37 188.751 113.386 188.763 113.419C188.777 113.489 188.82 113.548 188.889 113.597C188.96 113.647 189.058 113.672 189.186 113.672C189.322 113.672 189.425 113.648 189.494 113.6C189.564 113.551 189.598 113.482 189.598 113.395C189.598 113.339 189.581 113.293 189.546 113.259C189.513 113.224 189.464 113.194 189.398 113.167C189.332 113.141 189.233 113.108 189.101 113.068C188.973 113.032 188.871 112.993 188.795 112.952C188.719 112.911 188.662 112.86 188.624 112.799C188.586 112.738 188.567 112.661 188.567 112.569C188.567 112.48 188.591 112.4 188.639 112.329C188.689 112.258 188.758 112.203 188.849 112.163C188.94 112.122 189.048 112.102 189.173 112.102C189.302 112.102 189.412 112.125 189.504 112.171C189.597 112.215 189.667 112.272 189.715 112.341C189.762 112.411 189.788 112.48 189.791 112.549C189.791 112.562 189.786 112.574 189.776 112.584C189.768 112.594 189.756 112.598 189.739 112.598H189.608C189.574 112.598 189.552 112.583 189.544 112.551C189.534 112.482 189.495 112.426 189.428 112.381C189.36 112.335 189.275 112.312 189.173 112.312C189.061 112.312 188.973 112.333 188.909 112.376C188.844 112.419 188.812 112.482 188.812 112.566C188.812 112.622 188.827 112.669 188.857 112.705C188.888 112.741 188.935 112.773 188.997 112.801C189.06 112.828 189.152 112.858 189.272 112.893C189.412 112.931 189.522 112.97 189.603 113.012C189.684 113.051 189.744 113.101 189.784 113.162C189.823 113.222 189.843 113.297 189.843 113.39C189.843 113.543 189.784 113.663 189.665 113.751C189.546 113.838 189.387 113.882 189.186 113.882Z" fill="#61656D"/>
<path d="M198.758 109.967H192.417V116.308H198.758V109.967Z" fill="#F4B01A"/>
<path d="M194.695 113.673C194.674 113.673 194.656 113.667 194.642 113.654C194.629 113.64 194.623 113.622 194.623 113.601V111.565C194.623 111.542 194.629 111.525 194.642 111.512C194.656 111.498 194.674 111.49 194.695 111.49H194.851C194.884 111.49 194.911 111.507 194.932 111.54L195.59 112.8L196.254 111.54C196.258 111.528 196.266 111.516 196.279 111.506C196.293 111.495 196.311 111.49 196.332 111.49H196.484C196.507 111.49 196.525 111.498 196.538 111.512C196.552 111.525 196.559 111.542 196.559 111.565V113.601C196.559 113.622 196.552 113.64 196.538 113.654C196.523 113.667 196.505 113.673 196.484 113.673H196.332C196.311 113.673 196.293 113.667 196.279 113.654C196.266 113.64 196.26 113.622 196.26 113.601V112.067L195.739 113.084C195.719 113.127 195.685 113.149 195.639 113.149H195.543C195.497 113.149 195.464 113.127 195.443 113.084L194.919 112.067V113.601C194.919 113.622 194.912 113.64 194.897 113.654C194.885 113.667 194.868 113.673 194.847 113.673H194.695Z" fill="white"/>
<path d="M201.525 113.858C201.508 113.858 201.494 113.853 201.483 113.843C201.473 113.831 201.468 113.817 201.468 113.801V112.184C201.468 112.167 201.473 112.154 201.483 112.144C201.494 112.133 201.508 112.127 201.525 112.127H201.656C201.672 112.127 201.685 112.133 201.695 112.144C201.707 112.154 201.713 112.167 201.713 112.184V113.642H202.534C202.552 113.642 202.566 113.648 202.576 113.66C202.587 113.67 202.593 113.684 202.593 113.702V113.801C202.593 113.817 202.587 113.831 202.576 113.843C202.564 113.853 202.55 113.858 202.534 113.858H201.525Z" fill="#61656D"/>
<path d="M206.834 113.858C206.821 113.858 206.809 113.853 206.797 113.843C206.787 113.833 206.782 113.821 206.782 113.808C206.782 113.797 206.786 113.786 206.792 113.776L207.359 112.978L206.82 112.209C206.815 112.2 206.812 112.19 206.812 112.176C206.812 112.163 206.817 112.152 206.827 112.142C206.837 112.132 206.848 112.127 206.862 112.127H207.01C207.035 112.127 207.057 112.141 207.077 112.169L207.512 112.787L207.945 112.169C207.961 112.141 207.983 112.127 208.009 112.127H208.15C208.163 112.127 208.175 112.132 208.184 112.142C208.194 112.152 208.199 112.163 208.199 112.176C208.199 112.191 208.196 112.202 208.189 112.209L207.658 112.98L208.222 113.776C208.228 113.786 208.231 113.797 208.231 113.808C208.231 113.821 208.226 113.833 208.217 113.843C208.207 113.853 208.194 113.858 208.179 113.858H208.029C208.004 113.858 207.982 113.843 207.962 113.816L207.502 113.175L207.045 113.816C207.028 113.843 207.007 113.858 206.98 113.858H206.834ZM208.56 113.858C208.543 113.858 208.529 113.853 208.518 113.843C208.508 113.831 208.503 113.817 208.503 113.801V112.184C208.503 112.167 208.508 112.154 208.518 112.144C208.529 112.133 208.543 112.127 208.56 112.127H208.691C208.707 112.127 208.72 112.133 208.73 112.144C208.742 112.154 208.748 112.167 208.748 112.184V113.642H209.568C209.587 113.642 209.601 113.648 209.611 113.66C209.622 113.67 209.628 113.684 209.628 113.702V113.801C209.628 113.817 209.622 113.831 209.611 113.843C209.599 113.853 209.585 113.858 209.568 113.858H208.56Z" fill="#61656D"/>
<path d="M213.511 113.858C213.497 113.858 213.485 113.853 213.473 113.843C213.464 113.833 213.459 113.821 213.459 113.808C213.459 113.797 213.462 113.786 213.469 113.776L214.035 112.978L213.496 112.209C213.491 112.2 213.488 112.19 213.488 112.176C213.488 112.163 213.493 112.152 213.503 112.142C213.513 112.132 213.525 112.127 213.538 112.127H213.686C213.711 112.127 213.733 112.141 213.753 112.169L214.188 112.787L214.62 112.169C214.637 112.141 214.658 112.127 214.685 112.127H214.826C214.839 112.127 214.851 112.132 214.86 112.142C214.87 112.152 214.875 112.163 214.875 112.176C214.875 112.191 214.872 112.202 214.865 112.209L214.334 112.98L214.897 113.776C214.904 113.786 214.907 113.797 214.907 113.808C214.907 113.821 214.902 113.833 214.892 113.843C214.883 113.853 214.87 113.858 214.856 113.858H214.705C214.68 113.858 214.658 113.843 214.638 113.816L214.178 113.175L213.721 113.816C213.704 113.843 213.683 113.858 213.656 113.858H213.511ZM215.075 113.858C215.062 113.858 215.049 113.853 215.038 113.843C215.028 113.833 215.023 113.821 215.023 113.808C215.023 113.797 215.026 113.786 215.033 113.776L215.599 112.978L215.06 112.209C215.055 112.2 215.053 112.19 215.053 112.176C215.053 112.163 215.058 112.152 215.068 112.142C215.078 112.132 215.089 112.127 215.102 112.127H215.25C215.275 112.127 215.298 112.141 215.317 112.169L215.752 112.787L216.185 112.169C216.202 112.141 216.223 112.127 216.25 112.127H216.39C216.404 112.127 216.415 112.132 216.425 112.142C216.435 112.152 216.44 112.163 216.44 112.176C216.44 112.191 216.437 112.202 216.43 112.209L215.898 112.98L216.462 113.776C216.469 113.786 216.472 113.797 216.472 113.808C216.472 113.821 216.467 113.833 216.457 113.843C216.447 113.853 216.435 113.858 216.42 113.858H216.269C216.245 113.858 216.222 113.843 216.203 113.816L215.742 113.175L215.285 113.816C215.269 113.843 215.247 113.858 215.221 113.858H215.075ZM216.8 113.858C216.784 113.858 216.77 113.853 216.758 113.843C216.748 113.831 216.743 113.817 216.743 113.801V112.184C216.743 112.167 216.748 112.154 216.758 112.144C216.77 112.133 216.784 112.127 216.8 112.127H216.931C216.948 112.127 216.961 112.133 216.971 112.144C216.982 112.154 216.988 112.167 216.988 112.184V113.642H217.809C217.827 113.642 217.841 113.648 217.851 113.66C217.863 113.67 217.868 113.684 217.868 113.702V113.801C217.868 113.817 217.863 113.831 217.851 113.843C217.84 113.853 217.826 113.858 217.809 113.858H216.8Z" fill="#61656D"/>
<path d="M205.238 111.391H204.963V114.886H205.238V111.391Z" fill="#B2B6BB"/>
<path d="M211.579 111.391H211.304V114.886H211.579V111.391Z" fill="#B2B6BB"/>
<path d="M225.244 114.716C226.116 114.716 226.823 114.009 226.823 113.137C226.823 112.265 226.116 111.559 225.244 111.559C224.372 111.559 223.666 112.265 223.666 113.137C223.666 114.009 224.372 114.716 225.244 114.716Z" fill="#F4B01A"/>
<path opacity="0.2" d="M225.244 114.716C226.116 114.716 226.823 114.009 226.823 113.137C226.823 112.265 226.116 111.559 225.244 111.559C224.372 111.559 223.666 112.265 223.666 113.137C223.666 114.009 224.372 114.716 225.244 114.716Z" fill="white"/>
<path d="M231.017 110.346H230.742V115.931H231.017V110.346Z" fill="#B2B6BB"/>
<path d="M229.323 112.762L228.569 113.518L227.813 112.762H229.323Z" fill="#61656D"/>
<path d="M234.445 114.595C234.555 114.582 234.638 114.554 234.69 114.516C234.742 114.474 234.786 114.392 234.822 114.265L235.391 112.189C235.408 112.131 235.422 112.082 235.43 112.041C235.438 111.999 235.441 111.966 235.441 111.936C235.441 111.856 235.419 111.81 235.375 111.788C235.331 111.766 235.24 111.752 235.103 111.738V111.617H236.48V111.738C236.368 111.752 236.285 111.779 236.236 111.821C236.186 111.859 236.142 111.944 236.109 112.071L235.537 114.147L235.501 114.307C235.499 114.32 235.496 114.337 235.493 114.353C235.49 114.37 235.49 114.384 235.49 114.397C235.49 114.474 235.512 114.524 235.554 114.546C235.595 114.568 235.686 114.584 235.826 114.595V114.716H234.448V114.595H234.445Z" fill="#61656D"/>
<path d="M239.847 111.854H242.817" stroke="#61656D" stroke-width="1.5" stroke-miterlimit="10"/>
<path d="M239.847 114.629H242.817" stroke="#61656D" stroke-width="1.5" stroke-miterlimit="10"/>
<path d="M239.847 113.24H242.817" stroke="#61656D" stroke-width="1.5" stroke-miterlimit="10"/>
<path d="M240.41 113.936H242.253" stroke="#61656D" stroke-width="1.5" stroke-miterlimit="10"/>
<path d="M240.353 112.494H242.314" stroke="#61656D" stroke-width="1.5" stroke-miterlimit="10"/>
<path d="M248.058 114.199H247.019C246.488 114.199 246.059 113.77 246.059 113.239C246.059 112.708 246.488 112.279 247.019 112.279H248.058" stroke="#61656D" stroke-width="1.5" stroke-miterlimit="10"/>
<path d="M248.482 114.199H249.521C250.052 114.199 250.481 113.77 250.481 113.239C250.481 112.708 250.052 112.279 249.521 112.279H248.482" stroke="#61656D" stroke-width="1.5" stroke-miterlimit="10"/>
<path d="M247.379 113.24H249.161" stroke="#61656D" stroke-width="1.5" stroke-miterlimit="10"/>
<path d="M284.645 98.6815C284.636 98.621 284.568 98.5743 284.504 98.5743C284.243 98.5798 284.023 98.3708 284.018 98.1095C284.015 97.9693 284.073 97.8373 284.177 97.7438C284.224 97.7025 284.229 97.6283 284.191 97.5788C284.089 97.4523 283.974 97.334 283.847 97.2323C283.798 97.1938 283.726 97.1993 283.682 97.246C283.545 97.3918 283.33 97.4385 283.143 97.367C282.956 97.2873 282.841 97.1003 282.852 96.8968C282.854 96.8335 282.808 96.7785 282.744 96.7703C282.582 96.751 282.42 96.751 282.258 96.7703C282.194 96.7785 282.148 96.8308 282.15 96.894C282.159 97.0948 282.04 97.279 281.853 97.356C281.666 97.4248 281.457 97.378 281.317 97.235C281.276 97.1883 281.204 97.1828 281.155 97.2213C281.026 97.323 280.907 97.4385 280.806 97.5678C280.767 97.6173 280.773 97.6888 280.819 97.7328C280.971 97.8675 281.02 98.0848 280.94 98.2745C280.855 98.456 280.671 98.5715 280.47 98.566C280.407 98.5633 280.352 98.61 280.346 98.6733C280.327 98.8355 280.327 99.0005 280.346 99.1655C280.352 99.2288 280.426 99.2728 280.487 99.2728C280.682 99.27 280.858 99.3883 280.932 99.5698C281.006 99.7568 280.96 99.9686 280.811 100.103C280.764 100.145 280.759 100.216 280.797 100.266C280.899 100.395 281.012 100.51 281.138 100.612C281.188 100.653 281.259 100.648 281.303 100.598C281.441 100.453 281.655 100.403 281.842 100.477C282.029 100.557 282.145 100.744 282.134 100.948C282.131 101.011 282.178 101.066 282.241 101.074C282.324 101.082 282.406 101.088 282.491 101.088C282.571 101.088 282.651 101.082 282.728 101.074C282.791 101.066 282.838 101.014 282.835 100.95C282.827 100.75 282.945 100.565 283.129 100.488C283.316 100.42 283.525 100.466 283.663 100.612C283.704 100.659 283.776 100.664 283.825 100.626C283.954 100.524 284.073 100.409 284.174 100.279C284.216 100.23 284.21 100.158 284.161 100.114C283.963 99.941 283.943 99.6413 284.119 99.4433C284.21 99.3388 284.345 99.281 284.482 99.281H284.51C284.573 99.2838 284.628 99.237 284.636 99.1738C284.661 99.0088 284.661 98.8438 284.645 98.6815ZM282.5 99.6468C282.101 99.6468 281.779 99.3251 281.779 98.9263C281.779 98.5275 282.101 98.2058 282.5 98.2058C282.898 98.2058 283.22 98.5275 283.22 98.9263C283.22 99.3223 282.898 99.6468 282.5 99.6468Z" fill="white"/>
<path d="M288.17 100.565C288.36 100.565 288.511 100.412 288.511 100.224C288.511 100.035 288.36 99.8828 288.17 99.8828C287.983 99.8828 287.829 100.035 287.829 100.224C287.829 100.412 287.983 100.565 288.17 100.565Z" fill="white"/>
<path d="M288.17 99.266C288.36 99.266 288.511 99.1134 288.511 98.925C288.511 98.7366 288.36 98.584 288.17 98.584C287.983 98.584 287.829 98.7366 287.829 98.925C287.829 99.1134 287.983 99.266 288.17 99.266Z" fill="white"/>
<path d="M288.17 97.9691C288.36 97.9691 288.511 97.8162 288.511 97.6281C288.511 97.4397 288.36 97.2871 288.17 97.2871C287.983 97.2871 287.829 97.4397 287.829 97.6281C287.829 97.8162 287.983 97.9691 288.17 97.9691Z" fill="white"/>
<path d="M225.542 153.322H195.836C195.429 153.322 195.099 152.992 195.099 152.585V143.35C195.099 142.943 195.429 142.613 195.836 142.613H225.542C225.949 142.613 226.279 142.943 226.279 143.35V152.585C226.279 152.992 225.949 153.322 225.542 153.322Z" fill="#F4B01A"/>
<path opacity="0.2" d="M225.542 153.322H195.836C195.429 153.322 195.099 152.992 195.099 152.585V143.35C195.099 142.943 195.429 142.613 195.836 142.613H225.542C225.949 142.613 226.279 142.943 226.279 143.35V152.585C226.279 152.992 225.949 153.322 225.542 153.322Z" fill="white"/>
<path d="M220.351 145.623H198.607C198.255 145.623 197.966 145.337 197.966 144.983C197.966 144.631 198.252 144.342 198.607 144.342H220.351C220.703 144.342 220.992 144.628 220.992 144.983C220.987 145.337 220.703 145.623 220.351 145.623Z" fill="#F4B01A"/>
<path opacity="0.15" d="M206.926 151.588H198.874C198.374 151.588 197.97 151.184 197.97 150.683V149.19C197.97 148.689 198.374 148.285 198.874 148.285H206.926C207.427 148.285 207.831 148.689 207.831 149.19V150.683C207.831 151.184 207.427 151.588 206.926 151.588Z" fill="white"/>
<path opacity="0.5" d="M220.351 145.623H198.607C198.255 145.623 197.966 145.337 197.966 144.983C197.966 144.631 198.252 144.342 198.607 144.342H220.351C220.703 144.342 220.992 144.628 220.992 144.983C220.987 145.337 220.703 145.623 220.351 145.623Z" fill="white"/>
<path d="M206.927 151.588H198.875C198.374 151.588 197.97 151.184 197.97 150.683V149.19C197.97 148.689 198.374 148.285 198.875 148.285H206.927C207.427 148.285 207.831 148.689 207.831 149.19V150.683C207.831 151.184 207.427 151.588 206.927 151.588Z" fill="#F4B01A"/>
<path opacity="0.15" d="M206.927 151.588H198.875C198.374 151.588 197.97 151.184 197.97 150.683V149.19C197.97 148.689 198.374 148.285 198.875 148.285H206.927C207.427 148.285 207.831 148.689 207.831 149.19V150.683C207.831 151.184 207.427 151.588 206.927 151.588Z" fill="white"/>
<path d="M206.927 151.588H198.875C198.374 151.588 197.97 151.184 197.97 150.683V149.19C197.97 148.689 198.374 148.285 198.875 148.285H206.927C207.427 148.285 207.831 148.689 207.831 149.19V150.683C207.831 151.184 207.427 151.588 206.927 151.588Z" fill="white"/>
<path d="M200.984 138.683H171.278C170.871 138.683 170.541 138.353 170.541 137.946V128.712C170.541 128.305 170.871 127.975 171.278 127.975H200.984C201.391 127.975 201.721 128.305 201.721 128.712V137.946C201.721 138.353 201.391 138.683 200.984 138.683Z" fill="#F4B01A"/>
<path opacity="0.5" d="M200.984 138.683H171.278C170.871 138.683 170.541 138.353 170.541 137.946V128.712C170.541 128.305 170.871 127.975 171.278 127.975H200.984C201.391 127.975 201.721 128.305 201.721 128.712V137.946C201.721 138.353 201.391 138.683 200.984 138.683Z" fill="white"/>
<path d="M200.984 182.592H171.278C170.871 182.592 170.541 182.262 170.541 181.855V172.618C170.541 172.211 170.871 171.881 171.278 171.881H200.984C201.391 171.881 201.721 172.211 201.721 172.618V181.852C201.721 182.262 201.391 182.592 200.984 182.592Z" fill="#F4B01A"/>
<path opacity="0.5" d="M200.984 182.592H171.278C170.871 182.592 170.541 182.262 170.541 181.855V172.618C170.541 172.211 170.871 171.881 171.278 171.881H200.984C201.391 171.881 201.721 172.211 201.721 172.618V181.852C201.721 182.262 201.391 182.592 200.984 182.592Z" fill="white"/>
<path d="M195.791 174.895H174.047C173.695 174.895 173.406 174.609 173.406 174.254C173.406 173.902 173.692 173.613 174.047 173.613H195.791C196.143 173.613 196.432 173.899 196.432 174.254C196.429 174.606 196.146 174.895 195.791 174.895Z" fill="#F4B01A"/>
<path d="M200.984 168.041H171.278C170.871 168.041 170.541 167.711 170.541 167.304V158.069C170.541 157.662 170.871 157.332 171.278 157.332H200.984C201.391 157.332 201.721 157.662 201.721 158.069V167.304C201.721 167.711 201.391 168.041 200.984 168.041Z" fill="#F4B01A"/>
<path opacity="0.5" d="M200.984 168.041H171.278C170.871 168.041 170.541 167.711 170.541 167.304V158.069C170.541 157.662 170.871 157.332 171.278 157.332H200.984C201.391 157.332 201.721 157.662 201.721 158.069V167.304C201.721 167.711 201.391 168.041 200.984 168.041Z" fill="white"/>
<path d="M174.193 161.81H173.137C172.865 161.81 172.642 161.59 172.642 161.315V160.259C172.642 159.986 172.862 159.764 173.137 159.764H174.193C174.466 159.764 174.688 159.984 174.688 160.259V161.315C174.688 161.587 174.466 161.81 174.193 161.81Z" fill="#F4B01A"/>
<path opacity="0.7" d="M174.193 161.81H173.137C172.865 161.81 172.642 161.59 172.642 161.315V160.259C172.642 159.986 172.862 159.764 173.137 159.764H174.193C174.466 159.764 174.688 159.984 174.688 160.259V161.315C174.688 161.587 174.466 161.81 174.193 161.81Z" fill="white"/>
<path d="M174.193 165.61H173.137C172.865 165.61 172.642 165.39 172.642 165.115V164.059C172.642 163.787 172.862 163.564 173.137 163.564H174.193C174.466 163.564 174.688 163.784 174.688 164.059V165.115C174.688 165.39 174.466 165.61 174.193 165.61Z" fill="#F4B01A"/>
<path d="M190.859 161.283H176.644C176.369 161.283 176.146 161.06 176.146 160.785C176.146 160.51 176.369 160.287 176.644 160.287H190.859C191.134 160.287 191.356 160.51 191.356 160.785C191.356 161.06 191.134 161.283 190.859 161.283Z" fill="#F4B01A"/>
<path d="M190.859 165.085H176.644C176.369 165.085 176.146 164.863 176.146 164.588C176.146 164.313 176.369 164.09 176.644 164.09H190.859C191.134 164.09 191.356 164.313 191.356 164.588C191.356 164.863 191.134 165.085 190.859 165.085Z" fill="#F4B01A"/>
<path opacity="0.7" d="M190.859 161.283H176.644C176.369 161.283 176.146 161.06 176.146 160.785C176.146 160.51 176.369 160.287 176.644 160.287H190.859C191.134 160.287 191.356 160.51 191.356 160.785C191.356 161.06 191.134 161.283 190.859 161.283Z" fill="white"/>
<path opacity="0.7" d="M190.859 165.085H176.644C176.369 165.085 176.146 164.863 176.146 164.588C176.146 164.313 176.369 164.09 176.644 164.09H190.859C191.134 164.09 191.356 164.313 191.356 164.588C191.356 164.863 191.134 165.085 190.859 165.085Z" fill="white"/>
<path d="M199.124 161.283H195.211C194.936 161.283 194.713 161.06 194.713 160.785C194.713 160.51 194.936 160.287 195.211 160.287H199.124C199.399 160.287 199.622 160.51 199.622 160.785C199.622 161.06 199.399 161.283 199.124 161.283Z" fill="#F4B01A"/>
<path d="M199.124 165.085H195.211C194.936 165.085 194.713 164.863 194.713 164.588C194.713 164.313 194.936 164.09 195.211 164.09H199.124C199.399 164.09 199.622 164.313 199.622 164.588C199.622 164.863 199.399 165.085 199.124 165.085Z" fill="#F4B01A"/>
<path d="M175.461 180.859C174.328 180.859 173.41 179.94 173.41 178.807C173.41 177.674 174.328 176.756 175.461 176.756C176.594 176.756 177.513 177.674 177.513 178.807C177.513 179.94 176.594 180.859 175.461 180.859Z" fill="#F4B01A"/>
<path d="M175.711 135.954C174.262 135.954 173.085 134.777 173.085 133.327C173.085 131.878 174.262 130.701 175.711 130.701C177.16 130.701 178.337 131.878 178.337 133.327C178.337 134.779 177.163 135.954 175.711 135.954Z" fill="#F4B01A"/>
<path d="M198.484 180.377H191.868C191.367 180.377 190.963 179.973 190.963 179.472V177.979C190.963 177.478 191.367 177.074 191.868 177.074H198.487C198.988 177.074 199.392 177.478 199.392 177.979V179.472C199.392 179.973 198.985 180.377 198.484 180.377Z" fill="#F4B01A"/>
<path opacity="0.7" d="M198.484 180.377H191.868C191.367 180.377 190.963 179.973 190.963 179.472V177.979C190.963 177.478 191.367 177.074 191.868 177.074H198.487C198.988 177.074 199.392 177.478 199.392 177.979V179.472C199.392 179.973 198.985 180.377 198.484 180.377Z" fill="white"/>
<path d="M188.493 180.377H180.441C179.941 180.377 179.536 179.973 179.536 179.472V177.979C179.536 177.478 179.941 177.074 180.441 177.074H188.493C188.994 177.074 189.398 177.478 189.398 177.979V179.472C189.398 179.973 188.994 180.377 188.493 180.377Z" fill="#F4B01A"/>
<path opacity="0.7" d="M188.493 180.377H180.441C179.941 180.377 179.536 179.973 179.536 179.472V177.979C179.536 177.478 179.941 177.074 180.441 177.074H188.493C188.994 177.074 189.398 177.478 189.398 177.979V179.472C189.398 179.973 188.994 180.377 188.493 180.377Z" fill="white"/>
<path d="M197.852 134.981H182.397C181.896 134.981 181.492 134.576 181.492 134.076V132.582C181.492 132.082 181.896 131.678 182.397 131.678H197.852C198.352 131.678 198.757 132.082 198.757 132.582V134.076C198.759 134.576 198.352 134.981 197.852 134.981Z" fill="#F4B01A"/>
<path opacity="0.7" d="M197.852 134.981H182.397C181.896 134.981 181.492 134.576 181.492 134.076V132.582C181.492 132.082 181.896 131.678 182.397 131.678H197.852C198.352 131.678 198.757 132.082 198.757 132.582V134.076C198.759 134.576 198.352 134.981 197.852 134.981Z" fill="white"/>
<path d="M244.833 159.421H210.706C210.629 159.421 210.568 159.36 210.568 159.283V153.995C210.568 153.918 210.629 153.857 210.706 153.857C210.783 153.857 210.843 153.918 210.843 153.995V159.146H244.833C244.91 159.146 244.971 159.206 244.971 159.283C244.971 159.36 244.91 159.421 244.833 159.421Z" fill="#61656D"/>
<path d="M226.278 155.374C228.37 155.374 230.065 153.679 230.065 151.588C230.065 149.496 228.37 147.801 226.278 147.801C224.187 147.801 222.492 149.496 222.492 151.588C222.492 153.679 224.187 155.374 226.278 155.374Z" fill="#3F4249"/>
<path d="M228.003 151.193C228.003 152.214 226.402 153.187 226.331 153.226C226.314 153.237 226.292 153.242 226.276 153.242C226.259 153.242 226.237 153.237 226.221 153.226C226.152 153.187 224.549 152.211 224.549 151.193C224.549 150.66 224.986 150.223 225.519 150.223C225.816 150.223 226.091 150.357 226.273 150.583C226.457 150.357 226.732 150.223 227.026 150.223C227.565 150.223 228.003 150.66 228.003 151.193Z" fill="white"/>
<path d="M244.398 160.909L246.024 159.283L244.398 157.658V160.909Z" fill="#61656D" stroke="#61656D" stroke-miterlimit="10" stroke-linecap="round" stroke-linejoin="round"/>
<path d="M286.118 212.393C286.349 212.393 286.536 212.205 286.536 211.975C286.536 211.744 286.349 211.557 286.118 211.557C285.887 211.557 285.7 211.744 285.7 211.975C285.7 212.205 285.887 212.393 286.118 212.393Z" fill="#3F4249"/>
<path d="M286.118 211.557C286.094 211.557 286.072 211.559 286.05 211.565C286.248 211.598 286.399 211.768 286.399 211.975C286.399 212.181 286.248 212.351 286.05 212.384C286.072 212.387 286.094 212.393 286.118 212.393C286.349 212.393 286.536 212.206 286.536 211.975C286.536 211.744 286.349 211.557 286.118 211.557Z" fill="black"/>
<path d="M149.672 107.212C147.62 107.212 145.957 105.548 145.957 103.497C145.957 101.445 147.62 99.7812 149.672 99.7812C151.723 99.7812 153.387 101.445 153.387 103.497C153.384 105.548 151.723 107.212 149.672 107.212Z" fill="white"/>
<path d="M149.672 103.603C149.116 103.603 148.654 103.18 148.605 102.63L148.533 101.857C148.475 101.23 148.97 100.686 149.6 100.686H149.743C150.376 100.686 150.868 101.227 150.81 101.857L150.739 102.63C150.686 103.183 150.224 103.603 149.672 103.603Z" fill="#F4B01A"/>
<path d="M152.817 105.471C152.669 105.708 152.493 105.928 152.297 106.123C151.624 106.794 150.697 107.212 149.671 107.212C148.346 107.212 147.182 106.519 146.525 105.471C146.707 104.646 147.446 104.027 148.326 104.027H151.016C151.899 104.027 152.633 104.646 152.817 105.471Z" fill="#F4B01A"/>
<path d="M158.986 107.212C156.934 107.212 155.271 105.548 155.271 103.497C155.271 101.445 156.934 99.7812 158.986 99.7812C161.037 99.7812 162.701 101.445 162.701 103.497C162.698 105.548 161.035 107.212 158.986 107.212Z" fill="white"/>
<path d="M158.985 103.603C158.43 103.603 157.968 103.18 157.918 102.63L157.847 101.857C157.789 101.23 158.284 100.686 158.914 100.686H159.057C159.689 100.686 160.182 101.227 160.124 101.857L160.052 102.63C160 103.183 159.535 103.603 158.985 103.603Z" fill="#3F4249"/>
<path d="M162.129 105.471C161.98 105.708 161.804 105.928 161.609 106.123C160.935 106.794 160.009 107.212 158.983 107.212C157.657 107.212 156.494 106.519 155.837 105.471C156.018 104.646 156.758 104.027 157.638 104.027H160.328C161.21 104.027 161.947 104.646 162.129 105.471Z" fill="#3F4249"/>
</svg>
