<svg width="111" height="111" viewBox="0 0 111 111" fill="none" xmlns="http://www.w3.org/2000/svg">
<g opacity="0.2">
<path opacity="0.2" d="M97.3725 22.5861C97.9713 22.5861 98.4565 22.1007 98.4565 21.5021V15.793C98.4565 15.1944 97.9713 14.709 97.3725 14.709H91.6636C91.065 14.709 90.5796 15.1944 90.5796 15.793V17.5635H59.4366V15.793C59.4366 15.1944 58.9511 14.709 58.3526 14.709H52.6437C52.0451 14.709 51.5597 15.1944 51.5597 15.793V17.5635H20.4166V15.793C20.4166 15.1944 19.9312 14.709 19.3326 14.709H13.6235C13.0247 14.709 12.5395 15.1944 12.5395 15.793V21.5019C12.5395 22.1005 13.0247 22.5859 13.6235 22.5859H15.3938V53.729H13.6235C13.0247 53.729 12.5395 54.2144 12.5395 54.8129V60.5218C12.5395 61.1204 13.0247 61.6058 13.6235 61.6058H15.3938V92.7489H13.6235C13.0247 92.7489 12.5395 93.2341 12.5395 93.8329V99.5418C12.5395 100.14 13.0247 100.626 13.6235 100.626H19.3324C19.931 100.626 20.4164 100.14 20.4164 99.5418V97.7712H51.5595V99.5418C51.5595 100.14 52.0449 100.626 52.6434 100.626H58.3524C58.9509 100.626 59.4363 100.14 59.4363 99.5418V97.7712H90.5794V99.5418C90.5794 100.14 91.0648 100.626 91.6634 100.626H97.3723C97.9711 100.626 98.4563 100.14 98.4563 99.5418V93.8329C98.4563 93.2341 97.9711 92.7489 97.3723 92.7489H95.602V61.606H97.3723C97.9711 61.606 98.4563 61.1206 98.4563 60.5221V54.8132C98.4563 54.2146 97.9711 53.7292 97.3723 53.7292H95.602V22.5861H97.3725ZM93.434 53.729H91.6634C91.0648 53.729 90.5794 54.2144 90.5794 54.8129V60.5218C90.5794 61.1204 91.0648 61.6058 91.6634 61.6058H93.434V92.7489H91.6634C91.0648 92.7489 90.5794 93.2341 90.5794 93.8329V95.6035H59.4366V93.8329C59.4366 93.2341 58.9511 92.7489 58.3526 92.7489H52.6437C52.0451 92.7489 51.5597 93.2341 51.5597 93.8329V95.6035H20.4166V93.8329C20.4166 93.2341 19.9312 92.7489 19.3326 92.7489H17.562V61.606H19.3326C19.9312 61.606 20.4166 61.1206 20.4166 60.5221V54.8132C20.4166 54.2146 19.9312 53.7292 19.3326 53.7292H17.562V22.5861H19.3326C19.9312 22.5861 20.4166 22.1007 20.4166 21.5021V19.7315H51.5597V21.5021C51.5597 22.1007 52.0451 22.5861 52.6437 22.5861H58.3526C58.9511 22.5861 59.4366 22.1007 59.4366 21.5021V19.7315H90.5796V21.5021C90.5796 22.1007 91.065 22.5861 91.6636 22.5861H93.4342V53.729H93.434Z" fill="#F4B01A"/>
</g>
<path d="M16.4597 53.3105H55.5005V92.3513H16.4597V53.3105Z" fill="white"/>
<path d="M41.0366 78.3357C42.177 73.8618 39.4747 69.3105 35.0007 68.17C30.5268 67.0296 25.9755 69.732 24.8351 74.2059C23.6947 78.6798 26.397 83.2311 30.871 84.3715C35.3449 85.5119 39.8962 82.8096 41.0366 78.3357Z" fill="#F4B01A"/>
<path d="M55.4987 92.3517V75.6662C52.5836 74.6518 49.4485 74.0996 46.1872 74.0996C34.0943 74.0996 23.7752 81.6832 19.7152 92.3517H55.4987Z" fill="#F4B01A"/>
<path d="M56.5841 93.4355H18.1445L18.7036 91.9661C20.8016 86.4531 24.4717 81.7404 29.3174 78.3378C34.2757 74.856 40.1095 73.0156 46.1887 73.0156C49.5016 73.0156 52.7544 73.5628 55.8563 74.6425L56.5841 74.8957V93.4355ZM21.3395 91.2675H54.4159V76.4482C51.7641 75.6087 49.0001 75.1836 46.1885 75.1836C35.4891 75.1834 25.6977 81.5852 21.3395 91.2675Z" fill="#252647"/>
<path d="M45.9441 92.3519H16.4597V81.0658C19.5222 79.0665 23.1778 77.9062 27.1051 77.9062C36.1258 77.9062 43.7184 84.0312 45.9441 92.3519Z" fill="#F4B01A"/>
<path d="M47.3561 93.4358H15.3757V80.479L15.8672 80.1581C19.2102 77.9758 23.0963 76.8223 27.1051 76.8223C36.4124 76.8223 44.59 83.0931 46.9914 92.0718L47.3561 93.4358ZM17.5437 91.2679H44.4748C41.9021 83.9716 34.9527 78.9902 27.1051 78.9902C23.7131 78.9902 20.4201 79.9129 17.5439 81.6636V91.2679H17.5437Z" fill="#252647"/>
<path d="M19.3326 18.2501H13.6235C13.0249 18.2501 12.5395 17.7647 12.5395 17.1662V11.457C12.5395 10.8582 13.0249 10.373 13.6235 10.373H19.3324C19.931 10.373 20.4164 10.8582 20.4164 11.457V17.1659C20.4166 17.7647 19.9312 18.2501 19.3326 18.2501Z" fill="white"/>
<path d="M58.3531 18.2501H52.6441C52.0456 18.2501 51.5602 17.7647 51.5602 17.1662V11.457C51.5602 10.8582 52.0456 10.373 52.6441 10.373H58.3531C58.9516 10.373 59.437 10.8582 59.437 11.457V17.1659C59.437 17.7647 58.9516 18.2501 58.3531 18.2501Z" fill="white"/>
<path d="M97.3727 18.2501H91.6638C91.0652 18.2501 90.5798 17.7647 90.5798 17.1662V11.457C90.5798 10.8582 91.0652 10.373 91.6638 10.373H97.3727C97.9713 10.373 98.4567 10.8582 98.4567 11.457V17.1659C98.4567 17.7647 97.9713 18.2501 97.3727 18.2501Z" fill="white"/>
<path d="M19.3326 96.289H13.6235C13.0249 96.289 12.5395 95.8036 12.5395 95.205V89.4961C12.5395 88.8975 13.0249 88.4121 13.6235 88.4121H19.3324C19.931 88.4121 20.4164 88.8975 20.4164 89.4961V95.205C20.4166 95.8036 19.9312 96.289 19.3326 96.289Z" fill="white"/>
<path d="M58.3531 96.289H52.6441C52.0456 96.289 51.5602 95.8036 51.5602 95.205V89.4961C51.5602 88.8975 52.0456 88.4121 52.6441 88.4121H58.3531C58.9516 88.4121 59.437 88.8975 59.437 89.4961V95.205C59.437 95.8036 58.9516 96.289 58.3531 96.289Z" fill="white"/>
<path d="M58.3531 57.2694H52.6441C52.0456 57.2694 51.5602 56.784 51.5602 56.1855V50.4766C51.5602 49.878 52.0456 49.3926 52.6441 49.3926H58.3531C58.9516 49.3926 59.437 49.878 59.437 50.4766V56.1855C59.437 56.784 58.9516 57.2694 58.3531 57.2694Z" fill="white"/>
<path d="M97.3727 96.289H91.6638C91.0652 96.289 90.5798 95.8036 90.5798 95.205V89.4961C90.5798 88.8975 91.0652 88.4121 91.6638 88.4121H97.3727C97.9713 88.4121 98.4567 88.8975 98.4567 89.4961V95.205C98.4567 95.8036 97.9713 96.289 97.3727 96.289Z" fill="white"/>
<path d="M90.5788 56.1855V50.4766C90.5788 49.878 91.0642 49.3926 91.6628 49.3926H97.3717C97.9703 49.3926 98.4557 49.878 98.4557 50.4766V56.1855C98.4557 56.784 97.9703 57.2694 97.3717 57.2694H91.6628C91.0642 57.2694 90.5788 56.784 90.5788 56.1855Z" fill="white"/>
<path d="M12.5395 56.1855V50.4766C12.5395 49.878 13.0249 49.3926 13.6235 49.3926H19.3324C19.931 49.3926 20.4164 49.878 20.4164 50.4766V56.1855C20.4164 56.784 19.931 57.2694 19.3324 57.2694H13.6235C13.0249 57.2694 12.5395 56.784 12.5395 56.1855Z" fill="white"/>
<path d="M97.3731 19.3339C98.5685 19.3339 99.5411 18.3614 99.5411 17.1659V11.457C99.5411 10.2616 98.5685 9.28906 97.3731 9.28906H91.6642C90.4688 9.28906 89.4962 10.2616 89.4962 11.457V13.2274H60.5211V11.457C60.5211 10.2616 59.5485 9.28906 58.3531 9.28906H52.6442C51.4488 9.28906 50.4762 10.2616 50.4762 11.457V13.2274H21.5013V11.457C21.5013 10.2616 20.5288 9.28906 19.3334 9.28906H13.6245C12.429 9.28906 11.4565 10.2616 11.4565 11.457V17.1659C11.4565 18.3614 12.429 19.3339 13.6245 19.3339H15.3948V48.309H13.6245C12.429 48.309 11.4565 49.2816 11.4565 50.477V56.1859C11.4565 57.3813 12.429 58.3539 13.6245 58.3539H15.3948V80.7924C15.3948 81.3909 15.8802 81.8763 16.4788 81.8763C17.0774 81.8763 17.5628 81.3909 17.5628 80.7924V58.3539H19.3334C20.5288 58.3539 21.5013 57.3813 21.5013 56.1859V50.477C21.5013 49.2816 20.5288 48.309 19.3334 48.309H17.5628V19.3339H19.3334C20.5288 19.3339 21.5013 18.3614 21.5013 17.1659V15.3956H50.4765V17.1659C50.4765 18.3614 51.449 19.3339 52.6444 19.3339H58.3533C59.5488 19.3339 60.5213 18.3614 60.5213 17.1659V15.3956H89.4964V17.1659C89.4964 18.3614 90.469 19.3339 91.6644 19.3339H93.4348V48.309H91.6644C90.469 48.309 89.4964 49.2816 89.4964 50.477V56.1859C89.4964 57.3813 90.469 58.3539 91.6644 58.3539H93.4348V87.329H91.6644C90.469 87.329 89.4964 88.3016 89.4964 89.497V91.2673H60.5211V89.497C60.5211 88.3016 59.5485 87.329 58.3531 87.329H56.5828V58.3537H58.3531C59.5485 58.3537 60.5211 57.3811 60.5211 56.1857V50.4768C60.5211 49.2814 59.5485 48.3088 58.3531 48.3088H52.6442C51.4488 48.3088 50.4762 49.2814 50.4762 50.4768V52.2274H27.7217C27.1231 52.2274 26.6377 52.7128 26.6377 53.3114C26.6377 53.91 27.1231 54.3954 27.7217 54.3954H50.4762V56.1857C50.4762 57.3811 51.4488 58.3537 52.6442 58.3537H54.4148V87.3288H52.6442C51.4488 87.3288 50.4762 88.3013 50.4762 89.4967V91.2671H21.5013V89.4967C21.5013 88.3013 20.5288 87.3288 19.3334 87.3288H13.6245C12.429 87.3288 11.4565 88.3013 11.4565 89.4967V95.2057C11.4565 96.4011 12.429 97.3736 13.6245 97.3736H19.3334C20.5288 97.3736 21.5013 96.4011 21.5013 95.2057V93.4351H50.4765V95.2057C50.4765 96.4011 51.449 97.3736 52.6444 97.3736H58.3533C59.5488 97.3736 60.5213 96.4011 60.5213 95.2057V93.4351H89.4964V95.2057C89.4964 96.4011 90.469 97.3736 91.6644 97.3736H97.3733C98.5687 97.3736 99.5413 96.4011 99.5413 95.2057V89.4967C99.5413 88.3013 98.5687 87.3288 97.3733 87.3288H95.6027V58.3537H97.3733C98.5687 58.3537 99.5413 57.3811 99.5413 56.1857V50.4768C99.5413 49.2814 98.5687 48.3088 97.3733 48.3088H95.6027V19.3339H97.3731ZM19.3334 56.1857L13.6245 56.187V50.4768H19.3334V56.1857ZM13.6245 17.1659V11.457H19.3334L19.3347 17.1659H13.6245ZM52.6442 17.1659V11.457H58.3531L58.3544 17.1659H52.6442ZM52.6442 50.4768H58.3531L58.3544 56.1855L52.6442 56.1857V50.4768ZM13.6245 95.2057V89.4967H19.3334L19.3347 95.2055L13.6245 95.2057ZM52.6442 95.2057V89.4967H58.3531L58.3544 95.2055L52.6442 95.2057ZM97.3746 95.2057H91.6644V89.4967H97.3733L97.3746 95.2057ZM97.3731 56.1857L91.6644 56.187V50.4768H97.3733V56.1857H97.3731ZM91.6642 11.457H97.3731L97.3744 17.1659H91.6642V11.457Z" fill="#252647"/>
<path d="M64.0139 39.5924C63.4153 39.5924 62.9299 40.0778 62.9299 40.6764V44.7233C62.9299 45.3219 63.4153 45.8073 64.0139 45.8073H68.0609C68.6594 45.8073 69.1448 45.3219 69.1448 44.7233C69.1448 44.1247 68.6594 43.6393 68.0609 43.6393H66.6311L85.4638 24.8066V26.2364C85.4638 26.835 85.9492 27.3204 86.5478 27.3204C87.1464 27.3204 87.6318 26.835 87.6318 26.2364V22.1895C87.6318 21.5909 87.1464 21.1055 86.5478 21.1055H82.5008C81.9023 21.1055 81.4168 21.5909 81.4168 22.1895C81.4168 22.788 81.9023 23.2734 82.5008 23.2734H83.9306L65.0979 42.1061V40.6761C65.0979 40.0778 64.6127 39.5924 64.0139 39.5924Z" fill="#252647"/>
<path d="M85.4623 76.668H82.9648C82.3661 76.668 81.8809 76.1826 81.8809 75.584C81.8809 74.9854 82.3661 74.5 82.9648 74.5H85.4623C86.0611 74.5 86.5463 74.9854 86.5463 75.584C86.5463 76.1826 86.0611 76.668 85.4623 76.668Z" fill="#252647"/>
<path d="M78.6268 76.668H68.5414C67.9426 76.668 67.4574 76.1826 67.4574 75.584C67.4574 74.9854 67.9426 74.5 68.5414 74.5H78.6268C79.2256 74.5 79.7108 74.9854 79.7108 75.584C79.7108 76.1826 79.2256 76.668 78.6268 76.668Z" fill="#252647"/>
<path d="M85.464 81.293H68.5424C67.9436 81.293 67.4584 80.8076 67.4584 80.209C67.4584 79.6104 67.9436 79.125 68.5424 79.125H85.464C86.0628 79.125 86.548 79.6104 86.548 80.209C86.548 80.8078 86.0628 81.293 85.464 81.293Z" fill="#252647"/>
<path d="M86.1472 65.2872C86.1472 63.3011 84.5314 61.6855 82.5456 61.6855C80.5597 61.6855 78.9439 63.3013 78.9439 65.2872C78.9439 66.2667 79.3381 67.1549 79.9748 67.8049C79.3383 68.4548 78.9439 69.343 78.9439 70.3225C78.9439 70.9211 79.4291 71.4065 80.0279 71.4065C80.6267 71.4065 81.1119 70.9211 81.1119 70.3225C81.1119 69.5319 81.7551 68.8888 82.5456 68.8888C83.3362 68.8888 83.9793 69.5321 83.9793 70.3225C83.9793 70.9211 84.4645 71.4065 85.0632 71.4065C85.662 71.4065 86.1472 70.9211 86.1472 70.3225C86.1472 69.343 85.7531 68.4548 85.1164 67.8049C85.7531 67.1549 86.1472 66.2667 86.1472 65.2872ZM82.5456 63.8533C83.3362 63.8533 83.9793 64.4965 83.9793 65.287C83.9793 66.0774 83.336 66.7207 82.5456 66.7207C81.7551 66.7207 81.1119 66.0774 81.1119 65.287C81.1119 64.4965 81.7549 63.8533 82.5456 63.8533Z" fill="#252647"/>
</svg>
