<svg width="111" height="111" viewBox="0 0 111 111" fill="none" xmlns="http://www.w3.org/2000/svg">
<path d="M82.363 9.05299V94.1111C82.363 96.6042 80.3403 98.627 77.8449 98.627H33.1588C30.6634 98.627 28.6407 96.6042 28.6407 94.1111V9.05299C28.6407 6.55982 30.6634 4.53711 33.1588 4.53711H77.8449C80.3403 4.53711 82.363 6.55982 82.363 9.05299Z" fill="white"/>
<path d="M82.363 46.9209V9.05299C82.363 6.55982 80.3403 4.53711 77.8449 4.53711H33.1588C30.6634 4.53711 28.6407 6.55982 28.6407 9.05299V46.9209H82.363Z" fill="white"/>
<path d="M82.363 77.9219V94.1101C82.363 96.6033 80.3403 98.626 77.8449 98.626H33.1588C30.6634 98.626 28.6407 96.6033 28.6407 94.1101V77.9219H82.363Z" fill="white"/>
<path d="M34.4734 39.0254H48.3922C48.95 39.0254 49.4022 39.4776 49.4022 40.0354C49.4022 40.5933 48.95 41.0455 48.3922 41.0455H34.4734C33.9156 41.0455 33.4633 40.5933 33.4633 40.0354C33.4635 39.4776 33.9156 39.0254 34.4734 39.0254Z" fill="#252647"/>
<path d="M34.4734 43.1035H43.8394C44.3972 43.1035 44.8495 43.5558 44.8495 44.1136C44.8495 44.6714 44.3972 45.1236 43.8394 45.1236H34.4734C33.9156 45.1236 33.4633 44.6714 33.4633 44.1136C33.4633 43.5558 33.9156 43.1035 34.4734 43.1035Z" fill="#252647"/>
<path d="M53.4645 36.6318H34.3222C33.7236 36.6318 33.2382 36.1464 33.2382 35.5478V19.3184C33.2382 18.7198 33.7236 18.2344 34.3222 18.2344H53.4645C54.063 18.2344 54.5484 18.7198 54.5484 19.3184V35.5478C54.5484 36.1464 54.063 36.6318 53.4645 36.6318Z" fill="#F4B01A"/>
<path d="M57.6875 39.0254H71.6062C72.1641 39.0254 72.6163 39.4776 72.6163 40.0354C72.6163 40.5933 72.1641 41.0455 71.6062 41.0455H57.6875C57.1296 41.0455 56.6774 40.5933 56.6774 40.0354C56.6774 39.4776 57.1296 39.0254 57.6875 39.0254Z" fill="#252647"/>
<path d="M57.6875 43.1035H67.0535C67.6113 43.1035 68.0636 43.5558 68.0636 44.1136C68.0636 44.6714 67.6113 45.1236 67.0535 45.1236H57.6875C57.1296 45.1236 56.6774 44.6714 56.6774 44.1136C56.6774 43.5558 57.1296 43.1035 57.6875 43.1035Z" fill="#252647"/>
<path d="M76.6785 36.6318H57.5362C56.9376 36.6318 56.4522 36.1464 56.4522 35.5478V19.3184C56.4522 18.7198 56.9376 18.2344 57.5362 18.2344H76.6785C77.2771 18.2344 77.7625 18.7198 77.7625 19.3184V35.5478C77.7625 36.1464 77.2771 36.6318 76.6785 36.6318Z" fill="#F4B01A"/>
<path d="M34.4734 70.0234H48.3922C48.95 70.0234 49.4022 70.4757 49.4022 71.0335C49.4022 71.5913 48.95 72.0435 48.3922 72.0435H34.4734C33.9156 72.0435 33.4633 71.5913 33.4633 71.0335C33.4635 70.4757 33.9156 70.0234 34.4734 70.0234Z" fill="#252647"/>
<path d="M34.4734 74.1016H43.8394C44.3972 74.1016 44.8495 74.5538 44.8495 75.1116C44.8495 75.6694 44.3972 76.1217 43.8394 76.1217H34.4734C33.9156 76.1217 33.4633 75.6694 33.4633 75.1116C33.4635 74.5538 33.9156 74.1016 34.4734 74.1016Z" fill="#252647"/>
<path d="M53.4645 67.6298H34.3222C33.7236 67.6298 33.2382 67.1444 33.2382 66.5458V50.3164C33.2382 49.7178 33.7236 49.2324 34.3222 49.2324H53.4645C54.063 49.2324 54.5484 49.7178 54.5484 50.3164V66.5458C54.5484 67.1446 54.063 67.6298 53.4645 67.6298Z" fill="#F4B01A"/>
<path d="M57.6875 70.0234H71.6062C72.1641 70.0234 72.6163 70.4757 72.6163 71.0335C72.6163 71.5913 72.1641 72.0435 71.6062 72.0435H57.6875C57.1296 72.0435 56.6774 71.5913 56.6774 71.0335C56.6774 70.4757 57.1296 70.0234 57.6875 70.0234Z" fill="#252647"/>
<path d="M57.6875 74.1016H67.0535C67.6113 74.1016 68.0636 74.5538 68.0636 75.1116C68.0636 75.6694 67.6113 76.1217 67.0535 76.1217H57.6875C57.1296 76.1217 56.6774 75.6694 56.6774 75.1116C56.6774 74.5538 57.1296 74.1016 57.6875 74.1016Z" fill="#252647"/>
<path d="M76.6785 67.6298H57.5362C56.9376 67.6298 56.4522 67.1444 56.4522 66.5458V50.3164C56.4522 49.7178 56.9376 49.2324 57.5362 49.2324H76.6785C77.2771 49.2324 77.7625 49.7178 77.7625 50.3164V66.5458C77.7625 67.1446 77.2771 67.6298 76.6785 67.6298Z" fill="#F4B01A"/>
<path d="M54.5484 98.6259H33.2382V81.3125C33.2382 80.7137 33.7236 80.2285 34.3222 80.2285H53.4645C54.063 80.2285 54.5484 80.7137 54.5484 81.3125V98.6259Z" fill="#F4B01A"/>
<path d="M77.7625 98.6259H56.4522V81.3125C56.4522 80.7137 56.9376 80.2285 57.5362 80.2285H76.6785C77.2771 80.2285 77.7625 80.7137 77.7625 81.3125V98.6259Z" fill="#F4B01A"/>
<path d="M70.147 10.607L71.9796 4.53516H39.0265L40.8591 10.607C41.1353 11.5223 41.9786 12.1484 42.9345 12.1484H68.0712C69.0275 12.1484 69.8706 11.5223 70.147 10.607Z" fill="white"/>
<path d="M44.9116 8.34139C44.9116 7.76016 45.3827 7.28906 45.964 7.28906C46.545 7.28906 47.0163 7.76016 47.0163 8.34139C47.0163 8.92263 46.5452 9.39373 45.964 9.39373C45.3827 9.39351 44.9116 8.92241 44.9116 8.34139Z" fill="#252647"/>
<path d="M48.4525 8.34139C48.4525 7.76016 48.9236 7.28906 49.5048 7.28906C50.086 7.28906 50.5571 7.76016 50.5571 8.34139C50.5571 8.92263 50.086 9.39373 49.5048 9.39373C48.9236 9.39351 48.4525 8.92241 48.4525 8.34139Z" fill="#252647"/>
<path d="M64.3035 9.39316H56.2382C55.6804 9.39316 55.2282 8.94092 55.2282 8.3831C55.2282 7.82529 55.6804 7.37305 56.2382 7.37305H64.3035C64.8613 7.37305 65.3136 7.82529 65.3136 8.3831C65.3136 8.94092 64.8613 9.39316 64.3035 9.39316Z" fill="#252647"/>
<path d="M63.171 97.499C63.171 86.9016 71.762 78.3105 82.3594 78.3105C92.9569 78.3105 101.548 86.9016 101.548 97.499H63.171Z" fill="white"/>
<path d="M88.1587 79.2037V84.912C88.1587 88.1141 85.5636 90.7113 82.3594 90.7113C79.1573 90.7113 76.56 88.1141 76.56 84.912V79.2037C78.3898 78.6227 80.3388 78.3105 82.3594 78.3105C84.3799 78.3105 86.3289 78.6227 88.1587 79.2037Z" fill="#F4B01A"/>
<path d="M102.491 101.696H62.2291C61.5195 101.696 60.9441 101.121 60.9441 100.411V95.9568C60.9441 95.2472 61.5195 94.6719 62.2291 94.6719H102.491C103.2 94.6719 103.776 95.2472 103.776 95.9568V100.411C103.776 101.121 103.2 101.696 102.491 101.696Z" fill="white"/>
<path d="M91.1276 94.6719H94.4518V101.696H91.1276V94.6719Z" fill="#F4B01A"/>
<path d="M102.492 94.6719H97.1979V101.696H102.492C103.202 101.696 103.777 101.121 103.777 100.411V95.9568C103.777 95.2472 103.202 94.6719 102.492 94.6719Z" fill="#F4B01A"/>
<path d="M102.491 93.5882H64.6855C65.516 89.8226 67.5413 86.3959 70.4807 83.8375C73.7718 80.973 77.9911 79.3953 82.3607 79.3953C88.9418 79.3953 95.0136 82.9744 98.2064 88.7358C98.4964 89.2594 99.1562 89.4484 99.6799 89.1583C100.204 88.8683 100.393 88.2085 100.103 87.6848C96.704 81.552 90.3911 77.6308 83.4445 77.259V9.05212C83.4445 5.96385 80.9318 3.45117 77.8433 3.45117H33.1558C30.0673 3.45117 27.5547 5.96385 27.5547 9.05212V94.1089C27.5547 97.1972 30.0673 99.7099 33.1558 99.7099H53.5735C54.1721 99.7099 54.6575 99.2247 54.6575 98.6259C54.6575 98.0271 54.1721 97.5419 53.5735 97.5419H33.1558C31.2628 97.5419 29.7226 96.002 29.7226 94.1089V9.05212C29.7226 7.15905 31.2628 5.61914 33.1558 5.61914H38.218L39.818 10.92C40.2353 12.3032 41.4865 13.2324 42.9312 13.2324H68.0679C69.5127 13.2324 70.7638 12.3032 71.1811 10.92L72.7811 5.61914H77.8433C79.7364 5.61914 81.2765 7.15905 81.2765 9.05212V77.2594C76.7736 77.5003 72.47 79.2319 69.0572 82.2022C65.6454 85.1717 63.3292 89.1863 62.4676 93.5882H62.2296C60.9234 93.5882 59.8606 94.6509 59.8606 95.9573V100.412C59.8606 101.718 60.9234 102.781 62.2296 102.781H102.491C103.797 102.781 104.86 101.718 104.86 100.412V95.9573C104.86 94.6509 103.798 93.5882 102.491 93.5882ZM69.1057 10.2939C68.9665 10.7548 68.5496 11.0646 68.0679 11.0646H42.9312C42.4497 11.0646 42.0326 10.7548 41.8934 10.2937L40.4825 5.61936H70.5166L69.1057 10.2939ZM102.692 100.412C102.692 100.523 102.602 100.613 102.491 100.613H62.2296C62.1188 100.613 62.0286 100.523 62.0286 100.412V95.9573C62.0286 95.8463 62.1186 95.7561 62.2296 95.7561H102.491C102.602 95.7561 102.692 95.8463 102.692 95.9573V100.412H102.692Z" fill="#252647"/>
<path d="M85.3346 85.6205C85.7589 83.984 84.7763 82.3135 83.1399 81.8892C81.5034 81.4648 79.8329 82.4474 79.4086 84.0839C78.9842 85.7203 79.9668 87.3909 81.6033 87.8152C83.2397 88.2395 84.9103 87.2569 85.3346 85.6205Z" fill="#252647"/>
<path d="M82.3602 86.6418C83.3573 86.6418 84.1655 85.8335 84.1655 84.8365C84.1655 83.8395 83.3573 83.0312 82.3602 83.0312C81.3632 83.0312 80.555 83.8395 80.555 84.8365C80.555 85.8335 81.3632 86.6418 82.3602 86.6418Z" fill="white"/>
<path d="M83.3531 84.6542C83.8012 84.6542 84.1645 84.2909 84.1645 83.8427C84.1645 83.3946 83.8012 83.0312 83.3531 83.0312C82.9049 83.0312 82.5416 83.3946 82.5416 83.8427C82.5416 84.2909 82.9049 84.6542 83.3531 84.6542Z" fill="#F4B01A"/>
<path d="M86.1305 82.9198C86.5786 82.9198 86.9419 82.5565 86.9419 82.1083C86.9419 81.6602 86.5786 81.2969 86.1305 81.2969C85.6823 81.2969 85.319 81.6602 85.319 82.1083C85.319 82.5565 85.6823 82.9198 86.1305 82.9198Z" fill="white"/>
<path d="M90.6935 68.6752C90.3271 68.6752 89.9696 68.4894 89.7656 68.1533C89.4552 67.6415 89.6184 66.9748 90.1303 66.6642C91.8957 65.5934 93.9221 65.0273 95.9905 65.0273C98.059 65.0273 100.085 65.5932 101.851 66.6642C102.363 66.9748 102.526 67.6415 102.215 68.1531C101.905 68.665 101.238 68.8278 100.726 68.518C99.3002 67.6528 97.6625 67.1955 95.9905 67.1955C94.3186 67.1955 92.6809 67.6528 91.2546 68.518C91.079 68.6244 90.885 68.6752 90.6935 68.6752Z" fill="#252647"/>
<path d="M98.2435 72.1962C98.0521 72.1962 97.8581 72.1455 97.6824 72.039C96.6635 71.4207 95.3181 71.4207 94.2991 72.039C93.7873 72.3495 93.1204 72.1862 92.8101 71.6742C92.4997 71.1625 92.6629 70.4959 93.1748 70.1852C94.0236 69.6705 94.9972 69.3984 95.991 69.3984C96.9848 69.3984 97.9584 69.6705 98.8072 70.1852C99.319 70.4959 99.4823 71.1625 99.1718 71.6742C98.9674 72.0104 98.6099 72.1962 98.2435 72.1962Z" fill="#252647"/>
<path d="M104.105 64.9715C103.913 64.9715 103.719 64.9207 103.544 64.8143C101.269 63.4346 98.6576 62.7051 95.9915 62.7051C93.3255 62.7051 90.7138 63.4344 88.4391 64.8143C87.9273 65.1247 87.2606 64.9615 86.9502 64.4494C86.6397 63.9378 86.803 63.2709 87.3148 62.9605C89.9285 61.3752 92.929 60.5371 95.9915 60.5371C99.0542 60.5371 102.054 61.375 104.668 62.9605C105.18 63.2711 105.343 63.9378 105.033 64.4494C104.829 64.7855 104.471 64.9715 104.105 64.9715Z" fill="#252647"/>
<g opacity="0.1">
<g opacity="0.1">
<path opacity="0.1" d="M101.291 74.5287C101.099 74.5287 100.905 74.478 100.73 74.3713C99.3032 73.5061 97.6658 73.0488 95.9936 73.0488C94.3214 73.0488 92.684 73.5061 91.2577 74.3713C90.7458 74.682 90.0792 74.5187 89.7687 74.0066C89.4583 73.4948 89.6215 72.8281 90.1334 72.5177C91.8987 71.4469 93.9251 70.8809 95.9936 70.8809C98.0623 70.8809 100.089 71.4469 101.854 72.5177C102.366 72.8281 102.529 73.4948 102.218 74.0066C102.014 74.3429 101.657 74.5287 101.291 74.5287Z" fill="#252647"/>
</g>
<g opacity="0.1">
<path opacity="0.1" d="M98.2456 78.0497C98.0541 78.0497 97.8601 77.999 97.6845 77.8923C96.666 77.2745 95.3197 77.2745 94.3012 77.8923C93.7893 78.203 93.1227 78.0398 92.8122 77.5277C92.5018 77.0158 92.665 76.3492 93.1769 76.0387C94.0254 75.524 94.9991 75.252 95.9931 75.252C96.9871 75.252 97.9607 75.524 98.8093 76.0387C99.3211 76.3492 99.4844 77.0158 99.1739 77.5277C98.9697 77.8637 98.6122 78.0497 98.2456 78.0497Z" fill="#252647"/>
</g>
<g opacity="0.1">
<path opacity="0.1" d="M104.105 70.8252C103.914 70.8252 103.72 70.7745 103.544 70.6678C101.27 69.2881 98.6584 68.5586 95.9923 68.5586C93.3261 68.5586 90.7146 69.2879 88.4401 70.6678C87.9281 70.9785 87.2616 70.8152 86.9512 70.3032C86.6407 69.7913 86.804 69.1247 87.3158 68.8142C89.9293 67.2288 92.9298 66.3906 95.9923 66.3906C99.0549 66.3906 102.055 67.2288 104.669 68.8142C105.181 69.1247 105.344 69.7913 105.034 70.3032C104.829 70.6394 104.472 70.8252 104.105 70.8252Z" fill="#252647"/>
</g>
</g>
</svg>
