<svg width="35" height="35" viewBox="0 0 35 35" fill="none" xmlns="http://www.w3.org/2000/svg">
<g id="Iconly/Bold/Time Circle">
<g id="Time Circle">
<path id="Time Circle_2" fill-rule="evenodd" clip-rule="evenodd" d="M17.5003 32.0835C9.45033 32.0835 2.91699 25.5647 2.91699 17.5001C2.91699 9.45014 9.45033 2.91681 17.5003 2.91681C25.5649 2.91681 32.0837 9.45014 32.0837 17.5001C32.0837 25.5647 25.5649 32.0835 17.5003 32.0835ZM22.1524 22.9106C22.3274 23.0126 22.517 23.071 22.7212 23.071C23.0857 23.071 23.4503 22.8814 23.6545 22.5314C23.9607 22.021 23.8003 21.3501 23.2753 21.0293L18.0837 17.9376V11.2001C18.0837 10.5876 17.5878 10.1064 16.9899 10.1064C16.392 10.1064 15.8962 10.5876 15.8962 11.2001V18.5647C15.8962 18.9439 16.1003 19.2939 16.4357 19.4981L22.1524 22.9106Z" fill="#F4B01A"/>
</g>
</g>
</svg>
