<svg width="60" height="69" viewBox="0 0 60 69" fill="none" xmlns="http://www.w3.org/2000/svg">
<g clip-path="url(#clip0_100_5300)">
<path d="M4.28571 62.5313C4.28571 64.2469 4.96301 65.8923 6.1686 67.1054C7.37419 68.3185 9.00932 69 10.7143 69H49.2857C50.9907 69 52.6258 68.3185 53.8314 67.1054C55.037 65.8923 55.7143 64.2469 55.7143 62.5313V17.25H4.28571V62.5313ZM40.7143 28.0313C40.7143 27.4594 40.94 26.9109 41.3419 26.5066C41.7438 26.1022 42.2888 25.875 42.8571 25.875C43.4255 25.875 43.9705 26.1022 44.3724 26.5066C44.7742 26.9109 45 27.4594 45 28.0313V58.2188C45 58.7906 44.7742 59.3391 44.3724 59.7435C43.9705 60.1479 43.4255 60.375 42.8571 60.375C42.2888 60.375 41.7438 60.1479 41.3419 59.7435C40.94 59.3391 40.7143 58.7906 40.7143 58.2188V28.0313ZM27.8571 28.0313C27.8571 27.4594 28.0829 26.9109 28.4848 26.5066C28.8866 26.1022 29.4317 25.875 30 25.875C30.5683 25.875 31.1134 26.1022 31.5152 26.5066C31.9171 26.9109 32.1429 27.4594 32.1429 28.0313V58.2188C32.1429 58.7906 31.9171 59.3391 31.5152 59.7435C31.1134 60.1479 30.5683 60.375 30 60.375C29.4317 60.375 28.8866 60.1479 28.4848 59.7435C28.0829 59.3391 27.8571 58.7906 27.8571 58.2188V28.0313ZM15 28.0313C15 27.4594 15.2258 26.9109 15.6276 26.5066C16.0295 26.1022 16.5745 25.875 17.1429 25.875C17.7112 25.875 18.2562 26.1022 18.6581 26.5066C19.0599 26.9109 19.2857 27.4594 19.2857 28.0313V58.2188C19.2857 58.7906 19.0599 59.3391 18.6581 59.7435C18.2562 60.1479 17.7112 60.375 17.1429 60.375C16.5745 60.375 16.0295 60.1479 15.6276 59.7435C15.2258 59.3391 15 58.7906 15 58.2188V28.0313ZM57.8571 4.31252H41.7857L40.5268 1.79241C40.2601 1.25363 39.8493 0.800427 39.3406 0.483776C38.8319 0.167125 38.2455 -0.000408066 37.6473 2.36281e-05H22.3393C21.7425 -0.00228498 21.1571 0.164624 20.6502 0.481627C20.1433 0.79863 19.7354 1.25291 19.4732 1.79241L18.2143 4.31252H2.14286C1.57454 4.31252 1.02949 4.5397 0.627628 4.94407C0.225765 5.34845 0 5.8969 0 6.46877L0 10.7813C0 11.3531 0.225765 11.9016 0.627628 12.306C1.02949 12.7103 1.57454 12.9375 2.14286 12.9375H57.8571C58.4255 12.9375 58.9705 12.7103 59.3724 12.306C59.7742 11.9016 60 11.3531 60 10.7813V6.46877C60 5.8969 59.7742 5.34845 59.3724 4.94407C58.9705 4.5397 58.4255 4.31252 57.8571 4.31252Z" fill="#EB5757"/>
</g>
<defs>
<clipPath id="clip0_100_5300">
<rect width="60" height="69" fill="white"/>
</clipPath>
</defs>
</svg>
