<svg width="35" height="35" viewBox="0 0 35 35" fill="none" xmlns="http://www.w3.org/2000/svg">
<g id="Iconly/Bold/Work">
<g id="Work">
<path id="Work_2" fill-rule="evenodd" clip-rule="evenodd" d="M15.6108 5.13187C14.6333 5.13187 13.8016 5.81119 13.5681 6.72679H21.4179C21.1845 5.81119 20.3528 5.13187 19.3752 5.13187H15.6108ZM23.6357 6.72679H26.5246C29.5887 6.72679 32.0837 9.2521 32.0837 12.3533C32.0837 12.3533 31.9961 13.6662 31.9669 15.4945C31.964 15.6392 31.894 15.781 31.7787 15.8666C31.0769 16.385 30.4349 16.8132 30.3766 16.8428C27.9545 18.4672 25.14 19.6103 22.1416 20.1788C21.9461 20.2172 21.7535 20.1153 21.6543 19.9411C20.8139 18.485 19.2439 17.5369 17.493 17.5369C15.7538 17.5369 14.1693 18.4746 13.3041 19.9322C13.2034 20.1035 13.0137 20.2025 12.8197 20.1655C9.84608 19.5955 7.03155 18.454 4.6241 16.8575L3.2234 15.8829C3.10667 15.809 3.03372 15.6761 3.03372 15.5284C2.98995 14.7753 2.91699 12.3533 2.91699 12.3533C2.91699 9.2521 5.41199 6.72679 8.47602 6.72679H11.3504C11.6276 4.58545 13.4222 2.91669 15.6108 2.91669H19.3752C21.5638 2.91669 23.3585 4.58545 23.6357 6.72679ZM31.5876 18.6889L31.5292 18.7184C28.5819 20.6973 25.0364 22.0117 21.3158 22.5581C20.7905 22.6319 20.2652 22.2923 20.1193 21.7606C19.7983 20.5497 18.7624 19.7522 17.5222 19.7522H17.5076H17.4784C16.2382 19.7522 15.2023 20.5497 14.8813 21.7606C14.7354 22.2923 14.2101 22.6319 13.6849 22.5581C9.96427 22.0117 6.41874 20.6973 3.47144 18.7184C3.45685 18.7037 3.31094 18.6151 3.19421 18.6889C3.0629 18.7627 3.0629 18.94 3.0629 18.94L3.16503 26.4716C3.16503 29.5728 5.64544 32.0834 8.70947 32.0834H26.2766C29.3406 32.0834 31.821 29.5728 31.821 26.4716L31.9378 18.94C31.9378 18.94 31.9378 18.7627 31.8064 18.6889C31.7335 18.6446 31.6459 18.6594 31.5876 18.6889ZM18.5873 24.8766C18.5873 25.4969 18.1058 25.9842 17.493 25.9842C16.8948 25.9842 16.3987 25.4969 16.3987 24.8766V22.9716C16.3987 22.3661 16.8948 21.864 17.493 21.864C18.1058 21.864 18.5873 22.3661 18.5873 22.9716V24.8766Z" fill="#02AB64"/>
</g>
</g>
</svg>
